  0
SECTION
  2
HEADER
  9
$ACADVER
  1
AC1027
  9
$ACADMAINTVER
 70
105
  9
$DWGCODEPAGE
  3
ANSI_1252
  9
$LASTSAVEDBY
  1
ezdxf
  9
$REQUIREDVERSIONS
160
0
  9
$INSBASE
 10
0.0
 20
0.0
 30
0.0
  9
$EXTMIN
 10
1e+20
 20
1e+20
 30
1e+20
  9
$EXTMAX
 10
-1e+20
 20
-1e+20
 30
-1e+20
  9
$LIMMIN
 10
0.0
 20
0.0
  9
$LIMMAX
 10
420.0
 20
297.0
  9
$ORTHOMODE
 70
0
  9
$REGENMODE
 70
1
  9
$FILLMODE
 70
1
  9
$QTEXTMODE
 70
0
  9
$MIRRTEXT
 70
1
  9
$LTSCALE
 40
1.0
  9
$ATTMODE
 70
1
  9
$TEXTSIZE
 40
2.5
  9
$TRACEWID
 40
1.0
  9
$TEXTSTYLE
  7
Standard
  9
$CLAYER
  8
0
  9
$CELTYPE
  6
ByLayer
  9
$CECOLOR
 62
256
  9
$CELTSCALE
 40
1.0
  9
$DISPSILH
 70
0
  9
$DIMSCALE
 40
1.0
  9
$DIMASZ
 40
2.5
  9
$DIMEXO
 40
0.625
  9
$DIMDLI
 40
3.75
  9
$DIMRND
 40
0.0
  9
$DIMDLE
 40
0.0
  9
$DIMEXE
 40
1.25
  9
$DIMTP
 40
0.0
  9
$DIMTM
 40
0.0
  9
$DIMTXT
 40
2.5
  9
$DIMCEN
 40
2.5
  9
$DIMTSZ
 40
0.0
  9
$DIMTOL
 70
0
  9
$DIMLIM
 70
0
  9
$DIMTIH
 70
0
  9
$DIMTOH
 70
0
  9
$DIMSE1
 70
0
  9
$DIMSE2
 70
0
  9
$DIMTAD
 70
1
  9
$DIMZIN
 70
8
  9
$DIMBLK
  1

  9
$DIMASO
 70
1
  9
$DIMSHO
 70
1
  9
$DIMPOST
  1

  9
$DIMAPOST
  1

  9
$DIMALT
 70
0
  9
$DIMALTD
 70
3
  9
$DIMALTF
 40
0.03937007874
  9
$DIMLFAC
 40
1.0
  9
$DIMTOFL
 70
1
  9
$DIMTVP
 40
0.0
  9
$DIMTIX
 70
0
  9
$DIMSOXD
 70
0
  9
$DIMSAH
 70
0
  9
$DIMBLK1
  1

  9
$DIMBLK2
  1

  9
$DIMSTYLE
  2
ISO-25
  9
$DIMCLRD
 70
0
  9
$DIMCLRE
 70
0
  9
$DIMCLRT
 70
0
  9
$DIMTFAC
 40
1.0
  9
$DIMGAP
 40
0.625
  9
$DIMJUST
 70
0
  9
$DIMSD1
 70
0
  9
$DIMSD2
 70
0
  9
$DIMTOLJ
 70
0
  9
$DIMTZIN
 70
8
  9
$DIMALTZ
 70
0
  9
$DIMALTTZ
 70
0
  9
$DIMUPT
 70
0
  9
$DIMDEC
 70
2
  9
$DIMTDEC
 70
2
  9
$DIMALTU
 70
2
  9
$DIMALTTD
 70
3
  9
$DIMTXSTY
  7
Standard
  9
$DIMAUNIT
 70
0
  9
$DIMADEC
 70
0
  9
$DIMALTRND
 40
0.0
  9
$DIMAZIN
 70
0
  9
$DIMDSEP
 70
44
  9
$DIMATFIT
 70
3
  9
$DIMFRAC
 70
0
  9
$DIMLDRBLK
  1

  9
$DIMLUNIT
 70
2
  9
$DIMLWD
 70
-2
  9
$DIMLWE
 70
-2
  9
$DIMTMOVE
 70
0
  9
$DIMFXL
 40
1.0
  9
$DIMFXLON
 70
0
  9
$DIMJOGANG
 40
0.785398163397
  9
$DIMTFILL
 70
0
  9
$DIMTFILLCLR
 70
0
  9
$DIMARCSYM
 70
0
  9
$DIMLTYPE
  6

  9
$DIMLTEX1
  6

  9
$DIMLTEX2
  6

  9
$DIMTXTDIRECTION
 70
0
  9
$LUNITS
 70
2
  9
$LUPREC
 70
4
  9
$SKETCHINC
 40
1.0
  9
$FILLETRAD
 40
10.0
  9
$AUNITS
 70
0
  9
$AUPREC
 70
2
  9
$MENU
  1
.
  9
$ELEVATION
 40
0.0
  9
$PELEVATION
 40
0.0
  9
$THICKNESS
 40
0.0
  9
$LIMCHECK
 70
0
  9
$CHAMFERA
 40
0.0
  9
$CHAMFERB
 40
0.0
  9
$CHAMFERC
 40
0.0
  9
$CHAMFERD
 40
0.0
  9
$SKPOLY
 70
0
  9
$TDCREATE
 40
2460954.3286805553
  9
$TDUCREATE
 40
2458532.153996898
  9
$TDUPDATE
 40
2460954.3286805553
  9
$TDUUPDATE
 40
2458532.1544311
  9
$TDINDWG
 40
0.0
  9
$TDUSRTIMER
 40
0.0
  9
$USRTIMER
 70
1
  9
$ANGBASE
 50
0.0
  9
$ANGDIR
 70
0
  9
$PDMODE
 70
0
  9
$PDSIZE
 40
0.0
  9
$PLINEWID
 40
0.0
  9
$SPLFRAME
 70
0
  9
$SPLINETYPE
 70
6
  9
$SPLINESEGS
 70
8
  9
$HANDSEED
  5
449
  9
$SURFTAB1
 70
6
  9
$SURFTAB2
 70
6
  9
$SURFTYPE
 70
6
  9
$SURFU
 70
6
  9
$SURFV
 70
6
  9
$UCSBASE
  2

  9
$UCSNAME
  2

  9
$UCSORG
 10
0.0
 20
0.0
 30
0.0
  9
$UCSXDIR
 10
1.0
 20
0.0
 30
0.0
  9
$UCSYDIR
 10
0.0
 20
1.0
 30
0.0
  9
$UCSORTHOREF
  2

  9
$UCSORTHOVIEW
 70
0
  9
$UCSORGTOP
 10
0.0
 20
0.0
 30
0.0
  9
$UCSORGBOTTOM
 10
0.0
 20
0.0
 30
0.0
  9
$UCSORGLEFT
 10
0.0
 20
0.0
 30
0.0
  9
$UCSORGRIGHT
 10
0.0
 20
0.0
 30
0.0
  9
$UCSORGFRONT
 10
0.0
 20
0.0
 30
0.0
  9
$UCSORGBACK
 10
0.0
 20
0.0
 30
0.0
  9
$PUCSBASE
  2

  9
$PUCSNAME
  2

  9
$PUCSORG
 10
0.0
 20
0.0
 30
0.0
  9
$PUCSXDIR
 10
1.0
 20
0.0
 30
0.0
  9
$PUCSYDIR
 10
0.0
 20
1.0
 30
0.0
  9
$PUCSORTHOREF
  2

  9
$PUCSORTHOVIEW
 70
0
  9
$PUCSORGTOP
 10
0.0
 20
0.0
 30
0.0
  9
$PUCSORGBOTTOM
 10
0.0
 20
0.0
 30
0.0
  9
$PUCSORGLEFT
 10
0.0
 20
0.0
 30
0.0
  9
$PUCSORGRIGHT
 10
0.0
 20
0.0
 30
0.0
  9
$PUCSORGFRONT
 10
0.0
 20
0.0
 30
0.0
  9
$PUCSORGBACK
 10
0.0
 20
0.0
 30
0.0
  9
$USERI1
 70
0
  9
$USERI2
 70
0
  9
$USERI3
 70
0
  9
$USERI4
 70
0
  9
$USERI5
 70
0
  9
$USERR1
 40
0.0
  9
$USERR2
 40
0.0
  9
$USERR3
 40
0.0
  9
$USERR4
 40
0.0
  9
$USERR5
 40
0.0
  9
$WORLDVIEW
 70
1
  9
$SHADEDGE
 70
3
  9
$SHADEDIF
 70
70
  9
$TILEMODE
 70
1
  9
$MAXACTVP
 70
64
  9
$PINSBASE
 10
0.0
 20
0.0
 30
0.0
  9
$PLIMCHECK
 70
0
  9
$PEXTMIN
 10
1e+20
 20
1e+20
 30
1e+20
  9
$PEXTMAX
 10
-1e+20
 20
-1e+20
 30
-1e+20
  9
$PLIMMIN
 10
0.0
 20
0.0
  9
$PLIMMAX
 10
420.0
 20
297.0
  9
$UNITMODE
 70
0
  9
$VISRETAIN
 70
1
  9
$PLINEGEN
 70
0
  9
$PSLTSCALE
 70
1
  9
$TREEDEPTH
 70
3020
  9
$CMLSTYLE
  2
Standard
  9
$CMLJUST
 70
0
  9
$CMLSCALE
 40
20.0
  9
$PROXYGRAPHICS
 70
1
  9
$MEASUREMENT
 70
1
  9
$CELWEIGHT
370
-1
  9
$ENDCAPS
280
0
  9
$JOINSTYLE
280
0
  9
$LWDISPLAY
290
0
  9
$INSUNITS
 70
6
  9
$HYPERLINKBASE
  1

  9
$STYLESHEET
  1

  9
$XEDIT
290
1
  9
$CEPSNTYPE
380
0
  9
$PSTYLEMODE
290
1
  9
$FINGERPRINTGUID
  2
{F32B7839-9F50-4F5F-B37E-89D2D3113F3C}
  9
$VERSIONGUID
  2
{C43DE128-2FA2-4D93-9BE9-93E7294EAECE}
  9
$EXTNAMES
290
1
  9
$PSVPSCALE
 40
0.0
  9
$OLESTARTUP
290
0
  9
$SORTENTS
280
127
  9
$INDEXCTL
280
0
  9
$HIDETEXT
280
1
  9
$XCLIPFRAME
280
1
  9
$HALOGAP
280
0
  9
$OBSCOLOR
 70
257
  9
$OBSLTYPE
280
0
  9
$INTERSECTIONDISPLAY
280
0
  9
$INTERSECTIONCOLOR
 70
257
  9
$DIMASSOC
280
2
  9
$PROJECTNAME
  1

  9
$CAMERADISPLAY
290
0
  9
$LENSLENGTH
 40
50.0
  9
$CAMERAHEIGHT
 40
0.0
  9
$STEPSPERSEC
 40
24.0
  9
$STEPSIZE
 40
100.0
  9
$3DDWFPREC
 40
2.0
  9
$PSOLWIDTH
 40
0.005
  9
$PSOLHEIGHT
 40
0.08
  9
$LOFTANG1
 40
1.570796326795
  9
$LOFTANG2
 40
1.570796326795
  9
$LOFTMAG1
 40
0.0
  9
$LOFTMAG2
 40
0.0
  9
$LOFTPARAM
 70
7
  9
$LOFTNORMALS
280
1
  9
$LATITUDE
 40
37.795
  9
$LONGITUDE
 40
-122.394
  9
$NORTHDIRECTION
 40
0.0
  9
$TIMEZONE
 70
-8000
  9
$LIGHTGLYPHDISPLAY
280
1
  9
$TILEMODELIGHTSYNCH
280
1
  9
$CMATERIAL
347
20
  9
$SOLIDHIST
280
0
  9
$SHOWHIST
280
1
  9
$DWFFRAME
280
2
  9
$DGNFRAME
280
2
  9
$REALWORLDSCALE
290
1
  9
$INTERFERECOLOR
 62
256
  9
$CSHADOW
280
0
  9
$SHADOWPLANELOCATION
 40
0.0
  0
ENDSEC
  0
SECTION
  2
CLASSES
  0
CLASS
  1
ACDBDICTIONARYWDFLT
  2
AcDbDictionaryWithDefault
  3
ObjectDBX Classes
 90
0
 91
0
280
0
281
0
  0
CLASS
  1
SUN
  2
AcDbSun
  3
SCENEOE
 90
1153
 91
0
280
0
281
0
  0
CLASS
  1
VISUALSTYLE
  2
AcDbVisualStyle
  3
ObjectDBX Classes
 90
4095
 91
0
280
0
281
0
  0
CLASS
  1
MATERIAL
  2
AcDbMaterial
  3
ObjectDBX Classes
 90
1153
 91
0
280
0
281
0
  0
CLASS
  1
SCALE
  2
AcDbScale
  3
ObjectDBX Classes
 90
1153
 91
0
280
0
281
0
  0
CLASS
  1
TABLESTYLE
  2
AcDbTableStyle
  3
ObjectDBX Classes
 90
4095
 91
0
280
0
281
0
  0
CLASS
  1
MLEADERSTYLE
  2
AcDbMLeaderStyle
  3
ACDB_MLEADERSTYLE_CLASS
 90
4095
 91
0
280
0
281
0
  0
CLASS
  1
DICTIONARYVAR
  2
AcDbDictionaryVar
  3
ObjectDBX Classes
 90
0
 91
0
280
0
281
0
  0
CLASS
  1
CELLSTYLEMAP
  2
AcDbCellStyleMap
  3
ObjectDBX Classes
 90
1152
 91
0
280
0
281
0
  0
CLASS
  1
MENTALRAYRENDERSETTINGS
  2
AcDbMentalRayRenderSettings
  3
SCENEOE
 90
1024
 91
0
280
0
281
0
  0
CLASS
  1
ACDBDETAILVIEWSTYLE
  2
AcDbDetailViewStyle
  3
ObjectDBX Classes
 90
1025
 91
0
280
0
281
0
  0
CLASS
  1
ACDBSECTIONVIEWSTYLE
  2
AcDbSectionViewStyle
  3
ObjectDBX Classes
 90
1025
 91
0
280
0
281
0
  0
CLASS
  1
RASTERVARIABLES
  2
AcDbRasterVariables
  3
ISM
 90
0
 91
0
280
0
281
0
  0
CLASS
  1
ACDBPLACEHOLDER
  2
AcDbPlaceHolder
  3
ObjectDBX Classes
 90
0
 91
0
280
0
281
0
  0
CLASS
  1
LAYOUT
  2
AcDbLayout
  3
ObjectDBX Classes
 90
0
 91
0
280
0
281
0
  0
ENDSEC
  0
SECTION
  2
TABLES
  0
TABLE
  2
VPORT
  5
8
330
0
100
AcDbSymbolTable
 70
1
  0
VPORT
  5
23
330
8
100
AcDbSymbolTableRecord
100
AcDbViewportTableRecord
  2
*Active
 70
0
 10
0.0
 20
0.0
 11
1.0
 21
1.0
 12
0.0
 22
0.0
 13
0.0
 23
0.0
 14
0.5
 24
0.5
 15
0.5
 25
0.5
 16
0.0
 26
0.0
 36
1.0
 17
0.0
 27
0.0
 37
0.0
 40
1000.0
 41
1.34
 42
50.0
 43
0.0
 44
0.0
 50
0.0
 51
0.0
 71
0
 72
1000
 73
1
 74
3
 75
0
 76
0
 77
0
 78
0
281
0
 65
0
146
0.0
  0
ENDTAB
  0
TABLE
  2
LTYPE
  5
2
330
0
100
AcDbSymbolTable
 70
3
  0
LTYPE
  5
24
330
2
100
AcDbSymbolTableRecord
100
AcDbLinetypeTableRecord
  2
ByBlock
 70
0
  3

 72
65
 73
0
 40
0.0
  0
LTYPE
  5
25
330
2
100
AcDbSymbolTableRecord
100
AcDbLinetypeTableRecord
  2
ByLayer
 70
0
  3

 72
65
 73
0
 40
0.0
  0
LTYPE
  5
26
330
2
100
AcDbSymbolTableRecord
100
AcDbLinetypeTableRecord
  2
Continuous
 70
0
  3

 72
65
 73
0
 40
0.0
  0
ENDTAB
  0
TABLE
  2
LAYER
  5
1
330
0
100
AcDbSymbolTable
 70
2
  0
LAYER
  5
27
330
1
100
AcDbSymbolTableRecord
100
AcDbLayerTableRecord
  2
0
 70
0
 62
7
  6
Continuous
370
-3
390
13
347
21
  0
LAYER
  5
28
330
1
100
AcDbSymbolTableRecord
100
AcDbLayerTableRecord
  2
Defpoints
 70
0
 62
7
  6
Continuous
290
0
370
-3
390
13
347
21
  0
ENDTAB
  0
TABLE
  2
STYLE
  5
5
330
0
100
AcDbSymbolTable
 70
1
  0
STYLE
  5
29
330
5
100
AcDbSymbolTableRecord
100
AcDbTextStyleTableRecord
  2
Standard
 70
0
 40
0.0
 41
1.0
 50
0.0
 71
0
 42
2.5
  3
txt
  4

  0
ENDTAB
  0
TABLE
  2
VIEW
  5
7
330
0
100
AcDbSymbolTable
 70
0
  0
ENDTAB
  0
TABLE
  2
UCS
  5
6
330
0
100
AcDbSymbolTable
 70
0
  0
ENDTAB
  0
TABLE
  2
APPID
  5
3
330
0
100
AcDbSymbolTable
 70
3
  0
APPID
  5
2A
330
3
100
AcDbSymbolTableRecord
100
AcDbRegAppTableRecord
  2
ACAD
 70
0
  0
APPID
  5
446
330
3
100
AcDbSymbolTableRecord
100
AcDbRegAppTableRecord
  2
HATCHBACKGROUNDCOLOR
 70
0
  0
APPID
  5
447
330
3
100
AcDbSymbolTableRecord
100
AcDbRegAppTableRecord
  2
EZDXF
 70
0
  0
ENDTAB
  0
TABLE
  2
DIMSTYLE
  5
4
330
0
100
AcDbSymbolTable
 70
1
100
AcDbDimStyleTable
  0
DIMSTYLE
105
2B
330
4
100
AcDbSymbolTableRecord
100
AcDbDimStyleTableRecord
  2
Standard
 70
0
 40
1.0
 41
2.5
 42
0.625
 43
3.75
 44
1.25
 45
0.0
 46
0.0
 47
0.0
 48
0.0
 49
2.5
140
2.5
141
2.5
142
0.0
143
0.03937007874
144
1.0
145
0.0
146
1.0
147
0.625
148
0.0
 69
0
 70
0
 71
0
 72
0
 73
0
 74
0
 75
0
 76
0
 77
1
 78
8
 79
3
170
0
171
3
172
1
173
0
174
0
175
0
176
0
177
0
178
0
179
2
271
2
272
2
273
2
274
3
275
0
276
0
277
2
278
44
279
0
280
0
281
0
282
0
283
0
284
8
285
0
286
0
288
0
289
3
290
0
371
-2
372
-2
  0
ENDTAB
  0
TABLE
  2
BLOCK_RECORD
  5
9
330
0
100
AcDbSymbolTable
 70
2
  0
BLOCK_RECORD
  5
17
330
9
100
AcDbSymbolTableRecord
100
AcDbBlockTableRecord
  2
*Model_Space
340
1A
 70
0
280
1
281
0
  0
BLOCK_RECORD
  5
1B
330
9
100
AcDbSymbolTableRecord
100
AcDbBlockTableRecord
  2
*Paper_Space
340
1E
 70
0
280
1
281
0
  0
ENDTAB
  0
ENDSEC
  0
SECTION
  2
BLOCKS
  0
BLOCK
  5
18
330
17
100
AcDbEntity
  8
0
100
AcDbBlockBegin
  2
*Model_Space
 70
0
 10
0.0
 20
0.0
 30
0.0
  3
*Model_Space
  1

  0
ENDBLK
  5
19
330
17
100
AcDbEntity
  8
0
100
AcDbBlockEnd
  0
BLOCK
  5
1C
330
1B
100
AcDbEntity
  8
0
100
AcDbBlockBegin
  2
*Paper_Space
 70
0
 10
0.0
 20
0.0
 30
0.0
  3
*Paper_Space
  1

  0
ENDBLK
  5
1D
330
1B
100
AcDbEntity
  8
0
100
AcDbBlockEnd
  0
ENDSEC
  0
SECTION
  2
ENTITIES
  0
LINE
  5
2F
330
17
100
AcDbEntity
  8
0
100
AcDbLine
 10
239.80508422851562
 20
151.24266052246094
 30
0.0
 11
239.85641479492188
 21
150.8819122314453
 31
0.0
  0
LINE
  5
30
330
17
100
AcDbEntity
  8
0
100
AcDbLine
 10
239.85641479492188
 20
150.8819122314453
 30
0.0
 11
240.15377807617188
 21
149.27513122558594
 31
0.0
  0
LINE
  5
31
330
17
100
AcDbEntity
  8
0
100
AcDbLine
 10
240.15377807617188
 20
149.27513122558594
 30
0.0
 11
240.25973510742188
 21
148.83392333984375
 31
0.0
  0
LINE
  5
32
330
17
100
AcDbEntity
  8
0
100
AcDbLine
 10
240.25973510742188
 20
148.83392333984375
 30
0.0
 11
240.46322631835938
 21
147.27955627441406
 31
0.0
  0
LINE
  5
33
330
17
100
AcDbEntity
  8
0
100
AcDbLine
 10
240.46322631835938
 20
147.27955627441406
 30
0.0
 11
240.5216064453125
 21
147.07777404785156
 31
0.0
  0
LINE
  5
34
330
17
100
AcDbEntity
  8
0
100
AcDbLine
 10
240.5216064453125
 20
147.07777404785156
 30
0.0
 11
240.7753143310547
 21
145.31167602539062
 31
0.0
  0
LINE
  5
35
330
17
100
AcDbEntity
  8
0
100
AcDbLine
 10
240.7753143310547
 20
145.31167602539062
 30
0.0
 11
240.9642333984375
 21
144.75730895996094
 31
0.0
  0
LINE
  5
36
330
17
100
AcDbEntity
  8
0
100
AcDbLine
 10
240.9642333984375
 20
144.75730895996094
 30
0.0
 11
241.1982421875
 21
143.3158721923828
 31
0.0
  0
LINE
  5
37
330
17
100
AcDbEntity
  8
0
100
AcDbLine
 10
241.1982421875
 20
143.3158721923828
 30
0.0
 11
241.8101806640625
 21
142.4611358642578
 31
0.0
  0
LINE
  5
38
330
17
100
AcDbEntity
  8
0
100
AcDbLine
 10
241.8101806640625
 20
142.4611358642578
 30
0.0
 11
241.87002563476562
 21
142.18064880371094
 31
0.0
  0
LINE
  5
39
330
17
100
AcDbEntity
  8
0
100
AcDbLine
 10
241.87002563476562
 20
142.18064880371094
 30
0.0
 11
241.94200134277344
 21
141.9085693359375
 31
0.0
  0
LINE
  5
3A
330
17
100
AcDbEntity
  8
0
100
AcDbLine
 10
241.94200134277344
 20
141.9085693359375
 30
0.0
 11
242.1944122314453
 21
141.54466247558594
 31
0.0
  0
LINE
  5
3B
330
17
100
AcDbEntity
  8
0
100
AcDbLine
 10
242.1944122314453
 20
141.54466247558594
 30
0.0
 11
242.52395629882812
 21
140.58013916015625
 31
0.0
  0
LINE
  5
3C
330
17
100
AcDbEntity
  8
0
100
AcDbLine
 10
242.52395629882812
 20
140.58013916015625
 30
0.0
 11
242.67041015625
 21
139.95553588867188
 31
0.0
  0
LINE
  5
3D
330
17
100
AcDbEntity
  8
0
100
AcDbLine
 10
242.67041015625
 20
139.95553588867188
 30
0.0
 11
243.10641479492188
 21
138.6096649169922
 31
0.0
  0
LINE
  5
3E
330
17
100
AcDbEntity
  8
0
100
AcDbLine
 10
243.10641479492188
 20
138.6096649169922
 30
0.0
 11
243.1827392578125
 21
137.9447784423828
 31
0.0
  0
LINE
  5
3F
330
17
100
AcDbEntity
  8
0
100
AcDbLine
 10
243.1827392578125
 20
137.9447784423828
 30
0.0
 11
243.2279510498047
 21
137.84323120117188
 31
0.0
  0
LINE
  5
40
330
17
100
AcDbEntity
  8
0
100
AcDbLine
 10
243.2279510498047
 20
137.84323120117188
 30
0.0
 11
243.34454345703125
 21
135.99208068847656
 31
0.0
  0
LINE
  5
41
330
17
100
AcDbEntity
  8
0
100
AcDbLine
 10
243.34454345703125
 20
135.99208068847656
 30
0.0
 11
243.5104522705078
 21
135.5628662109375
 31
0.0
  0
LINE
  5
42
330
17
100
AcDbEntity
  8
0
100
AcDbLine
 10
243.5104522705078
 20
135.5628662109375
 30
0.0
 11
243.630859375
 21
134.0532989501953
 31
0.0
  0
LINE
  5
43
330
17
100
AcDbEntity
  8
0
100
AcDbLine
 10
243.630859375
 20
134.0532989501953
 30
0.0
 11
244.232177734375
 21
133.2736053466797
 31
0.0
  0
LINE
  5
44
330
17
100
AcDbEntity
  8
0
100
AcDbLine
 10
244.232177734375
 20
133.2736053466797
 30
0.0
 11
244.2355194091797
 21
133.2482452392578
 31
0.0
  0
LINE
  5
45
330
17
100
AcDbEntity
  8
0
100
AcDbLine
 10
244.2355194091797
 20
133.2482452392578
 30
0.0
 11
244.4413299560547
 21
132.24781799316406
 31
0.0
  0
LINE
  5
46
330
17
100
AcDbEntity
  8
0
100
AcDbLine
 10
244.4413299560547
 20
132.24781799316406
 30
0.0
 11
245.08535766601562
 21
130.97994995117188
 31
0.0
  0
LINE
  5
47
330
17
100
AcDbEntity
  8
0
100
AcDbLine
 10
245.08535766601562
 20
130.97994995117188
 30
0.0
 11
245.87103271484375
 21
128.94052124023438
 31
0.0
  0
LINE
  5
48
330
17
100
AcDbEntity
  8
0
100
AcDbLine
 10
245.87103271484375
 20
128.94052124023438
 30
0.0
 11
246.02310180664062
 21
128.4136199951172
 31
0.0
  0
LINE
  5
49
330
17
100
AcDbEntity
  8
0
100
AcDbLine
 10
246.02310180664062
 20
128.4136199951172
 30
0.0
 11
246.06114196777344
 21
128.3060760498047
 31
0.0
  0
LINE
  5
4A
330
17
100
AcDbEntity
  8
0
100
AcDbLine
 10
246.06114196777344
 20
128.3060760498047
 30
0.0
 11
246.5609588623047
 21
126.69947052001953
 31
0.0
  0
LINE
  5
4B
330
17
100
AcDbEntity
  8
0
100
AcDbLine
 10
246.5609588623047
 20
126.69947052001953
 30
0.0
 11
246.862060546875
 21
125.89547729492188
 31
0.0
  0
LINE
  5
4C
330
17
100
AcDbEntity
  8
0
100
AcDbLine
 10
246.862060546875
 20
125.89547729492188
 30
0.0
 11
246.91851806640625
 21
125.55848693847656
 31
0.0
  0
LINE
  5
4D
330
17
100
AcDbEntity
  8
0
100
AcDbLine
 10
246.91851806640625
 20
125.55848693847656
 30
0.0
 11
247.058837890625
 21
124.94952392578125
 31
0.0
  0
LINE
  5
4E
330
17
100
AcDbEntity
  8
0
100
AcDbLine
 10
247.058837890625
 20
124.94952392578125
 30
0.0
 11
247.75062561035156
 21
123.10130310058594
 31
0.0
  0
LINE
  5
4F
330
17
100
AcDbEntity
  8
0
100
AcDbLine
 10
247.75062561035156
 20
123.10130310058594
 30
0.0
 11
248.74911499023438
 21
121.11041259765625
 31
0.0
  0
LINE
  5
50
330
17
100
AcDbEntity
  8
0
100
AcDbLine
 10
248.74911499023438
 20
121.11041259765625
 30
0.0
 11
248.84255981445312
 21
120.8062515258789
 31
0.0
  0
LINE
  5
51
330
17
100
AcDbEntity
  8
0
100
AcDbLine
 10
248.84255981445312
 20
120.8062515258789
 30
0.0
 11
248.87811279296875
 21
120.71180725097656
 31
0.0
  0
LINE
  5
52
330
17
100
AcDbEntity
  8
0
100
AcDbLine
 10
248.87811279296875
 20
120.71180725097656
 30
0.0
 11
249.28904724121094
 21
118.97126007080078
 31
0.0
  0
LINE
  5
53
330
17
100
AcDbEntity
  8
0
100
AcDbLine
 10
249.28904724121094
 20
118.97126007080078
 30
0.0
 11
249.5465545654297
 21
118.13097381591797
 31
0.0
  0
LINE
  5
54
330
17
100
AcDbEntity
  8
0
100
AcDbLine
 10
249.5465545654297
 20
118.13097381591797
 30
0.0
 11
249.531005859375
 21
117.39196014404297
 31
0.0
  0
LINE
  5
55
330
17
100
AcDbEntity
  8
0
100
AcDbLine
 10
249.531005859375
 20
117.39196014404297
 30
0.0
 11
249.6685791015625
 21
116.48103332519531
 31
0.0
  0
LINE
  5
56
330
17
100
AcDbEntity
  8
0
100
AcDbLine
 10
249.6685791015625
 20
116.48103332519531
 30
0.0
 11
250.4012451171875
 21
115.54649353027344
 31
0.0
  0
LINE
  5
57
330
17
100
AcDbEntity
  8
0
100
AcDbLine
 10
250.4012451171875
 20
115.54649353027344
 30
0.0
 11
250.61219787597656
 21
115.1219482421875
 31
0.0
  0
LINE
  5
58
330
17
100
AcDbEntity
  8
0
100
AcDbLine
 10
250.61219787597656
 20
115.1219482421875
 30
0.0
 11
251.62301635742188
 21
113.34693908691406
 31
0.0
  0
LINE
  5
59
330
17
100
AcDbEntity
  8
0
100
AcDbLine
 10
251.62301635742188
 20
113.34693908691406
 30
0.0
 11
251.63571166992188
 21
113.23571014404297
 31
0.0
  0
LINE
  5
5A
330
17
100
AcDbEntity
  8
0
100
AcDbLine
 10
251.63571166992188
 20
113.23571014404297
 30
0.0
 11
251.64996337890625
 21
113.21326446533203
 31
0.0
  0
LINE
  5
5B
330
17
100
AcDbEntity
  8
0
100
AcDbLine
 10
251.64996337890625
 20
113.21326446533203
 30
0.0
 11
251.72109985351562
 21
113.0640869140625
 31
0.0
  0
LINE
  5
5C
330
17
100
AcDbEntity
  8
0
100
AcDbLine
 10
251.72109985351562
 20
113.0640869140625
 30
0.0
 11
252.02398681640625
 21
111.91969299316406
 31
0.0
  0
LINE
  5
5D
330
17
100
AcDbEntity
  8
0
100
AcDbLine
 10
252.02398681640625
 20
111.91969299316406
 30
0.0
 11
252.19790649414062
 21
111.53121948242188
 31
0.0
  0
LINE
  5
5E
330
17
100
AcDbEntity
  8
0
100
AcDbLine
 10
252.19790649414062
 20
111.53121948242188
 30
0.0
 11
252.45838928222656
 21
110.43983459472656
 31
0.0
  0
LINE
  5
5F
330
17
100
AcDbEntity
  8
0
100
AcDbLine
 10
252.45838928222656
 20
110.43983459472656
 30
0.0
 11
252.52586364746094
 21
109.79902648925781
 31
0.0
  0
LINE
  5
60
330
17
100
AcDbEntity
  8
0
100
AcDbLine
 10
252.52586364746094
 20
109.79902648925781
 30
0.0
 11
252.5945281982422
 21
109.32560729980469
 31
0.0
  0
LINE
  5
61
330
17
100
AcDbEntity
  8
0
100
AcDbLine
 10
252.5945281982422
 20
109.32560729980469
 30
0.0
 11
252.9036102294922
 21
108.14170837402344
 31
0.0
  0
LINE
  5
62
330
17
100
AcDbEntity
  8
0
100
AcDbLine
 10
252.9036102294922
 20
108.14170837402344
 30
0.0
 11
253.81790161132812
 21
106.4410400390625
 31
0.0
  0
LINE
  5
63
330
17
100
AcDbEntity
  8
0
100
AcDbLine
 10
253.81790161132812
 20
106.4410400390625
 30
0.0
 11
253.880126953125
 21
105.65560913085938
 31
0.0
  0
LINE
  5
64
330
17
100
AcDbEntity
  8
0
100
AcDbLine
 10
253.880126953125
 20
105.65560913085938
 30
0.0
 11
253.96307373046875
 21
105.28902435302734
 31
0.0
  0
LINE
  5
65
330
17
100
AcDbEntity
  8
0
100
AcDbLine
 10
253.96307373046875
 20
105.28902435302734
 30
0.0
 11
254.4735565185547
 21
103.84624481201172
 31
0.0
  0
LINE
  5
66
330
17
100
AcDbEntity
  8
0
100
AcDbLine
 10
254.4735565185547
 20
103.84624481201172
 30
0.0
 11
254.53500366210938
 21
103.55258178710938
 31
0.0
  0
LINE
  5
67
330
17
100
AcDbEntity
  8
0
100
AcDbLine
 10
254.53500366210938
 20
103.55258178710938
 30
0.0
 11
254.86996459960938
 21
102.71194458007812
 31
0.0
  0
LINE
  5
68
330
17
100
AcDbEntity
  8
0
100
AcDbLine
 10
254.86996459960938
 20
102.71194458007812
 30
0.0
 11
254.95993041992188
 21
102.09817504882812
 31
0.0
  0
LINE
  5
69
330
17
100
AcDbEntity
  8
0
100
AcDbLine
 10
254.95993041992188
 20
102.09817504882812
 30
0.0
 11
255.04693603515625
 21
101.1586685180664
 31
0.0
  0
LINE
  5
6A
330
17
100
AcDbEntity
  8
0
100
AcDbLine
 10
255.04693603515625
 20
101.1586685180664
 30
0.0
 11
255.13177490234375
 21
100.51142883300781
 31
0.0
  0
LINE
  5
6B
330
17
100
AcDbEntity
  8
0
100
AcDbLine
 10
255.13177490234375
 20
100.51142883300781
 30
0.0
 11
255.14060974121094
 21
100.42440795898438
 31
0.0
  0
LINE
  5
6C
330
17
100
AcDbEntity
  8
0
100
AcDbLine
 10
255.14060974121094
 20
100.42440795898438
 30
0.0
 11
255.2150421142578
 21
99.11341857910156
 31
0.0
  0
LINE
  5
6D
330
17
100
AcDbEntity
  8
0
100
AcDbLine
 10
255.2150421142578
 20
99.11341857910156
 30
0.0
 11
255.17984008789062
 21
98.13636779785156
 31
0.0
  0
LINE
  5
6E
330
17
100
AcDbEntity
  8
0
100
AcDbLine
 10
255.17984008789062
 20
98.13636779785156
 30
0.0
 11
255.53558349609375
 21
97.80023956298828
 31
0.0
  0
LINE
  5
6F
330
17
100
AcDbEntity
  8
0
100
AcDbLine
 10
255.53558349609375
 20
97.80023956298828
 30
0.0
 11
256.2509765625
 21
96.31585693359375
 31
0.0
  0
LINE
  5
70
330
17
100
AcDbEntity
  8
0
100
AcDbLine
 10
256.2509765625
 20
96.31585693359375
 30
0.0
 11
256.2627868652344
 21
96.2895736694336
 31
0.0
  0
LINE
  5
71
330
17
100
AcDbEntity
  8
0
100
AcDbLine
 10
256.2627868652344
 20
96.2895736694336
 30
0.0
 11
256.393798828125
 21
95.0962142944336
 31
0.0
  0
LINE
  5
72
330
17
100
AcDbEntity
  8
0
100
AcDbLine
 10
256.393798828125
 20
95.0962142944336
 30
0.0
 11
256.49542236328125
 21
94.83732604980469
 31
0.0
  0
LINE
  5
73
330
17
100
AcDbEntity
  8
0
100
AcDbLine
 10
256.49542236328125
 20
94.83732604980469
 30
0.0
 11
256.59906005859375
 21
94.58822631835938
 31
0.0
  0
LINE
  5
74
330
17
100
AcDbEntity
  8
0
100
AcDbLine
 10
256.59906005859375
 20
94.58822631835938
 30
0.0
 11
256.8624572753906
 21
93.64842224121094
 31
0.0
  0
LINE
  5
75
330
17
100
AcDbEntity
  8
0
100
AcDbLine
 10
256.8624572753906
 20
93.64842224121094
 30
0.0
 11
256.85565185546875
 21
93.59857177734375
 31
0.0
  0
LINE
  5
76
330
17
100
AcDbEntity
  8
0
100
AcDbLine
 10
256.85565185546875
 20
93.59857177734375
 30
0.0
 11
256.89678955078125
 21
92.8739013671875
 31
0.0
  0
LINE
  5
77
330
17
100
AcDbEntity
  8
0
100
AcDbLine
 10
256.89678955078125
 20
92.8739013671875
 30
0.0
 11
257.47625732421875
 21
91.67405700683594
 31
0.0
  0
LINE
  5
78
330
17
100
AcDbEntity
  8
0
100
AcDbLine
 10
257.47625732421875
 20
91.67405700683594
 30
0.0
 11
257.67755126953125
 21
91.4713363647461
 31
0.0
  0
LINE
  5
79
330
17
100
AcDbEntity
  8
0
100
AcDbLine
 10
257.67755126953125
 20
91.4713363647461
 30
0.0
 11
258.36566162109375
 21
90.16268157958984
 31
0.0
  0
LINE
  5
7A
330
17
100
AcDbEntity
  8
0
100
AcDbLine
 10
258.36566162109375
 20
90.16268157958984
 30
0.0
 11
258.4042663574219
 21
89.99345397949219
 31
0.0
  0
LINE
  5
7B
330
17
100
AcDbEntity
  8
0
100
AcDbLine
 10
258.4042663574219
 20
89.99345397949219
 30
0.0
 11
258.42022705078125
 21
89.96238708496094
 31
0.0
  0
LINE
  5
7C
330
17
100
AcDbEntity
  8
0
100
AcDbLine
 10
258.42022705078125
 20
89.96238708496094
 30
0.0
 11
258.02752685546875
 21
89.14912414550781
 31
0.0
  0
LINE
  5
7D
330
17
100
AcDbEntity
  8
0
100
AcDbLine
 10
258.02752685546875
 20
89.14912414550781
 30
0.0
 11
258.95556640625
 21
88.30487060546875
 31
0.0
  0
LINE
  5
7E
330
17
100
AcDbEntity
  8
0
100
AcDbLine
 10
258.95556640625
 20
88.30487060546875
 30
0.0
 11
258.9864807128906
 21
88.01934814453125
 31
0.0
  0
LINE
  5
7F
330
17
100
AcDbEntity
  8
0
100
AcDbLine
 10
258.9864807128906
 20
88.01934814453125
 30
0.0
 11
259.35211181640625
 21
86.320556640625
 31
0.0
  0
LINE
  5
80
330
17
100
AcDbEntity
  8
0
100
AcDbLine
 10
259.35211181640625
 20
86.320556640625
 30
0.0
 11
259.70953369140625
 21
85.62744140625
 31
0.0
  0
LINE
  5
81
330
17
100
AcDbEntity
  8
0
100
AcDbLine
 10
259.70953369140625
 20
85.62744140625
 30
0.0
 11
259.96685791015625
 21
84.49868774414062
 31
0.0
  0
LINE
  5
82
330
17
100
AcDbEntity
  8
0
100
AcDbLine
 10
259.96685791015625
 20
84.49868774414062
 30
0.0
 11
260.46063232421875
 21
83.19119262695312
 31
0.0
  0
LINE
  5
83
330
17
100
AcDbEntity
  8
0
100
AcDbLine
 10
260.46063232421875
 20
83.19119262695312
 30
0.0
 11
260.486572265625
 21
83.0230712890625
 31
0.0
  0
LINE
  5
84
330
17
100
AcDbEntity
  8
0
100
AcDbLine
 10
260.486572265625
 20
83.0230712890625
 30
0.0
 11
260.49127197265625
 21
82.95022583007812
 31
0.0
  0
LINE
  5
85
330
17
100
AcDbEntity
  8
0
100
AcDbLine
 10
260.49127197265625
 20
82.95022583007812
 30
0.0
 11
260.49517822265625
 21
82.82908630371094
 31
0.0
  0
LINE
  5
86
330
17
100
AcDbEntity
  8
0
100
AcDbLine
 10
260.49517822265625
 20
82.82908630371094
 30
0.0
 11
260.59112548828125
 21
81.38592529296875
 31
0.0
  0
LINE
  5
87
330
17
100
AcDbEntity
  8
0
100
AcDbLine
 10
260.59112548828125
 20
81.38592529296875
 30
0.0
 11
260.59307861328125
 21
80.40831756591797
 31
0.0
  0
LINE
  5
88
330
17
100
AcDbEntity
  8
0
100
AcDbLine
 10
260.59307861328125
 20
80.40831756591797
 30
0.0
 11
260.466796875
 21
78.65084838867188
 31
0.0
  0
LINE
  5
89
330
17
100
AcDbEntity
  8
0
100
AcDbLine
 10
260.466796875
 20
78.65084838867188
 30
0.0
 11
260.4620666503906
 21
78.63114166259766
 31
0.0
  0
LINE
  5
8A
330
17
100
AcDbEntity
  8
0
100
AcDbLine
 10
260.4620666503906
 20
78.63114166259766
 30
0.0
 11
260.4679260253906
 21
78.61456298828125
 31
0.0
  0
LINE
  5
8B
330
17
100
AcDbEntity
  8
0
100
AcDbLine
 10
260.4679260253906
 20
78.61456298828125
 30
0.0
 11
260.46197509765625
 21
78.46976470947266
 31
0.0
  0
LINE
  5
8C
330
17
100
AcDbEntity
  8
0
100
AcDbLine
 10
260.46197509765625
 20
78.46976470947266
 30
0.0
 11
260.2763366699219
 21
76.71768951416016
 31
0.0
  0
LINE
  5
8D
330
17
100
AcDbEntity
  8
0
100
AcDbLine
 10
260.2763366699219
 20
76.71768951416016
 30
0.0
 11
260.2060852050781
 21
76.29497528076172
 31
0.0
  0
LINE
  5
8E
330
17
100
AcDbEntity
  8
0
100
AcDbLine
 10
260.2060852050781
 20
76.29497528076172
 30
0.0
 11
260.4078063964844
 21
75.59765625
 31
0.0
  0
LINE
  5
8F
330
17
100
AcDbEntity
  8
0
100
AcDbLine
 10
260.4078063964844
 20
75.59765625
 30
0.0
 11
260.4698486328125
 21
74.90765380859375
 31
0.0
  0
LINE
  5
90
330
17
100
AcDbEntity
  8
0
100
AcDbLine
 10
260.4698486328125
 20
74.90765380859375
 30
0.0
 11
260.5411682128906
 21
74.65272521972656
 31
0.0
  0
LINE
  5
91
330
17
100
AcDbEntity
  8
0
100
AcDbLine
 10
260.5411682128906
 20
74.65272521972656
 30
0.0
 11
260.41961669921875
 21
74.20382690429688
 31
0.0
  0
LINE
  5
92
330
17
100
AcDbEntity
  8
0
100
AcDbLine
 10
260.41961669921875
 20
74.20382690429688
 30
0.0
 11
260.5426025390625
 21
73.34782409667969
 31
0.0
  0
LINE
  5
93
330
17
100
AcDbEntity
  8
0
100
AcDbLine
 10
260.5426025390625
 20
73.34782409667969
 30
0.0
 11
260.874267578125
 21
72.51703643798828
 31
0.0
  0
LINE
  5
94
330
17
100
AcDbEntity
  8
0
100
AcDbLine
 10
260.874267578125
 20
72.51703643798828
 30
0.0
 11
260.989990234375
 21
71.99851989746094
 31
0.0
  0
LINE
  5
95
330
17
100
AcDbEntity
  8
0
100
AcDbLine
 10
260.989990234375
 20
71.99851989746094
 30
0.0
 11
261.14892578125
 21
70.92493438720703
 31
0.0
  0
LINE
  5
96
330
17
100
AcDbEntity
  8
0
100
AcDbLine
 10
261.14892578125
 20
70.92493438720703
 30
0.0
 11
261.26434326171875
 21
70.5236587524414
 31
0.0
  0
LINE
  5
97
330
17
100
AcDbEntity
  8
0
100
AcDbLine
 10
261.26434326171875
 20
70.5236587524414
 30
0.0
 11
261.3783264160156
 21
69.35627746582031
 31
0.0
  0
LINE
  5
98
330
17
100
AcDbEntity
  8
0
100
AcDbLine
 10
261.3783264160156
 20
69.35627746582031
 30
0.0
 11
261.5130615234375
 21
68.85102081298828
 31
0.0
  0
LINE
  5
99
330
17
100
AcDbEntity
  8
0
100
AcDbLine
 10
261.5130615234375
 20
68.85102081298828
 30
0.0
 11
261.49151611328125
 21
68.42828369140625
 31
0.0
  0
LINE
  5
9A
330
17
100
AcDbEntity
  8
0
100
AcDbLine
 10
261.49151611328125
 20
68.42828369140625
 30
0.0
 11
261.583251953125
 21
67.58039093017578
 31
0.0
  0
LINE
  5
9B
330
17
100
AcDbEntity
  8
0
100
AcDbLine
 10
261.583251953125
 20
67.58039093017578
 30
0.0
 11
261.87445068359375
 21
66.92615509033203
 31
0.0
  0
LINE
  5
9C
330
17
100
AcDbEntity
  8
0
100
AcDbLine
 10
261.87445068359375
 20
66.92615509033203
 30
0.0
 11
262.2288818359375
 21
65.34585571289062
 31
0.0
  0
LINE
  5
9D
330
17
100
AcDbEntity
  8
0
100
AcDbLine
 10
262.2288818359375
 20
65.34585571289062
 30
0.0
 11
262.70855712890625
 21
64.65352630615234
 31
0.0
  0
LINE
  5
9E
330
17
100
AcDbEntity
  8
0
100
AcDbLine
 10
262.70855712890625
 20
64.65352630615234
 30
0.0
 11
263.65106201171875
 21
62.99060821533203
 31
0.0
  0
LINE
  5
9F
330
17
100
AcDbEntity
  8
0
100
AcDbLine
 10
263.65106201171875
 20
62.99060821533203
 30
0.0
 11
263.8094177246094
 21
62.637550354003906
 31
0.0
  0
LINE
  5
A0
330
17
100
AcDbEntity
  8
0
100
AcDbLine
 10
263.8094177246094
 20
62.637550354003906
 30
0.0
 11
263.8815002441406
 21
62.486602783203125
 31
0.0
  0
LINE
  5
A1
330
17
100
AcDbEntity
  8
0
100
AcDbLine
 10
263.8815002441406
 20
62.486602783203125
 30
0.0
 11
265.15191650390625
 21
60.14509582519531
 31
0.0
  0
LINE
  5
A2
330
17
100
AcDbEntity
  8
0
100
AcDbLine
 10
265.15191650390625
 20
60.14509582519531
 30
0.0
 11
265.3190002441406
 21
59.85559844970703
 31
0.0
  0
LINE
  5
A3
330
17
100
AcDbEntity
  8
0
100
AcDbLine
 10
265.3190002441406
 20
59.85559844970703
 30
0.0
 11
265.760009765625
 21
59.006370544433594
 31
0.0
  0
LINE
  5
A4
330
17
100
AcDbEntity
  8
0
100
AcDbLine
 10
265.760009765625
 20
59.006370544433594
 30
0.0
 11
266.1002502441406
 21
58.06452941894531
 31
0.0
  0
LINE
  5
A5
330
17
100
AcDbEntity
  8
0
100
AcDbLine
 10
266.1002502441406
 20
58.06452941894531
 30
0.0
 11
266.1854248046875
 21
57.761268615722656
 31
0.0
  0
LINE
  5
A6
330
17
100
AcDbEntity
  8
0
100
AcDbLine
 10
266.1854248046875
 20
57.761268615722656
 30
0.0
 11
266.20703125
 21
57.61039733886719
 31
0.0
  0
LINE
  5
A7
330
17
100
AcDbEntity
  8
0
100
AcDbLine
 10
266.20703125
 20
57.61039733886719
 30
0.0
 11
266.8780212402344
 21
55.17888641357422
 31
0.0
  0
LINE
  5
A8
330
17
100
AcDbEntity
  8
0
100
AcDbLine
 10
266.8780212402344
 20
55.17888641357422
 30
0.0
 11
266.86907958984375
 21
55.130340576171875
 31
0.0
  0
LINE
  5
A9
330
17
100
AcDbEntity
  8
0
100
AcDbLine
 10
266.86907958984375
 20
55.130340576171875
 30
0.0
 11
266.947998046875
 21
52.68565368652344
 31
0.0
  0
LINE
  5
AA
330
17
100
AcDbEntity
  8
0
100
AcDbLine
 10
266.947998046875
 20
52.68565368652344
 30
0.0
 11
266.93701171875
 21
52.649696350097656
 31
0.0
  0
LINE
  5
AB
330
17
100
AcDbEntity
  8
0
100
AcDbLine
 10
266.93701171875
 20
52.649696350097656
 30
0.0
 11
266.2697448730469
 21
50.7421875
 31
0.0
  0
LINE
  5
AC
330
17
100
AcDbEntity
  8
0
100
AcDbLine
 10
266.2697448730469
 20
50.7421875
 30
0.0
 11
265.26812744140625
 21
50.019004821777344
 31
0.0
  0
LINE
  5
AD
330
17
100
AcDbEntity
  8
0
100
AcDbLine
 10
265.26812744140625
 20
50.019004821777344
 30
0.0
 11
264.5242919921875
 21
49.49175262451172
 31
0.0
  0
LINE
  5
AE
330
17
100
AcDbEntity
  8
0
100
AcDbLine
 10
264.5242919921875
 20
49.49175262451172
 30
0.0
 11
264.49383544921875
 21
49.46434020996094
 31
0.0
  0
LINE
  5
AF
330
17
100
AcDbEntity
  8
0
100
AcDbLine
 10
264.49383544921875
 20
49.46434020996094
 30
0.0
 11
262.87823486328125
 21
48.97722625732422
 31
0.0
  0
LINE
  5
B0
330
17
100
AcDbEntity
  8
0
100
AcDbLine
 10
262.87823486328125
 20
48.97722625732422
 30
0.0
 11
262.0028381347656
 21
48.836151123046875
 31
0.0
  0
LINE
  5
B1
330
17
100
AcDbEntity
  8
0
100
AcDbLine
 10
262.0028381347656
 20
48.836151123046875
 30
0.0
 11
259.5046081542969
 21
48.859291076660156
 31
0.0
  0
LINE
  5
B2
330
17
100
AcDbEntity
  8
0
100
AcDbLine
 10
259.5046081542969
 20
48.859291076660156
 30
0.0
 11
257.18975830078125
 21
49.23889923095703
 31
0.0
  0
LINE
  5
B3
330
17
100
AcDbEntity
  8
0
100
AcDbLine
 10
257.18975830078125
 20
49.23889923095703
 30
0.0
 11
256.9191589355469
 21
49.32128143310547
 31
0.0
  0
LINE
  5
B4
330
17
100
AcDbEntity
  8
0
100
AcDbLine
 10
256.9191589355469
 20
49.32128143310547
 30
0.0
 11
256.7691955566406
 21
49.336181640625
 31
0.0
  0
LINE
  5
B5
330
17
100
AcDbEntity
  8
0
100
AcDbLine
 10
256.7691955566406
 20
49.336181640625
 30
0.0
 11
254.85055541992188
 21
49.819618225097656
 31
0.0
  0
LINE
  5
B6
330
17
100
AcDbEntity
  8
0
100
AcDbLine
 10
254.85055541992188
 20
49.819618225097656
 30
0.0
 11
254.48809814453125
 21
49.870460510253906
 31
0.0
  0
LINE
  5
B7
330
17
100
AcDbEntity
  8
0
100
AcDbLine
 10
254.48809814453125
 20
49.870460510253906
 30
0.0
 11
252.56878662109375
 21
50.428070068359375
 31
0.0
  0
LINE
  5
B8
330
17
100
AcDbEntity
  8
0
100
AcDbLine
 10
252.56878662109375
 20
50.428070068359375
 30
0.0
 11
251.96551513671875
 21
50.53681182861328
 31
0.0
  0
LINE
  5
B9
330
17
100
AcDbEntity
  8
0
100
AcDbLine
 10
251.96551513671875
 20
50.53681182861328
 30
0.0
 11
250.1085205078125
 21
51.12224578857422
 31
0.0
  0
LINE
  5
BA
330
17
100
AcDbEntity
  8
0
100
AcDbLine
 10
250.1085205078125
 20
51.12224578857422
 30
0.0
 11
249.50741577148438
 21
51.245445251464844
 31
0.0
  0
LINE
  5
BB
330
17
100
AcDbEntity
  8
0
100
AcDbLine
 10
249.50741577148438
 20
51.245445251464844
 30
0.0
 11
249.18875122070312
 21
51.424095153808594
 31
0.0
  0
LINE
  5
BC
330
17
100
AcDbEntity
  8
0
100
AcDbLine
 10
249.18875122070312
 20
51.424095153808594
 30
0.0
 11
248.3402557373047
 21
51.542633056640625
 31
0.0
  0
LINE
  5
BD
330
17
100
AcDbEntity
  8
0
100
AcDbLine
 10
248.3402557373047
 20
51.542633056640625
 30
0.0
 11
248.0448760986328
 21
51.64277648925781
 31
0.0
  0
LINE
  5
BE
330
17
100
AcDbEntity
  8
0
100
AcDbLine
 10
248.0448760986328
 20
51.64277648925781
 30
0.0
 11
247.85301208496094
 21
51.93397521972656
 31
0.0
  0
LINE
  5
BF
330
17
100
AcDbEntity
  8
0
100
AcDbLine
 10
247.85301208496094
 20
51.93397521972656
 30
0.0
 11
246.87420654296875
 21
52.201881408691406
 31
0.0
  0
LINE
  5
C0
330
17
100
AcDbEntity
  8
0
100
AcDbLine
 10
246.87420654296875
 20
52.201881408691406
 30
0.0
 11
245.9258575439453
 21
52.57353210449219
 31
0.0
  0
LINE
  5
C1
330
17
100
AcDbEntity
  8
0
100
AcDbLine
 10
245.9258575439453
 20
52.57353210449219
 30
0.0
 11
244.30125427246094
 21
53.00018310546875
 31
0.0
  0
LINE
  5
C2
330
17
100
AcDbEntity
  8
0
100
AcDbLine
 10
244.30125427246094
 20
53.00018310546875
 30
0.0
 11
241.91409301757812
 21
53.614166259765625
 31
0.0
  0
LINE
  5
C3
330
17
100
AcDbEntity
  8
0
100
AcDbLine
 10
241.91409301757812
 20
53.614166259765625
 30
0.0
 11
241.7702178955078
 21
53.65953063964844
 31
0.0
  0
LINE
  5
C4
330
17
100
AcDbEntity
  8
0
100
AcDbLine
 10
241.7702178955078
 20
53.65953063964844
 30
0.0
 11
241.7211456298828
 21
53.66857147216797
 31
0.0
  0
LINE
  5
C5
330
17
100
AcDbEntity
  8
0
100
AcDbLine
 10
241.7211456298828
 20
53.66857147216797
 30
0.0
 11
239.88836669921875
 21
54.09968566894531
 31
0.0
  0
LINE
  5
C6
330
17
100
AcDbEntity
  8
0
100
AcDbLine
 10
239.88836669921875
 20
54.09968566894531
 30
0.0
 11
239.1405487060547
 21
54.2003173828125
 31
0.0
  0
LINE
  5
C7
330
17
100
AcDbEntity
  8
0
100
AcDbLine
 10
239.1405487060547
 20
54.2003173828125
 30
0.0
 11
238.05743408203125
 21
54.323036193847656
 31
0.0
  0
LINE
  5
C8
330
17
100
AcDbEntity
  8
0
100
AcDbLine
 10
238.05743408203125
 20
54.323036193847656
 30
0.0
 11
236.5747528076172
 21
54.37312316894531
 31
0.0
  0
LINE
  5
C9
330
17
100
AcDbEntity
  8
0
100
AcDbLine
 10
236.5747528076172
 20
54.37312316894531
 30
0.0
 11
235.7874755859375
 21
54.35950469970703
 31
0.0
  0
LINE
  5
CA
330
17
100
AcDbEntity
  8
0
100
AcDbLine
 10
235.7874755859375
 20
54.35950469970703
 30
0.0
 11
234.1328125
 21
54.19917297363281
 31
0.0
  0
LINE
  5
CB
330
17
100
AcDbEntity
  8
0
100
AcDbLine
 10
234.1328125
 20
54.19917297363281
 30
0.0
 11
233.15182495117188
 21
54.055885314941406
 31
0.0
  0
LINE
  5
CC
330
17
100
AcDbEntity
  8
0
100
AcDbLine
 10
233.15182495117188
 20
54.055885314941406
 30
0.0
 11
231.51089477539062
 21
53.469757080078125
 31
0.0
  0
LINE
  5
CD
330
17
100
AcDbEntity
  8
0
100
AcDbLine
 10
231.51089477539062
 20
53.469757080078125
 30
0.0
 11
229.74322509765625
 21
52.643348693847656
 31
0.0
  0
LINE
  5
CE
330
17
100
AcDbEntity
  8
0
100
AcDbLine
 10
229.74322509765625
 20
52.643348693847656
 30
0.0
 11
229.05734252929688
 21
52.44242858886719
 31
0.0
  0
LINE
  5
CF
330
17
100
AcDbEntity
  8
0
100
AcDbLine
 10
229.05734252929688
 20
52.44242858886719
 30
0.0
 11
229.0417022705078
 21
52.434898376464844
 31
0.0
  0
LINE
  5
D0
330
17
100
AcDbEntity
  8
0
100
AcDbLine
 10
229.0417022705078
 20
52.434898376464844
 30
0.0
 11
228.47621154785156
 21
52.202178955078125
 31
0.0
  0
LINE
  5
D1
330
17
100
AcDbEntity
  8
0
100
AcDbLine
 10
228.47621154785156
 20
52.202178955078125
 30
0.0
 11
228.19549560546875
 21
51.90966033935547
 31
0.0
  0
LINE
  5
D2
330
17
100
AcDbEntity
  8
0
100
AcDbLine
 10
228.19549560546875
 20
51.90966033935547
 30
0.0
 11
227.54592895507812
 21
51.43193817138672
 31
0.0
  0
LINE
  5
D3
330
17
100
AcDbEntity
  8
0
100
AcDbLine
 10
227.54592895507812
 20
51.43193817138672
 30
0.0
 11
226.43032836914062
 21
50.69557189941406
 31
0.0
  0
LINE
  5
D4
330
17
100
AcDbEntity
  8
0
100
AcDbLine
 10
226.43032836914062
 20
50.69557189941406
 30
0.0
 11
225.7354278564453
 21
50.24778747558594
 31
0.0
  0
LINE
  5
D5
330
17
100
AcDbEntity
  8
0
100
AcDbLine
 10
225.7354278564453
 20
50.24778747558594
 30
0.0
 11
224.96023559570312
 21
49.45929718017578
 31
0.0
  0
LINE
  5
D6
330
17
100
AcDbEntity
  8
0
100
AcDbLine
 10
224.96023559570312
 20
49.45929718017578
 30
0.0
 11
224.49081420898438
 21
49.0633544921875
 31
0.0
  0
LINE
  5
D7
330
17
100
AcDbEntity
  8
0
100
AcDbLine
 10
224.49081420898438
 20
49.0633544921875
 30
0.0
 11
223.67974853515625
 21
48.223175048828125
 31
0.0
  0
LINE
  5
D8
330
17
100
AcDbEntity
  8
0
100
AcDbLine
 10
223.67974853515625
 20
48.223175048828125
 30
0.0
 11
222.85418701171875
 21
47.614105224609375
 31
0.0
  0
LINE
  5
D9
330
17
100
AcDbEntity
  8
0
100
AcDbLine
 10
222.85418701171875
 20
47.614105224609375
 30
0.0
 11
221.65296936035156
 21
46.548622131347656
 31
0.0
  0
LINE
  5
DA
330
17
100
AcDbEntity
  8
0
100
AcDbLine
 10
221.65296936035156
 20
46.548622131347656
 30
0.0
 11
219.42901611328125
 21
44.814109802246094
 31
0.0
  0
LINE
  5
DB
330
17
100
AcDbEntity
  8
0
100
AcDbLine
 10
219.42901611328125
 20
44.814109802246094
 30
0.0
 11
219.3302001953125
 21
44.741241455078125
 31
0.0
  0
LINE
  5
DC
330
17
100
AcDbEntity
  8
0
100
AcDbLine
 10
219.3302001953125
 20
44.741241455078125
 30
0.0
 11
219.2967529296875
 21
44.67182159423828
 31
0.0
  0
LINE
  5
DD
330
17
100
AcDbEntity
  8
0
100
AcDbLine
 10
219.2967529296875
 20
44.67182159423828
 30
0.0
 11
219.30564880371094
 21
44.61578369140625
 31
0.0
  0
LINE
  5
DE
330
17
100
AcDbEntity
  8
0
100
AcDbLine
 10
219.30564880371094
 20
44.61578369140625
 30
0.0
 11
218.96612548828125
 21
41.53599548339844
 31
0.0
  0
LINE
  5
DF
330
17
100
AcDbEntity
  8
0
100
AcDbLine
 10
218.96612548828125
 20
41.53599548339844
 30
0.0
 11
219.2692413330078
 21
39.703155517578125
 31
0.0
  0
LINE
  5
E0
330
17
100
AcDbEntity
  8
0
100
AcDbLine
 10
219.2692413330078
 20
39.703155517578125
 30
0.0
 11
219.32357788085938
 21
39.33807373046875
 31
0.0
  0
LINE
  5
E1
330
17
100
AcDbEntity
  8
0
100
AcDbLine
 10
219.32357788085938
 20
39.33807373046875
 30
0.0
 11
219.34921264648438
 21
38.60796356201172
 31
0.0
  0
LINE
  5
E2
330
17
100
AcDbEntity
  8
0
100
AcDbLine
 10
219.34921264648438
 20
38.60796356201172
 30
0.0
 11
219.3546142578125
 21
38.5849609375
 31
0.0
  0
LINE
  5
E3
330
17
100
AcDbEntity
  8
0
100
AcDbLine
 10
219.3546142578125
 20
38.5849609375
 30
0.0
 11
219.54330444335938
 21
37.996978759765625
 31
0.0
  0
LINE
  5
E4
330
17
100
AcDbEntity
  8
0
100
AcDbLine
 10
219.54330444335938
 20
37.996978759765625
 30
0.0
 11
219.35726928710938
 21
37.38481140136719
 31
0.0
  0
LINE
  5
E5
330
17
100
AcDbEntity
  8
0
100
AcDbLine
 10
219.35726928710938
 20
37.38481140136719
 30
0.0
 11
219.38986206054688
 21
36.059059143066406
 31
0.0
  0
LINE
  5
E6
330
17
100
AcDbEntity
  8
0
100
AcDbLine
 10
219.38986206054688
 20
36.059059143066406
 30
0.0
 11
218.91522216796875
 21
33.76576232910156
 31
0.0
  0
LINE
  5
E7
330
17
100
AcDbEntity
  8
0
100
AcDbLine
 10
218.91522216796875
 20
33.76576232910156
 30
0.0
 11
218.32528686523438
 21
31.726455688476562
 31
0.0
  0
LINE
  5
E8
330
17
100
AcDbEntity
  8
0
100
AcDbLine
 10
218.32528686523438
 20
31.726455688476562
 30
0.0
 11
218.27694702148438
 21
31.595504760742188
 31
0.0
  0
LINE
  5
E9
330
17
100
AcDbEntity
  8
0
100
AcDbLine
 10
218.27694702148438
 20
31.595504760742188
 30
0.0
 11
218.18527221679688
 21
31.301185607910156
 31
0.0
  0
LINE
  5
EA
330
17
100
AcDbEntity
  8
0
100
AcDbLine
 10
218.18527221679688
 20
31.301185607910156
 30
0.0
 11
217.1243896484375
 21
29.442398071289062
 31
0.0
  0
LINE
  5
EB
330
17
100
AcDbEntity
  8
0
100
AcDbLine
 10
217.1243896484375
 20
29.442398071289062
 30
0.0
 11
216.81707763671875
 21
28.33392333984375
 31
0.0
  0
LINE
  5
EC
330
17
100
AcDbEntity
  8
0
100
AcDbLine
 10
216.81707763671875
 20
28.33392333984375
 30
0.0
 11
216.3953094482422
 21
27.323532104492188
 31
0.0
  0
LINE
  5
ED
330
17
100
AcDbEntity
  8
0
100
AcDbLine
 10
216.3953094482422
 20
27.323532104492188
 30
0.0
 11
216.05087280273438
 21
25.439842224121094
 31
0.0
  0
LINE
  5
EE
330
17
100
AcDbEntity
  8
0
100
AcDbLine
 10
216.05087280273438
 20
25.439842224121094
 30
0.0
 11
215.95095825195312
 21
25.071502685546875
 31
0.0
  0
LINE
  5
EF
330
17
100
AcDbEntity
  8
0
100
AcDbLine
 10
215.95095825195312
 20
25.071502685546875
 30
0.0
 11
215.65225219726562
 21
23.80699920654297
 31
0.0
  0
LINE
  5
F0
330
17
100
AcDbEntity
  8
0
100
AcDbLine
 10
215.65225219726562
 20
23.80699920654297
 30
0.0
 11
215.3769073486328
 21
22.713294982910156
 31
0.0
  0
LINE
  5
F1
330
17
100
AcDbEntity
  8
0
100
AcDbLine
 10
215.3769073486328
 20
22.713294982910156
 30
0.0
 11
214.76345825195312
 21
21.40601348876953
 31
0.0
  0
LINE
  5
F2
330
17
100
AcDbEntity
  8
0
100
AcDbLine
 10
214.76345825195312
 20
21.40601348876953
 30
0.0
 11
214.55621337890625
 21
20.276077270507812
 31
0.0
  0
LINE
  5
F3
330
17
100
AcDbEntity
  8
0
100
AcDbLine
 10
214.55621337890625
 20
20.276077270507812
 30
0.0
 11
213.7694854736328
 21
18.376014709472656
 31
0.0
  0
LINE
  5
F4
330
17
100
AcDbEntity
  8
0
100
AcDbLine
 10
213.7694854736328
 20
18.376014709472656
 30
0.0
 11
213.48944091796875
 21
17.7442626953125
 31
0.0
  0
LINE
  5
F5
330
17
100
AcDbEntity
  8
0
100
AcDbLine
 10
213.48944091796875
 20
17.7442626953125
 30
0.0
 11
213.21298217773438
 21
17.071197509765625
 31
0.0
  0
LINE
  5
F6
330
17
100
AcDbEntity
  8
0
100
AcDbLine
 10
213.21298217773438
 20
17.071197509765625
 30
0.0
 11
212.78564453125
 21
15.5067138671875
 31
0.0
  0
LINE
  5
F7
330
17
100
AcDbEntity
  8
0
100
AcDbLine
 10
212.78564453125
 20
15.5067138671875
 30
0.0
 11
212.7654571533203
 21
14.766403198242188
 31
0.0
  0
LINE
  5
F8
330
17
100
AcDbEntity
  8
0
100
AcDbLine
 10
212.7654571533203
 20
14.766403198242188
 30
0.0
 11
212.39710998535156
 21
13.993484497070312
 31
0.0
  0
LINE
  5
F9
330
17
100
AcDbEntity
  8
0
100
AcDbLine
 10
212.39710998535156
 20
13.993484497070312
 30
0.0
 11
212.27369689941406
 21
13.596389770507812
 31
0.0
  0
LINE
  5
FA
330
17
100
AcDbEntity
  8
0
100
AcDbLine
 10
212.27369689941406
 20
13.596389770507812
 30
0.0
 11
211.89907836914062
 21
13.09393310546875
 31
0.0
  0
LINE
  5
FB
330
17
100
AcDbEntity
  8
0
100
AcDbLine
 10
211.89907836914062
 20
13.09393310546875
 30
0.0
 11
211.2191619873047
 21
11.4508056640625
 31
0.0
  0
LINE
  5
FC
330
17
100
AcDbEntity
  8
0
100
AcDbLine
 10
211.2191619873047
 20
11.4508056640625
 30
0.0
 11
210.92059326171875
 21
10.5076904296875
 31
0.0
  0
LINE
  5
FD
330
17
100
AcDbEntity
  8
0
100
AcDbLine
 10
210.92059326171875
 20
10.5076904296875
 30
0.0
 11
210.4921417236328
 21
9.07763671875
 31
0.0
  0
LINE
  5
FE
330
17
100
AcDbEntity
  8
0
100
AcDbLine
 10
210.4921417236328
 20
9.07763671875
 30
0.0
 11
210.10183715820312
 21
7.7038116455078125
 31
0.0
  0
LINE
  5
FF
330
17
100
AcDbEntity
  8
0
100
AcDbLine
 10
210.10183715820312
 20
7.7038116455078125
 30
0.0
 11
209.22723388671875
 21
6.1488494873046875
 31
0.0
  0
LINE
  5
100
330
17
100
AcDbEntity
  8
0
100
AcDbLine
 10
209.22723388671875
 20
6.1488494873046875
 30
0.0
 11
208.63418579101562
 21
4.9566192626953125
 31
0.0
  0
LINE
  5
101
330
17
100
AcDbEntity
  8
0
100
AcDbLine
 10
208.63418579101562
 20
4.9566192626953125
 30
0.0
 11
207.6352081298828
 21
4.1539306640625
 31
0.0
  0
LINE
  5
102
330
17
100
AcDbEntity
  8
0
100
AcDbLine
 10
207.6352081298828
 20
4.1539306640625
 30
0.0
 11
206.42776489257812
 21
3.82952880859375
 31
0.0
  0
LINE
  5
103
330
17
100
AcDbEntity
  8
0
100
AcDbLine
 10
206.42776489257812
 20
3.82952880859375
 30
0.0
 11
204.95921325683594
 21
3.1197509765625
 31
0.0
  0
LINE
  5
104
330
17
100
AcDbEntity
  8
0
100
AcDbLine
 10
204.95921325683594
 20
3.1197509765625
 30
0.0
 11
204.24972534179688
 21
3.041748046875
 31
0.0
  0
LINE
  5
105
330
17
100
AcDbEntity
  8
0
100
AcDbLine
 10
204.24972534179688
 20
3.041748046875
 30
0.0
 11
202.0206756591797
 21
2.5102081298828125
 31
0.0
  0
LINE
  5
106
330
17
100
AcDbEntity
  8
0
100
AcDbLine
 10
202.0206756591797
 20
2.5102081298828125
 30
0.0
 11
201.58343505859375
 21
2.5090789794921875
 31
0.0
  0
LINE
  5
107
330
17
100
AcDbEntity
  8
0
100
AcDbLine
 10
201.58343505859375
 20
2.5090789794921875
 30
0.0
 11
199.81861877441406
 21
2.716339111328125
 31
0.0
  0
LINE
  5
108
330
17
100
AcDbEntity
  8
0
100
AcDbLine
 10
199.81861877441406
 20
2.716339111328125
 30
0.0
 11
198.60211181640625
 21
2.6677703857421875
 31
0.0
  0
LINE
  5
109
330
17
100
AcDbEntity
  8
0
100
AcDbLine
 10
198.60211181640625
 20
2.6677703857421875
 30
0.0
 11
196.47177124023438
 21
3.423095703125
 31
0.0
  0
LINE
  5
10A
330
17
100
AcDbEntity
  8
0
100
AcDbLine
 10
196.47177124023438
 20
3.423095703125
 30
0.0
 11
195.92791748046875
 21
3.9191436767578125
 31
0.0
  0
LINE
  5
10B
330
17
100
AcDbEntity
  8
0
100
AcDbLine
 10
195.92791748046875
 20
3.9191436767578125
 30
0.0
 11
195.273681640625
 21
4.3170318603515625
 31
0.0
  0
LINE
  5
10C
330
17
100
AcDbEntity
  8
0
100
AcDbLine
 10
195.273681640625
 20
4.3170318603515625
 30
0.0
 11
194.1987762451172
 21
5.4328155517578125
 31
0.0
  0
LINE
  5
10D
330
17
100
AcDbEntity
  8
0
100
AcDbLine
 10
194.1987762451172
 20
5.4328155517578125
 30
0.0
 11
193.5844268798828
 21
6.1274871826171875
 31
0.0
  0
LINE
  5
10E
330
17
100
AcDbEntity
  8
0
100
AcDbLine
 10
193.5844268798828
 20
6.1274871826171875
 30
0.0
 11
192.13986206054688
 21
7.5604400634765625
 31
0.0
  0
LINE
  5
10F
330
17
100
AcDbEntity
  8
0
100
AcDbLine
 10
192.13986206054688
 20
7.5604400634765625
 30
0.0
 11
191.87490844726562
 21
8.033645629882812
 31
0.0
  0
LINE
  5
110
330
17
100
AcDbEntity
  8
0
100
AcDbLine
 10
191.87490844726562
 20
8.033645629882812
 30
0.0
 11
191.26617431640625
 21
9.311676025390625
 31
0.0
  0
LINE
  5
111
330
17
100
AcDbEntity
  8
0
100
AcDbLine
 10
191.26617431640625
 20
9.311676025390625
 30
0.0
 11
190.97056579589844
 21
9.695999145507812
 31
0.0
  0
LINE
  5
112
330
17
100
AcDbEntity
  8
0
100
AcDbLine
 10
190.97056579589844
 20
9.695999145507812
 30
0.0
 11
190.58799743652344
 21
11.777313232421875
 31
0.0
  0
LINE
  5
113
330
17
100
AcDbEntity
  8
0
100
AcDbLine
 10
190.58799743652344
 20
11.777313232421875
 30
0.0
 11
190.31271362304688
 21
12.546249389648438
 31
0.0
  0
LINE
  5
114
330
17
100
AcDbEntity
  8
0
100
AcDbLine
 10
190.31271362304688
 20
12.546249389648438
 30
0.0
 11
190.5077667236328
 21
13.655517578125
 31
0.0
  0
LINE
  5
115
330
17
100
AcDbEntity
  8
0
100
AcDbLine
 10
190.5077667236328
 20
13.655517578125
 30
0.0
 11
190.54660034179688
 21
13.947647094726562
 31
0.0
  0
LINE
  5
116
330
17
100
AcDbEntity
  8
0
100
AcDbLine
 10
190.54660034179688
 20
13.947647094726562
 30
0.0
 11
190.31785583496094
 21
15.394424438476562
 31
0.0
  0
LINE
  5
117
330
17
100
AcDbEntity
  8
0
100
AcDbLine
 10
190.31785583496094
 20
15.394424438476562
 30
0.0
 11
190.42002868652344
 21
16.589340209960938
 31
0.0
  0
LINE
  5
118
330
17
100
AcDbEntity
  8
0
100
AcDbLine
 10
190.42002868652344
 20
16.589340209960938
 30
0.0
 11
189.1053466796875
 21
18.201568603515625
 31
0.0
  0
LINE
  5
119
330
17
100
AcDbEntity
  8
0
100
AcDbLine
 10
189.1053466796875
 20
18.201568603515625
 30
0.0
 11
189.09765625
 21
18.209449768066406
 31
0.0
  0
LINE
  5
11A
330
17
100
AcDbEntity
  8
0
100
AcDbLine
 10
189.09765625
 20
18.209449768066406
 30
0.0
 11
187.6857452392578
 21
19.786605834960938
 31
0.0
  0
LINE
  5
11B
330
17
100
AcDbEntity
  8
0
100
AcDbLine
 10
187.6857452392578
 20
19.786605834960938
 30
0.0
 11
187.10406494140625
 21
20.16649627685547
 31
0.0
  0
LINE
  5
11C
330
17
100
AcDbEntity
  8
0
100
AcDbLine
 10
187.10406494140625
 20
20.16649627685547
 30
0.0
 11
186.63604736328125
 21
20.896041870117188
 31
0.0
  0
LINE
  5
11D
330
17
100
AcDbEntity
  8
0
100
AcDbLine
 10
186.63604736328125
 20
20.896041870117188
 30
0.0
 11
186.4477996826172
 21
21.105194091796875
 31
0.0
  0
LINE
  5
11E
330
17
100
AcDbEntity
  8
0
100
AcDbLine
 10
186.4477996826172
 20
21.105194091796875
 30
0.0
 11
186.38873291015625
 21
21.287193298339844
 31
0.0
  0
LINE
  5
11F
330
17
100
AcDbEntity
  8
0
100
AcDbLine
 10
186.38873291015625
 20
21.287193298339844
 30
0.0
 11
186.06546020507812
 21
21.709083557128906
 31
0.0
  0
LINE
  5
120
330
17
100
AcDbEntity
  8
0
100
AcDbLine
 10
186.06546020507812
 20
21.709083557128906
 30
0.0
 11
185.5628204345703
 21
22.81432342529297
 31
0.0
  0
LINE
  5
121
330
17
100
AcDbEntity
  8
0
100
AcDbLine
 10
185.5628204345703
 20
22.81432342529297
 30
0.0
 11
185.21340942382812
 21
23.270278930664062
 31
0.0
  0
LINE
  5
122
330
17
100
AcDbEntity
  8
0
100
AcDbLine
 10
185.21340942382812
 20
23.270278930664062
 30
0.0
 11
184.7971649169922
 21
24.539901733398438
 31
0.0
  0
LINE
  5
123
330
17
100
AcDbEntity
  8
0
100
AcDbLine
 10
184.7971649169922
 20
24.539901733398438
 30
0.0
 11
183.58880615234375
 21
25.52741241455078
 31
0.0
  0
LINE
  5
124
330
17
100
AcDbEntity
  8
0
100
AcDbLine
 10
183.58880615234375
 20
25.52741241455078
 30
0.0
 11
183.18771362304688
 21
25.774024963378906
 31
0.0
  0
LINE
  5
125
330
17
100
AcDbEntity
  8
0
100
AcDbLine
 10
183.18771362304688
 20
25.774024963378906
 30
0.0
 11
181.83433532714844
 21
26.302627563476562
 31
0.0
  0
LINE
  5
126
330
17
100
AcDbEntity
  8
0
100
AcDbLine
 10
181.83433532714844
 20
26.302627563476562
 30
0.0
 11
181.73341369628906
 21
26.9013671875
 31
0.0
  0
LINE
  5
127
330
17
100
AcDbEntity
  8
0
100
AcDbLine
 10
181.73341369628906
 20
26.9013671875
 30
0.0
 11
180.830322265625
 21
27.128639221191406
 31
0.0
  0
LINE
  5
128
330
17
100
AcDbEntity
  8
0
100
AcDbLine
 10
180.830322265625
 20
27.128639221191406
 30
0.0
 11
180.6683807373047
 21
27.201324462890625
 31
0.0
  0
LINE
  5
129
330
17
100
AcDbEntity
  8
0
100
AcDbLine
 10
180.6683807373047
 20
27.201324462890625
 30
0.0
 11
180.44618225097656
 21
27.211273193359375
 31
0.0
  0
LINE
  5
12A
330
17
100
AcDbEntity
  8
0
100
AcDbLine
 10
180.44618225097656
 20
27.211273193359375
 30
0.0
 11
179.24598693847656
 21
27.533065795898438
 31
0.0
  0
LINE
  5
12B
330
17
100
AcDbEntity
  8
0
100
AcDbLine
 10
179.24598693847656
 20
27.533065795898438
 30
0.0
 11
178.4800567626953
 21
27.585426330566406
 31
0.0
  0
LINE
  5
12C
330
17
100
AcDbEntity
  8
0
100
AcDbLine
 10
178.4800567626953
 20
27.585426330566406
 30
0.0
 11
178.4674072265625
 21
27.58429718017578
 31
0.0
  0
LINE
  5
12D
330
17
100
AcDbEntity
  8
0
100
AcDbLine
 10
178.4674072265625
 20
27.58429718017578
 30
0.0
 11
178.3500518798828
 21
27.5826416015625
 31
0.0
  0
LINE
  5
12E
330
17
100
AcDbEntity
  8
0
100
AcDbLine
 10
178.3500518798828
 20
27.5826416015625
 30
0.0
 11
176.23922729492188
 21
27.393592834472656
 31
0.0
  0
LINE
  5
12F
330
17
100
AcDbEntity
  8
0
100
AcDbLine
 10
176.23922729492188
 20
27.393592834472656
 30
0.0
 11
173.62457275390625
 21
27.296234130859375
 31
0.0
  0
LINE
  5
130
330
17
100
AcDbEntity
  8
0
100
AcDbLine
 10
173.62457275390625
 20
27.296234130859375
 30
0.0
 11
173.58343505859375
 21
27.293296813964844
 31
0.0
  0
LINE
  5
131
330
17
100
AcDbEntity
  8
0
100
AcDbLine
 10
173.58343505859375
 20
27.293296813964844
 30
0.0
 11
173.5598602294922
 21
27.291168212890625
 31
0.0
  0
LINE
  5
132
330
17
100
AcDbEntity
  8
0
100
AcDbLine
 10
173.5598602294922
 20
27.291168212890625
 30
0.0
 11
173.54348754882812
 21
27.292564392089844
 31
0.0
  0
LINE
  5
133
330
17
100
AcDbEntity
  8
0
100
AcDbLine
 10
173.54348754882812
 20
27.292564392089844
 30
0.0
 11
173.51776123046875
 21
27.292457580566406
 31
0.0
  0
LINE
  5
134
330
17
100
AcDbEntity
  8
0
100
AcDbLine
 10
173.51776123046875
 20
27.292457580566406
 30
0.0
 11
173.44737243652344
 21
27.28057098388672
 31
0.0
  0
LINE
  5
135
330
17
100
AcDbEntity
  8
0
100
AcDbLine
 10
173.44737243652344
 20
27.28057098388672
 30
0.0
 11
171.69464111328125
 21
27.50060272216797
 31
0.0
  0
LINE
  5
136
330
17
100
AcDbEntity
  8
0
100
AcDbLine
 10
171.69464111328125
 20
27.50060272216797
 30
0.0
 11
171.67938232421875
 21
27.677169799804688
 31
0.0
  0
LINE
  5
137
330
17
100
AcDbEntity
  8
0
100
AcDbLine
 10
171.67938232421875
 20
27.677169799804688
 30
0.0
 11
171.21591186523438
 21
27.710166931152344
 31
0.0
  0
LINE
  5
138
330
17
100
AcDbEntity
  8
0
100
AcDbLine
 10
171.21591186523438
 20
27.710166931152344
 30
0.0
 11
170.92088317871094
 21
27.711639404296875
 31
0.0
  0
LINE
  5
139
330
17
100
AcDbEntity
  8
0
100
AcDbLine
 10
170.92088317871094
 20
27.711639404296875
 30
0.0
 11
170.01657104492188
 21
28.20764923095703
 31
0.0
  0
LINE
  5
13A
330
17
100
AcDbEntity
  8
0
100
AcDbLine
 10
170.01657104492188
 20
28.20764923095703
 30
0.0
 11
168.12852478027344
 21
28.540000915527344
 31
0.0
  0
LINE
  5
13B
330
17
100
AcDbEntity
  8
0
100
AcDbLine
 10
168.12852478027344
 20
28.540000915527344
 30
0.0
 11
167.92591857910156
 21
28.61455535888672
 31
0.0
  0
LINE
  5
13C
330
17
100
AcDbEntity
  8
0
100
AcDbLine
 10
167.92591857910156
 20
28.61455535888672
 30
0.0
 11
167.65155029296875
 21
28.741233825683594
 31
0.0
  0
LINE
  5
13D
330
17
100
AcDbEntity
  8
0
100
AcDbLine
 10
167.65155029296875
 20
28.741233825683594
 30
0.0
 11
166.79847717285156
 21
29.550247192382812
 31
0.0
  0
LINE
  5
13E
330
17
100
AcDbEntity
  8
0
100
AcDbLine
 10
166.79847717285156
 20
29.550247192382812
 30
0.0
 11
166.6256561279297
 21
29.656517028808594
 31
0.0
  0
LINE
  5
13F
330
17
100
AcDbEntity
  8
0
100
AcDbLine
 10
166.6256561279297
 20
29.656517028808594
 30
0.0
 11
165.44183349609375
 21
30.085548400878906
 31
0.0
  0
LINE
  5
140
330
17
100
AcDbEntity
  8
0
100
AcDbLine
 10
165.44183349609375
 20
30.085548400878906
 30
0.0
 11
165.28721618652344
 21
30.181053161621094
 31
0.0
  0
LINE
  5
141
330
17
100
AcDbEntity
  8
0
100
AcDbLine
 10
165.28721618652344
 20
30.181053161621094
 30
0.0
 11
165.20083618164062
 21
30.2294921875
 31
0.0
  0
LINE
  5
142
330
17
100
AcDbEntity
  8
0
100
AcDbLine
 10
165.20083618164062
 20
30.2294921875
 30
0.0
 11
165.05764770507812
 21
30.31409454345703
 31
0.0
  0
LINE
  5
143
330
17
100
AcDbEntity
  8
0
100
AcDbLine
 10
165.05764770507812
 20
30.31409454345703
 30
0.0
 11
164.50460815429688
 21
30.66326904296875
 31
0.0
  0
LINE
  5
144
330
17
100
AcDbEntity
  8
0
100
AcDbLine
 10
164.50460815429688
 20
30.66326904296875
 30
0.0
 11
164.39987182617188
 21
30.961029052734375
 31
0.0
  0
LINE
  5
145
330
17
100
AcDbEntity
  8
0
100
AcDbLine
 10
164.39987182617188
 20
30.961029052734375
 30
0.0
 11
163.174560546875
 21
31.357666015625
 31
0.0
  0
LINE
  5
146
330
17
100
AcDbEntity
  8
0
100
AcDbLine
 10
163.174560546875
 20
31.357666015625
 30
0.0
 11
163.16807556152344
 21
31.361846923828125
 31
0.0
  0
LINE
  5
147
330
17
100
AcDbEntity
  8
0
100
AcDbLine
 10
163.16807556152344
 20
31.361846923828125
 30
0.0
 11
163.12818908691406
 21
31.383575439453125
 31
0.0
  0
LINE
  5
148
330
17
100
AcDbEntity
  8
0
100
AcDbLine
 10
163.12818908691406
 20
31.383575439453125
 30
0.0
 11
163.08702087402344
 21
31.4019775390625
 31
0.0
  0
LINE
  5
149
330
17
100
AcDbEntity
  8
0
100
AcDbLine
 10
163.08702087402344
 20
31.4019775390625
 30
0.0
 11
162.51947021484375
 21
31.71527099609375
 31
0.0
  0
LINE
  5
14A
330
17
100
AcDbEntity
  8
0
100
AcDbLine
 10
162.51947021484375
 20
31.71527099609375
 30
0.0
 11
161.83351135253906
 21
31.76073455810547
 31
0.0
  0
LINE
  5
14B
330
17
100
AcDbEntity
  8
0
100
AcDbLine
 10
161.83351135253906
 20
31.76073455810547
 30
0.0
 11
161.79660034179688
 21
31.764610290527344
 31
0.0
  0
LINE
  5
14C
330
17
100
AcDbEntity
  8
0
100
AcDbLine
 10
161.79660034179688
 20
31.764610290527344
 30
0.0
 11
161.03273010253906
 21
31.825347900390625
 31
0.0
  0
LINE
  5
14D
330
17
100
AcDbEntity
  8
0
100
AcDbLine
 10
161.03273010253906
 20
31.825347900390625
 30
0.0
 11
160.58706665039062
 21
31.731338500976562
 31
0.0
  0
LINE
  5
14E
330
17
100
AcDbEntity
  8
0
100
AcDbLine
 10
160.58706665039062
 20
31.731338500976562
 30
0.0
 11
159.81179809570312
 21
31.67218780517578
 31
0.0
  0
LINE
  5
14F
330
17
100
AcDbEntity
  8
0
100
AcDbLine
 10
159.81179809570312
 20
31.67218780517578
 30
0.0
 11
158.97879028320312
 21
31.460067749023438
 31
0.0
  0
LINE
  5
150
330
17
100
AcDbEntity
  8
0
100
AcDbLine
 10
158.97879028320312
 20
31.460067749023438
 30
0.0
 11
157.97268676757812
 21
31.255752563476562
 31
0.0
  0
LINE
  5
151
330
17
100
AcDbEntity
  8
0
100
AcDbLine
 10
157.97268676757812
 20
31.255752563476562
 30
0.0
 11
157.43064880371094
 21
30.90911102294922
 31
0.0
  0
LINE
  5
152
330
17
100
AcDbEntity
  8
0
100
AcDbLine
 10
157.43064880371094
 20
30.90911102294922
 30
0.0
 11
156.90342712402344
 21
30.94629669189453
 31
0.0
  0
LINE
  5
153
330
17
100
AcDbEntity
  8
0
100
AcDbLine
 10
156.90342712402344
 20
30.94629669189453
 30
0.0
 11
156.748779296875
 21
30.901893615722656
 31
0.0
  0
LINE
  5
154
330
17
100
AcDbEntity
  8
0
100
AcDbLine
 10
156.748779296875
 20
30.901893615722656
 30
0.0
 11
156.28050231933594
 21
30.418853759765625
 31
0.0
  0
LINE
  5
155
330
17
100
AcDbEntity
  8
0
100
AcDbLine
 10
156.28050231933594
 20
30.418853759765625
 30
0.0
 11
155.38198852539062
 21
30.159072875976562
 31
0.0
  0
LINE
  5
156
330
17
100
AcDbEntity
  8
0
100
AcDbLine
 10
155.38198852539062
 20
30.159072875976562
 30
0.0
 11
154.13121032714844
 21
30.013641357421875
 31
0.0
  0
LINE
  5
157
330
17
100
AcDbEntity
  8
0
100
AcDbLine
 10
154.13121032714844
 20
30.013641357421875
 30
0.0
 11
153.85284423828125
 21
29.922576904296875
 31
0.0
  0
LINE
  5
158
330
17
100
AcDbEntity
  8
0
100
AcDbLine
 10
153.85284423828125
 20
29.922576904296875
 30
0.0
 11
153.5370635986328
 21
29.841644287109375
 31
0.0
  0
LINE
  5
159
330
17
100
AcDbEntity
  8
0
100
AcDbLine
 10
153.5370635986328
 20
29.841644287109375
 30
0.0
 11
152.37765502929688
 21
29.439956665039062
 31
0.0
  0
LINE
  5
15A
330
17
100
AcDbEntity
  8
0
100
AcDbLine
 10
152.37765502929688
 20
29.439956665039062
 30
0.0
 11
151.48330688476562
 21
29.409164428710938
 31
0.0
  0
LINE
  5
15B
330
17
100
AcDbEntity
  8
0
100
AcDbLine
 10
151.48330688476562
 20
29.409164428710938
 30
0.0
 11
151.3958740234375
 21
29.39605712890625
 31
0.0
  0
LINE
  5
15C
330
17
100
AcDbEntity
  8
0
100
AcDbLine
 10
151.3958740234375
 20
29.39605712890625
 30
0.0
 11
148.8535919189453
 21
29.167617797851562
 31
0.0
  0
LINE
  5
15D
330
17
100
AcDbEntity
  8
0
100
AcDbLine
 10
148.8535919189453
 20
29.167617797851562
 30
0.0
 11
148.64093017578125
 21
29.216583251953125
 31
0.0
  0
LINE
  5
15E
330
17
100
AcDbEntity
  8
0
100
AcDbLine
 10
148.64093017578125
 20
29.216583251953125
 30
0.0
 11
148.27828979492188
 21
29.00732421875
 31
0.0
  0
LINE
  5
15F
330
17
100
AcDbEntity
  8
0
100
AcDbLine
 10
148.27828979492188
 20
29.00732421875
 30
0.0
 11
147.13319396972656
 21
29.174156188964844
 31
0.0
  0
LINE
  5
160
330
17
100
AcDbEntity
  8
0
100
AcDbLine
 10
147.13319396972656
 20
29.174156188964844
 30
0.0
 11
145.88914489746094
 21
28.752235412597656
 31
0.0
  0
LINE
  5
161
330
17
100
AcDbEntity
  8
0
100
AcDbLine
 10
145.88914489746094
 20
28.752235412597656
 30
0.0
 11
145.69224548339844
 21
28.910995483398438
 31
0.0
  0
LINE
  5
162
330
17
100
AcDbEntity
  8
0
100
AcDbLine
 10
145.69224548339844
 20
28.910995483398438
 30
0.0
 11
145.53271484375
 21
28.824661254882812
 31
0.0
  0
LINE
  5
163
330
17
100
AcDbEntity
  8
0
100
AcDbLine
 10
145.53271484375
 20
28.824661254882812
 30
0.0
 11
145.4028778076172
 21
28.885780334472656
 31
0.0
  0
LINE
  5
164
330
17
100
AcDbEntity
  8
0
100
AcDbLine
 10
145.4028778076172
 20
28.885780334472656
 30
0.0
 11
143.0736541748047
 21
28.973915100097656
 31
0.0
  0
LINE
  5
165
330
17
100
AcDbEntity
  8
0
100
AcDbLine
 10
143.0736541748047
 20
28.973915100097656
 30
0.0
 11
142.5138397216797
 21
29.075469970703125
 31
0.0
  0
LINE
  5
166
330
17
100
AcDbEntity
  8
0
100
AcDbLine
 10
142.5138397216797
 20
29.075469970703125
 30
0.0
 11
140.70790100097656
 21
28.505645751953125
 31
0.0
  0
LINE
  5
167
330
17
100
AcDbEntity
  8
0
100
AcDbLine
 10
140.70790100097656
 20
28.505645751953125
 30
0.0
 11
140.40708923339844
 21
28.471656799316406
 31
0.0
  0
LINE
  5
168
330
17
100
AcDbEntity
  8
0
100
AcDbLine
 10
140.40708923339844
 20
28.471656799316406
 30
0.0
 11
138.073486328125
 21
27.928489685058594
 31
0.0
  0
LINE
  5
169
330
17
100
AcDbEntity
  8
0
100
AcDbLine
 10
138.073486328125
 20
27.928489685058594
 30
0.0
 11
137.92922973632812
 21
27.881141662597656
 31
0.0
  0
LINE
  5
16A
330
17
100
AcDbEntity
  8
0
100
AcDbLine
 10
137.92922973632812
 20
27.881141662597656
 30
0.0
 11
137.21400451660156
 21
27.79918670654297
 31
0.0
  0
LINE
  5
16B
330
17
100
AcDbEntity
  8
0
100
AcDbLine
 10
137.21400451660156
 20
27.79918670654297
 30
0.0
 11
136.5989532470703
 21
27.83458709716797
 31
0.0
  0
LINE
  5
16C
330
17
100
AcDbEntity
  8
0
100
AcDbLine
 10
136.5989532470703
 20
27.83458709716797
 30
0.0
 11
135.53805541992188
 21
28.73871612548828
 31
0.0
  0
LINE
  5
16D
330
17
100
AcDbEntity
  8
0
100
AcDbLine
 10
135.53805541992188
 20
28.73871612548828
 30
0.0
 11
135.19601440429688
 21
28.78307342529297
 31
0.0
  0
LINE
  5
16E
330
17
100
AcDbEntity
  8
0
100
AcDbLine
 10
135.19601440429688
 20
28.78307342529297
 30
0.0
 11
134.78953552246094
 21
28.069244384765625
 31
0.0
  0
LINE
  5
16F
330
17
100
AcDbEntity
  8
0
100
AcDbLine
 10
134.78953552246094
 20
28.069244384765625
 30
0.0
 11
134.679443359375
 21
28.11053466796875
 31
0.0
  0
LINE
  5
170
330
17
100
AcDbEntity
  8
0
100
AcDbLine
 10
134.679443359375
 20
28.11053466796875
 30
0.0
 11
134.03717041015625
 21
28.24683380126953
 31
0.0
  0
LINE
  5
171
330
17
100
AcDbEntity
  8
0
100
AcDbLine
 10
134.03717041015625
 20
28.24683380126953
 30
0.0
 11
131.87060546875
 21
28.940086364746094
 31
0.0
  0
LINE
  5
172
330
17
100
AcDbEntity
  8
0
100
AcDbLine
 10
131.87060546875
 20
28.940086364746094
 30
0.0
 11
131.51988220214844
 21
29.007408142089844
 31
0.0
  0
LINE
  5
173
330
17
100
AcDbEntity
  8
0
100
AcDbLine
 10
131.51988220214844
 20
29.007408142089844
 30
0.0
 11
130.571044921875
 21
29.247215270996094
 31
0.0
  0
LINE
  5
174
330
17
100
AcDbEntity
  8
0
100
AcDbLine
 10
130.571044921875
 20
29.247215270996094
 30
0.0
 11
129.0281219482422
 21
29.52552032470703
 31
0.0
  0
LINE
  5
175
330
17
100
AcDbEntity
  8
0
100
AcDbLine
 10
129.0281219482422
 20
29.52552032470703
 30
0.0
 11
128.0634765625
 21
29.909683227539062
 31
0.0
  0
LINE
  5
176
330
17
100
AcDbEntity
  8
0
100
AcDbLine
 10
128.0634765625
 20
29.909683227539062
 30
0.0
 11
127.21929931640625
 21
30.339141845703125
 31
0.0
  0
LINE
  5
177
330
17
100
AcDbEntity
  8
0
100
AcDbLine
 10
127.21929931640625
 20
30.339141845703125
 30
0.0
 11
126.50979614257812
 21
30.53362274169922
 31
0.0
  0
LINE
  5
178
330
17
100
AcDbEntity
  8
0
100
AcDbLine
 10
126.50979614257812
 20
30.53362274169922
 30
0.0
 11
125.44274139404297
 21
30.652442932128906
 31
0.0
  0
LINE
  5
179
330
17
100
AcDbEntity
  8
0
100
AcDbLine
 10
125.44274139404297
 20
30.652442932128906
 30
0.0
 11
124.94678497314453
 21
30.598731994628906
 31
0.0
  0
LINE
  5
17A
330
17
100
AcDbEntity
  8
0
100
AcDbLine
 10
124.94678497314453
 20
30.598731994628906
 30
0.0
 11
124.65172576904297
 21
30.70313262939453
 31
0.0
  0
LINE
  5
17B
330
17
100
AcDbEntity
  8
0
100
AcDbLine
 10
124.65172576904297
 20
30.70313262939453
 30
0.0
 11
124.18988037109375
 21
30.46532440185547
 31
0.0
  0
LINE
  5
17C
330
17
100
AcDbEntity
  8
0
100
AcDbLine
 10
124.18988037109375
 20
30.46532440185547
 30
0.0
 11
122.90432739257812
 21
30.236961364746094
 31
0.0
  0
LINE
  5
17D
330
17
100
AcDbEntity
  8
0
100
AcDbLine
 10
122.90432739257812
 20
30.236961364746094
 30
0.0
 11
122.8577880859375
 21
30.23381805419922
 31
0.0
  0
LINE
  5
17E
330
17
100
AcDbEntity
  8
0
100
AcDbLine
 10
122.8577880859375
 20
30.23381805419922
 30
0.0
 11
122.66515350341797
 21
30.178192138671875
 31
0.0
  0
LINE
  5
17F
330
17
100
AcDbEntity
  8
0
100
AcDbLine
 10
122.66515350341797
 20
30.178192138671875
 30
0.0
 11
120.8941650390625
 21
29.76654815673828
 31
0.0
  0
LINE
  5
180
330
17
100
AcDbEntity
  8
0
100
AcDbLine
 10
120.8941650390625
 20
29.76654815673828
 30
0.0
 11
120.73807525634766
 21
29.725318908691406
 31
0.0
  0
LINE
  5
181
330
17
100
AcDbEntity
  8
0
100
AcDbLine
 10
120.73807525634766
 20
29.725318908691406
 30
0.0
 11
120.63243865966797
 21
29.73578643798828
 31
0.0
  0
LINE
  5
182
330
17
100
AcDbEntity
  8
0
100
AcDbLine
 10
120.63243865966797
 20
29.73578643798828
 30
0.0
 11
120.5067367553711
 21
29.65782928466797
 31
0.0
  0
LINE
  5
183
330
17
100
AcDbEntity
  8
0
100
AcDbLine
 10
120.5067367553711
 20
29.65782928466797
 30
0.0
 11
120.12528228759766
 21
29.541778564453125
 31
0.0
  0
LINE
  5
184
330
17
100
AcDbEntity
  8
0
100
AcDbLine
 10
120.12528228759766
 20
29.541778564453125
 30
0.0
 11
118.25827026367188
 21
29.0784912109375
 31
0.0
  0
LINE
  5
185
330
17
100
AcDbEntity
  8
0
100
AcDbLine
 10
118.25827026367188
 20
29.0784912109375
 30
0.0
 11
115.99140930175781
 21
28.32427978515625
 31
0.0
  0
LINE
  5
186
330
17
100
AcDbEntity
  8
0
100
AcDbLine
 10
115.99140930175781
 20
28.32427978515625
 30
0.0
 11
115.626220703125
 21
28.192291259765625
 31
0.0
  0
LINE
  5
187
330
17
100
AcDbEntity
  8
0
100
AcDbLine
 10
115.626220703125
 20
28.192291259765625
 30
0.0
 11
114.80265808105469
 21
27.965721130371094
 31
0.0
  0
LINE
  5
188
330
17
100
AcDbEntity
  8
0
100
AcDbLine
 10
114.80265808105469
 20
27.965721130371094
 30
0.0
 11
113.45169830322266
 21
27.730857849121094
 31
0.0
  0
LINE
  5
189
330
17
100
AcDbEntity
  8
0
100
AcDbLine
 10
113.45169830322266
 20
27.730857849121094
 30
0.0
 11
113.09892272949219
 21
27.736793518066406
 31
0.0
  0
LINE
  5
18A
330
17
100
AcDbEntity
  8
0
100
AcDbLine
 10
113.09892272949219
 20
27.736793518066406
 30
0.0
 11
110.19125366210938
 21
27.461990356445312
 31
0.0
  0
LINE
  5
18B
330
17
100
AcDbEntity
  8
0
100
AcDbLine
 10
110.19125366210938
 20
27.461990356445312
 30
0.0
 11
110.035888671875
 21
27.454002380371094
 31
0.0
  0
LINE
  5
18C
330
17
100
AcDbEntity
  8
0
100
AcDbLine
 10
110.035888671875
 20
27.454002380371094
 30
0.0
 11
110.00902557373047
 21
27.45477294921875
 31
0.0
  0
LINE
  5
18D
330
17
100
AcDbEntity
  8
0
100
AcDbLine
 10
110.00902557373047
 20
27.45477294921875
 30
0.0
 11
109.03663635253906
 21
27.65802001953125
 31
0.0
  0
LINE
  5
18E
330
17
100
AcDbEntity
  8
0
100
AcDbLine
 10
109.03663635253906
 20
27.65802001953125
 30
0.0
 11
107.32472229003906
 21
28.027816772460938
 31
0.0
  0
LINE
  5
18F
330
17
100
AcDbEntity
  8
0
100
AcDbLine
 10
107.32472229003906
 20
28.027816772460938
 30
0.0
 11
107.30447387695312
 21
28.038223266601562
 31
0.0
  0
LINE
  5
190
330
17
100
AcDbEntity
  8
0
100
AcDbLine
 10
107.30447387695312
 20
28.038223266601562
 30
0.0
 11
107.29121398925781
 21
28.047805786132812
 31
0.0
  0
LINE
  5
191
330
17
100
AcDbEntity
  8
0
100
AcDbLine
 10
107.29121398925781
 20
28.047805786132812
 30
0.0
 11
105.8123779296875
 21
28.679237365722656
 31
0.0
  0
LINE
  5
192
330
17
100
AcDbEntity
  8
0
100
AcDbLine
 10
105.8123779296875
 20
28.679237365722656
 30
0.0
 11
105.6676254272461
 21
28.77770233154297
 31
0.0
  0
LINE
  5
193
330
17
100
AcDbEntity
  8
0
100
AcDbLine
 10
105.6676254272461
 20
28.77770233154297
 30
0.0
 11
104.3572769165039
 21
29.801063537597656
 31
0.0
  0
LINE
  5
194
330
17
100
AcDbEntity
  8
0
100
AcDbLine
 10
104.3572769165039
 20
29.801063537597656
 30
0.0
 11
104.16899871826172
 21
29.891281127929688
 31
0.0
  0
LINE
  5
195
330
17
100
AcDbEntity
  8
0
100
AcDbLine
 10
104.16899871826172
 20
29.891281127929688
 30
0.0
 11
102.99201965332031
 21
31.14068603515625
 31
0.0
  0
LINE
  5
196
330
17
100
AcDbEntity
  8
0
100
AcDbLine
 10
102.99201965332031
 20
31.14068603515625
 30
0.0
 11
102.5684814453125
 21
31.490829467773438
 31
0.0
  0
LINE
  5
197
330
17
100
AcDbEntity
  8
0
100
AcDbLine
 10
102.5684814453125
 20
31.490829467773438
 30
0.0
 11
102.53487396240234
 21
31.523094177246094
 31
0.0
  0
LINE
  5
198
330
17
100
AcDbEntity
  8
0
100
AcDbLine
 10
102.53487396240234
 20
31.523094177246094
 30
0.0
 11
102.22994995117188
 21
31.72985076904297
 31
0.0
  0
LINE
  5
199
330
17
100
AcDbEntity
  8
0
100
AcDbLine
 10
102.22994995117188
 20
31.72985076904297
 30
0.0
 11
101.27838134765625
 21
32.61589050292969
 31
0.0
  0
LINE
  5
19A
330
17
100
AcDbEntity
  8
0
100
AcDbLine
 10
101.27838134765625
 20
32.61589050292969
 30
0.0
 11
100.07998657226562
 21
33.41789245605469
 31
0.0
  0
LINE
  5
19B
330
17
100
AcDbEntity
  8
0
100
AcDbLine
 10
100.07998657226562
 20
33.41789245605469
 30
0.0
 11
99.27902221679688
 21
33.77409362792969
 31
0.0
  0
LINE
  5
19C
330
17
100
AcDbEntity
  8
0
100
AcDbLine
 10
99.27902221679688
 20
33.77409362792969
 30
0.0
 11
99.25215148925781
 21
33.78765869140625
 31
0.0
  0
LINE
  5
19D
330
17
100
AcDbEntity
  8
0
100
AcDbLine
 10
99.25215148925781
 20
33.78765869140625
 30
0.0
 11
98.79899597167969
 21
33.95508575439453
 31
0.0
  0
LINE
  5
19E
330
17
100
AcDbEntity
  8
0
100
AcDbLine
 10
98.79899597167969
 20
33.95508575439453
 30
0.0
 11
97.96260833740234
 21
34.379425048828125
 31
0.0
  0
LINE
  5
19F
330
17
100
AcDbEntity
  8
0
100
AcDbLine
 10
97.96260833740234
 20
34.379425048828125
 30
0.0
 11
96.92884826660156
 21
34.91944122314453
 31
0.0
  0
LINE
  5
1A0
330
17
100
AcDbEntity
  8
0
100
AcDbLine
 10
96.92884826660156
 20
34.91944122314453
 30
0.0
 11
96.4438705444336
 21
35.13922119140625
 31
0.0
  0
LINE
  5
1A1
330
17
100
AcDbEntity
  8
0
100
AcDbLine
 10
96.4438705444336
 20
35.13922119140625
 30
0.0
 11
94.22953033447266
 21
36.57511901855469
 31
0.0
  0
LINE
  5
1A2
330
17
100
AcDbEntity
  8
0
100
AcDbLine
 10
94.22953033447266
 20
36.57511901855469
 30
0.0
 11
93.11920166015625
 21
37.35188293457031
 31
0.0
  0
LINE
  5
1A3
330
17
100
AcDbEntity
  8
0
100
AcDbLine
 10
93.11920166015625
 20
37.35188293457031
 30
0.0
 11
92.7376708984375
 21
37.53820037841797
 31
0.0
  0
LINE
  5
1A4
330
17
100
AcDbEntity
  8
0
100
AcDbLine
 10
92.7376708984375
 20
37.53820037841797
 30
0.0
 11
92.24951171875
 21
37.846824645996094
 31
0.0
  0
LINE
  5
1A5
330
17
100
AcDbEntity
  8
0
100
AcDbLine
 10
92.24951171875
 20
37.846824645996094
 30
0.0
 11
91.61691284179688
 21
38.202545166015625
 31
0.0
  0
LINE
  5
1A6
330
17
100
AcDbEntity
  8
0
100
AcDbLine
 10
91.61691284179688
 20
38.202545166015625
 30
0.0
 11
90.04119110107422
 21
38.887939453125
 31
0.0
  0
LINE
  5
1A7
330
17
100
AcDbEntity
  8
0
100
AcDbLine
 10
90.04119110107422
 20
38.887939453125
 30
0.0
 11
89.92913818359375
 21
38.92267608642578
 31
0.0
  0
LINE
  5
1A8
330
17
100
AcDbEntity
  8
0
100
AcDbLine
 10
89.92913818359375
 20
38.92267608642578
 30
0.0
 11
88.12553405761719
 21
39.164710998535156
 31
0.0
  0
LINE
  5
1A9
330
17
100
AcDbEntity
  8
0
100
AcDbLine
 10
88.12553405761719
 20
39.164710998535156
 30
0.0
 11
87.5303955078125
 21
39.24388885498047
 31
0.0
  0
LINE
  5
1AA
330
17
100
AcDbEntity
  8
0
100
AcDbLine
 10
87.5303955078125
 20
39.24388885498047
 30
0.0
 11
85.39446258544922
 21
39.24693298339844
 31
0.0
  0
LINE
  5
1AB
330
17
100
AcDbEntity
  8
0
100
AcDbLine
 10
85.39446258544922
 20
39.24693298339844
 30
0.0
 11
85.05551147460938
 21
39.233612060546875
 31
0.0
  0
LINE
  5
1AC
330
17
100
AcDbEntity
  8
0
100
AcDbLine
 10
85.05551147460938
 20
39.233612060546875
 30
0.0
 11
83.2245101928711
 21
39.194252014160156
 31
0.0
  0
LINE
  5
1AD
330
17
100
AcDbEntity
  8
0
100
AcDbLine
 10
83.2245101928711
 20
39.194252014160156
 30
0.0
 11
82.57379150390625
 21
39.14317321777344
 31
0.0
  0
LINE
  5
1AE
330
17
100
AcDbEntity
  8
0
100
AcDbLine
 10
82.57379150390625
 20
39.14317321777344
 30
0.0
 11
81.061767578125
 21
39.081886291503906
 31
0.0
  0
LINE
  5
1AF
330
17
100
AcDbEntity
  8
0
100
AcDbLine
 10
81.061767578125
 20
39.081886291503906
 30
0.0
 11
80.08868408203125
 21
38.97667694091797
 31
0.0
  0
LINE
  5
1B0
330
17
100
AcDbEntity
  8
0
100
AcDbLine
 10
80.08868408203125
 20
38.97667694091797
 30
0.0
 11
78.88480377197266
 21
38.913475036621094
 31
0.0
  0
LINE
  5
1B1
330
17
100
AcDbEntity
  8
0
100
AcDbLine
 10
78.88480377197266
 20
38.913475036621094
 30
0.0
 11
77.60067749023438
 21
38.753562927246094
 31
0.0
  0
LINE
  5
1B2
330
17
100
AcDbEntity
  8
0
100
AcDbLine
 10
77.60067749023438
 20
38.753562927246094
 30
0.0
 11
76.64773559570312
 21
38.73118591308594
 31
0.0
  0
LINE
  5
1B3
330
17
100
AcDbEntity
  8
0
100
AcDbLine
 10
76.64773559570312
 20
38.73118591308594
 30
0.0
 11
75.11029052734375
 21
38.54492950439453
 31
0.0
  0
LINE
  5
1B4
330
17
100
AcDbEntity
  8
0
100
AcDbLine
 10
75.11029052734375
 20
38.54492950439453
 30
0.0
 11
74.26406860351562
 21
38.614830017089844
 31
0.0
  0
LINE
  5
1B5
330
17
100
AcDbEntity
  8
0
100
AcDbLine
 10
74.26406860351562
 20
38.614830017089844
 30
0.0
 11
72.61863708496094
 21
38.511627197265625
 31
0.0
  0
LINE
  5
1B6
330
17
100
AcDbEntity
  8
0
100
AcDbLine
 10
72.61863708496094
 20
38.511627197265625
 30
0.0
 11
71.62923431396484
 21
38.73011016845703
 31
0.0
  0
LINE
  5
1B7
330
17
100
AcDbEntity
  8
0
100
AcDbLine
 10
71.62923431396484
 20
38.73011016845703
 30
0.0
 11
70.12670135498047
 21
38.794898986816406
 31
0.0
  0
LINE
  5
1B8
330
17
100
AcDbEntity
  8
0
100
AcDbLine
 10
70.12670135498047
 20
38.794898986816406
 30
0.0
 11
68.91948699951172
 21
39.197021484375
 31
0.0
  0
LINE
  5
1B9
330
17
100
AcDbEntity
  8
0
100
AcDbLine
 10
68.91948699951172
 20
39.197021484375
 30
0.0
 11
67.73198699951172
 21
39.38645935058594
 31
0.0
  0
LINE
  5
1BA
330
17
100
AcDbEntity
  8
0
100
AcDbLine
 10
67.73198699951172
 20
39.38645935058594
 30
0.0
 11
65.40057373046875
 21
40.243316650390625
 31
0.0
  0
LINE
  5
1BB
330
17
100
AcDbEntity
  8
0
100
AcDbLine
 10
65.40057373046875
 20
40.243316650390625
 30
0.0
 11
65.13347625732422
 21
40.3743896484375
 31
0.0
  0
LINE
  5
1BC
330
17
100
AcDbEntity
  8
0
100
AcDbLine
 10
65.13347625732422
 20
40.3743896484375
 30
0.0
 11
64.87468719482422
 21
40.49137878417969
 31
0.0
  0
LINE
  5
1BD
330
17
100
AcDbEntity
  8
0
100
AcDbLine
 10
64.87468719482422
 20
40.49137878417969
 30
0.0
 11
62.65083312988281
 21
41.30963897705078
 31
0.0
  0
LINE
  5
1BE
330
17
100
AcDbEntity
  8
0
100
AcDbLine
 10
62.65083312988281
 20
41.30963897705078
 30
0.0
 11
61.01781463623047
 21
41.856300354003906
 31
0.0
  0
LINE
  5
1BF
330
17
100
AcDbEntity
  8
0
100
AcDbLine
 10
61.01781463623047
 20
41.856300354003906
 30
0.0
 11
60.15887451171875
 21
42.05957794189453
 31
0.0
  0
LINE
  5
1C0
330
17
100
AcDbEntity
  8
0
100
AcDbLine
 10
60.15887451171875
 20
42.05957794189453
 30
0.0
 11
57.88440704345703
 21
42.715232849121094
 31
0.0
  0
LINE
  5
1C1
330
17
100
AcDbEntity
  8
0
100
AcDbLine
 10
57.88440704345703
 20
42.715232849121094
 30
0.0
 11
57.66691589355469
 21
42.79174041748047
 31
0.0
  0
LINE
  5
1C2
330
17
100
AcDbEntity
  8
0
100
AcDbLine
 10
57.66691589355469
 20
42.79174041748047
 30
0.0
 11
57.392425537109375
 21
42.989715576171875
 31
0.0
  0
LINE
  5
1C3
330
17
100
AcDbEntity
  8
0
100
AcDbLine
 10
57.392425537109375
 20
42.989715576171875
 30
0.0
 11
55.174957275390625
 21
44.369178771972656
 31
0.0
  0
LINE
  5
1C4
330
17
100
AcDbEntity
  8
0
100
AcDbLine
 10
55.174957275390625
 20
44.369178771972656
 30
0.0
 11
54.811683654785156
 21
45.207191467285156
 31
0.0
  0
LINE
  5
1C5
330
17
100
AcDbEntity
  8
0
100
AcDbLine
 10
54.811683654785156
 20
45.207191467285156
 30
0.0
 11
54.838401794433594
 21
45.69982147216797
 31
0.0
  0
LINE
  5
1C6
330
17
100
AcDbEntity
  8
0
100
AcDbLine
 10
54.838401794433594
 20
45.69982147216797
 30
0.0
 11
54.41918182373047
 21
47.69915771484375
 31
0.0
  0
LINE
  5
1C7
330
17
100
AcDbEntity
  8
0
100
AcDbLine
 10
54.41918182373047
 20
47.69915771484375
 30
0.0
 11
54.64513397216797
 21
48.328102111816406
 31
0.0
  0
LINE
  5
1C8
330
17
100
AcDbEntity
  8
0
100
AcDbLine
 10
54.64513397216797
 20
48.328102111816406
 30
0.0
 11
54.81233215332031
 21
49.93791961669922
 31
0.0
  0
LINE
  5
1C9
330
17
100
AcDbEntity
  8
0
100
AcDbLine
 10
54.81233215332031
 20
49.93791961669922
 30
0.0
 11
54.93135070800781
 21
49.999610900878906
 31
0.0
  0
LINE
  5
1CA
330
17
100
AcDbEntity
  8
0
100
AcDbLine
 10
54.93135070800781
 20
49.999610900878906
 30
0.0
 11
55.02033996582031
 21
50.07561492919922
 31
0.0
  0
LINE
  5
1CB
330
17
100
AcDbEntity
  8
0
100
AcDbLine
 10
55.02033996582031
 20
50.07561492919922
 30
0.0
 11
55.02088165283203
 21
50.12512969970703
 31
0.0
  0
LINE
  5
1CC
330
17
100
AcDbEntity
  8
0
100
AcDbLine
 10
55.02088165283203
 20
50.12512969970703
 30
0.0
 11
55.09934997558594
 21
50.294044494628906
 31
0.0
  0
LINE
  5
1CD
330
17
100
AcDbEntity
  8
0
100
AcDbLine
 10
55.09934997558594
 20
50.294044494628906
 30
0.0
 11
55.04503631591797
 21
52.369293212890625
 31
0.0
  0
LINE
  5
1CE
330
17
100
AcDbEntity
  8
0
100
AcDbLine
 10
55.04503631591797
 20
52.369293212890625
 30
0.0
 11
55.05584716796875
 21
52.68304443359375
 31
0.0
  0
LINE
  5
1CF
330
17
100
AcDbEntity
  8
0
100
AcDbLine
 10
55.05584716796875
 20
52.68304443359375
 30
0.0
 11
55.054901123046875
 21
52.718650817871094
 31
0.0
  0
LINE
  5
1D0
330
17
100
AcDbEntity
  8
0
100
AcDbLine
 10
55.054901123046875
 20
52.718650817871094
 30
0.0
 11
55.78143310546875
 21
55.36863708496094
 31
0.0
  0
LINE
  5
1D1
330
17
100
AcDbEntity
  8
0
100
AcDbLine
 10
55.78143310546875
 20
55.36863708496094
 30
0.0
 11
55.80571746826172
 21
55.66571044921875
 31
0.0
  0
LINE
  5
1D2
330
17
100
AcDbEntity
  8
0
100
AcDbLine
 10
55.80571746826172
 20
55.66571044921875
 30
0.0
 11
55.897918701171875
 21
56.33503723144531
 31
0.0
  0
LINE
  5
1D3
330
17
100
AcDbEntity
  8
0
100
AcDbLine
 10
55.897918701171875
 20
56.33503723144531
 30
0.0
 11
56.278526306152344
 21
57.661109924316406
 31
0.0
  0
LINE
  5
1D4
330
17
100
AcDbEntity
  8
0
100
AcDbLine
 10
56.278526306152344
 20
57.661109924316406
 30
0.0
 11
57.03858947753906
 21
59.987884521484375
 31
0.0
  0
LINE
  5
1D5
330
17
100
AcDbEntity
  8
0
100
AcDbLine
 10
57.03858947753906
 20
59.987884521484375
 30
0.0
 11
57.106178283691406
 21
60.214691162109375
 31
0.0
  0
LINE
  5
1D6
330
17
100
AcDbEntity
  8
0
100
AcDbLine
 10
57.106178283691406
 20
60.214691162109375
 30
0.0
 11
57.125404357910156
 21
60.24213409423828
 31
0.0
  0
LINE
  5
1D7
330
17
100
AcDbEntity
  8
0
100
AcDbLine
 10
57.125404357910156
 20
60.24213409423828
 30
0.0
 11
57.138885498046875
 21
60.252403259277344
 31
0.0
  0
LINE
  5
1D8
330
17
100
AcDbEntity
  8
0
100
AcDbLine
 10
57.138885498046875
 20
60.252403259277344
 30
0.0
 11
57.135498046875
 21
60.28926086425781
 31
0.0
  0
LINE
  5
1D9
330
17
100
AcDbEntity
  8
0
100
AcDbLine
 10
57.135498046875
 20
60.28926086425781
 30
0.0
 11
57.85365295410156
 21
62.47503662109375
 31
0.0
  0
LINE
  5
1DA
330
17
100
AcDbEntity
  8
0
100
AcDbLine
 10
57.85365295410156
 20
62.47503662109375
 30
0.0
 11
57.850982666015625
 21
62.96284484863281
 31
0.0
  0
LINE
  5
1DB
330
17
100
AcDbEntity
  8
0
100
AcDbLine
 10
57.850982666015625
 20
62.96284484863281
 30
0.0
 11
58.134307861328125
 21
64.00202178955078
 31
0.0
  0
LINE
  5
1DC
330
17
100
AcDbEntity
  8
0
100
AcDbLine
 10
58.134307861328125
 20
64.00202178955078
 30
0.0
 11
58.355125427246094
 21
65.05611419677734
 31
0.0
  0
LINE
  5
1DD
330
17
100
AcDbEntity
  8
0
100
AcDbLine
 10
58.355125427246094
 20
65.05611419677734
 30
0.0
 11
58.35304260253906
 21
65.48653411865234
 31
0.0
  0
LINE
  5
1DE
330
17
100
AcDbEntity
  8
0
100
AcDbLine
 10
58.35304260253906
 20
65.48653411865234
 30
0.0
 11
58.576995849609375
 21
67.4963607788086
 31
0.0
  0
LINE
  5
1DF
330
17
100
AcDbEntity
  8
0
100
AcDbLine
 10
58.576995849609375
 20
67.4963607788086
 30
0.0
 11
58.42633056640625
 21
68.1720199584961
 31
0.0
  0
LINE
  5
1E0
330
17
100
AcDbEntity
  8
0
100
AcDbLine
 10
58.42633056640625
 20
68.1720199584961
 30
0.0
 11
57.95317077636719
 21
69.95008850097656
 31
0.0
  0
LINE
  5
1E1
330
17
100
AcDbEntity
  8
0
100
AcDbLine
 10
57.95317077636719
 20
69.95008850097656
 30
0.0
 11
57.519691467285156
 21
71.21104431152344
 31
0.0
  0
LINE
  5
1E2
330
17
100
AcDbEntity
  8
0
100
AcDbLine
 10
57.519691467285156
 20
71.21104431152344
 30
0.0
 11
56.94963836669922
 21
72.40873718261719
 31
0.0
  0
LINE
  5
1E3
330
17
100
AcDbEntity
  8
0
100
AcDbLine
 10
56.94963836669922
 20
72.40873718261719
 30
0.0
 11
56.470245361328125
 21
73.41069793701172
 31
0.0
  0
LINE
  5
1E4
330
17
100
AcDbEntity
  8
0
100
AcDbLine
 10
56.470245361328125
 20
73.41069793701172
 30
0.0
 11
56.289337158203125
 21
73.71644592285156
 31
0.0
  0
LINE
  5
1E5
330
17
100
AcDbEntity
  8
0
100
AcDbLine
 10
56.289337158203125
 20
73.71644592285156
 30
0.0
 11
56.108497619628906
 21
73.9507064819336
 31
0.0
  0
LINE
  5
1E6
330
17
100
AcDbEntity
  8
0
100
AcDbLine
 10
56.108497619628906
 20
73.9507064819336
 30
0.0
 11
55.10272979736328
 21
74.938720703125
 31
0.0
  0
LINE
  5
1E7
330
17
100
AcDbEntity
  8
0
100
AcDbLine
 10
55.10272979736328
 20
74.938720703125
 30
0.0
 11
53.92295837402344
 21
76.33426666259766
 31
0.0
  0
LINE
  5
1E8
330
17
100
AcDbEntity
  8
0
100
AcDbLine
 10
53.92295837402344
 20
76.33426666259766
 30
0.0
 11
53.667442321777344
 21
76.65778350830078
 31
0.0
  0
LINE
  5
1E9
330
17
100
AcDbEntity
  8
0
100
AcDbLine
 10
53.667442321777344
 20
76.65778350830078
 30
0.0
 11
52.89198303222656
 21
77.67066955566406
 31
0.0
  0
LINE
  5
1EA
330
17
100
AcDbEntity
  8
0
100
AcDbLine
 10
52.89198303222656
 20
77.67066955566406
 30
0.0
 11
52.236488342285156
 21
78.53336334228516
 31
0.0
  0
LINE
  5
1EB
330
17
100
AcDbEntity
  8
0
100
AcDbLine
 10
52.236488342285156
 20
78.53336334228516
 30
0.0
 11
51.723487854003906
 21
79.16957092285156
 31
0.0
  0
LINE
  5
1EC
330
17
100
AcDbEntity
  8
0
100
AcDbLine
 10
51.723487854003906
 20
79.16957092285156
 30
0.0
 11
51.27082824707031
 21
79.7182846069336
 31
0.0
  0
LINE
  5
1ED
330
17
100
AcDbEntity
  8
0
100
AcDbLine
 10
51.27082824707031
 20
79.7182846069336
 30
0.0
 11
50.748695373535156
 21
80.38590240478516
 31
0.0
  0
LINE
  5
1EE
330
17
100
AcDbEntity
  8
0
100
AcDbLine
 10
50.748695373535156
 20
80.38590240478516
 30
0.0
 11
50.264854431152344
 21
81.01467895507812
 31
0.0
  0
LINE
  5
1EF
330
17
100
AcDbEntity
  8
0
100
AcDbLine
 10
50.264854431152344
 20
81.01467895507812
 30
0.0
 11
49.49858856201172
 21
81.86768341064453
 31
0.0
  0
LINE
  5
1F0
330
17
100
AcDbEntity
  8
0
100
AcDbLine
 10
49.49858856201172
 20
81.86768341064453
 30
0.0
 11
48.71733856201172
 21
82.70592498779297
 31
0.0
  0
LINE
  5
1F1
330
17
100
AcDbEntity
  8
0
100
AcDbLine
 10
48.71733856201172
 20
82.70592498779297
 30
0.0
 11
48.366920471191406
 21
83.13679504394531
 31
0.0
  0
LINE
  5
1F2
330
17
100
AcDbEntity
  8
0
100
AcDbLine
 10
48.366920471191406
 20
83.13679504394531
 30
0.0
 11
47.957122802734375
 21
83.64434814453125
 31
0.0
  0
LINE
  5
1F3
330
17
100
AcDbEntity
  8
0
100
AcDbLine
 10
47.957122802734375
 20
83.64434814453125
 30
0.0
 11
47.14100646972656
 21
84.50917053222656
 31
0.0
  0
LINE
  5
1F4
330
17
100
AcDbEntity
  8
0
100
AcDbLine
 10
47.14100646972656
 20
84.50917053222656
 30
0.0
 11
46.29414367675781
 21
85.39961242675781
 31
0.0
  0
LINE
  5
1F5
330
17
100
AcDbEntity
  8
0
100
AcDbLine
 10
46.29414367675781
 20
85.39961242675781
 30
0.0
 11
45.9915771484375
 21
85.7743148803711
 31
0.0
  0
LINE
  5
1F6
330
17
100
AcDbEntity
  8
0
100
AcDbLine
 10
45.9915771484375
 20
85.7743148803711
 30
0.0
 11
45.6358642578125
 21
86.1968994140625
 31
0.0
  0
LINE
  5
1F7
330
17
100
AcDbEntity
  8
0
100
AcDbLine
 10
45.6358642578125
 20
86.1968994140625
 30
0.0
 11
44.760765075683594
 21
87.08055877685547
 31
0.0
  0
LINE
  5
1F8
330
17
100
AcDbEntity
  8
0
100
AcDbLine
 10
44.760765075683594
 20
87.08055877685547
 30
0.0
 11
43.778160095214844
 21
88.03106689453125
 31
0.0
  0
LINE
  5
1F9
330
17
100
AcDbEntity
  8
0
100
AcDbLine
 10
43.778160095214844
 20
88.03106689453125
 30
0.0
 11
43.50050354003906
 21
88.34222412109375
 31
0.0
  0
LINE
  5
1FA
330
17
100
AcDbEntity
  8
0
100
AcDbLine
 10
43.50050354003906
 20
88.34222412109375
 30
0.0
 11
43.20685577392578
 21
88.64705657958984
 31
0.0
  0
LINE
  5
1FB
330
17
100
AcDbEntity
  8
0
100
AcDbLine
 10
43.20685577392578
 20
88.64705657958984
 30
0.0
 11
42.263816833496094
 21
89.49638366699219
 31
0.0
  0
LINE
  5
1FC
330
17
100
AcDbEntity
  8
0
100
AcDbLine
 10
42.263816833496094
 20
89.49638366699219
 30
0.0
 11
41.128509521484375
 21
90.51153564453125
 31
0.0
  0
LINE
  5
1FD
330
17
100
AcDbEntity
  8
0
100
AcDbLine
 10
41.128509521484375
 20
90.51153564453125
 30
0.0
 11
40.88502502441406
 21
90.75318908691406
 31
0.0
  0
LINE
  5
1FE
330
17
100
AcDbEntity
  8
0
100
AcDbLine
 10
40.88502502441406
 20
90.75318908691406
 30
0.0
 11
40.65650177001953
 21
90.97322082519531
 31
0.0
  0
LINE
  5
1FF
330
17
100
AcDbEntity
  8
0
100
AcDbLine
 10
40.65650177001953
 20
90.97322082519531
 30
0.0
 11
39.642662048339844
 21
91.84614562988281
 31
0.0
  0
LINE
  5
200
330
17
100
AcDbEntity
  8
0
100
AcDbLine
 10
39.642662048339844
 20
91.84614562988281
 30
0.0
 11
38.30883026123047
 21
92.92410278320312
 31
0.0
  0
LINE
  5
201
330
17
100
AcDbEntity
  8
0
100
AcDbLine
 10
38.30883026123047
 20
92.92410278320312
 30
0.0
 11
38.121124267578125
 21
93.09849548339844
 31
0.0
  0
LINE
  5
202
330
17
100
AcDbEntity
  8
0
100
AcDbLine
 10
38.121124267578125
 20
93.09849548339844
 30
0.0
 11
37.95463562011719
 21
93.24104309082031
 31
0.0
  0
LINE
  5
203
330
17
100
AcDbEntity
  8
0
100
AcDbLine
 10
37.95463562011719
 20
93.24104309082031
 30
0.0
 11
36.873023986816406
 21
94.07804870605469
 31
0.0
  0
LINE
  5
204
330
17
100
AcDbEntity
  8
0
100
AcDbLine
 10
36.873023986816406
 20
94.07804870605469
 30
0.0
 11
35.086570739746094
 21
95.35099792480469
 31
0.0
  0
LINE
  5
205
330
17
100
AcDbEntity
  8
0
100
AcDbLine
 10
35.086570739746094
 20
95.35099792480469
 30
0.0
 11
35.03400421142578
 21
95.39193725585938
 31
0.0
  0
LINE
  5
206
330
17
100
AcDbEntity
  8
0
100
AcDbLine
 10
35.03400421142578
 20
95.39193725585938
 30
0.0
 11
34.99480438232422
 21
95.42074584960938
 31
0.0
  0
LINE
  5
207
330
17
100
AcDbEntity
  8
0
100
AcDbLine
 10
34.99480438232422
 20
95.42074584960938
 30
0.0
 11
34.94068145751953
 21
95.45632934570312
 31
0.0
  0
LINE
  5
208
330
17
100
AcDbEntity
  8
0
100
AcDbLine
 10
34.94068145751953
 20
95.45632934570312
 30
0.0
 11
32.81291198730469
 21
96.79769897460938
 31
0.0
  0
LINE
  5
209
330
17
100
AcDbEntity
  8
0
100
AcDbLine
 10
32.81291198730469
 20
96.79769897460938
 30
0.0
 11
32.80961608886719
 21
96.7996826171875
 31
0.0
  0
LINE
  5
20A
330
17
100
AcDbEntity
  8
0
100
AcDbLine
 10
32.80961608886719
 20
96.7996826171875
 30
0.0
 11
32.80641174316406
 21
96.80167388916016
 31
0.0
  0
LINE
  5
20B
330
17
100
AcDbEntity
  8
0
100
AcDbLine
 10
32.80641174316406
 20
96.80167388916016
 30
0.0
 11
30.176483154296875
 21
98.19288635253906
 31
0.0
  0
LINE
  5
20C
330
17
100
AcDbEntity
  8
0
100
AcDbLine
 10
30.176483154296875
 20
98.19288635253906
 30
0.0
 11
30.1431884765625
 21
98.21150207519531
 31
0.0
  0
LINE
  5
20D
330
17
100
AcDbEntity
  8
0
100
AcDbLine
 10
30.1431884765625
 20
98.21150207519531
 30
0.0
 11
30.11968994140625
 21
98.223388671875
 31
0.0
  0
LINE
  5
20E
330
17
100
AcDbEntity
  8
0
100
AcDbLine
 10
30.11968994140625
 20
98.223388671875
 30
0.0
 11
30.07799530029297
 21
98.24060821533203
 31
0.0
  0
LINE
  5
20F
330
17
100
AcDbEntity
  8
0
100
AcDbLine
 10
30.07799530029297
 20
98.24060821533203
 30
0.0
 11
27.871124267578125
 21
99.26751708984375
 31
0.0
  0
LINE
  5
210
330
17
100
AcDbEntity
  8
0
100
AcDbLine
 10
27.871124267578125
 20
99.26751708984375
 30
0.0
 11
27.84820556640625
 21
99.279541015625
 31
0.0
  0
LINE
  5
211
330
17
100
AcDbEntity
  8
0
100
AcDbLine
 10
27.84820556640625
 20
99.279541015625
 30
0.0
 11
27.647117614746094
 21
99.36817932128906
 31
0.0
  0
LINE
  5
212
330
17
100
AcDbEntity
  8
0
100
AcDbLine
 10
27.647117614746094
 20
99.36817932128906
 30
0.0
 11
25.0821533203125
 21
100.5194091796875
 31
0.0
  0
LINE
  5
213
330
17
100
AcDbEntity
  8
0
100
AcDbLine
 10
25.0821533203125
 20
100.5194091796875
 30
0.0
 11
24.918067932128906
 21
100.5877685546875
 31
0.0
  0
LINE
  5
214
330
17
100
AcDbEntity
  8
0
100
AcDbLine
 10
24.918067932128906
 20
100.5877685546875
 30
0.0
 11
24.666854858398438
 21
100.68565368652344
 31
0.0
  0
LINE
  5
215
330
17
100
AcDbEntity
  8
0
100
AcDbLine
 10
24.666854858398438
 20
100.68565368652344
 30
0.0
 11
22.865806579589844
 21
101.43637084960938
 31
0.0
  0
LINE
  5
216
330
17
100
AcDbEntity
  8
0
100
AcDbLine
 10
22.865806579589844
 20
101.43637084960938
 30
0.0
 11
22.58849334716797
 21
101.55148315429688
 31
0.0
  0
LINE
  5
217
330
17
100
AcDbEntity
  8
0
100
AcDbLine
 10
22.58849334716797
 20
101.55148315429688
 30
0.0
 11
20.5906982421875
 21
102.35295104980469
 31
0.0
  0
LINE
  5
218
330
17
100
AcDbEntity
  8
0
100
AcDbLine
 10
20.5906982421875
 20
102.35295104980469
 30
0.0
 11
20.309532165527344
 21
102.47006225585938
 31
0.0
  0
LINE
  5
219
330
17
100
AcDbEntity
  8
0
100
AcDbLine
 10
20.309532165527344
 20
102.47006225585938
 30
0.0
 11
20.28754425048828
 21
102.47845458984375
 31
0.0
  0
LINE
  5
21A
330
17
100
AcDbEntity
  8
0
100
AcDbLine
 10
20.28754425048828
 20
102.47845458984375
 30
0.0
 11
18.100494384765625
 21
103.3965835571289
 31
0.0
  0
LINE
  5
21B
330
17
100
AcDbEntity
  8
0
100
AcDbLine
 10
18.100494384765625
 20
103.3965835571289
 30
0.0
 11
18.018409729003906
 21
103.42681884765625
 31
0.0
  0
LINE
  5
21C
330
17
100
AcDbEntity
  8
0
100
AcDbLine
 10
18.018409729003906
 20
103.42681884765625
 30
0.0
 11
17.92383575439453
 21
103.49363708496094
 31
0.0
  0
LINE
  5
21D
330
17
100
AcDbEntity
  8
0
100
AcDbLine
 10
17.92383575439453
 20
103.49363708496094
 30
0.0
 11
17.779808044433594
 21
103.54117584228516
 31
0.0
  0
LINE
  5
21E
330
17
100
AcDbEntity
  8
0
100
AcDbLine
 10
17.779808044433594
 20
103.54117584228516
 30
0.0
 11
15.296661376953125
 21
104.8663330078125
 31
0.0
  0
LINE
  5
21F
330
17
100
AcDbEntity
  8
0
100
AcDbLine
 10
15.296661376953125
 20
104.8663330078125
 30
0.0
 11
15.217483520507812
 21
104.91668701171875
 31
0.0
  0
LINE
  5
220
330
17
100
AcDbEntity
  8
0
100
AcDbLine
 10
15.217483520507812
 20
104.91668701171875
 30
0.0
 11
14.995025634765625
 21
105.03919982910156
 31
0.0
  0
LINE
  5
221
330
17
100
AcDbEntity
  8
0
100
AcDbLine
 10
14.995025634765625
 20
105.03919982910156
 30
0.0
 11
12.805549621582031
 21
106.41014099121094
 31
0.0
  0
LINE
  5
222
330
17
100
AcDbEntity
  8
0
100
AcDbLine
 10
12.805549621582031
 20
106.41014099121094
 30
0.0
 11
12.465164184570312
 21
106.6388931274414
 31
0.0
  0
LINE
  5
223
330
17
100
AcDbEntity
  8
0
100
AcDbLine
 10
12.465164184570312
 20
106.6388931274414
 30
0.0
 11
11.253013610839844
 21
107.54623413085938
 31
0.0
  0
LINE
  5
224
330
17
100
AcDbEntity
  8
0
100
AcDbLine
 10
11.253013610839844
 20
107.54623413085938
 30
0.0
 11
10.58038330078125
 21
108.06356811523438
 31
0.0
  0
LINE
  5
225
330
17
100
AcDbEntity
  8
0
100
AcDbLine
 10
10.58038330078125
 20
108.06356811523438
 30
0.0
 11
10.510910034179688
 21
108.10904693603516
 31
0.0
  0
LINE
  5
226
330
17
100
AcDbEntity
  8
0
100
AcDbLine
 10
10.510910034179688
 20
108.10904693603516
 30
0.0
 11
10.436027526855469
 21
108.1938705444336
 31
0.0
  0
LINE
  5
227
330
17
100
AcDbEntity
  8
0
100
AcDbLine
 10
10.436027526855469
 20
108.1938705444336
 30
0.0
 11
10.311798095703125
 21
108.27606964111328
 31
0.0
  0
LINE
  5
228
330
17
100
AcDbEntity
  8
0
100
AcDbLine
 10
10.311798095703125
 20
108.27606964111328
 30
0.0
 11
8.339530944824219
 21
109.9760971069336
 31
0.0
  0
LINE
  5
229
330
17
100
AcDbEntity
  8
0
100
AcDbLine
 10
8.339530944824219
 20
109.9760971069336
 30
0.0
 11
8.198387145996094
 21
110.12762451171875
 31
0.0
  0
LINE
  5
22A
330
17
100
AcDbEntity
  8
0
100
AcDbLine
 10
8.198387145996094
 20
110.12762451171875
 30
0.0
 11
8.098724365234375
 21
110.21582794189453
 31
0.0
  0
LINE
  5
22B
330
17
100
AcDbEntity
  8
0
100
AcDbLine
 10
8.098724365234375
 20
110.21582794189453
 30
0.0
 11
8.010421752929688
 21
110.33629608154297
 31
0.0
  0
LINE
  5
22C
330
17
100
AcDbEntity
  8
0
100
AcDbLine
 10
8.010421752929688
 20
110.33629608154297
 30
0.0
 11
7.870048522949219
 21
110.45552062988281
 31
0.0
  0
LINE
  5
22D
330
17
100
AcDbEntity
  8
0
100
AcDbLine
 10
7.870048522949219
 20
110.45552062988281
 30
0.0
 11
5.9072418212890625
 21
112.58528137207031
 31
0.0
  0
LINE
  5
22E
330
17
100
AcDbEntity
  8
0
100
AcDbLine
 10
5.9072418212890625
 20
112.58528137207031
 30
0.0
 11
5.800575256347656
 21
112.74173736572266
 31
0.0
  0
LINE
  5
22F
330
17
100
AcDbEntity
  8
0
100
AcDbLine
 10
5.800575256347656
 20
112.74173736572266
 30
0.0
 11
5.690521240234375
 21
112.86599731445312
 31
0.0
  0
LINE
  5
230
330
17
100
AcDbEntity
  8
0
100
AcDbLine
 10
5.690521240234375
 20
112.86599731445312
 30
0.0
 11
5.620063781738281
 21
112.98992919921875
 31
0.0
  0
LINE
  5
231
330
17
100
AcDbEntity
  8
0
100
AcDbLine
 10
5.620063781738281
 20
112.98992919921875
 30
0.0
 11
5.38409423828125
 21
113.30088806152344
 31
0.0
  0
LINE
  5
232
330
17
100
AcDbEntity
  8
0
100
AcDbLine
 10
5.38409423828125
 20
113.30088806152344
 30
0.0
 11
4.1999664306640625
 21
114.98201751708984
 31
0.0
  0
LINE
  5
233
330
17
100
AcDbEntity
  8
0
100
AcDbLine
 10
4.1999664306640625
 20
114.98201751708984
 30
0.0
 11
2.8729248046875
 21
117.4217758178711
 31
0.0
  0
LINE
  5
234
330
17
100
AcDbEntity
  8
0
100
AcDbLine
 10
2.8729248046875
 20
117.4217758178711
 30
0.0
 11
2.850555419921875
 21
117.46054077148438
 31
0.0
  0
LINE
  5
235
330
17
100
AcDbEntity
  8
0
100
AcDbLine
 10
2.850555419921875
 20
117.46054077148438
 30
0.0
 11
2.8475494384765625
 21
117.46983337402344
 31
0.0
  0
LINE
  5
236
330
17
100
AcDbEntity
  8
0
100
AcDbLine
 10
2.8475494384765625
 20
117.46983337402344
 30
0.0
 11
2.842926025390625
 21
117.47662353515625
 31
0.0
  0
LINE
  5
237
330
17
100
AcDbEntity
  8
0
100
AcDbLine
 10
2.842926025390625
 20
117.47662353515625
 30
0.0
 11
2.8390350341796875
 21
117.48685455322266
 31
0.0
  0
LINE
  5
238
330
17
100
AcDbEntity
  8
0
100
AcDbLine
 10
2.8390350341796875
 20
117.48685455322266
 30
0.0
 11
2.82257080078125
 21
117.52385711669922
 31
0.0
  0
LINE
  5
239
330
17
100
AcDbEntity
  8
0
100
AcDbLine
 10
2.82257080078125
 20
117.52385711669922
 30
0.0
 11
1.8384857177734375
 21
119.9659423828125
 31
0.0
  0
LINE
  5
23A
330
17
100
AcDbEntity
  8
0
100
AcDbLine
 10
1.8384857177734375
 20
119.9659423828125
 30
0.0
 11
1.5816192626953125
 21
121.40955352783203
 31
0.0
  0
LINE
  5
23B
330
17
100
AcDbEntity
  8
0
100
AcDbLine
 10
1.5816192626953125
 20
121.40955352783203
 30
0.0
 11
1.3282470703125
 21
122.4578857421875
 31
0.0
  0
LINE
  5
23C
330
17
100
AcDbEntity
  8
0
100
AcDbLine
 10
1.3282470703125
 20
122.4578857421875
 30
0.0
 11
1.4678192138671875
 21
124.22602081298828
 31
0.0
  0
LINE
  5
23D
330
17
100
AcDbEntity
  8
0
100
AcDbLine
 10
1.4678192138671875
 20
124.22602081298828
 30
0.0
 11
1.4339599609375
 21
124.9498519897461
 31
0.0
  0
LINE
  5
23E
330
17
100
AcDbEntity
  8
0
100
AcDbLine
 10
1.4339599609375
 20
124.9498519897461
 30
0.0
 11
1.6577911376953125
 21
125.7037353515625
 31
0.0
  0
LINE
  5
23F
330
17
100
AcDbEntity
  8
0
100
AcDbLine
 10
1.6577911376953125
 20
125.7037353515625
 30
0.0
 11
2.2580108642578125
 21
127.1935806274414
 31
0.0
  0
LINE
  5
240
330
17
100
AcDbEntity
  8
0
100
AcDbLine
 10
2.2580108642578125
 20
127.1935806274414
 30
0.0
 11
2.3113250732421875
 21
127.249267578125
 31
0.0
  0
LINE
  5
241
330
17
100
AcDbEntity
  8
0
100
AcDbLine
 10
2.3113250732421875
 20
127.249267578125
 30
0.0
 11
2.32098388671875
 21
127.25634765625
 31
0.0
  0
LINE
  5
242
330
17
100
AcDbEntity
  8
0
100
AcDbLine
 10
2.32098388671875
 20
127.25634765625
 30
0.0
 11
2.327972412109375
 21
127.26332092285156
 31
0.0
  0
LINE
  5
243
330
17
100
AcDbEntity
  8
0
100
AcDbLine
 10
2.327972412109375
 20
127.26332092285156
 30
0.0
 11
2.3346405029296875
 21
127.2737808227539
 31
0.0
  0
LINE
  5
244
330
17
100
AcDbEntity
  8
0
100
AcDbLine
 10
2.3346405029296875
 20
127.2737808227539
 30
0.0
 11
2.364044189453125
 21
127.31820678710938
 31
0.0
  0
LINE
  5
245
330
17
100
AcDbEntity
  8
0
100
AcDbLine
 10
2.364044189453125
 20
127.31820678710938
 30
0.0
 11
3.21124267578125
 21
128.65000915527344
 31
0.0
  0
LINE
  5
246
330
17
100
AcDbEntity
  8
0
100
AcDbLine
 10
3.21124267578125
 20
128.65000915527344
 30
0.0
 11
3.620635986328125
 21
129.28013610839844
 31
0.0
  0
LINE
  5
247
330
17
100
AcDbEntity
  8
0
100
AcDbLine
 10
3.620635986328125
 20
129.28013610839844
 30
0.0
 11
4.8227691650390625
 21
130.5114288330078
 31
0.0
  0
LINE
  5
248
330
17
100
AcDbEntity
  8
0
100
AcDbLine
 10
4.8227691650390625
 20
130.5114288330078
 30
0.0
 11
4.8453521728515625
 21
130.53173828125
 31
0.0
  0
LINE
  5
249
330
17
100
AcDbEntity
  8
0
100
AcDbLine
 10
4.8453521728515625
 20
130.53173828125
 30
0.0
 11
4.864349365234375
 21
130.56002807617188
 31
0.0
  0
LINE
  5
24A
330
17
100
AcDbEntity
  8
0
100
AcDbLine
 10
4.864349365234375
 20
130.56002807617188
 30
0.0
 11
6.023590087890625
 21
131.73977661132812
 31
0.0
  0
LINE
  5
24B
330
17
100
AcDbEntity
  8
0
100
AcDbLine
 10
6.023590087890625
 20
131.73977661132812
 30
0.0
 11
7.087249755859375
 21
133.092529296875
 31
0.0
  0
LINE
  5
24C
330
17
100
AcDbEntity
  8
0
100
AcDbLine
 10
7.087249755859375
 20
133.092529296875
 30
0.0
 11
7.3384857177734375
 21
133.4421844482422
 31
0.0
  0
LINE
  5
24D
330
17
100
AcDbEntity
  8
0
100
AcDbLine
 10
7.3384857177734375
 20
133.4421844482422
 30
0.0
 11
7.618339538574219
 21
133.94932556152344
 31
0.0
  0
LINE
  5
24E
330
17
100
AcDbEntity
  8
0
100
AcDbLine
 10
7.618339538574219
 20
133.94932556152344
 30
0.0
 11
8.006057739257812
 21
135.03652954101562
 31
0.0
  0
LINE
  5
24F
330
17
100
AcDbEntity
  8
0
100
AcDbLine
 10
8.006057739257812
 20
135.03652954101562
 30
0.0
 11
8.639060974121094
 21
135.73858642578125
 31
0.0
  0
LINE
  5
250
330
17
100
AcDbEntity
  8
0
100
AcDbLine
 10
8.639060974121094
 20
135.73858642578125
 30
0.0
 11
8.650146484375
 21
135.75503540039062
 31
0.0
  0
LINE
  5
251
330
17
100
AcDbEntity
  8
0
100
AcDbLine
 10
8.650146484375
 20
135.75503540039062
 30
0.0
 11
9.185218811035156
 21
136.9169921875
 31
0.0
  0
LINE
  5
252
330
17
100
AcDbEntity
  8
0
100
AcDbLine
 10
9.185218811035156
 20
136.9169921875
 30
0.0
 11
9.188652038574219
 21
136.92335510253906
 31
0.0
  0
LINE
  5
253
330
17
100
AcDbEntity
  8
0
100
AcDbLine
 10
9.188652038574219
 20
136.92335510253906
 30
0.0
 11
9.44927978515625
 21
137.5832977294922
 31
0.0
  0
LINE
  5
254
330
17
100
AcDbEntity
  8
0
100
AcDbLine
 10
9.44927978515625
 20
137.5832977294922
 30
0.0
 11
9.998077392578125
 21
138.4916534423828
 31
0.0
  0
LINE
  5
255
330
17
100
AcDbEntity
  8
0
100
AcDbLine
 10
9.998077392578125
 20
138.4916534423828
 30
0.0
 11
10.072288513183594
 21
138.5467529296875
 31
0.0
  0
LINE
  5
256
330
17
100
AcDbEntity
  8
0
100
AcDbLine
 10
10.072288513183594
 20
138.5467529296875
 30
0.0
 11
10.09930419921875
 21
138.57223510742188
 31
0.0
  0
LINE
  5
257
330
17
100
AcDbEntity
  8
0
100
AcDbLine
 10
10.09930419921875
 20
138.57223510742188
 30
0.0
 11
11.028549194335938
 21
139.6833953857422
 31
0.0
  0
LINE
  5
258
330
17
100
AcDbEntity
  8
0
100
AcDbLine
 10
11.028549194335938
 20
139.6833953857422
 30
0.0
 11
11.376602172851562
 21
140.04690551757812
 31
0.0
  0
LINE
  5
259
330
17
100
AcDbEntity
  8
0
100
AcDbLine
 10
11.376602172851562
 20
140.04690551757812
 30
0.0
 11
11.41314697265625
 21
140.0762176513672
 31
0.0
  0
LINE
  5
25A
330
17
100
AcDbEntity
  8
0
100
AcDbLine
 10
11.41314697265625
 20
140.0762176513672
 30
0.0
 11
11.442420959472656
 21
140.1165313720703
 31
0.0
  0
LINE
  5
25B
330
17
100
AcDbEntity
  8
0
100
AcDbLine
 10
11.442420959472656
 20
140.1165313720703
 30
0.0
 11
11.464179992675781
 21
140.1483612060547
 31
0.0
  0
LINE
  5
25C
330
17
100
AcDbEntity
  8
0
100
AcDbLine
 10
11.464179992675781
 20
140.1483612060547
 30
0.0
 11
13.350730895996094
 21
141.7375946044922
 31
0.0
  0
LINE
  5
25D
330
17
100
AcDbEntity
  8
0
100
AcDbLine
 10
13.350730895996094
 20
141.7375946044922
 30
0.0
 11
13.455322265625
 21
141.77886962890625
 31
0.0
  0
LINE
  5
25E
330
17
100
AcDbEntity
  8
0
100
AcDbLine
 10
13.455322265625
 20
141.77886962890625
 30
0.0
 11
13.588348388671875
 21
141.84849548339844
 31
0.0
  0
LINE
  5
25F
330
17
100
AcDbEntity
  8
0
100
AcDbLine
 10
13.588348388671875
 20
141.84849548339844
 30
0.0
 11
15.236396789550781
 21
142.9957733154297
 31
0.0
  0
LINE
  5
260
330
17
100
AcDbEntity
  8
0
100
AcDbLine
 10
15.236396789550781
 20
142.9957733154297
 30
0.0
 11
15.578147888183594
 21
143.29957580566406
 31
0.0
  0
LINE
  5
261
330
17
100
AcDbEntity
  8
0
100
AcDbLine
 10
15.578147888183594
 20
143.29957580566406
 30
0.0
 11
15.844703674316406
 21
143.55091857910156
 31
0.0
  0
LINE
  5
262
330
17
100
AcDbEntity
  8
0
100
AcDbLine
 10
15.844703674316406
 20
143.55091857910156
 30
0.0
 11
16.313926696777344
 21
144.44679260253906
 31
0.0
  0
LINE
  5
263
330
17
100
AcDbEntity
  8
0
100
AcDbLine
 10
16.313926696777344
 20
144.44679260253906
 30
0.0
 11
16.36260986328125
 21
144.48974609375
 31
0.0
  0
LINE
  5
264
330
17
100
AcDbEntity
  8
0
100
AcDbLine
 10
16.36260986328125
 20
144.48974609375
 30
0.0
 11
17.574310302734375
 21
144.91632080078125
 31
0.0
  0
LINE
  5
265
330
17
100
AcDbEntity
  8
0
100
AcDbLine
 10
17.574310302734375
 20
144.91632080078125
 30
0.0
 11
17.959617614746094
 21
145.2763671875
 31
0.0
  0
LINE
  5
266
330
17
100
AcDbEntity
  8
0
100
AcDbLine
 10
17.959617614746094
 20
145.2763671875
 30
0.0
 11
18.346694946289062
 21
145.62525939941406
 31
0.0
  0
LINE
  5
267
330
17
100
AcDbEntity
  8
0
100
AcDbLine
 10
18.346694946289062
 20
145.62525939941406
 30
0.0
 11
18.900413513183594
 21
146.6346893310547
 31
0.0
  0
LINE
  5
268
330
17
100
AcDbEntity
  8
0
100
AcDbLine
 10
18.900413513183594
 20
146.6346893310547
 30
0.0
 11
19.117874145507812
 21
146.81271362304688
 31
0.0
  0
LINE
  5
269
330
17
100
AcDbEntity
  8
0
100
AcDbLine
 10
19.117874145507812
 20
146.81271362304688
 30
0.0
 11
20.304214477539062
 21
147.27825927734375
 31
0.0
  0
LINE
  5
26A
330
17
100
AcDbEntity
  8
0
100
AcDbLine
 10
20.304214477539062
 20
147.27825927734375
 30
0.0
 11
20.65716552734375
 21
147.58705139160156
 31
0.0
  0
LINE
  5
26B
330
17
100
AcDbEntity
  8
0
100
AcDbLine
 10
20.65716552734375
 20
147.58705139160156
 30
0.0
 11
21.066757202148438
 21
147.9717559814453
 31
0.0
  0
LINE
  5
26C
330
17
100
AcDbEntity
  8
0
100
AcDbLine
 10
21.066757202148438
 20
147.9717559814453
 30
0.0
 11
21.689788818359375
 21
148.8584442138672
 31
0.0
  0
LINE
  5
26D
330
17
100
AcDbEntity
  8
0
100
AcDbLine
 10
21.689788818359375
 20
148.8584442138672
 30
0.0
 11
21.794265747070312
 21
148.94261169433594
 31
0.0
  0
LINE
  5
26E
330
17
100
AcDbEntity
  8
0
100
AcDbLine
 10
21.794265747070312
 20
148.94261169433594
 30
0.0
 11
23.087570190429688
 21
149.59133911132812
 31
0.0
  0
LINE
  5
26F
330
17
100
AcDbEntity
  8
0
100
AcDbLine
 10
23.087570190429688
 20
149.59133911132812
 30
0.0
 11
23.336837768554688
 21
149.83998107910156
 31
0.0
  0
LINE
  5
270
330
17
100
AcDbEntity
  8
0
100
AcDbLine
 10
23.336837768554688
 20
149.83998107910156
 30
0.0
 11
23.643218994140625
 21
150.180419921875
 31
0.0
  0
LINE
  5
271
330
17
100
AcDbEntity
  8
0
100
AcDbLine
 10
23.643218994140625
 20
150.180419921875
 30
0.0
 11
24.409568786621094
 21
151.175048828125
 31
0.0
  0
LINE
  5
272
330
17
100
AcDbEntity
  8
0
100
AcDbLine
 10
24.409568786621094
 20
151.175048828125
 30
0.0
 11
25.557533264160156
 21
151.87307739257812
 31
0.0
  0
LINE
  5
273
330
17
100
AcDbEntity
  8
0
100
AcDbLine
 10
25.557533264160156
 20
151.87307739257812
 30
0.0
 11
25.79639434814453
 21
152.3431396484375
 31
0.0
  0
LINE
  5
274
330
17
100
AcDbEntity
  8
0
100
AcDbLine
 10
25.79639434814453
 20
152.3431396484375
 30
0.0
 11
26.232711791992188
 21
152.64007568359375
 31
0.0
  0
LINE
  5
275
330
17
100
AcDbEntity
  8
0
100
AcDbLine
 10
26.232711791992188
 20
152.64007568359375
 30
0.0
 11
26.925064086914062
 21
153.56414794921875
 31
0.0
  0
LINE
  5
276
330
17
100
AcDbEntity
  8
0
100
AcDbLine
 10
26.925064086914062
 20
153.56414794921875
 30
0.0
 11
27.9549560546875
 21
154.28103637695312
 31
0.0
  0
LINE
  5
277
330
17
100
AcDbEntity
  8
0
100
AcDbLine
 10
27.9549560546875
 20
154.28103637695312
 30
0.0
 11
28.20873260498047
 21
155.10914611816406
 31
0.0
  0
LINE
  5
278
330
17
100
AcDbEntity
  8
0
100
AcDbLine
 10
28.20873260498047
 20
155.10914611816406
 30
0.0
 11
28.836647033691406
 21
155.4461669921875
 31
0.0
  0
LINE
  5
279
330
17
100
AcDbEntity
  8
0
100
AcDbLine
 10
28.836647033691406
 20
155.4461669921875
 30
0.0
 11
29.389503479003906
 21
156.15130615234375
 31
0.0
  0
LINE
  5
27A
330
17
100
AcDbEntity
  8
0
100
AcDbLine
 10
29.389503479003906
 20
156.15130615234375
 30
0.0
 11
29.56188201904297
 21
156.21620178222656
 31
0.0
  0
LINE
  5
27B
330
17
100
AcDbEntity
  8
0
100
AcDbLine
 10
29.56188201904297
 20
156.21620178222656
 30
0.0
 11
30.061546325683594
 21
156.8021240234375
 31
0.0
  0
LINE
  5
27C
330
17
100
AcDbEntity
  8
0
100
AcDbLine
 10
30.061546325683594
 20
156.8021240234375
 30
0.0
 11
30.130355834960938
 21
157.018310546875
 31
0.0
  0
LINE
  5
27D
330
17
100
AcDbEntity
  8
0
100
AcDbLine
 10
30.130355834960938
 20
157.018310546875
 30
0.0
 11
31.04547882080078
 21
158.45542907714844
 31
0.0
  0
LINE
  5
27E
330
17
100
AcDbEntity
  8
0
100
AcDbLine
 10
31.04547882080078
 20
158.45542907714844
 30
0.0
 11
31.86426544189453
 21
159.34242248535156
 31
0.0
  0
LINE
  5
27F
330
17
100
AcDbEntity
  8
0
100
AcDbLine
 10
31.86426544189453
 20
159.34242248535156
 30
0.0
 11
33.268341064453125
 21
161.26834106445312
 31
0.0
  0
LINE
  5
280
330
17
100
AcDbEntity
  8
0
100
AcDbLine
 10
33.268341064453125
 20
161.26834106445312
 30
0.0
 11
33.66015625
 21
161.7580108642578
 31
0.0
  0
LINE
  5
281
330
17
100
AcDbEntity
  8
0
100
AcDbLine
 10
33.66015625
 20
161.7580108642578
 30
0.0
 11
34.52317810058594
 21
163.41441345214844
 31
0.0
  0
LINE
  5
282
330
17
100
AcDbEntity
  8
0
100
AcDbLine
 10
34.52317810058594
 20
163.41441345214844
 30
0.0
 11
35.017494201660156
 21
164.23719787597656
 31
0.0
  0
LINE
  5
283
330
17
100
AcDbEntity
  8
0
100
AcDbLine
 10
35.017494201660156
 20
164.23719787597656
 30
0.0
 11
35.19264221191406
 21
164.7344970703125
 31
0.0
  0
LINE
  5
284
330
17
100
AcDbEntity
  8
0
100
AcDbLine
 10
35.19264221191406
 20
164.7344970703125
 30
0.0
 11
36.13006591796875
 21
166.64291381835938
 31
0.0
  0
LINE
  5
285
330
17
100
AcDbEntity
  8
0
100
AcDbLine
 10
36.13006591796875
 20
166.64291381835938
 30
0.0
 11
36.44822692871094
 21
167.93914794921875
 31
0.0
  0
LINE
  5
286
330
17
100
AcDbEntity
  8
0
100
AcDbLine
 10
36.44822692871094
 20
167.93914794921875
 30
0.0
 11
36.63146209716797
 21
168.8399658203125
 31
0.0
  0
LINE
  5
287
330
17
100
AcDbEntity
  8
0
100
AcDbLine
 10
36.63146209716797
 20
168.8399658203125
 30
0.0
 11
36.87525177001953
 21
169.91543579101562
 31
0.0
  0
LINE
  5
288
330
17
100
AcDbEntity
  8
0
100
AcDbLine
 10
36.87525177001953
 20
169.91543579101562
 30
0.0
 11
36.86271667480469
 21
170.62353515625
 31
0.0
  0
LINE
  5
289
330
17
100
AcDbEntity
  8
0
100
AcDbLine
 10
36.86271667480469
 20
170.62353515625
 30
0.0
 11
37.13139343261719
 21
171.51573181152344
 31
0.0
  0
LINE
  5
28A
330
17
100
AcDbEntity
  8
0
100
AcDbLine
 10
37.13139343261719
 20
171.51573181152344
 30
0.0
 11
37.14051055908203
 21
172.4909210205078
 31
0.0
  0
LINE
  5
28B
330
17
100
AcDbEntity
  8
0
100
AcDbLine
 10
37.14051055908203
 20
172.4909210205078
 30
0.0
 11
37.348793029785156
 21
173.17529296875
 31
0.0
  0
LINE
  5
28C
330
17
100
AcDbEntity
  8
0
100
AcDbLine
 10
37.348793029785156
 20
173.17529296875
 30
0.0
 11
37.53453063964844
 21
174.5675811767578
 31
0.0
  0
LINE
  5
28D
330
17
100
AcDbEntity
  8
0
100
AcDbLine
 10
37.53453063964844
 20
174.5675811767578
 30
0.0
 11
37.544029235839844
 21
174.9080810546875
 31
0.0
  0
LINE
  5
28E
330
17
100
AcDbEntity
  8
0
100
AcDbLine
 10
37.544029235839844
 20
174.9080810546875
 30
0.0
 11
37.22467803955078
 21
175.7553253173828
 31
0.0
  0
LINE
  5
28F
330
17
100
AcDbEntity
  8
0
100
AcDbLine
 10
37.22467803955078
 20
175.7553253173828
 30
0.0
 11
37.20928192138672
 21
176.07568359375
 31
0.0
  0
LINE
  5
290
330
17
100
AcDbEntity
  8
0
100
AcDbLine
 10
37.20928192138672
 20
176.07568359375
 30
0.0
 11
37.16840362548828
 21
176.1963348388672
 31
0.0
  0
LINE
  5
291
330
17
100
AcDbEntity
  8
0
100
AcDbLine
 10
37.16840362548828
 20
176.1963348388672
 30
0.0
 11
37.02269744873047
 21
176.4505157470703
 31
0.0
  0
LINE
  5
292
330
17
100
AcDbEntity
  8
0
100
AcDbLine
 10
37.02269744873047
 20
176.4505157470703
 30
0.0
 11
36.64723205566406
 21
177.43792724609375
 31
0.0
  0
LINE
  5
293
330
17
100
AcDbEntity
  8
0
100
AcDbLine
 10
36.64723205566406
 20
177.43792724609375
 30
0.0
 11
36.43061065673828
 21
177.9734344482422
 31
0.0
  0
LINE
  5
294
330
17
100
AcDbEntity
  8
0
100
AcDbLine
 10
36.43061065673828
 20
177.9734344482422
 30
0.0
 11
35.778900146484375
 21
179.03155517578125
 31
0.0
  0
LINE
  5
295
330
17
100
AcDbEntity
  8
0
100
AcDbLine
 10
35.778900146484375
 20
179.03155517578125
 30
0.0
 11
35.217140197753906
 21
179.69338989257812
 31
0.0
  0
LINE
  5
296
330
17
100
AcDbEntity
  8
0
100
AcDbLine
 10
35.217140197753906
 20
179.69338989257812
 30
0.0
 11
34.54389953613281
 21
180.9271697998047
 31
0.0
  0
LINE
  5
297
330
17
100
AcDbEntity
  8
0
100
AcDbLine
 10
34.54389953613281
 20
180.9271697998047
 30
0.0
 11
34.203094482421875
 21
181.66653442382812
 31
0.0
  0
LINE
  5
298
330
17
100
AcDbEntity
  8
0
100
AcDbLine
 10
34.203094482421875
 20
181.66653442382812
 30
0.0
 11
33.99427795410156
 21
182.1577911376953
 31
0.0
  0
LINE
  5
299
330
17
100
AcDbEntity
  8
0
100
AcDbLine
 10
33.99427795410156
 20
182.1577911376953
 30
0.0
 11
33.465110778808594
 21
182.99114990234375
 31
0.0
  0
LINE
  5
29A
330
17
100
AcDbEntity
  8
0
100
AcDbLine
 10
33.465110778808594
 20
182.99114990234375
 30
0.0
 11
32.77809143066406
 21
183.64434814453125
 31
0.0
  0
LINE
  5
29B
330
17
100
AcDbEntity
  8
0
100
AcDbLine
 10
32.77809143066406
 20
183.64434814453125
 30
0.0
 11
32.47075653076172
 21
184.03182983398438
 31
0.0
  0
LINE
  5
29C
330
17
100
AcDbEntity
  8
0
100
AcDbLine
 10
32.47075653076172
 20
184.03182983398438
 30
0.0
 11
32.262657165527344
 21
184.35411071777344
 31
0.0
  0
LINE
  5
29D
330
17
100
AcDbEntity
  8
0
100
AcDbLine
 10
32.262657165527344
 20
184.35411071777344
 30
0.0
 11
31.6715087890625
 21
185.5416259765625
 31
0.0
  0
LINE
  5
29E
330
17
100
AcDbEntity
  8
0
100
AcDbLine
 10
31.6715087890625
 20
185.5416259765625
 30
0.0
 11
30.954261779785156
 21
186.9065704345703
 31
0.0
  0
LINE
  5
29F
330
17
100
AcDbEntity
  8
0
100
AcDbLine
 10
30.954261779785156
 20
186.9065704345703
 30
0.0
 11
30.90589141845703
 21
187.00926208496094
 31
0.0
  0
LINE
  5
2A0
330
17
100
AcDbEntity
  8
0
100
AcDbLine
 10
30.90589141845703
 20
187.00926208496094
 30
0.0
 11
30.734207153320312
 21
187.57003784179688
 31
0.0
  0
LINE
  5
2A1
330
17
100
AcDbEntity
  8
0
100
AcDbLine
 10
30.734207153320312
 20
187.57003784179688
 30
0.0
 11
30.203781127929688
 21
188.54241943359375
 31
0.0
  0
LINE
  5
2A2
330
17
100
AcDbEntity
  8
0
100
AcDbLine
 10
30.203781127929688
 20
188.54241943359375
 30
0.0
 11
29.698272705078125
 21
189.22586059570312
 31
0.0
  0
LINE
  5
2A3
330
17
100
AcDbEntity
  8
0
100
AcDbLine
 10
29.698272705078125
 20
189.22586059570312
 30
0.0
 11
29.56903076171875
 21
189.70896911621094
 31
0.0
  0
LINE
  5
2A4
330
17
100
AcDbEntity
  8
0
100
AcDbLine
 10
29.56903076171875
 20
189.70896911621094
 30
0.0
 11
29.2752685546875
 21
190.6369171142578
 31
0.0
  0
LINE
  5
2A5
330
17
100
AcDbEntity
  8
0
100
AcDbLine
 10
29.2752685546875
 20
190.6369171142578
 30
0.0
 11
28.488182067871094
 21
192.44972229003906
 31
0.0
  0
LINE
  5
2A6
330
17
100
AcDbEntity
  8
0
100
AcDbLine
 10
28.488182067871094
 20
192.44972229003906
 30
0.0
 11
28.47779083251953
 21
192.4888153076172
 31
0.0
  0
LINE
  5
2A7
330
17
100
AcDbEntity
  8
0
100
AcDbLine
 10
28.47779083251953
 20
192.4888153076172
 30
0.0
 11
28.222824096679688
 21
193.576171875
 31
0.0
  0
LINE
  5
2A8
330
17
100
AcDbEntity
  8
0
100
AcDbLine
 10
28.222824096679688
 20
193.576171875
 30
0.0
 11
27.8824462890625
 21
195.67562866210938
 31
0.0
  0
LINE
  5
2A9
330
17
100
AcDbEntity
  8
0
100
AcDbLine
 10
27.8824462890625
 20
195.67562866210938
 30
0.0
 11
28.036643981933594
 21
198.05027770996094
 31
0.0
  0
LINE
  5
2AA
330
17
100
AcDbEntity
  8
0
100
AcDbLine
 10
28.036643981933594
 20
198.05027770996094
 30
0.0
 11
28.06896209716797
 21
198.92425537109375
 31
0.0
  0
LINE
  5
2AB
330
17
100
AcDbEntity
  8
0
100
AcDbLine
 10
28.06896209716797
 20
198.92425537109375
 30
0.0
 11
28.302139282226562
 21
199.2999267578125
 31
0.0
  0
LINE
  5
2AC
330
17
100
AcDbEntity
  8
0
100
AcDbLine
 10
28.302139282226562
 20
199.2999267578125
 30
0.0
 11
28.359619140625
 21
199.81089782714844
 31
0.0
  0
LINE
  5
2AD
330
17
100
AcDbEntity
  8
0
100
AcDbLine
 10
28.359619140625
 20
199.81089782714844
 30
0.0
 11
28.657424926757812
 21
200.09912109375
 31
0.0
  0
LINE
  5
2AE
330
17
100
AcDbEntity
  8
0
100
AcDbLine
 10
28.657424926757812
 20
200.09912109375
 30
0.0
 11
29.186477661132812
 21
201.39073181152344
 31
0.0
  0
LINE
  5
2AF
330
17
100
AcDbEntity
  8
0
100
AcDbLine
 10
29.186477661132812
 20
201.39073181152344
 30
0.0
 11
30.226730346679688
 21
201.68093872070312
 31
0.0
  0
LINE
  5
2B0
330
17
100
AcDbEntity
  8
0
100
AcDbLine
 10
30.226730346679688
 20
201.68093872070312
 30
0.0
 11
30.24994659423828
 21
201.69503784179688
 31
0.0
  0
LINE
  5
2B1
330
17
100
AcDbEntity
  8
0
100
AcDbLine
 10
30.24994659423828
 20
201.69503784179688
 30
0.0
 11
31.0064697265625
 21
202.63914489746094
 31
0.0
  0
LINE
  5
2B2
330
17
100
AcDbEntity
  8
0
100
AcDbLine
 10
31.0064697265625
 20
202.63914489746094
 30
0.0
 11
31.01361846923828
 21
202.64382934570312
 31
0.0
  0
LINE
  5
2B3
330
17
100
AcDbEntity
  8
0
100
AcDbLine
 10
31.01361846923828
 20
202.64382934570312
 30
0.0
 11
31.67089080810547
 21
203.217041015625
 31
0.0
  0
LINE
  5
2B4
330
17
100
AcDbEntity
  8
0
100
AcDbLine
 10
31.67089080810547
 20
203.217041015625
 30
0.0
 11
32.26799774169922
 21
203.5845489501953
 31
0.0
  0
LINE
  5
2B5
330
17
100
AcDbEntity
  8
0
100
AcDbLine
 10
32.26799774169922
 20
203.5845489501953
 30
0.0
 11
32.785186767578125
 21
203.68161010742188
 31
0.0
  0
LINE
  5
2B6
330
17
100
AcDbEntity
  8
0
100
AcDbLine
 10
32.785186767578125
 20
203.68161010742188
 30
0.0
 11
32.84947204589844
 21
203.6976776123047
 31
0.0
  0
LINE
  5
2B7
330
17
100
AcDbEntity
  8
0
100
AcDbLine
 10
32.84947204589844
 20
203.6976776123047
 30
0.0
 11
34.499786376953125
 21
204.31582641601562
 31
0.0
  0
LINE
  5
2B8
330
17
100
AcDbEntity
  8
0
100
AcDbLine
 10
34.499786376953125
 20
204.31582641601562
 30
0.0
 11
35.251136779785156
 21
204.59014892578125
 31
0.0
  0
LINE
  5
2B9
330
17
100
AcDbEntity
  8
0
100
AcDbLine
 10
35.251136779785156
 20
204.59014892578125
 30
0.0
 11
35.999603271484375
 21
205.05409240722656
 31
0.0
  0
LINE
  5
2BA
330
17
100
AcDbEntity
  8
0
100
AcDbLine
 10
35.999603271484375
 20
205.05409240722656
 30
0.0
 11
36.48023223876953
 21
205.2395782470703
 31
0.0
  0
LINE
  5
2BB
330
17
100
AcDbEntity
  8
0
100
AcDbLine
 10
36.48023223876953
 20
205.2395782470703
 30
0.0
 11
37.16584014892578
 21
205.23641967773438
 31
0.0
  0
LINE
  5
2BC
330
17
100
AcDbEntity
  8
0
100
AcDbLine
 10
37.16584014892578
 20
205.23641967773438
 30
0.0
 11
37.167694091796875
 21
205.23724365234375
 31
0.0
  0
LINE
  5
2BD
330
17
100
AcDbEntity
  8
0
100
AcDbLine
 10
37.167694091796875
 20
205.23724365234375
 30
0.0
 11
37.79060363769531
 21
205.75540161132812
 31
0.0
  0
LINE
  5
2BE
330
17
100
AcDbEntity
  8
0
100
AcDbLine
 10
37.79060363769531
 20
205.75540161132812
 30
0.0
 11
38.69378662109375
 21
206.12550354003906
 31
0.0
  0
LINE
  5
2BF
330
17
100
AcDbEntity
  8
0
100
AcDbLine
 10
38.69378662109375
 20
206.12550354003906
 30
0.0
 11
39.29547119140625
 21
206.61526489257812
 31
0.0
  0
LINE
  5
2C0
330
17
100
AcDbEntity
  8
0
100
AcDbLine
 10
39.29547119140625
 20
206.61526489257812
 30
0.0
 11
40.588890075683594
 21
207.10162353515625
 31
0.0
  0
LINE
  5
2C1
330
17
100
AcDbEntity
  8
0
100
AcDbLine
 10
40.588890075683594
 20
207.10162353515625
 30
0.0
 11
41.21337890625
 21
207.90740966796875
 31
0.0
  0
LINE
  5
2C2
330
17
100
AcDbEntity
  8
0
100
AcDbLine
 10
41.21337890625
 20
207.90740966796875
 30
0.0
 11
41.86699676513672
 21
208.44227600097656
 31
0.0
  0
LINE
  5
2C3
330
17
100
AcDbEntity
  8
0
100
AcDbLine
 10
41.86699676513672
 20
208.44227600097656
 30
0.0
 11
43.57996368408203
 21
209.47703552246094
 31
0.0
  0
LINE
  5
2C4
330
17
100
AcDbEntity
  8
0
100
AcDbLine
 10
43.57996368408203
 20
209.47703552246094
 30
0.0
 11
44.53131103515625
 21
209.81849670410156
 31
0.0
  0
LINE
  5
2C5
330
17
100
AcDbEntity
  8
0
100
AcDbLine
 10
44.53131103515625
 20
209.81849670410156
 30
0.0
 11
47.250572204589844
 21
211.88844299316406
 31
0.0
  0
LINE
  5
2C6
330
17
100
AcDbEntity
  8
0
100
AcDbLine
 10
47.250572204589844
 20
211.88844299316406
 30
0.0
 11
47.275108337402344
 21
211.89707946777344
 31
0.0
  0
LINE
  5
2C7
330
17
100
AcDbEntity
  8
0
100
AcDbLine
 10
47.275108337402344
 20
211.89707946777344
 30
0.0
 11
47.28106689453125
 21
211.90061950683594
 31
0.0
  0
LINE
  5
2C8
330
17
100
AcDbEntity
  8
0
100
AcDbLine
 10
47.28106689453125
 20
211.90061950683594
 30
0.0
 11
47.28601837158203
 21
211.90194702148438
 31
0.0
  0
LINE
  5
2C9
330
17
100
AcDbEntity
  8
0
100
AcDbLine
 10
47.28601837158203
 20
211.90194702148438
 30
0.0
 11
47.295921325683594
 21
211.90853881835938
 31
0.0
  0
LINE
  5
2CA
330
17
100
AcDbEntity
  8
0
100
AcDbLine
 10
47.295921325683594
 20
211.90853881835938
 30
0.0
 11
47.50990295410156
 21
212.05728149414062
 31
0.0
  0
LINE
  5
2CB
330
17
100
AcDbEntity
  8
0
100
AcDbLine
 10
47.50990295410156
 20
212.05728149414062
 30
0.0
 11
49.67304229736328
 21
213.50914001464844
 31
0.0
  0
LINE
  5
2CC
330
17
100
AcDbEntity
  8
0
100
AcDbLine
 10
49.67304229736328
 20
213.50914001464844
 30
0.0
 11
49.80326843261719
 21
213.6781005859375
 31
0.0
  0
LINE
  5
2CD
330
17
100
AcDbEntity
  8
0
100
AcDbLine
 10
49.80326843261719
 20
213.6781005859375
 30
0.0
 11
50.69685363769531
 21
214.3854217529297
 31
0.0
  0
LINE
  5
2CE
330
17
100
AcDbEntity
  8
0
100
AcDbLine
 10
50.69685363769531
 20
214.3854217529297
 30
0.0
 11
51.060264587402344
 21
214.62667846679688
 31
0.0
  0
LINE
  5
2CF
330
17
100
AcDbEntity
  8
0
100
AcDbLine
 10
51.060264587402344
 20
214.62667846679688
 30
0.0
 11
51.41919708251953
 21
214.75094604492188
 31
0.0
  0
LINE
  5
2D0
330
17
100
AcDbEntity
  8
0
100
AcDbLine
 10
51.41919708251953
 20
214.75094604492188
 30
0.0
 11
51.660850524902344
 21
215.04493713378906
 31
0.0
  0
LINE
  5
2D1
330
17
100
AcDbEntity
  8
0
100
AcDbLine
 10
51.660850524902344
 20
215.04493713378906
 30
0.0
 11
51.82280731201172
 21
215.2322235107422
 31
0.0
  0
LINE
  5
2D2
330
17
100
AcDbEntity
  8
0
100
AcDbLine
 10
51.82280731201172
 20
215.2322235107422
 30
0.0
 11
52.122276306152344
 21
215.56399536132812
 31
0.0
  0
LINE
  5
2D3
330
17
100
AcDbEntity
  8
0
100
AcDbLine
 10
52.122276306152344
 20
215.56399536132812
 30
0.0
 11
52.560768127441406
 21
216.1618194580078
 31
0.0
  0
LINE
  5
2D4
330
17
100
AcDbEntity
  8
0
100
AcDbLine
 10
52.560768127441406
 20
216.1618194580078
 30
0.0
 11
52.934112548828125
 21
216.74459838867188
 31
0.0
  0
LINE
  5
2D5
330
17
100
AcDbEntity
  8
0
100
AcDbLine
 10
52.934112548828125
 20
216.74459838867188
 30
0.0
 11
53.356292724609375
 21
216.91204833984375
 31
0.0
  0
LINE
  5
2D6
330
17
100
AcDbEntity
  8
0
100
AcDbLine
 10
53.356292724609375
 20
216.91204833984375
 30
0.0
 11
53.514625549316406
 21
217.31588745117188
 31
0.0
  0
LINE
  5
2D7
330
17
100
AcDbEntity
  8
0
100
AcDbLine
 10
53.514625549316406
 20
217.31588745117188
 30
0.0
 11
53.74671173095703
 21
218.04574584960938
 31
0.0
  0
LINE
  5
2D8
330
17
100
AcDbEntity
  8
0
100
AcDbLine
 10
53.74671173095703
 20
218.04574584960938
 30
0.0
 11
54.19202423095703
 21
218.3441162109375
 31
0.0
  0
LINE
  5
2D9
330
17
100
AcDbEntity
  8
0
100
AcDbLine
 10
54.19202423095703
 20
218.3441162109375
 30
0.0
 11
54.318695068359375
 21
218.8285675048828
 31
0.0
  0
LINE
  5
2DA
330
17
100
AcDbEntity
  8
0
100
AcDbLine
 10
54.318695068359375
 20
218.8285675048828
 30
0.0
 11
54.11865234375
 21
219.13734436035156
 31
0.0
  0
LINE
  5
2DB
330
17
100
AcDbEntity
  8
0
100
AcDbLine
 10
54.11865234375
 20
219.13734436035156
 30
0.0
 11
54.436378479003906
 21
220.36318969726562
 31
0.0
  0
LINE
  5
2DC
330
17
100
AcDbEntity
  8
0
100
AcDbLine
 10
54.436378479003906
 20
220.36318969726562
 30
0.0
 11
54.467254638671875
 21
220.88754272460938
 31
0.0
  0
LINE
  5
2DD
330
17
100
AcDbEntity
  8
0
100
AcDbLine
 10
54.467254638671875
 20
220.88754272460938
 30
0.0
 11
54.6593017578125
 21
221.95310974121094
 31
0.0
  0
LINE
  5
2DE
330
17
100
AcDbEntity
  8
0
100
AcDbLine
 10
54.6593017578125
 20
221.95310974121094
 30
0.0
 11
55.15355682373047
 21
223.2609405517578
 31
0.0
  0
LINE
  5
2DF
330
17
100
AcDbEntity
  8
0
100
AcDbLine
 10
55.15355682373047
 20
223.2609405517578
 30
0.0
 11
55.670875549316406
 21
224.81588745117188
 31
0.0
  0
LINE
  5
2E0
330
17
100
AcDbEntity
  8
0
100
AcDbLine
 10
55.670875549316406
 20
224.81588745117188
 30
0.0
 11
56.01275634765625
 21
225.43109130859375
 31
0.0
  0
LINE
  5
2E1
330
17
100
AcDbEntity
  8
0
100
AcDbLine
 10
56.01275634765625
 20
225.43109130859375
 30
0.0
 11
56.26368713378906
 21
225.99142456054688
 31
0.0
  0
LINE
  5
2E2
330
17
100
AcDbEntity
  8
0
100
AcDbLine
 10
56.26368713378906
 20
225.99142456054688
 30
0.0
 11
57.2353515625
 21
227.44561767578125
 31
0.0
  0
LINE
  5
2E3
330
17
100
AcDbEntity
  8
0
100
AcDbLine
 10
57.2353515625
 20
227.44561767578125
 30
0.0
 11
57.586822509765625
 21
228.05520629882812
 31
0.0
  0
LINE
  5
2E4
330
17
100
AcDbEntity
  8
0
100
AcDbLine
 10
57.586822509765625
 20
228.05520629882812
 30
0.0
 11
58.0556640625
 21
229.29067993164062
 31
0.0
  0
LINE
  5
2E5
330
17
100
AcDbEntity
  8
0
100
AcDbLine
 10
58.0556640625
 20
229.29067993164062
 30
0.0
 11
58.348915100097656
 21
229.66632080078125
 31
0.0
  0
LINE
  5
2E6
330
17
100
AcDbEntity
  8
0
100
AcDbLine
 10
58.348915100097656
 20
229.66632080078125
 30
0.0
 11
58.38720703125
 21
229.82748413085938
 31
0.0
  0
LINE
  5
2E7
330
17
100
AcDbEntity
  8
0
100
AcDbLine
 10
58.38720703125
 20
229.82748413085938
 30
0.0
 11
58.52375030517578
 21
230.77333068847656
 31
0.0
  0
LINE
  5
2E8
330
17
100
AcDbEntity
  8
0
100
AcDbLine
 10
58.52375030517578
 20
230.77333068847656
 30
0.0
 11
58.75189971923828
 21
231.62982177734375
 31
0.0
  0
LINE
  5
2E9
330
17
100
AcDbEntity
  8
0
100
AcDbLine
 10
58.75189971923828
 20
231.62982177734375
 30
0.0
 11
58.74755859375
 21
231.72775268554688
 31
0.0
  0
LINE
  5
2EA
330
17
100
AcDbEntity
  8
0
100
AcDbLine
 10
58.74755859375
 20
231.72775268554688
 30
0.0
 11
58.73365020751953
 21
233.52528381347656
 31
0.0
  0
LINE
  5
2EB
330
17
100
AcDbEntity
  8
0
100
AcDbLine
 10
58.73365020751953
 20
233.52528381347656
 30
0.0
 11
58.60980224609375
 21
234.15785217285156
 31
0.0
  0
LINE
  5
2EC
330
17
100
AcDbEntity
  8
0
100
AcDbLine
 10
58.60980224609375
 20
234.15785217285156
 30
0.0
 11
58.539833068847656
 21
235.17994689941406
 31
0.0
  0
LINE
  5
2ED
330
17
100
AcDbEntity
  8
0
100
AcDbLine
 10
58.539833068847656
 20
235.17994689941406
 30
0.0
 11
58.47955322265625
 21
235.82919311523438
 31
0.0
  0
LINE
  5
2EE
330
17
100
AcDbEntity
  8
0
100
AcDbLine
 10
58.47955322265625
 20
235.82919311523438
 30
0.0
 11
58.26776123046875
 21
236.61524963378906
 31
0.0
  0
LINE
  5
2EF
330
17
100
AcDbEntity
  8
0
100
AcDbLine
 10
58.26776123046875
 20
236.61524963378906
 30
0.0
 11
58.26066589355469
 21
238.11175537109375
 31
0.0
  0
LINE
  5
2F0
330
17
100
AcDbEntity
  8
0
100
AcDbLine
 10
58.26066589355469
 20
238.11175537109375
 30
0.0
 11
58.04667663574219
 21
239.09877014160156
 31
0.0
  0
LINE
  5
2F1
330
17
100
AcDbEntity
  8
0
100
AcDbLine
 10
58.04667663574219
 20
239.09877014160156
 30
0.0
 11
58.06048583984375
 21
240.23081970214844
 31
0.0
  0
LINE
  5
2F2
330
17
100
AcDbEntity
  8
0
100
AcDbLine
 10
58.06048583984375
 20
240.23081970214844
 30
0.0
 11
57.65160369873047
 21
241.57925415039062
 31
0.0
  0
LINE
  5
2F3
330
17
100
AcDbEntity
  8
0
100
AcDbLine
 10
57.65160369873047
 20
241.57925415039062
 30
0.0
 11
57.624549865722656
 21
242.20042419433594
 31
0.0
  0
LINE
  5
2F4
330
17
100
AcDbEntity
  8
0
100
AcDbLine
 10
57.624549865722656
 20
242.20042419433594
 30
0.0
 11
57.030479431152344
 21
243.55433654785156
 31
0.0
  0
LINE
  5
2F5
330
17
100
AcDbEntity
  8
0
100
AcDbLine
 10
57.030479431152344
 20
243.55433654785156
 30
0.0
 11
56.908546447753906
 21
243.930908203125
 31
0.0
  0
LINE
  5
2F6
330
17
100
AcDbEntity
  8
0
100
AcDbLine
 10
56.908546447753906
 20
243.930908203125
 30
0.0
 11
56.831993103027344
 21
244.060302734375
 31
0.0
  0
LINE
  5
2F7
330
17
100
AcDbEntity
  8
0
100
AcDbLine
 10
56.831993103027344
 20
244.060302734375
 30
0.0
 11
56.456329345703125
 21
245.96975708007812
 31
0.0
  0
LINE
  5
2F8
330
17
100
AcDbEntity
  8
0
100
AcDbLine
 10
56.456329345703125
 20
245.96975708007812
 30
0.0
 11
55.997657775878906
 21
246.56019592285156
 31
0.0
  0
LINE
  5
2F9
330
17
100
AcDbEntity
  8
0
100
AcDbLine
 10
55.997657775878906
 20
246.56019592285156
 30
0.0
 11
56.06365966796875
 21
248.04867553710938
 31
0.0
  0
LINE
  5
2FA
330
17
100
AcDbEntity
  8
0
100
AcDbLine
 10
56.06365966796875
 20
248.04867553710938
 30
0.0
 11
55.96800994873047
 21
249.09616088867188
 31
0.0
  0
LINE
  5
2FB
330
17
100
AcDbEntity
  8
0
100
AcDbLine
 10
55.96800994873047
 20
249.09616088867188
 30
0.0
 11
56.581932067871094
 21
251.02938842773438
 31
0.0
  0
LINE
  5
2FC
330
17
100
AcDbEntity
  8
0
100
AcDbLine
 10
56.581932067871094
 20
251.02938842773438
 30
0.0
 11
56.890625
 21
251.7579803466797
 31
0.0
  0
LINE
  5
2FD
330
17
100
AcDbEntity
  8
0
100
AcDbLine
 10
56.890625
 20
251.7579803466797
 30
0.0
 11
57.47228240966797
 21
254.28085327148438
 31
0.0
  0
LINE
  5
2FE
330
17
100
AcDbEntity
  8
0
100
AcDbLine
 10
57.47228240966797
 20
254.28085327148438
 30
0.0
 11
57.50895690917969
 21
254.40426635742188
 31
0.0
  0
LINE
  5
2FF
330
17
100
AcDbEntity
  8
0
100
AcDbLine
 10
57.50895690917969
 20
254.40426635742188
 30
0.0
 11
57.53022003173828
 21
254.45797729492188
 31
0.0
  0
LINE
  5
300
330
17
100
AcDbEntity
  8
0
100
AcDbLine
 10
57.53022003173828
 20
254.45797729492188
 30
0.0
 11
58.67432403564453
 21
257.05303955078125
 31
0.0
  0
LINE
  5
301
330
17
100
AcDbEntity
  8
0
100
AcDbLine
 10
58.67432403564453
 20
257.05303955078125
 30
0.0
 11
60.072967529296875
 21
258.40643310546875
 31
0.0
  0
LINE
  5
302
330
17
100
AcDbEntity
  8
0
100
AcDbLine
 10
60.072967529296875
 20
258.40643310546875
 30
0.0
 11
62.280059814453125
 21
259.61712646484375
 31
0.0
  0
LINE
  5
303
330
17
100
AcDbEntity
  8
0
100
AcDbLine
 10
62.280059814453125
 20
259.61712646484375
 30
0.0
 11
62.62408447265625
 21
259.72991943359375
 31
0.0
  0
LINE
  5
304
330
17
100
AcDbEntity
  8
0
100
AcDbLine
 10
62.62408447265625
 20
259.72991943359375
 30
0.0
 11
62.71824645996094
 21
259.72662353515625
 31
0.0
  0
LINE
  5
305
330
17
100
AcDbEntity
  8
0
100
AcDbLine
 10
62.71824645996094
 20
259.72662353515625
 30
0.0
 11
65.34765625
 21
260.65789794921875
 31
0.0
  0
LINE
  5
306
330
17
100
AcDbEntity
  8
0
100
AcDbLine
 10
65.34765625
 20
260.65789794921875
 30
0.0
 11
65.8494644165039
 21
260.6015319824219
 31
0.0
  0
LINE
  5
307
330
17
100
AcDbEntity
  8
0
100
AcDbLine
 10
65.8494644165039
 20
260.6015319824219
 30
0.0
 11
68.02486419677734
 21
261.4443359375
 31
0.0
  0
LINE
  5
308
330
17
100
AcDbEntity
  8
0
100
AcDbLine
 10
68.02486419677734
 20
261.4443359375
 30
0.0
 11
68.10348510742188
 21
261.4359130859375
 31
0.0
  0
LINE
  5
309
330
17
100
AcDbEntity
  8
0
100
AcDbLine
 10
68.10348510742188
 20
261.4359130859375
 30
0.0
 11
69.88499450683594
 21
261.7737731933594
 31
0.0
  0
LINE
  5
30A
330
17
100
AcDbEntity
  8
0
100
AcDbLine
 10
69.88499450683594
 20
261.7737731933594
 30
0.0
 11
70.68810272216797
 21
261.7018737792969
 31
0.0
  0
LINE
  5
30B
330
17
100
AcDbEntity
  8
0
100
AcDbLine
 10
70.68810272216797
 20
261.7018737792969
 30
0.0
 11
70.73147583007812
 21
261.6965637207031
 31
0.0
  0
LINE
  5
30C
330
17
100
AcDbEntity
  8
0
100
AcDbLine
 10
70.73147583007812
 20
261.6965637207031
 30
0.0
 11
73.0986099243164
 21
261.3497314453125
 31
0.0
  0
LINE
  5
30D
330
17
100
AcDbEntity
  8
0
100
AcDbLine
 10
73.0986099243164
 20
261.3497314453125
 30
0.0
 11
73.29493713378906
 21
261.2613220214844
 31
0.0
  0
LINE
  5
30E
330
17
100
AcDbEntity
  8
0
100
AcDbLine
 10
73.29493713378906
 20
261.2613220214844
 30
0.0
 11
73.38262939453125
 21
261.1748046875
 31
0.0
  0
LINE
  5
30F
330
17
100
AcDbEntity
  8
0
100
AcDbLine
 10
73.38262939453125
 20
261.1748046875
 30
0.0
 11
73.51123046875
 21
261.2009582519531
 31
0.0
  0
LINE
  5
310
330
17
100
AcDbEntity
  8
0
100
AcDbLine
 10
73.51123046875
 20
261.2009582519531
 30
0.0
 11
75.71531677246094
 21
259.9958190917969
 31
0.0
  0
LINE
  5
311
330
17
100
AcDbEntity
  8
0
100
AcDbLine
 10
75.71531677246094
 20
259.9958190917969
 30
0.0
 11
76.17420196533203
 21
259.91998291015625
 31
0.0
  0
LINE
  5
312
330
17
100
AcDbEntity
  8
0
100
AcDbLine
 10
76.17420196533203
 20
259.91998291015625
 30
0.0
 11
77.2938003540039
 21
259.8054504394531
 31
0.0
  0
LINE
  5
313
330
17
100
AcDbEntity
  8
0
100
AcDbLine
 10
77.2938003540039
 20
259.8054504394531
 30
0.0
 11
78.23904418945312
 21
259.6597900390625
 31
0.0
  0
LINE
  5
314
330
17
100
AcDbEntity
  8
0
100
AcDbLine
 10
78.23904418945312
 20
259.6597900390625
 30
0.0
 11
78.38304138183594
 21
259.6289367675781
 31
0.0
  0
LINE
  5
315
330
17
100
AcDbEntity
  8
0
100
AcDbLine
 10
78.38304138183594
 20
259.6289367675781
 30
0.0
 11
80.14865112304688
 21
259.012451171875
 31
0.0
  0
LINE
  5
316
330
17
100
AcDbEntity
  8
0
100
AcDbLine
 10
80.14865112304688
 20
259.012451171875
 30
0.0
 11
80.62727355957031
 21
258.9110412597656
 31
0.0
  0
LINE
  5
317
330
17
100
AcDbEntity
  8
0
100
AcDbLine
 10
80.62727355957031
 20
258.9110412597656
 30
0.0
 11
81.11709594726562
 21
258.8374328613281
 31
0.0
  0
LINE
  5
318
330
17
100
AcDbEntity
  8
0
100
AcDbLine
 10
81.11709594726562
 20
258.8374328613281
 30
0.0
 11
82.47588348388672
 21
258.19268798828125
 31
0.0
  0
LINE
  5
319
330
17
100
AcDbEntity
  8
0
100
AcDbLine
 10
82.47588348388672
 20
258.19268798828125
 30
0.0
 11
83.04730224609375
 21
257.91387939453125
 31
0.0
  0
LINE
  5
31A
330
17
100
AcDbEntity
  8
0
100
AcDbLine
 10
83.04730224609375
 20
257.91387939453125
 30
0.0
 11
83.2137222290039
 21
257.8520812988281
 31
0.0
  0
LINE
  5
31B
330
17
100
AcDbEntity
  8
0
100
AcDbLine
 10
83.2137222290039
 20
257.8520812988281
 30
0.0
 11
83.44131469726562
 21
257.80963134765625
 31
0.0
  0
LINE
  5
31C
330
17
100
AcDbEntity
  8
0
100
AcDbLine
 10
83.44131469726562
 20
257.80963134765625
 30
0.0
 11
85.50017547607422
 21
257.14141845703125
 31
0.0
  0
LINE
  5
31D
330
17
100
AcDbEntity
  8
0
100
AcDbLine
 10
85.50017547607422
 20
257.14141845703125
 30
0.0
 11
85.84912872314453
 21
257.10919189453125
 31
0.0
  0
LINE
  5
31E
330
17
100
AcDbEntity
  8
0
100
AcDbLine
 10
85.84912872314453
 20
257.10919189453125
 30
0.0
 11
86.72776794433594
 21
256.9641418457031
 31
0.0
  0
LINE
  5
31F
330
17
100
AcDbEntity
  8
0
100
AcDbLine
 10
86.72776794433594
 20
256.9641418457031
 30
0.0
 11
87.8043212890625
 21
256.8512878417969
 31
0.0
  0
LINE
  5
320
330
17
100
AcDbEntity
  8
0
100
AcDbLine
 10
87.8043212890625
 20
256.8512878417969
 30
0.0
 11
88.09053039550781
 21
256.8243408203125
 31
0.0
  0
LINE
  5
321
330
17
100
AcDbEntity
  8
0
100
AcDbLine
 10
88.09053039550781
 20
256.8243408203125
 30
0.0
 11
89.21562194824219
 21
256.78607177734375
 31
0.0
  0
LINE
  5
322
330
17
100
AcDbEntity
  8
0
100
AcDbLine
 10
89.21562194824219
 20
256.78607177734375
 30
0.0
 11
90.15461730957031
 21
256.69403076171875
 31
0.0
  0
LINE
  5
323
330
17
100
AcDbEntity
  8
0
100
AcDbLine
 10
90.15461730957031
 20
256.69403076171875
 30
0.0
 11
90.19709777832031
 21
256.6924133300781
 31
0.0
  0
LINE
  5
324
330
17
100
AcDbEntity
  8
0
100
AcDbLine
 10
90.19709777832031
 20
256.6924133300781
 30
0.0
 11
91.37806701660156
 21
256.92462158203125
 31
0.0
  0
LINE
  5
325
330
17
100
AcDbEntity
  8
0
100
AcDbLine
 10
91.37806701660156
 20
256.92462158203125
 30
0.0
 11
92.29927062988281
 21
256.89984130859375
 31
0.0
  0
LINE
  5
326
330
17
100
AcDbEntity
  8
0
100
AcDbLine
 10
92.29927062988281
 20
256.89984130859375
 30
0.0
 11
93.06796264648438
 21
256.957763671875
 31
0.0
  0
LINE
  5
327
330
17
100
AcDbEntity
  8
0
100
AcDbLine
 10
93.06796264648438
 20
256.957763671875
 30
0.0
 11
94.33651733398438
 21
257.4259948730469
 31
0.0
  0
LINE
  5
328
330
17
100
AcDbEntity
  8
0
100
AcDbLine
 10
94.33651733398438
 20
257.4259948730469
 30
0.0
 11
94.42796325683594
 21
257.4232177734375
 31
0.0
  0
LINE
  5
329
330
17
100
AcDbEntity
  8
0
100
AcDbLine
 10
94.42796325683594
 20
257.4232177734375
 30
0.0
 11
95.47447204589844
 21
257.7874755859375
 31
0.0
  0
LINE
  5
32A
330
17
100
AcDbEntity
  8
0
100
AcDbLine
 10
95.47447204589844
 20
257.7874755859375
 30
0.0
 11
96.16441345214844
 21
257.75469970703125
 31
0.0
  0
LINE
  5
32B
330
17
100
AcDbEntity
  8
0
100
AcDbLine
 10
96.16441345214844
 20
257.75469970703125
 30
0.0
 11
97.54531860351562
 21
257.9920654296875
 31
0.0
  0
LINE
  5
32C
330
17
100
AcDbEntity
  8
0
100
AcDbLine
 10
97.54531860351562
 20
257.9920654296875
 30
0.0
 11
98.05738830566406
 21
258.00860595703125
 31
0.0
  0
LINE
  5
32D
330
17
100
AcDbEntity
  8
0
100
AcDbLine
 10
98.05738830566406
 20
258.00860595703125
 30
0.0
 11
98.28541564941406
 21
258.2726745605469
 31
0.0
  0
LINE
  5
32E
330
17
100
AcDbEntity
  8
0
100
AcDbLine
 10
98.28541564941406
 20
258.2726745605469
 30
0.0
 11
99.59619140625
 21
259.34417724609375
 31
0.0
  0
LINE
  5
32F
330
17
100
AcDbEntity
  8
0
100
AcDbLine
 10
99.59619140625
 20
259.34417724609375
 30
0.0
 11
100.00959014892578
 21
259.3151550292969
 31
0.0
  0
LINE
  5
330
330
17
100
AcDbEntity
  8
0
100
AcDbLine
 10
100.00959014892578
 20
259.3151550292969
 30
0.0
 11
100.45549011230469
 21
259.90325927734375
 31
0.0
  0
LINE
  5
331
330
17
100
AcDbEntity
  8
0
100
AcDbLine
 10
100.45549011230469
 20
259.90325927734375
 30
0.0
 11
100.61962127685547
 21
260.46429443359375
 31
0.0
  0
LINE
  5
332
330
17
100
AcDbEntity
  8
0
100
AcDbLine
 10
100.61962127685547
 20
260.46429443359375
 30
0.0
 11
100.99906158447266
 21
260.6505432128906
 31
0.0
  0
LINE
  5
333
330
17
100
AcDbEntity
  8
0
100
AcDbLine
 10
100.99906158447266
 20
260.6505432128906
 30
0.0
 11
102.89815521240234
 21
261.9212646484375
 31
0.0
  0
LINE
  5
334
330
17
100
AcDbEntity
  8
0
100
AcDbLine
 10
102.89815521240234
 20
261.9212646484375
 30
0.0
 11
103.1743392944336
 21
262.4275817871094
 31
0.0
  0
LINE
  5
335
330
17
100
AcDbEntity
  8
0
100
AcDbLine
 10
103.1743392944336
 20
262.4275817871094
 30
0.0
 11
105.02214050292969
 21
264.0709228515625
 31
0.0
  0
LINE
  5
336
330
17
100
AcDbEntity
  8
0
100
AcDbLine
 10
105.02214050292969
 20
264.0709228515625
 30
0.0
 11
105.28475952148438
 21
264.35467529296875
 31
0.0
  0
LINE
  5
337
330
17
100
AcDbEntity
  8
0
100
AcDbLine
 10
105.28475952148438
 20
264.35467529296875
 30
0.0
 11
105.37548828125
 21
264.39215087890625
 31
0.0
  0
LINE
  5
338
330
17
100
AcDbEntity
  8
0
100
AcDbLine
 10
105.37548828125
 20
264.39215087890625
 30
0.0
 11
105.51245880126953
 21
264.6888732910156
 31
0.0
  0
LINE
  5
339
330
17
100
AcDbEntity
  8
0
100
AcDbLine
 10
105.51245880126953
 20
264.6888732910156
 30
0.0
 11
106.28074645996094
 21
266.98150634765625
 31
0.0
  0
LINE
  5
33A
330
17
100
AcDbEntity
  8
0
100
AcDbLine
 10
106.28074645996094
 20
266.98150634765625
 30
0.0
 11
106.17449951171875
 21
268.10223388671875
 31
0.0
  0
LINE
  5
33B
330
17
100
AcDbEntity
  8
0
100
AcDbLine
 10
106.17449951171875
 20
268.10223388671875
 30
0.0
 11
106.19258117675781
 21
269.4834289550781
 31
0.0
  0
LINE
  5
33C
330
17
100
AcDbEntity
  8
0
100
AcDbLine
 10
106.19258117675781
 20
269.4834289550781
 30
0.0
 11
106.68379211425781
 21
271.83563232421875
 31
0.0
  0
LINE
  5
33D
330
17
100
AcDbEntity
  8
0
100
AcDbLine
 10
106.68379211425781
 20
271.83563232421875
 30
0.0
 11
106.72811889648438
 21
271.89166259765625
 31
0.0
  0
LINE
  5
33E
330
17
100
AcDbEntity
  8
0
100
AcDbLine
 10
106.72811889648438
 20
271.89166259765625
 30
0.0
 11
106.8156967163086
 21
271.9464416503906
 31
0.0
  0
LINE
  5
33F
330
17
100
AcDbEntity
  8
0
100
AcDbLine
 10
106.8156967163086
 20
271.9464416503906
 30
0.0
 11
106.89148712158203
 21
272.0503234863281
 31
0.0
  0
LINE
  5
340
330
17
100
AcDbEntity
  8
0
100
AcDbLine
 10
106.89148712158203
 20
272.0503234863281
 30
0.0
 11
107.54540252685547
 21
273.7173156738281
 31
0.0
  0
LINE
  5
341
330
17
100
AcDbEntity
  8
0
100
AcDbLine
 10
107.54540252685547
 20
273.7173156738281
 30
0.0
 11
107.79997253417969
 21
274.30743408203125
 31
0.0
  0
LINE
  5
342
330
17
100
AcDbEntity
  8
0
100
AcDbLine
 10
107.79997253417969
 20
274.30743408203125
 30
0.0
 11
107.80192565917969
 21
274.3203430175781
 31
0.0
  0
LINE
  5
343
330
17
100
AcDbEntity
  8
0
100
AcDbLine
 10
107.80192565917969
 20
274.3203430175781
 30
0.0
 11
107.80475616455078
 21
274.349365234375
 31
0.0
  0
LINE
  5
344
330
17
100
AcDbEntity
  8
0
100
AcDbLine
 10
107.80475616455078
 20
274.349365234375
 30
0.0
 11
107.81623077392578
 21
274.4149169921875
 31
0.0
  0
LINE
  5
345
330
17
100
AcDbEntity
  8
0
100
AcDbLine
 10
107.81623077392578
 20
274.4149169921875
 30
0.0
 11
109.07230377197266
 21
275.828125
 31
0.0
  0
LINE
  5
346
330
17
100
AcDbEntity
  8
0
100
AcDbLine
 10
109.07230377197266
 20
275.828125
 30
0.0
 11
109.99803161621094
 21
276.50006103515625
 31
0.0
  0
LINE
  5
347
330
17
100
AcDbEntity
  8
0
100
AcDbLine
 10
109.99803161621094
 20
276.50006103515625
 30
0.0
 11
110.49734497070312
 21
276.5020751953125
 31
0.0
  0
LINE
  5
348
330
17
100
AcDbEntity
  8
0
100
AcDbLine
 10
110.49734497070312
 20
276.5020751953125
 30
0.0
 11
112.489990234375
 21
276.68243408203125
 31
0.0
  0
LINE
  5
349
330
17
100
AcDbEntity
  8
0
100
AcDbLine
 10
112.489990234375
 20
276.68243408203125
 30
0.0
 11
112.79998779296875
 21
276.65386962890625
 31
0.0
  0
LINE
  5
34A
330
17
100
AcDbEntity
  8
0
100
AcDbLine
 10
112.79998779296875
 20
276.65386962890625
 30
0.0
 11
115.01396942138672
 21
276.580322265625
 31
0.0
  0
LINE
  5
34B
330
17
100
AcDbEntity
  8
0
100
AcDbLine
 10
115.01396942138672
 20
276.580322265625
 30
0.0
 11
115.39170837402344
 21
276.549560546875
 31
0.0
  0
LINE
  5
34C
330
17
100
AcDbEntity
  8
0
100
AcDbLine
 10
115.39170837402344
 20
276.549560546875
 30
0.0
 11
117.47391510009766
 21
276.50531005859375
 31
0.0
  0
LINE
  5
34D
330
17
100
AcDbEntity
  8
0
100
AcDbLine
 10
117.47391510009766
 20
276.50531005859375
 30
0.0
 11
117.91441345214844
 21
276.518798828125
 31
0.0
  0
LINE
  5
34E
330
17
100
AcDbEntity
  8
0
100
AcDbLine
 10
117.91441345214844
 20
276.518798828125
 30
0.0
 11
119.96588134765625
 21
276.73626708984375
 31
0.0
  0
LINE
  5
34F
330
17
100
AcDbEntity
  8
0
100
AcDbLine
 10
119.96588134765625
 20
276.73626708984375
 30
0.0
 11
120.12857818603516
 21
276.7773742675781
 31
0.0
  0
LINE
  5
350
330
17
100
AcDbEntity
  8
0
100
AcDbLine
 10
120.12857818603516
 20
276.7773742675781
 30
0.0
 11
120.65718078613281
 21
276.95928955078125
 31
0.0
  0
LINE
  5
351
330
17
100
AcDbEntity
  8
0
100
AcDbLine
 10
120.65718078613281
 20
276.95928955078125
 30
0.0
 11
121.98001861572266
 21
277.4371032714844
 31
0.0
  0
LINE
  5
352
330
17
100
AcDbEntity
  8
0
100
AcDbLine
 10
121.98001861572266
 20
277.4371032714844
 30
0.0
 11
122.45783233642578
 21
277.63079833984375
 31
0.0
  0
LINE
  5
353
330
17
100
AcDbEntity
  8
0
100
AcDbLine
 10
122.45783233642578
 20
277.63079833984375
 30
0.0
 11
123.54896545410156
 21
278.35662841796875
 31
0.0
  0
LINE
  5
354
330
17
100
AcDbEntity
  8
0
100
AcDbLine
 10
123.54896545410156
 20
278.35662841796875
 30
0.0
 11
124.9567642211914
 21
279.357421875
 31
0.0
  0
LINE
  5
355
330
17
100
AcDbEntity
  8
0
100
AcDbLine
 10
124.9567642211914
 20
279.357421875
 30
0.0
 11
125.00367736816406
 21
279.3986511230469
 31
0.0
  0
LINE
  5
356
330
17
100
AcDbEntity
  8
0
100
AcDbLine
 10
125.00367736816406
 20
279.3986511230469
 30
0.0
 11
125.0499267578125
 21
279.4425048828125
 31
0.0
  0
LINE
  5
357
330
17
100
AcDbEntity
  8
0
100
AcDbLine
 10
125.0499267578125
 20
279.4425048828125
 30
0.0
 11
126.26349639892578
 21
280.62945556640625
 31
0.0
  0
LINE
  5
358
330
17
100
AcDbEntity
  8
0
100
AcDbLine
 10
126.26349639892578
 20
280.62945556640625
 30
0.0
 11
127.45904541015625
 21
281.74560546875
 31
0.0
  0
LINE
  5
359
330
17
100
AcDbEntity
  8
0
100
AcDbLine
 10
127.45904541015625
 20
281.74560546875
 30
0.0
 11
127.56868743896484
 21
281.8438720703125
 31
0.0
  0
LINE
  5
35A
330
17
100
AcDbEntity
  8
0
100
AcDbLine
 10
127.56868743896484
 20
281.8438720703125
 30
0.0
 11
127.69335174560547
 21
281.9432067871094
 31
0.0
  0
LINE
  5
35B
330
17
100
AcDbEntity
  8
0
100
AcDbLine
 10
127.69335174560547
 20
281.9432067871094
 30
0.0
 11
128.9356231689453
 21
282.9482421875
 31
0.0
  0
LINE
  5
35C
330
17
100
AcDbEntity
  8
0
100
AcDbLine
 10
128.9356231689453
 20
282.9482421875
 30
0.0
 11
129.93368530273438
 21
283.5263671875
 31
0.0
  0
LINE
  5
35D
330
17
100
AcDbEntity
  8
0
100
AcDbLine
 10
129.93368530273438
 20
283.5263671875
 30
0.0
 11
130.5071563720703
 21
283.8038635253906
 31
0.0
  0
LINE
  5
35E
330
17
100
AcDbEntity
  8
0
100
AcDbLine
 10
130.5071563720703
 20
283.8038635253906
 30
0.0
 11
132.4132843017578
 21
284.1678466796875
 31
0.0
  0
LINE
  5
35F
330
17
100
AcDbEntity
  8
0
100
AcDbLine
 10
132.4132843017578
 20
284.1678466796875
 30
0.0
 11
132.68597412109375
 21
284.2113037109375
 31
0.0
  0
LINE
  5
360
330
17
100
AcDbEntity
  8
0
100
AcDbLine
 10
132.68597412109375
 20
284.2113037109375
 30
0.0
 11
134.9233856201172
 21
283.7859802246094
 31
0.0
  0
LINE
  5
361
330
17
100
AcDbEntity
  8
0
100
AcDbLine
 10
134.9233856201172
 20
283.7859802246094
 30
0.0
 11
135.86997985839844
 21
283.7129821777344
 31
0.0
  0
LINE
  5
362
330
17
100
AcDbEntity
  8
0
100
AcDbLine
 10
135.86997985839844
 20
283.7129821777344
 30
0.0
 11
137.3983154296875
 21
283.1750793457031
 31
0.0
  0
LINE
  5
363
330
17
100
AcDbEntity
  8
0
100
AcDbLine
 10
137.3983154296875
 20
283.1750793457031
 30
0.0
 11
139.59947204589844
 21
282.109619140625
 31
0.0
  0
LINE
  5
364
330
17
100
AcDbEntity
  8
0
100
AcDbLine
 10
139.59947204589844
 20
282.109619140625
 30
0.0
 11
139.67584228515625
 21
282.052978515625
 31
0.0
  0
LINE
  5
365
330
17
100
AcDbEntity
  8
0
100
AcDbLine
 10
139.67584228515625
 20
282.052978515625
 30
0.0
 11
139.7725372314453
 21
282.0457763671875
 31
0.0
  0
LINE
  5
366
330
17
100
AcDbEntity
  8
0
100
AcDbLine
 10
139.7725372314453
 20
282.0457763671875
 30
0.0
 11
141.525146484375
 21
280.9354248046875
 31
0.0
  0
LINE
  5
367
330
17
100
AcDbEntity
  8
0
100
AcDbLine
 10
141.525146484375
 20
280.9354248046875
 30
0.0
 11
141.6700439453125
 21
280.9135437011719
 31
0.0
  0
LINE
  5
368
330
17
100
AcDbEntity
  8
0
100
AcDbLine
 10
141.6700439453125
 20
280.9135437011719
 30
0.0
 11
141.73414611816406
 21
280.824462890625
 31
0.0
  0
LINE
  5
369
330
17
100
AcDbEntity
  8
0
100
AcDbLine
 10
141.73414611816406
 20
280.824462890625
 30
0.0
 11
142.85948181152344
 21
279.8545227050781
 31
0.0
  0
LINE
  5
36A
330
17
100
AcDbEntity
  8
0
100
AcDbLine
 10
142.85948181152344
 20
279.8545227050781
 30
0.0
 11
144.03604125976562
 21
278.66693115234375
 31
0.0
  0
LINE
  5
36B
330
17
100
AcDbEntity
  8
0
100
AcDbLine
 10
144.03604125976562
 20
278.66693115234375
 30
0.0
 11
144.3054656982422
 21
278.547119140625
 31
0.0
  0
LINE
  5
36C
330
17
100
AcDbEntity
  8
0
100
AcDbLine
 10
144.3054656982422
 20
278.547119140625
 30
0.0
 11
144.3798370361328
 21
278.3837585449219
 31
0.0
  0
LINE
  5
36D
330
17
100
AcDbEntity
  8
0
100
AcDbLine
 10
144.3798370361328
 20
278.3837585449219
 30
0.0
 11
145.4146728515625
 21
276.8157958984375
 31
0.0
  0
LINE
  5
36E
330
17
100
AcDbEntity
  8
0
100
AcDbLine
 10
145.4146728515625
 20
276.8157958984375
 30
0.0
 11
146.77963256835938
 21
276.0439453125
 31
0.0
  0
LINE
  5
36F
330
17
100
AcDbEntity
  8
0
100
AcDbLine
 10
146.77963256835938
 20
276.0439453125
 30
0.0
 11
146.86956787109375
 21
275.9967041015625
 31
0.0
  0
LINE
  5
370
330
17
100
AcDbEntity
  8
0
100
AcDbLine
 10
146.86956787109375
 20
275.9967041015625
 30
0.0
 11
147.37814331054688
 21
274.9378662109375
 31
0.0
  0
LINE
  5
371
330
17
100
AcDbEntity
  8
0
100
AcDbLine
 10
147.37814331054688
 20
274.9378662109375
 30
0.0
 11
147.86550903320312
 21
274.7081298828125
 31
0.0
  0
LINE
  5
372
330
17
100
AcDbEntity
  8
0
100
AcDbLine
 10
147.86550903320312
 20
274.7081298828125
 30
0.0
 11
147.9652862548828
 21
274.5738220214844
 31
0.0
  0
LINE
  5
373
330
17
100
AcDbEntity
  8
0
100
AcDbLine
 10
147.9652862548828
 20
274.5738220214844
 30
0.0
 11
149.53466796875
 21
273.8193359375
 31
0.0
  0
LINE
  5
374
330
17
100
AcDbEntity
  8
0
100
AcDbLine
 10
149.53466796875
 20
273.8193359375
 30
0.0
 11
149.64553833007812
 21
273.75189208984375
 31
0.0
  0
LINE
  5
375
330
17
100
AcDbEntity
  8
0
100
AcDbLine
 10
149.64553833007812
 20
273.75189208984375
 30
0.0
 11
149.69398498535156
 21
273.7528076171875
 31
0.0
  0
LINE
  5
376
330
17
100
AcDbEntity
  8
0
100
AcDbLine
 10
149.69398498535156
 20
273.7528076171875
 30
0.0
 11
152.0216064453125
 21
273.1757507324219
 31
0.0
  0
LINE
  5
377
330
17
100
AcDbEntity
  8
0
100
AcDbLine
 10
152.0216064453125
 20
273.1757507324219
 30
0.0
 11
152.10186767578125
 21
273.145263671875
 31
0.0
  0
LINE
  5
378
330
17
100
AcDbEntity
  8
0
100
AcDbLine
 10
152.10186767578125
 20
273.145263671875
 30
0.0
 11
152.42227172851562
 21
272.9583435058594
 31
0.0
  0
LINE
  5
379
330
17
100
AcDbEntity
  8
0
100
AcDbLine
 10
152.42227172851562
 20
272.9583435058594
 30
0.0
 11
152.46578979492188
 21
272.6638488769531
 31
0.0
  0
LINE
  5
37A
330
17
100
AcDbEntity
  8
0
100
AcDbLine
 10
152.46578979492188
 20
272.6638488769531
 30
0.0
 11
155.13021850585938
 21
272.3716735839844
 31
0.0
  0
LINE
  5
37B
330
17
100
AcDbEntity
  8
0
100
AcDbLine
 10
155.13021850585938
 20
272.3716735839844
 30
0.0
 11
162.69737243652344
 21
271.8570861816406
 31
0.0
  0
LINE
  5
37C
330
17
100
AcDbEntity
  8
0
100
AcDbLine
 10
162.69737243652344
 20
271.8570861816406
 30
0.0
 11
166.9859161376953
 21
269.12359619140625
 31
0.0
  0
LINE
  5
37D
330
17
100
AcDbEntity
  8
0
100
AcDbLine
 10
166.9859161376953
 20
269.12359619140625
 30
0.0
 11
171.41578674316406
 21
267.87213134765625
 31
0.0
  0
LINE
  5
37E
330
17
100
AcDbEntity
  8
0
100
AcDbLine
 10
171.41578674316406
 20
267.87213134765625
 30
0.0
 11
177.30563354492188
 21
265.96484375
 31
0.0
  0
LINE
  5
37F
330
17
100
AcDbEntity
  8
0
100
AcDbLine
 10
177.30563354492188
 20
265.96484375
 30
0.0
 11
181.12213134765625
 21
265.24896240234375
 31
0.0
  0
LINE
  5
380
330
17
100
AcDbEntity
  8
0
100
AcDbLine
 10
181.12213134765625
 20
265.24896240234375
 30
0.0
 11
186.15975952148438
 21
264.6381530761719
 31
0.0
  0
LINE
  5
381
330
17
100
AcDbEntity
  8
0
100
AcDbLine
 10
186.15975952148438
 20
264.6381530761719
 30
0.0
 11
191.34127807617188
 21
263.1717529296875
 31
0.0
  0
LINE
  5
382
330
17
100
AcDbEntity
  8
0
100
AcDbLine
 10
191.34127807617188
 20
263.1717529296875
 30
0.0
 11
194.542236328125
 21
263.3809509277344
 31
0.0
  0
LINE
  5
383
330
17
100
AcDbEntity
  8
0
100
AcDbLine
 10
194.542236328125
 20
263.3809509277344
 30
0.0
 11
201.28472900390625
 21
260.2838134765625
 31
0.0
  0
LINE
  5
384
330
17
100
AcDbEntity
  8
0
100
AcDbLine
 10
201.28472900390625
 20
260.2838134765625
 30
0.0
 11
210.93475341796875
 21
256.08721923828125
 31
0.0
  0
LINE
  5
385
330
17
100
AcDbEntity
  8
0
100
AcDbLine
 10
210.93475341796875
 20
256.08721923828125
 30
0.0
 11
210.9420166015625
 21
256.0845031738281
 31
0.0
  0
LINE
  5
386
330
17
100
AcDbEntity
  8
0
100
AcDbLine
 10
210.9420166015625
 20
256.0845031738281
 30
0.0
 11
210.95364379882812
 21
256.07684326171875
 31
0.0
  0
LINE
  5
387
330
17
100
AcDbEntity
  8
0
100
AcDbLine
 10
210.95364379882812
 20
256.07684326171875
 30
0.0
 11
210.9639892578125
 21
256.069091796875
 31
0.0
  0
LINE
  5
388
330
17
100
AcDbEntity
  8
0
100
AcDbLine
 10
210.9639892578125
 20
256.069091796875
 30
0.0
 11
211.25979614257812
 21
255.754638671875
 31
0.0
  0
LINE
  5
389
330
17
100
AcDbEntity
  8
0
100
AcDbLine
 10
211.25979614257812
 20
255.754638671875
 30
0.0
 11
211.95782470703125
 21
255.00616455078125
 31
0.0
  0
LINE
  5
38A
330
17
100
AcDbEntity
  8
0
100
AcDbLine
 10
211.95782470703125
 20
255.00616455078125
 30
0.0
 11
212.05999755859375
 21
255.0618133544922
 31
0.0
  0
LINE
  5
38B
330
17
100
AcDbEntity
  8
0
100
AcDbLine
 10
212.05999755859375
 20
255.0618133544922
 30
0.0
 11
212.37716674804688
 21
255.11831665039062
 31
0.0
  0
LINE
  5
38C
330
17
100
AcDbEntity
  8
0
100
AcDbLine
 10
212.37716674804688
 20
255.11831665039062
 30
0.0
 11
212.94662475585938
 21
255.4815216064453
 31
0.0
  0
LINE
  5
38D
330
17
100
AcDbEntity
  8
0
100
AcDbLine
 10
212.94662475585938
 20
255.4815216064453
 30
0.0
 11
214.57936096191406
 21
255.70932006835938
 31
0.0
  0
LINE
  5
38E
330
17
100
AcDbEntity
  8
0
100
AcDbLine
 10
214.57936096191406
 20
255.70932006835938
 30
0.0
 11
216.607177734375
 21
255.85406494140625
 31
0.0
  0
LINE
  5
38F
330
17
100
AcDbEntity
  8
0
100
AcDbLine
 10
216.607177734375
 20
255.85406494140625
 30
0.0
 11
217.10848999023438
 21
256.038818359375
 31
0.0
  0
LINE
  5
390
330
17
100
AcDbEntity
  8
0
100
AcDbLine
 10
217.10848999023438
 20
256.038818359375
 30
0.0
 11
219.26686096191406
 21
256.028076171875
 31
0.0
  0
LINE
  5
391
330
17
100
AcDbEntity
  8
0
100
AcDbLine
 10
219.26686096191406
 20
256.028076171875
 30
0.0
 11
219.6224365234375
 21
256.07562255859375
 31
0.0
  0
LINE
  5
392
330
17
100
AcDbEntity
  8
0
100
AcDbLine
 10
219.6224365234375
 20
256.07562255859375
 30
0.0
 11
221.78536987304688
 21
255.97898864746094
 31
0.0
  0
LINE
  5
393
330
17
100
AcDbEntity
  8
0
100
AcDbLine
 10
221.78536987304688
 20
255.97898864746094
 30
0.0
 11
222.12744140625
 21
255.9930877685547
 31
0.0
  0
LINE
  5
394
330
17
100
AcDbEntity
  8
0
100
AcDbLine
 10
222.12744140625
 20
255.9930877685547
 30
0.0
 11
224.13442993164062
 21
255.86392211914062
 31
0.0
  0
LINE
  5
395
330
17
100
AcDbEntity
  8
0
100
AcDbLine
 10
224.13442993164062
 20
255.86392211914062
 30
0.0
 11
224.62591552734375
 21
255.86444091796875
 31
0.0
  0
LINE
  5
396
330
17
100
AcDbEntity
  8
0
100
AcDbLine
 10
224.62591552734375
 20
255.86444091796875
 30
0.0
 11
225.71096801757812
 21
255.7530517578125
 31
0.0
  0
LINE
  5
397
330
17
100
AcDbEntity
  8
0
100
AcDbLine
 10
225.71096801757812
 20
255.7530517578125
 30
0.0
 11
227.06060791015625
 21
255.65875244140625
 31
0.0
  0
LINE
  5
398
330
17
100
AcDbEntity
  8
0
100
AcDbLine
 10
227.06060791015625
 20
255.65875244140625
 30
0.0
 11
227.19265747070312
 21
255.61248779296875
 31
0.0
  0
LINE
  5
399
330
17
100
AcDbEntity
  8
0
100
AcDbLine
 10
227.19265747070312
 20
255.61248779296875
 30
0.0
 11
229.5866241455078
 21
255.468505859375
 31
0.0
  0
LINE
  5
39A
330
17
100
AcDbEntity
  8
0
100
AcDbLine
 10
229.5866241455078
 20
255.468505859375
 30
0.0
 11
229.61203002929688
 21
255.46502685546875
 31
0.0
  0
LINE
  5
39B
330
17
100
AcDbEntity
  8
0
100
AcDbLine
 10
229.61203002929688
 20
255.46502685546875
 30
0.0
 11
232.07833862304688
 21
255.326904296875
 31
0.0
  0
LINE
  5
39C
330
17
100
AcDbEntity
  8
0
100
AcDbLine
 10
232.07833862304688
 20
255.326904296875
 30
0.0
 11
232.10397338867188
 21
255.3245086669922
 31
0.0
  0
LINE
  5
39D
330
17
100
AcDbEntity
  8
0
100
AcDbLine
 10
232.10397338867188
 20
255.3245086669922
 30
0.0
 11
234.57029724121094
 21
255.2230224609375
 31
0.0
  0
LINE
  5
39E
330
17
100
AcDbEntity
  8
0
100
AcDbLine
 10
234.57029724121094
 20
255.2230224609375
 30
0.0
 11
234.59593200683594
 21
255.22122192382812
 31
0.0
  0
LINE
  5
39F
330
17
100
AcDbEntity
  8
0
100
AcDbLine
 10
234.59593200683594
 20
255.22122192382812
 30
0.0
 11
237.062255859375
 21
255.1455078125
 31
0.0
  0
LINE
  5
3A0
330
17
100
AcDbEntity
  8
0
100
AcDbLine
 10
237.062255859375
 20
255.1455078125
 30
0.0
 11
237.087890625
 21
255.14401245117188
 31
0.0
  0
LINE
  5
3A1
330
17
100
AcDbEntity
  8
0
100
AcDbLine
 10
237.087890625
 20
255.14401245117188
 30
0.0
 11
239.55422973632812
 21
255.07504272460938
 31
0.0
  0
LINE
  5
3A2
330
17
100
AcDbEntity
  8
0
100
AcDbLine
 10
239.55422973632812
 20
255.07504272460938
 30
0.0
 11
239.57986450195312
 21
255.0735321044922
 31
0.0
  0
LINE
  5
3A3
330
17
100
AcDbEntity
  8
0
100
AcDbLine
 10
239.57986450195312
 20
255.0735321044922
 30
0.0
 11
242.04617309570312
 21
254.99234008789062
 31
0.0
  0
LINE
  5
3A4
330
17
100
AcDbEntity
  8
0
100
AcDbLine
 10
242.04617309570312
 20
254.99234008789062
 30
0.0
 11
242.07376098632812
 21
254.98936462402344
 31
0.0
  0
LINE
  5
3A5
330
17
100
AcDbEntity
  8
0
100
AcDbLine
 10
242.07376098632812
 20
254.98936462402344
 30
0.0
 11
244.56378173828125
 21
254.86373901367188
 31
0.0
  0
LINE
  5
3A6
330
17
100
AcDbEntity
  8
0
100
AcDbLine
 10
244.56378173828125
 20
254.86373901367188
 30
0.0
 11
247.02835083007812
 21
254.6314697265625
 31
0.0
  0
LINE
  5
3A7
330
17
100
AcDbEntity
  8
0
100
AcDbLine
 10
247.02835083007812
 20
254.6314697265625
 30
0.0
 11
247.05572509765625
 21
254.6281280517578
 31
0.0
  0
LINE
  5
3A8
330
17
100
AcDbEntity
  8
0
100
AcDbLine
 10
247.05572509765625
 20
254.6281280517578
 30
0.0
 11
247.58045959472656
 21
254.50015258789062
 31
0.0
  0
LINE
  5
3A9
330
17
100
AcDbEntity
  8
0
100
AcDbLine
 10
247.58045959472656
 20
254.50015258789062
 30
0.0
 11
249.64892578125
 21
253.9595184326172
 31
0.0
  0
LINE
  5
3AA
330
17
100
AcDbEntity
  8
0
100
AcDbLine
 10
249.64892578125
 20
253.9595184326172
 30
0.0
 11
249.71633911132812
 21
253.93931579589844
 31
0.0
  0
LINE
  5
3AB
330
17
100
AcDbEntity
  8
0
100
AcDbLine
 10
249.71633911132812
 20
253.93931579589844
 30
0.0
 11
249.87045288085938
 21
253.90638732910156
 31
0.0
  0
LINE
  5
3AC
330
17
100
AcDbEntity
  8
0
100
AcDbLine
 10
249.87045288085938
 20
253.90638732910156
 30
0.0
 11
250.6762237548828
 21
253.03623962402344
 31
0.0
  0
LINE
  5
3AD
330
17
100
AcDbEntity
  8
0
100
AcDbLine
 10
250.6762237548828
 20
253.03623962402344
 30
0.0
 11
251.7920379638672
 21
252.01800537109375
 31
0.0
  0
LINE
  5
3AE
330
17
100
AcDbEntity
  8
0
100
AcDbLine
 10
251.7920379638672
 20
252.01800537109375
 30
0.0
 11
251.80657958984375
 21
251.9110107421875
 31
0.0
  0
LINE
  5
3AF
330
17
100
AcDbEntity
  8
0
100
AcDbLine
 10
251.80657958984375
 20
251.9110107421875
 30
0.0
 11
251.8641357421875
 21
251.85064697265625
 31
0.0
  0
LINE
  5
3B0
330
17
100
AcDbEntity
  8
0
100
AcDbLine
 10
251.8641357421875
 20
251.85064697265625
 30
0.0
 11
251.88323974609375
 21
251.7201385498047
 31
0.0
  0
LINE
  5
3B1
330
17
100
AcDbEntity
  8
0
100
AcDbLine
 10
251.88323974609375
 20
251.7201385498047
 30
0.0
 11
252.216796875
 21
250.41619873046875
 31
0.0
  0
LINE
  5
3B2
330
17
100
AcDbEntity
  8
0
100
AcDbLine
 10
252.216796875
 20
250.41619873046875
 30
0.0
 11
252.4326171875
 21
249.54776000976562
 31
0.0
  0
LINE
  5
3B3
330
17
100
AcDbEntity
  8
0
100
AcDbLine
 10
252.4326171875
 20
249.54776000976562
 30
0.0
 11
252.434814453125
 21
249.42588806152344
 31
0.0
  0
LINE
  5
3B4
330
17
100
AcDbEntity
  8
0
100
AcDbLine
 10
252.434814453125
 20
249.42588806152344
 30
0.0
 11
252.43069458007812
 21
248.814697265625
 31
0.0
  0
LINE
  5
3B5
330
17
100
AcDbEntity
  8
0
100
AcDbLine
 10
252.43069458007812
 20
248.814697265625
 30
0.0
 11
252.4191436767578
 21
246.86697387695312
 31
0.0
  0
LINE
  5
3B6
330
17
100
AcDbEntity
  8
0
100
AcDbLine
 10
252.4191436767578
 20
246.86697387695312
 30
0.0
 11
252.39419555664062
 21
246.57281494140625
 31
0.0
  0
LINE
  5
3B7
330
17
100
AcDbEntity
  8
0
100
AcDbLine
 10
252.39419555664062
 20
246.57281494140625
 30
0.0
 11
252.13577270507812
 21
244.5638427734375
 31
0.0
  0
LINE
  5
3B8
330
17
100
AcDbEntity
  8
0
100
AcDbLine
 10
252.13577270507812
 20
244.5638427734375
 30
0.0
 11
252.13124084472656
 21
244.52969360351562
 31
0.0
  0
LINE
  5
3B9
330
17
100
AcDbEntity
  8
0
100
AcDbLine
 10
252.13124084472656
 20
244.52969360351562
 30
0.0
 11
252.08004760742188
 21
244.23980712890625
 31
0.0
  0
LINE
  5
3BA
330
17
100
AcDbEntity
  8
0
100
AcDbLine
 10
252.08004760742188
 20
244.23980712890625
 30
0.0
 11
251.6745147705078
 21
242.15554809570312
 31
0.0
  0
LINE
  5
3BB
330
17
100
AcDbEntity
  8
0
100
AcDbLine
 10
251.6745147705078
 20
242.15554809570312
 30
0.0
 11
251.636474609375
 21
241.98602294921875
 31
0.0
  0
LINE
  5
3BC
330
17
100
AcDbEntity
  8
0
100
AcDbLine
 10
251.636474609375
 20
241.98602294921875
 30
0.0
 11
251.62954711914062
 21
241.93951416015625
 31
0.0
  0
LINE
  5
3BD
330
17
100
AcDbEntity
  8
0
100
AcDbLine
 10
251.62954711914062
 20
241.93951416015625
 30
0.0
 11
251.59617614746094
 21
241.782958984375
 31
0.0
  0
LINE
  5
3BE
330
17
100
AcDbEntity
  8
0
100
AcDbLine
 10
251.59617614746094
 20
241.782958984375
 30
0.0
 11
251.50430297851562
 21
241.10052490234375
 31
0.0
  0
LINE
  5
3BF
330
17
100
AcDbEntity
  8
0
100
AcDbLine
 10
251.50430297851562
 20
241.10052490234375
 30
0.0
 11
251.20864868164062
 21
239.57992553710938
 31
0.0
  0
LINE
  5
3C0
330
17
100
AcDbEntity
  8
0
100
AcDbLine
 10
251.20864868164062
 20
239.57992553710938
 30
0.0
 11
250.91360473632812
 21
238.1295928955078
 31
0.0
  0
LINE
  5
3C1
330
17
100
AcDbEntity
  8
0
100
AcDbLine
 10
250.91360473632812
 20
238.1295928955078
 30
0.0
 11
250.7196044921875
 21
237.0879669189453
 31
0.0
  0
LINE
  5
3C2
330
17
100
AcDbEntity
  8
0
100
AcDbLine
 10
250.7196044921875
 20
237.0879669189453
 30
0.0
 11
250.25665283203125
 21
234.8782958984375
 31
0.0
  0
LINE
  5
3C3
330
17
100
AcDbEntity
  8
0
100
AcDbLine
 10
250.25665283203125
 20
234.8782958984375
 30
0.0
 11
250.1671600341797
 21
234.45394897460938
 31
0.0
  0
LINE
  5
3C4
330
17
100
AcDbEntity
  8
0
100
AcDbLine
 10
250.1671600341797
 20
234.45394897460938
 30
0.0
 11
250.1438446044922
 21
234.3077392578125
 31
0.0
  0
LINE
  5
3C5
330
17
100
AcDbEntity
  8
0
100
AcDbLine
 10
250.1438446044922
 20
234.3077392578125
 30
0.0
 11
249.68685913085938
 21
232.10403442382812
 31
0.0
  0
LINE
  5
3C6
330
17
100
AcDbEntity
  8
0
100
AcDbLine
 10
249.68685913085938
 20
232.10403442382812
 30
0.0
 11
249.68023681640625
 21
232.0614013671875
 31
0.0
  0
LINE
  5
3C7
330
17
100
AcDbEntity
  8
0
100
AcDbLine
 10
249.68023681640625
 20
232.0614013671875
 30
0.0
 11
249.19573974609375
 21
229.61209106445312
 31
0.0
  0
LINE
  5
3C8
330
17
100
AcDbEntity
  8
0
100
AcDbLine
 10
249.19573974609375
 20
229.61209106445312
 30
0.0
 11
249.1915283203125
 21
229.58419799804688
 31
0.0
  0
LINE
  5
3C9
330
17
100
AcDbEntity
  8
0
100
AcDbLine
 10
249.1915283203125
 20
229.58419799804688
 30
0.0
 11
249.106201171875
 21
229.13536071777344
 31
0.0
  0
LINE
  5
3CA
330
17
100
AcDbEntity
  8
0
100
AcDbLine
 10
249.106201171875
 20
229.13536071777344
 30
0.0
 11
248.748291015625
 21
227.3564453125
 31
0.0
  0
LINE
  5
3CB
330
17
100
AcDbEntity
  8
0
100
AcDbLine
 10
248.748291015625
 20
227.3564453125
 30
0.0
 11
248.72406005859375
 21
227.26077270507812
 31
0.0
  0
LINE
  5
3CC
330
17
100
AcDbEntity
  8
0
100
AcDbLine
 10
248.72406005859375
 20
227.26077270507812
 30
0.0
 11
248.71939086914062
 21
227.2263946533203
 31
0.0
  0
LINE
  5
3CD
330
17
100
AcDbEntity
  8
0
100
AcDbLine
 10
248.71939086914062
 20
227.2263946533203
 30
0.0
 11
248.69647216796875
 21
227.1373291015625
 31
0.0
  0
LINE
  5
3CE
330
17
100
AcDbEntity
  8
0
100
AcDbLine
 10
248.69647216796875
 20
227.1373291015625
 30
0.0
 11
248.6766357421875
 21
226.91192626953125
 31
0.0
  0
LINE
  5
3CF
330
17
100
AcDbEntity
  8
0
100
AcDbLine
 10
248.6766357421875
 20
226.91192626953125
 30
0.0
 11
248.3802032470703
 21
225.37005615234375
 31
0.0
  0
LINE
  5
3D0
330
17
100
AcDbEntity
  8
0
100
AcDbLine
 10
248.3802032470703
 20
225.37005615234375
 30
0.0
 11
248.26251220703125
 21
224.628173828125
 31
0.0
  0
LINE
  5
3D1
330
17
100
AcDbEntity
  8
0
100
AcDbLine
 10
248.26251220703125
 20
224.628173828125
 30
0.0
 11
248.15020751953125
 21
224.12013244628906
 31
0.0
  0
LINE
  5
3D2
330
17
100
AcDbEntity
  8
0
100
AcDbLine
 10
248.15020751953125
 20
224.12013244628906
 30
0.0
 11
247.8914337158203
 21
222.7574005126953
 31
0.0
  0
LINE
  5
3D3
330
17
100
AcDbEntity
  8
0
100
AcDbLine
 10
247.8914337158203
 20
222.7574005126953
 30
0.0
 11
247.78204345703125
 21
222.2652587890625
 31
0.0
  0
LINE
  5
3D4
330
17
100
AcDbEntity
  8
0
100
AcDbLine
 10
247.78204345703125
 20
222.2652587890625
 30
0.0
 11
247.76463317871094
 21
222.12449645996094
 31
0.0
  0
LINE
  5
3D5
330
17
100
AcDbEntity
  8
0
100
AcDbLine
 10
247.76463317871094
 20
222.12449645996094
 30
0.0
 11
247.28846740722656
 21
219.64425659179688
 31
0.0
  0
LINE
  5
3D6
330
17
100
AcDbEntity
  8
0
100
AcDbLine
 10
247.28846740722656
 20
219.64425659179688
 30
0.0
 11
247.2847900390625
 21
219.61337280273438
 31
0.0
  0
LINE
  5
3D7
330
17
100
AcDbEntity
  8
0
100
AcDbLine
 10
247.2847900390625
 20
219.61337280273438
 30
0.0
 11
246.8128204345703
 21
217.1522979736328
 31
0.0
  0
LINE
  5
3D8
330
17
100
AcDbEntity
  8
0
100
AcDbLine
 10
246.8128204345703
 20
217.1522979736328
 30
0.0
 11
246.8086395263672
 21
217.11587524414062
 31
0.0
  0
LINE
  5
3D9
330
17
100
AcDbEntity
  8
0
100
AcDbLine
 10
246.8086395263672
 20
217.11587524414062
 30
0.0
 11
246.33157348632812
 21
214.66033935546875
 31
0.0
  0
LINE
  5
3DA
330
17
100
AcDbEntity
  8
0
100
AcDbLine
 10
246.33157348632812
 20
214.66033935546875
 30
0.0
 11
246.32833862304688
 21
214.63140869140625
 31
0.0
  0
LINE
  5
3DB
330
17
100
AcDbEntity
  8
0
100
AcDbLine
 10
246.32833862304688
 20
214.63140869140625
 30
0.0
 11
245.950927734375
 21
212.77044677734375
 31
0.0
  0
LINE
  5
3DC
330
17
100
AcDbEntity
  8
0
100
AcDbLine
 10
245.950927734375
 20
212.77044677734375
 30
0.0
 11
245.6815185546875
 21
211.5462188720703
 31
0.0
  0
LINE
  5
3DD
330
17
100
AcDbEntity
  8
0
100
AcDbLine
 10
245.6815185546875
 20
211.5462188720703
 30
0.0
 11
245.67442321777344
 21
211.5273895263672
 31
0.0
  0
LINE
  5
3DE
330
17
100
AcDbEntity
  8
0
100
AcDbLine
 10
245.67442321777344
 20
211.5273895263672
 30
0.0
 11
245.66998291015625
 21
211.50140380859375
 31
0.0
  0
LINE
  5
3DF
330
17
100
AcDbEntity
  8
0
100
AcDbLine
 10
245.66998291015625
 20
211.50140380859375
 30
0.0
 11
245.2474365234375
 21
209.67642211914062
 31
0.0
  0
LINE
  5
3E0
330
17
100
AcDbEntity
  8
0
100
AcDbLine
 10
245.2474365234375
 20
209.67642211914062
 30
0.0
 11
245.24282836914062
 21
209.65078735351562
 31
0.0
  0
LINE
  5
3E1
330
17
100
AcDbEntity
  8
0
100
AcDbLine
 10
245.24282836914062
 20
209.65078735351562
 30
0.0
 11
244.62368774414062
 21
207.18446350097656
 31
0.0
  0
LINE
  5
3E2
330
17
100
AcDbEntity
  8
0
100
AcDbLine
 10
244.62368774414062
 20
207.18446350097656
 30
0.0
 11
244.61856079101562
 21
207.15882873535156
 31
0.0
  0
LINE
  5
3E3
330
17
100
AcDbEntity
  8
0
100
AcDbLine
 10
244.61856079101562
 20
207.15882873535156
 30
0.0
 11
243.84658813476562
 21
204.5521240234375
 31
0.0
  0
LINE
  5
3E4
330
17
100
AcDbEntity
  8
0
100
AcDbLine
 10
243.84658813476562
 20
204.5521240234375
 30
0.0
 11
243.81057739257812
 21
204.39187622070312
 31
0.0
  0
LINE
  5
3E5
330
17
100
AcDbEntity
  8
0
100
AcDbLine
 10
243.81057739257812
 20
204.39187622070312
 30
0.0
 11
243.743896484375
 21
203.9810333251953
 31
0.0
  0
LINE
  5
3E6
330
17
100
AcDbEntity
  8
0
100
AcDbLine
 10
243.743896484375
 20
203.9810333251953
 30
0.0
 11
243.1736297607422
 21
202.2080841064453
 31
0.0
  0
LINE
  5
3E7
330
17
100
AcDbEntity
  8
0
100
AcDbLine
 10
243.1736297607422
 20
202.2080841064453
 30
0.0
 11
243.05799865722656
 21
202.05206298828125
 31
0.0
  0
LINE
  5
3E8
330
17
100
AcDbEntity
  8
0
100
AcDbLine
 10
243.05799865722656
 20
202.05206298828125
 30
0.0
 11
243.0338897705078
 21
201.95281982421875
 31
0.0
  0
LINE
  5
3E9
330
17
100
AcDbEntity
  8
0
100
AcDbLine
 10
243.0338897705078
 20
201.95281982421875
 30
0.0
 11
242.994384765625
 21
201.81527709960938
 31
0.0
  0
LINE
  5
3EA
330
17
100
AcDbEntity
  8
0
100
AcDbLine
 10
242.994384765625
 20
201.81527709960938
 30
0.0
 11
241.9475555419922
 21
199.4921112060547
 31
0.0
  0
LINE
  5
3EB
330
17
100
AcDbEntity
  8
0
100
AcDbLine
 10
241.9475555419922
 20
199.4921112060547
 30
0.0
 11
241.8625030517578
 21
199.24581909179688
 31
0.0
  0
LINE
  5
3EC
330
17
100
AcDbEntity
  8
0
100
AcDbLine
 10
241.8625030517578
 20
199.24581909179688
 30
0.0
 11
241.6356201171875
 21
198.5299072265625
 31
0.0
  0
LINE
  5
3ED
330
17
100
AcDbEntity
  8
0
100
AcDbLine
 10
241.6356201171875
 20
198.5299072265625
 30
0.0
 11
241.05087280273438
 21
197.21633911132812
 31
0.0
  0
LINE
  5
3EE
330
17
100
AcDbEntity
  8
0
100
AcDbLine
 10
241.05087280273438
 20
197.21633911132812
 30
0.0
 11
240.07461547851562
 21
194.935791015625
 31
0.0
  0
LINE
  5
3EF
330
17
100
AcDbEntity
  8
0
100
AcDbLine
 10
240.07461547851562
 20
194.935791015625
 30
0.0
 11
239.89306640625
 21
194.73348999023438
 31
0.0
  0
LINE
  5
3F0
330
17
100
AcDbEntity
  8
0
100
AcDbLine
 10
239.89306640625
 20
194.73348999023438
 30
0.0
 11
239.8314208984375
 21
194.57443237304688
 31
0.0
  0
LINE
  5
3F1
330
17
100
AcDbEntity
  8
0
100
AcDbLine
 10
239.8314208984375
 20
194.57443237304688
 30
0.0
 11
239.745849609375
 21
194.30636596679688
 31
0.0
  0
LINE
  5
3F2
330
17
100
AcDbEntity
  8
0
100
AcDbLine
 10
239.745849609375
 20
194.30636596679688
 30
0.0
 11
239.51889038085938
 21
191.82469177246094
 31
0.0
  0
LINE
  5
3F3
330
17
100
AcDbEntity
  8
0
100
AcDbLine
 10
239.51889038085938
 20
191.82469177246094
 30
0.0
 11
239.53976440429688
 21
191.0087890625
 31
0.0
  0
LINE
  5
3F4
330
17
100
AcDbEntity
  8
0
100
AcDbLine
 10
239.53976440429688
 20
191.0087890625
 30
0.0
 11
239.63717651367188
 21
189.7504119873047
 31
0.0
  0
LINE
  5
3F5
330
17
100
AcDbEntity
  8
0
100
AcDbLine
 10
239.63717651367188
 20
189.7504119873047
 30
0.0
 11
239.55235290527344
 21
189.01336669921875
 31
0.0
  0
LINE
  5
3F6
330
17
100
AcDbEntity
  8
0
100
AcDbLine
 10
239.55235290527344
 20
189.01336669921875
 30
0.0
 11
239.57647705078125
 21
188.884521484375
 31
0.0
  0
LINE
  5
3F7
330
17
100
AcDbEntity
  8
0
100
AcDbLine
 10
239.57647705078125
 20
188.884521484375
 30
0.0
 11
239.91970825195312
 21
188.26937866210938
 31
0.0
  0
LINE
  5
3F8
330
17
100
AcDbEntity
  8
0
100
AcDbLine
 10
239.91970825195312
 20
188.26937866210938
 30
0.0
 11
240.31832885742188
 21
185.8544158935547
 31
0.0
  0
LINE
  5
3F9
330
17
100
AcDbEntity
  8
0
100
AcDbLine
 10
240.31832885742188
 20
185.8544158935547
 30
0.0
 11
240.2675018310547
 21
185.57713317871094
 31
0.0
  0
LINE
  5
3FA
330
17
100
AcDbEntity
  8
0
100
AcDbLine
 10
240.2675018310547
 20
185.57713317871094
 30
0.0
 11
240.3246612548828
 21
185.2713623046875
 31
0.0
  0
LINE
  5
3FB
330
17
100
AcDbEntity
  8
0
100
AcDbLine
 10
240.3246612548828
 20
185.2713623046875
 30
0.0
 11
240.5520782470703
 21
183.96331787109375
 31
0.0
  0
LINE
  5
3FC
330
17
100
AcDbEntity
  8
0
100
AcDbLine
 10
240.5520782470703
 20
183.96331787109375
 30
0.0
 11
240.7760467529297
 21
182.23829650878906
 31
0.0
  0
LINE
  5
3FD
330
17
100
AcDbEntity
  8
0
100
AcDbLine
 10
240.7760467529297
 20
182.23829650878906
 30
0.0
 11
240.6979217529297
 21
182.04248046875
 31
0.0
  0
LINE
  5
3FE
330
17
100
AcDbEntity
  8
0
100
AcDbLine
 10
240.6979217529297
 20
182.04248046875
 30
0.0
 11
240.75152587890625
 21
181.5376739501953
 31
0.0
  0
LINE
  5
3FF
330
17
100
AcDbEntity
  8
0
100
AcDbLine
 10
240.75152587890625
 20
181.5376739501953
 30
0.0
 11
240.87713623046875
 21
181.1676483154297
 31
0.0
  0
LINE
  5
400
330
17
100
AcDbEntity
  8
0
100
AcDbLine
 10
240.87713623046875
 20
181.1676483154297
 30
0.0
 11
240.69845581054688
 21
178.93557739257812
 31
0.0
  0
LINE
  5
401
330
17
100
AcDbEntity
  8
0
100
AcDbLine
 10
240.69845581054688
 20
178.93557739257812
 30
0.0
 11
240.36907958984375
 21
176.80116271972656
 31
0.0
  0
LINE
  5
402
330
17
100
AcDbEntity
  8
0
100
AcDbLine
 10
240.36907958984375
 20
176.80116271972656
 30
0.0
 11
240.3325653076172
 21
176.65830993652344
 31
0.0
  0
LINE
  5
403
330
17
100
AcDbEntity
  8
0
100
AcDbLine
 10
240.3325653076172
 20
176.65830993652344
 30
0.0
 11
240.29998779296875
 21
176.6231231689453
 31
0.0
  0
LINE
  5
404
330
17
100
AcDbEntity
  8
0
100
AcDbLine
 10
240.29998779296875
 20
176.6231231689453
 30
0.0
 11
240.3182373046875
 21
176.57928466796875
 31
0.0
  0
LINE
  5
405
330
17
100
AcDbEntity
  8
0
100
AcDbLine
 10
240.3182373046875
 20
176.57928466796875
 30
0.0
 11
240.315673828125
 21
176.4960479736328
 31
0.0
  0
LINE
  5
406
330
17
100
AcDbEntity
  8
0
100
AcDbLine
 10
240.315673828125
 20
176.4960479736328
 30
0.0
 11
240.26730346679688
 21
176.2476348876953
 31
0.0
  0
LINE
  5
407
330
17
100
AcDbEntity
  8
0
100
AcDbLine
 10
240.26730346679688
 20
176.2476348876953
 30
0.0
 11
239.85096740722656
 21
174.7834930419922
 31
0.0
  0
LINE
  5
408
330
17
100
AcDbEntity
  8
0
100
AcDbLine
 10
239.85096740722656
 20
174.7834930419922
 30
0.0
 11
239.5057373046875
 21
174.5106658935547
 31
0.0
  0
LINE
  5
409
330
17
100
AcDbEntity
  8
0
100
AcDbLine
 10
239.5057373046875
 20
174.5106658935547
 30
0.0
 11
239.58523559570312
 21
173.6510009765625
 31
0.0
  0
LINE
  5
40A
330
17
100
AcDbEntity
  8
0
100
AcDbLine
 10
239.58523559570312
 20
173.6510009765625
 30
0.0
 11
239.43917846679688
 21
173.056396484375
 31
0.0
  0
LINE
  5
40B
330
17
100
AcDbEntity
  8
0
100
AcDbLine
 10
239.43917846679688
 20
173.056396484375
 30
0.0
 11
239.28680419921875
 21
172.87408447265625
 31
0.0
  0
LINE
  5
40C
330
17
100
AcDbEntity
  8
0
100
AcDbLine
 10
239.28680419921875
 20
172.87408447265625
 30
0.0
 11
239.20408630371094
 21
172.5082244873047
 31
0.0
  0
LINE
  5
40D
330
17
100
AcDbEntity
  8
0
100
AcDbLine
 10
239.20408630371094
 20
172.5082244873047
 30
0.0
 11
239.0192108154297
 21
170.8262939453125
 31
0.0
  0
LINE
  5
40E
330
17
100
AcDbEntity
  8
0
100
AcDbLine
 10
239.0192108154297
 20
170.8262939453125
 30
0.0
 11
239.0191650390625
 21
170.82472229003906
 31
0.0
  0
LINE
  5
40F
330
17
100
AcDbEntity
  8
0
100
AcDbLine
 10
239.0191650390625
 20
170.82472229003906
 30
0.0
 11
239.01791381835938
 21
170.80517578125
 31
0.0
  0
LINE
  5
410
330
17
100
AcDbEntity
  8
0
100
AcDbLine
 10
239.01791381835938
 20
170.80517578125
 30
0.0
 11
238.8363037109375
 21
169.0117645263672
 31
0.0
  0
LINE
  5
411
330
17
100
AcDbEntity
  8
0
100
AcDbLine
 10
238.8363037109375
 20
169.0117645263672
 30
0.0
 11
238.84783935546875
 21
168.88998413085938
 31
0.0
  0
LINE
  5
412
330
17
100
AcDbEntity
  8
0
100
AcDbLine
 10
238.84783935546875
 20
168.88998413085938
 30
0.0
 11
238.85269165039062
 21
167.0834197998047
 31
0.0
  0
LINE
  5
413
330
17
100
AcDbEntity
  8
0
100
AcDbLine
 10
238.85269165039062
 20
167.0834197998047
 30
0.0
 11
238.98934936523438
 21
166.8131103515625
 31
0.0
  0
LINE
  5
414
330
17
100
AcDbEntity
  8
0
100
AcDbLine
 10
238.98934936523438
 20
166.8131103515625
 30
0.0
 11
239.13734436035156
 21
164.7629852294922
 31
0.0
  0
LINE
  5
415
330
17
100
AcDbEntity
  8
0
100
AcDbLine
 10
239.13734436035156
 20
164.7629852294922
 30
0.0
 11
239.02383422851562
 21
164.6454315185547
 31
0.0
  0
LINE
  5
416
330
17
100
AcDbEntity
  8
0
100
AcDbLine
 10
239.02383422851562
 20
164.6454315185547
 30
0.0
 11
239.07772827148438
 21
164.54660034179688
 31
0.0
  0
LINE
  5
417
330
17
100
AcDbEntity
  8
0
100
AcDbLine
 10
239.07772827148438
 20
164.54660034179688
 30
0.0
 11
239.1685333251953
 21
162.74916076660156
 31
0.0
  0
LINE
  5
418
330
17
100
AcDbEntity
  8
0
100
AcDbLine
 10
239.1685333251953
 20
162.74916076660156
 30
0.0
 11
239.04849243164062
 21
162.41026306152344
 31
0.0
  0
LINE
  5
419
330
17
100
AcDbEntity
  8
0
100
AcDbLine
 10
239.04849243164062
 20
162.41026306152344
 30
0.0
 11
239.1913299560547
 21
160.46534729003906
 31
0.0
  0
LINE
  5
41A
330
17
100
AcDbEntity
  8
0
100
AcDbLine
 10
239.1913299560547
 20
160.46534729003906
 30
0.0
 11
239.02088928222656
 21
160.0911865234375
 31
0.0
  0
LINE
  5
41B
330
17
100
AcDbEntity
  8
0
100
AcDbLine
 10
239.02088928222656
 20
160.0911865234375
 30
0.0
 11
239.29513549804688
 21
158.1139373779297
 31
0.0
  0
LINE
  5
41C
330
17
100
AcDbEntity
  8
0
100
AcDbLine
 10
239.29513549804688
 20
158.1139373779297
 30
0.0
 11
239.24322509765625
 21
157.79251098632812
 31
0.0
  0
LINE
  5
41D
330
17
100
AcDbEntity
  8
0
100
AcDbLine
 10
239.24322509765625
 20
157.79251098632812
 30
0.0
 11
239.26446533203125
 21
157.48973083496094
 31
0.0
  0
LINE
  5
41E
330
17
100
AcDbEntity
  8
0
100
AcDbLine
 10
239.26446533203125
 20
157.48973083496094
 30
0.0
 11
239.43765258789062
 21
155.59228515625
 31
0.0
  0
LINE
  5
41F
330
17
100
AcDbEntity
  8
0
100
AcDbLine
 10
239.43765258789062
 20
155.59228515625
 30
0.0
 11
239.44952392578125
 21
155.229248046875
 31
0.0
  0
LINE
  5
420
330
17
100
AcDbEntity
  8
0
100
AcDbLine
 10
239.44952392578125
 20
155.229248046875
 30
0.0
 11
239.55453491210938
 21
153.47750854492188
 31
0.0
  0
LINE
  5
421
330
17
100
AcDbEntity
  8
0
100
AcDbLine
 10
239.55453491210938
 20
153.47750854492188
 30
0.0
 11
239.5972900390625
 21
152.98536682128906
 31
0.0
  0
LINE
  5
422
330
17
100
AcDbEntity
  8
0
100
AcDbLine
 10
239.5972900390625
 20
152.98536682128906
 30
0.0
 11
239.74118041992188
 21
152.46302795410156
 31
0.0
  0
LINE
  5
423
330
17
100
AcDbEntity
  8
0
100
AcDbLine
 10
239.74118041992188
 20
152.46302795410156
 30
0.0
 11
239.83462524414062
 21
151.6131591796875
 31
0.0
  0
LINE
  5
424
330
17
100
AcDbEntity
  8
0
100
AcDbLine
 10
239.83462524414062
 20
151.6131591796875
 30
0.0
 11
239.80508422851562
 21
151.24266052246094
 31
0.0
  0
LINE
  5
425
330
17
100
AcDbEntity
  8
0
100
AcDbLine
 10
97.26258087158203
 20
102.62493896484375
 30
0.0
 11
89.55207824707031
 21
112.02020263671875
 31
0.0
  0
LINE
  5
426
330
17
100
AcDbEntity
  8
0
100
AcDbLine
 10
153.19879150390625
 20
207.2742462158203
 30
0.0
 11
164.82957458496094
 21
203.74609375
 31
0.0
  0
LINE
  5
427
330
17
100
AcDbEntity
  8
0
100
AcDbLine
 10
97.26258087158203
 20
102.62493896484375
 30
0.0
 11
106.65784454345703
 21
94.91443634033203
 31
0.0
  0
LINE
  5
428
330
17
100
AcDbEntity
  8
0
100
AcDbLine
 10
153.19879150390625
 20
85.65687561035156
 30
0.0
 11
164.82957458496094
 21
89.18502807617188
 31
0.0
  0
LINE
  5
429
330
17
100
AcDbEntity
  8
0
100
AcDbLine
 10
198.38372802734375
 20
122.73918151855469
 30
0.0
 11
201.91189575195312
 21
134.36996459960938
 31
0.0
  0
LINE
  5
42A
330
17
100
AcDbEntity
  8
0
100
AcDbLine
 10
198.38372802734375
 20
122.73918151855469
 30
0.0
 11
192.65432739257812
 21
112.02020263671875
 31
0.0
  0
LINE
  5
42B
330
17
100
AcDbEntity
  8
0
100
AcDbLine
 10
198.38372802734375
 20
170.1919403076172
 30
0.0
 11
192.65432739257812
 21
180.91091918945312
 31
0.0
  0
LINE
  5
42C
330
17
100
AcDbEntity
  8
0
100
AcDbLine
 10
83.82266235351562
 20
170.1919403076172
 30
0.0
 11
80.29450988769531
 21
158.5611572265625
 31
0.0
  0
LINE
  5
42D
330
17
100
AcDbEntity
  8
0
100
AcDbLine
 10
97.26258087158203
 20
190.30618286132812
 30
0.0
 11
106.65784454345703
 21
198.0166778564453
 31
0.0
  0
LINE
  5
42E
330
17
100
AcDbEntity
  8
0
100
AcDbLine
 10
83.82266235351562
 20
170.1919403076172
 30
0.0
 11
89.55207824707031
 21
180.91091918945312
 31
0.0
  0
LINE
  5
42F
330
17
100
AcDbEntity
  8
0
100
AcDbLine
 10
97.26258087158203
 20
190.30618286132812
 30
0.0
 11
89.55207824707031
 21
180.91091918945312
 31
0.0
  0
LINE
  5
430
330
17
100
AcDbEntity
  8
0
100
AcDbLine
 10
141.1031951904297
 20
84.46556091308594
 30
0.0
 11
153.19879150390625
 21
85.65687561035156
 31
0.0
  0
LINE
  5
431
330
17
100
AcDbEntity
  8
0
100
AcDbLine
 10
141.1031951904297
 20
208.46556091308594
 30
0.0
 11
129.00759887695312
 21
207.2742462158203
 31
0.0
  0
LINE
  5
432
330
17
100
AcDbEntity
  8
0
100
AcDbLine
 10
141.1031951904297
 20
208.46556091308594
 30
0.0
 11
153.19879150390625
 21
207.2742462158203
 31
0.0
  0
LINE
  5
433
330
17
100
AcDbEntity
  8
0
100
AcDbLine
 10
175.54855346679688
 20
198.0166778564453
 30
0.0
 11
164.82957458496094
 21
203.74609375
 31
0.0
  0
LINE
  5
434
330
17
100
AcDbEntity
  8
0
100
AcDbLine
 10
184.94381713867188
 20
102.62493896484375
 30
0.0
 11
175.54855346679688
 21
94.91443634033203
 31
0.0
  0
LINE
  5
435
330
17
100
AcDbEntity
  8
0
100
AcDbLine
 10
184.94381713867188
 20
102.62493896484375
 30
0.0
 11
192.65432739257812
 21
112.02020263671875
 31
0.0
  0
LINE
  5
436
330
17
100
AcDbEntity
  8
0
100
AcDbLine
 10
164.82957458496094
 20
89.18502807617188
 30
0.0
 11
175.54855346679688
 21
94.91443634033203
 31
0.0
  0
LINE
  5
437
330
17
100
AcDbEntity
  8
0
100
AcDbLine
 10
89.55207824707031
 20
112.02020263671875
 30
0.0
 11
83.82266235351562
 21
122.73918151855469
 31
0.0
  0
LINE
  5
438
330
17
100
AcDbEntity
  8
0
100
AcDbLine
 10
184.94381713867188
 20
190.30618286132812
 30
0.0
 11
192.65432739257812
 21
180.91091918945312
 31
0.0
  0
LINE
  5
439
330
17
100
AcDbEntity
  8
0
100
AcDbLine
 10
184.94381713867188
 20
190.30618286132812
 30
0.0
 11
175.54855346679688
 21
198.0166778564453
 31
0.0
  0
LINE
  5
43A
330
17
100
AcDbEntity
  8
0
100
AcDbLine
 10
117.37682342529297
 20
89.18502807617188
 30
0.0
 11
129.00759887695312
 21
85.65687561035156
 31
0.0
  0
LINE
  5
43B
330
17
100
AcDbEntity
  8
0
100
AcDbLine
 10
117.37682342529297
 20
89.18502807617188
 30
0.0
 11
106.65784454345703
 21
94.91443634033203
 31
0.0
  0
LINE
  5
43C
330
17
100
AcDbEntity
  8
0
100
AcDbLine
 10
129.00759887695312
 20
207.2742462158203
 30
0.0
 11
117.37682342529297
 21
203.74609375
 31
0.0
  0
LINE
  5
43D
330
17
100
AcDbEntity
  8
0
100
AcDbLine
 10
201.91189575195312
 20
158.5611572265625
 30
0.0
 11
203.08119201660156
 21
146.68893432617188
 31
0.0
  0
LINE
  5
43E
330
17
100
AcDbEntity
  8
0
100
AcDbLine
 10
201.91189575195312
 20
158.5611572265625
 30
0.0
 11
198.38372802734375
 21
170.1919403076172
 31
0.0
  0
LINE
  5
43F
330
17
100
AcDbEntity
  8
0
100
AcDbLine
 10
79.10319519042969
 20
146.46556091308594
 30
0.0
 11
80.29450988769531
 21
134.36996459960938
 31
0.0
  0
LINE
  5
440
330
17
100
AcDbEntity
  8
0
100
AcDbLine
 10
79.10319519042969
 20
146.46556091308594
 30
0.0
 11
80.29450988769531
 21
158.5611572265625
 31
0.0
  0
LINE
  5
441
330
17
100
AcDbEntity
  8
0
100
AcDbLine
 10
129.00759887695312
 20
85.65687561035156
 30
0.0
 11
141.1031951904297
 21
84.46556091308594
 31
0.0
  0
LINE
  5
442
330
17
100
AcDbEntity
  8
0
100
AcDbLine
 10
203.08795166015625
 20
146.62030029296875
 30
0.0
 11
203.1031951904297
 21
146.46556091308594
 31
0.0
  0
LINE
  5
443
330
17
100
AcDbEntity
  8
0
100
AcDbLine
 10
201.91189575195312
 20
134.36996459960938
 30
0.0
 11
203.1031951904297
 21
146.46556091308594
 31
0.0
  0
LINE
  5
444
330
17
100
AcDbEntity
  8
0
100
AcDbLine
 10
106.65784454345703
 20
198.0166778564453
 30
0.0
 11
117.37682342529297
 21
203.74609375
 31
0.0
  0
LINE
  5
445
330
17
100
AcDbEntity
  8
0
100
AcDbLine
 10
80.29450988769531
 20
134.36996459960938
 30
0.0
 11
83.82266235351562
 21
122.73918151855469
 31
0.0
  0
ENDSEC
  0
SECTION
  2
OBJECTS
  0
DICTIONARY
  5
A
330
0
100
AcDbDictionary
281
1
  3
ACAD_COLOR
350
B
  3
ACAD_GROUP
350
C
  3
ACAD_LAYOUT
350
D
  3
ACAD_MATERIAL
350
E
  3
ACAD_MLEADERSTYLE
350
F
  3
ACAD_MLINESTYLE
350
10
  3
ACAD_PLOTSETTINGS
350
11
  3
ACAD_PLOTSTYLENAME
350
12
  3
ACAD_SCALELIST
350
14
  3
ACAD_TABLESTYLE
350
15
  3
ACAD_VISUALSTYLE
350
16
  3
EZDXF_META
350
2D
  0
DICTIONARY
  5
B
330
A
100
AcDbDictionary
281
1
  0
DICTIONARY
  5
C
330
A
100
AcDbDictionary
281
1
  0
DICTIONARY
  5
D
330
A
100
AcDbDictionary
281
1
  3
Model
350
1A
  3
Layout1
350
1E
  0
DICTIONARY
  5
E
330
A
100
AcDbDictionary
281
1
  3
ByBlock
350
1F
  3
ByLayer
350
20
  3
Global
350
21
  0
DICTIONARY
  5
F
330
A
100
AcDbDictionary
281
1
  3
Standard
350
2C
  0
DICTIONARY
  5
10
330
A
100
AcDbDictionary
281
1
  3
Standard
350
22
  0
DICTIONARY
  5
11
330
A
100
AcDbDictionary
281
1
  0
ACDBDICTIONARYWDFLT
  5
12
330
A
100
AcDbDictionary
281
1
  3
Normal
350
13
100
AcDbDictionaryWithDefault
340
13
  0
ACDBPLACEHOLDER
  5
13
330
12
  0
DICTIONARY
  5
14
330
A
100
AcDbDictionary
281
1
  0
DICTIONARY
  5
15
330
A
100
AcDbDictionary
281
1
  0
DICTIONARY
  5
16
330
A
100
AcDbDictionary
281
1
  0
LAYOUT
  5
1A
330
D
100
AcDbPlotSettings
  1

  4
A3
  6

 40
7.5
 41
20.0
 42
7.5
 43
20.0
 44
420.0
 45
297.0
 46
0.0
 47
0.0
 48
0.0
 49
0.0
140
0.0
141
0.0
142
1.0
143
1.0
 70
1024
 72
1
 73
0
 74
5
  7

 75
16
 76
0
 77
2
 78
300
147
1.0
148
0.0
149
0.0
100
AcDbLayout
  1
Model
 70
1
 71
0
 10
0.0
 20
0.0
 11
420.0
 21
297.0
 12
0.0
 22
0.0
 32
0.0
 14
1e+20
 24
1e+20
 34
1e+20
 15
-1e+20
 25
-1e+20
 35
-1e+20
146
0.0
 13
0.0
 23
0.0
 33
0.0
 16
1.0
 26
0.0
 36
0.0
 17
0.0
 27
1.0
 37
0.0
 76
1
330
17
  0
LAYOUT
  5
1E
330
D
100
AcDbPlotSettings
  1

  4
A3
  6

 40
7.5
 41
20.0
 42
7.5
 43
20.0
 44
420.0
 45
297.0
 46
0.0
 47
0.0
 48
0.0
 49
0.0
140
0.0
141
0.0
142
1.0
143
1.0
 70
0
 72
1
 73
0
 74
5
  7

 75
16
 76
0
 77
2
 78
300
147
1.0
148
0.0
149
0.0
100
AcDbLayout
  1
Layout1
 70
1
 71
1
 10
0.0
 20
0.0
 11
420.0
 21
297.0
 12
0.0
 22
0.0
 32
0.0
 14
1e+20
 24
1e+20
 34
1e+20
 15
-1e+20
 25
-1e+20
 35
-1e+20
146
0.0
 13
0.0
 23
0.0
 33
0.0
 16
1.0
 26
0.0
 36
0.0
 17
0.0
 27
1.0
 37
0.0
 76
1
330
1B
  0
MATERIAL
  5
1F
102
{ACAD_REACTORS
330
E
102
}
330
E
100
AcDbMaterial
  1
ByBlock
  2

 70
0
 40
1.0
 71
1
 41
1.0
 91
-1023410177
 42
1.0
 72
1
  3

 73
1
 74
1
 75
1
 44
0.5
 73
0
 45
1.0
 46
1.0
 77
1
  4

 78
1
 79
1
170
1
 48
1.0
171
1
  6

172
1
173
1
174
1
140
1.0
141
1.0
175
1
  7

176
1
177
1
178
1
143
1.0
179
1
  8

270
1
271
1
272
1
145
1.0
146
1.0
273
1
  9

274
1
275
1
276
1
 42
1.0
 72
1
  3

 73
1
 74
1
 75
1
 94
63
  0
MATERIAL
  5
20
102
{ACAD_REACTORS
330
E
102
}
330
E
100
AcDbMaterial
  1
ByLayer
  2

 70
0
 40
1.0
 71
1
 41
1.0
 91
-1023410177
 42
1.0
 72
1
  3

 73
1
 74
1
 75
1
 44
0.5
 73
0
 45
1.0
 46
1.0
 77
1
  4

 78
1
 79
1
170
1
 48
1.0
171
1
  6

172
1
173
1
174
1
140
1.0
141
1.0
175
1
  7

176
1
177
1
178
1
143
1.0
179
1
  8

270
1
271
1
272
1
145
1.0
146
1.0
273
1
  9

274
1
275
1
276
1
 42
1.0
 72
1
  3

 73
1
 74
1
 75
1
 94
63
  0
MATERIAL
  5
21
102
{ACAD_REACTORS
330
E
102
}
330
E
100
AcDbMaterial
  1
Global
  2

 70
0
 40
1.0
 71
1
 41
1.0
 91
-1023410177
 42
1.0
 72
1
  3

 73
1
 74
1
 75
1
 44
0.5
 73
0
 45
1.0
 46
1.0
 77
1
  4

 78
1
 79
1
170
1
 48
1.0
171
1
  6

172
1
173
1
174
1
140
1.0
141
1.0
175
1
  7

176
1
177
1
178
1
143
1.0
179
1
  8

270
1
271
1
272
1
145
1.0
146
1.0
273
1
  9

274
1
275
1
276
1
 42
1.0
 72
1
  3

 73
1
 74
1
 75
1
 94
63
  0
MLINESTYLE
  5
22
102
{ACAD_REACTORS
330
10
102
}
330
10
100
AcDbMlineStyle
  2
Standard
 70
0
  3

 62
256
 51
90.0
 52
90.0
 71
2
 49
0.5
 62
256
  6
BYLAYER
 49
-0.5
 62
256
  6
BYLAYER
  0
MLEADERSTYLE
  5
2C
102
{ACAD_REACTORS
330
F
102
}
330
F
100
AcDbMLeaderStyle
179
2
170
2
171
1
172
0
 90
2
 40
0.0
 41
0.0
173
1
 91
-1056964608
 92
-2
290
1
 42
2.0
291
1
 43
8.0
  3
Standard
 44
4.0
300

342
29
174
1
175
1
176
0
178
1
 93
-1056964608
 45
4.0
292
0
297
0
 46
4.0
 94
-1056964608
 47
1.0
 49
1.0
140
1.0
294
1
141
0.0
177
0
142
1.0
295
0
296
0
143
3.75
271
0
272
9
273
9
  0
DICTIONARY
  5
2D
330
A
100
AcDbDictionary
280
1
281
1
  3
CREATED_BY_EZDXF
350
2E
  3
WRITTEN_BY_EZDXF
350
448
  0
DICTIONARYVAR
  5
2E
330
2D
100
DictionaryVariables
280
0
  1
1.4.2 @ 2025-10-05T04:53:18.546689+00:00
  0
DICTIONARYVAR
  5
448
330
2D
100
DictionaryVariables
280
0
  1
1.4.2 @ 2025-10-05T04:53:18.673675+00:00
  0
ENDSEC
  0
EOF
