  0
SECTION
  2
HEADER
  9
$ACADVER
  1
AC1009
  9
$INSBASE
 10
0.0
 20
0.0
 30
0.0
  9
$EXTMIN
 10
0.0
 20
0.0
 30
0.0
  9
$EXTMAX
 10
0.0
 20
0.0
 30
0.0
  0
ENDSEC
  0
SECTION
  2
TABLES
  0
TABLE
  2
VPORT
 70
1
  0
VPORT
  2
*ACTIVE
 70
0
 10
0.0
 20
0.0
 11
1.0
 21
1.0
 12
-5.0
 22
1.0
 13
0.0
 23
0.0
 14
0.1
 24
0.1
 15
0.1
 25
0.1
 16
0.0
 26
0.0
 36
1.0
 17
0.0
 27
0.0
 37
0.0
 40
10.0
 41
1.0
 42
50.0
 43
0.0
 44
0.0
 50
0.0
 51
0.0
 71
0
 72
100
 73
1
 74
1
 75
0
 76
0
 77
0
 78
0
  0
ENDTAB
  0
TABLE
  2
LTYPE
 70
8
  0
LTYPE
  2
CONTINUOUS
 70
0
  3
Solid line
 72
65
 73
0
 40
0.0
  0
LTYPE
  2
DOT
 70
0
  3
. . . . . . .
 72
65
 73
2
 40
0.25
 49
0.0
 49
-0.25
  0
LTYPE
  2
DASHED
 70
0
  3
__ __ __ __ __
 72
65
 73
2
 40
0.8
 49
0.5
 49
-0.3
  0
LTYPE
  2
DASHDOT
 70
0
  3
__ . __ . __ .
 72
65
 73
4
 40
1.0
 49
0.5
 49
-0.25
 49
0.0
 49
-0.25
  0
LTYPE
  2
DIVIDE
 70
0
  3
____ . . ____ . . 
 72
65
 73
6
 40
1.25
 49
0.5
 49
-0.25
 49
0.0
 49
-0.25
 49
0.0
 49
-0.25
  0
LTYPE
  2
BORDER
 70
0
  3
__ __ . __ __ . 
 72
65
 73
6
 40
1.75
 49
0.5
 49
-0.25
 49
0.5
 49
-0.25
 49
0.0
 49
-0.25
  0
LTYPE
  2
HIDDEN
 70
0
  3
__ __ __ __ __
 72
65
 73
2
 40
0.4
 49
0.25
 49
-0.25
  0
LTYPE
  2
CENTER
 70
0
  3
____ _ ____ _ __
 72
65
 73
4
 40
2.0
 49
1.25
 49
-0.25
 49
0.25
 49
-0.25
  0
ENDTAB
  0
TABLE
  2
LAYER
 70
1
  0
LAYER
  2
PYDXF
 70
64
 62
7
  6
continuous
  0
ENDTAB
  0
TABLE
  2
STYLE
 70
1
  0
STYLE
  2
STANDARD
 70
0
 40
0
 41
1.0
 50
0.0
 71
0
 42
1
 3
ARIAL.TTF
 4

  0
ENDTAB
  0
TABLE
  2
VIEW
 70
1
  0
VIEW
  2
BF_TOPVIEW
 70
0
 40
120.0
 10
0.0
 20
0.0
 41
200.0
 11
0.0
 21
0.0
 31
1.0
 12
0.0
 22
0.0
 32
0.0
 42
50.0
 43
0.0
 44
0.0
 50
0.0
 71
0
  0
ENDTAB
  0
ENDSEC
  0
SECTION
  2
BLOCKS
  0
ENDSEC
  0
SECTION
  2
ENTITIES
  0
3DFACE
  8
0
 10
35.89756774902344
 20
-81.51880645751953
 30
110.0
 11
35.87276077270508
 21
-81.5159912109375
 31
110.0
 12
35.87001037597656
 22
-81.51605987548828
 32
110.0
 13
35.87001037597656
 23
-81.51605987548828
 33
110.0
  0
3DFACE
  8
0
 10
35.87001037597656
 20
-81.51605987548828
 30
110.0
 11
35.350868225097656
 21
-81.49655151367188
 31
110.0
 12
35.32831573486328
 22
-81.49625396728516
 32
110.0
 13
35.32831573486328
 23
-81.49625396728516
 33
110.0
  0
3DFACE
  8
0
 10
35.32831573486328
 20
-81.49625396728516
 30
110.0
 11
34.828975677490234
 21
-81.4488754272461
 31
110.0
 12
34.718788146972656
 22
-81.45341491699219
 32
110.0
 13
34.718788146972656
 23
-81.45341491699219
 33
110.0
  0
3DFACE
  8
0
 10
34.200469970703125
 20
-81.4312973022461
 30
110.0
 11
33.78519058227539
 21
-81.39424133300781
 31
110.0
 12
33.59495544433594
 22
-81.39421844482422
 32
110.0
 13
33.59495544433594
 23
-81.39421844482422
 33
110.0
  0
3DFACE
  8
0
 10
35.32831573486328
 20
-81.49625396728516
 30
110.0
 11
34.718788146972656
 21
-81.45341491699219
 31
110.0
 12
34.200469970703125
 22
-81.4312973022461
 32
110.0
 13
34.200469970703125
 23
-81.4312973022461
 33
110.0
  0
3DFACE
  8
0
 10
35.89756774902344
 20
-81.51880645751953
 30
110.0
 11
35.87001037597656
 21
-81.51605987548828
 31
110.0
 12
35.32831573486328
 22
-81.49625396728516
 32
110.0
 13
35.32831573486328
 23
-81.49625396728516
 33
110.0
  0
3DFACE
  8
0
 10
36.57090377807617
 20
-81.69506072998047
 30
110.0
 11
36.3946533203125
 21
-81.6180419921875
 31
110.0
 12
35.89756774902344
 22
-81.51880645751953
 32
110.0
 13
35.89756774902344
 23
-81.51880645751953
 33
110.0
  0
3DFACE
  8
0
 10
37.40652847290039
 20
-82.00879669189453
 30
110.0
 11
36.91654586791992
 21
-81.75418090820312
 31
110.0
 12
36.57090377807617
 22
-81.69506072998047
 32
110.0
 13
36.57090377807617
 23
-81.69506072998047
 33
110.0
  0
3DFACE
  8
0
 10
37.459922790527344
 20
-82.04070281982422
 30
110.0
 11
37.438438415527344
 21
-82.02274322509766
 31
110.0
 12
37.40652847290039
 22
-82.00879669189453
 32
110.0
 13
37.40652847290039
 23
-82.00879669189453
 33
110.0
  0
3DFACE
  8
0
 10
37.497764587402344
 20
-82.62368774414062
 30
110.0
 11
37.55156707763672
 21
-82.5625991821289
 31
110.0
 12
37.460227966308594
 22
-82.06249237060547
 32
110.0
 13
37.460227966308594
 23
-82.06249237060547
 33
110.0
  0
3DFACE
  8
0
 10
37.460227966308594
 20
-82.06249237060547
 30
110.0
 11
37.459922790527344
 21
-82.04070281982422
 31
110.0
 12
37.40652847290039
 22
-82.00879669189453
 32
110.0
 13
37.40652847290039
 23
-82.00879669189453
 33
110.0
  0
3DFACE
  8
0
 10
37.40652847290039
 20
-82.00879669189453
 30
110.0
 11
36.57090377807617
 21
-81.69506072998047
 31
110.0
 12
35.89756774902344
 22
-81.51880645751953
 32
110.0
 13
35.89756774902344
 23
-81.51880645751953
 33
110.0
  0
3DFACE
  8
0
 10
37.40652847290039
 20
-82.00879669189453
 30
110.0
 11
35.89756774902344
 21
-81.51880645751953
 31
110.0
 12
35.32831573486328
 22
-81.49625396728516
 32
110.0
 13
35.32831573486328
 23
-81.49625396728516
 33
110.0
  0
3DFACE
  8
0
 10
37.497764587402344
 20
-82.62368774414062
 30
110.0
 11
37.460227966308594
 21
-82.06249237060547
 31
110.0
 12
37.40652847290039
 22
-82.00879669189453
 32
110.0
 13
37.40652847290039
 23
-82.00879669189453
 33
110.0
  0
3DFACE
  8
0
 10
37.267093658447266
 20
-82.91314697265625
 30
110.0
 11
37.438438415527344
 21
-82.7213363647461
 31
110.0
 12
37.497764587402344
 22
-82.62368774414062
 32
110.0
 13
37.497764587402344
 23
-82.62368774414062
 33
110.0
  0
3DFACE
  8
0
 10
36.761756896972656
 20
-83.45159149169922
 30
110.0
 11
37.208580017089844
 21
-83.08448791503906
 31
110.0
 12
37.267093658447266
 22
-82.91314697265625
 32
110.0
 13
37.267093658447266
 23
-82.91314697265625
 33
110.0
  0
3DFACE
  8
0
 10
35.87276077270508
 20
-83.96455383300781
 30
110.0
 11
36.60173797607422
 21
-83.60637664794922
 31
110.0
 12
36.761756896972656
 22
-83.45159149169922
 32
110.0
 13
36.761756896972656
 23
-83.45159149169922
 33
110.0
  0
3DFACE
  8
0
 10
34.74436569213867
 20
-84.41239929199219
 30
110.0
 11
35.57919692993164
 21
-84.1282730102539
 31
110.0
 12
35.87276077270508
 22
-83.96455383300781
 32
110.0
 13
35.87276077270508
 23
-83.96455383300781
 33
110.0
  0
3DFACE
  8
0
 10
33.564876556396484
 20
-84.82191467285156
 30
110.0
 11
34.1408576965332
 21
-84.65016174316406
 31
110.0
 12
34.74436569213867
 22
-84.41239929199219
 32
110.0
 13
34.74436569213867
 23
-84.41239929199219
 33
110.0
  0
3DFACE
  8
0
 10
32.219512939453125
 20
-85.16901397705078
 30
110.0
 11
32.68278121948242
 21
-85.05360412597656
 31
110.0
 12
33.564876556396484
 22
-84.82191467285156
 32
110.0
 13
33.564876556396484
 23
-84.82191467285156
 33
110.0
  0
3DFACE
  8
0
 10
31.9526424407959
 20
-85.24298858642578
 30
110.0
 11
32.2098503112793
 21
-85.17205810546875
 31
110.0
 12
32.219512939453125
 22
-85.16901397705078
 32
110.0
 13
32.219512939453125
 23
-85.16901397705078
 33
110.0
  0
3DFACE
  8
0
 10
31.468305587768555
 20
-85.33552551269531
 30
110.0
 11
31.697614669799805
 21
-85.29645538330078
 31
110.0
 12
31.9526424407959
 22
-85.24298858642578
 32
110.0
 13
31.9526424407959
 23
-85.24298858642578
 33
110.0
  0
3DFACE
  8
0
 10
30.36164093017578
 20
-85.55961608886719
 30
110.0
 11
30.430709838867188
 21
-85.55028533935547
 31
110.0
 12
31.468305587768555
 22
-85.33552551269531
 32
110.0
 13
31.468305587768555
 23
-85.33552551269531
 33
110.0
  0
3DFACE
  8
0
 10
30.00771141052246
 20
-85.63554382324219
 30
110.0
 11
30.13193702697754
 21
-85.61160278320312
 31
110.0
 12
30.36164093017578
 22
-85.55961608886719
 32
110.0
 13
30.36164093017578
 23
-85.55961608886719
 33
110.0
  0
3DFACE
  8
0
 10
28.704259872436523
 20
-85.83830261230469
 30
110.0
 11
29.58114242553711
 21
-85.7095947265625
 31
110.0
 12
30.00771141052246
 22
-85.63554382324219
 32
110.0
 13
30.00771141052246
 23
-85.63554382324219
 33
110.0
  0
3DFACE
  8
0
 10
27.144662857055664
 20
-86.02755737304688
 30
110.0
 11
27.888444900512695
 21
-85.9416732788086
 31
110.0
 12
28.704259872436523
 22
-85.83830261230469
 32
110.0
 13
28.704259872436523
 23
-85.83830261230469
 33
110.0
  0
3DFACE
  8
0
 10
25.643596649169922
 20
-86.1460189819336
 30
110.0
 11
26.687381744384766
 21
-86.07355499267578
 31
110.0
 12
27.144662857055664
 22
-86.02755737304688
 32
110.0
 13
27.144662857055664
 23
-86.02755737304688
 33
110.0
  0
3DFACE
  8
0
 10
24.599811553955078
 20
-86.18132019042969
 30
110.0
 11
25.226211547851562
 21
-86.15747833251953
 31
110.0
 12
25.434904098510742
 22
-86.14591217041016
 32
110.0
 13
25.434904098510742
 23
-86.14591217041016
 33
110.0
  0
3DFACE
  8
0
 10
25.434904098510742
 20
-86.14591217041016
 30
110.0
 11
25.643596649169922
 21
-86.1460189819336
 31
110.0
 12
27.144662857055664
 22
-86.02755737304688
 32
110.0
 13
27.144662857055664
 23
-86.02755737304688
 33
110.0
  0
3DFACE
  8
0
 10
27.144662857055664
 20
-86.02755737304688
 30
110.0
 11
28.704259872436523
 21
-85.83830261230469
 31
110.0
 12
30.00771141052246
 22
-85.63554382324219
 32
110.0
 13
30.00771141052246
 23
-85.63554382324219
 33
110.0
  0
3DFACE
  8
0
 10
27.144662857055664
 20
-86.02755737304688
 30
110.0
 11
30.00771141052246
 21
-85.63554382324219
 31
110.0
 12
30.36164093017578
 22
-85.55961608886719
 32
110.0
 13
30.36164093017578
 23
-85.55961608886719
 33
110.0
  0
3DFACE
  8
0
 10
24.599811553955078
 20
-86.18132019042969
 30
110.0
 11
25.434904098510742
 21
-86.14591217041016
 31
110.0
 12
27.144662857055664
 22
-86.02755737304688
 32
110.0
 13
27.144662857055664
 23
-86.02755737304688
 33
110.0
  0
3DFACE
  8
0
 10
23.347332000732422
 20
-86.19164276123047
 30
110.0
 11
23.556026458740234
 21
-86.2018814086914
 31
110.0
 12
24.599811553955078
 22
-86.18132019042969
 32
110.0
 13
24.599811553955078
 23
-86.18132019042969
 33
110.0
  0
3DFACE
  8
0
 10
22.721094131469727
 20
-86.20174407958984
 30
110.0
 11
23.034133911132812
 21
-86.19970703125
 31
110.0
 12
23.347332000732422
 22
-86.19164276123047
 32
110.0
 13
23.347332000732422
 23
-86.19164276123047
 33
110.0
  0
3DFACE
  8
0
 10
21.938255310058594
 20
-86.20893096923828
 30
110.0
 11
22.25129508972168
 21
-86.21276092529297
 31
110.0
 12
22.721094131469727
 22
-86.20174407958984
 32
110.0
 13
22.721094131469727
 23
-86.20174407958984
 33
110.0
  0
3DFACE
  8
0
 10
21.199365615844727
 20
-86.23826599121094
 30
110.0
 11
21.35036277770996
 21
-86.2352523803711
 31
110.0
 12
21.938255310058594
 22
-86.20893096923828
 32
110.0
 13
21.938255310058594
 23
-86.20893096923828
 33
110.0
  0
3DFACE
  8
0
 10
18.858991622924805
 20
-86.1926040649414
 30
110.0
 11
19.380884170532227
 21
-86.22625732421875
 31
110.0
 12
20.21597671508789
 22
-86.2093734741211
 32
110.0
 13
20.21597671508789
 23
-86.2093734741211
 33
110.0
  0
3DFACE
  8
0
 10
20.21597671508789
 20
-86.2093734741211
 30
110.0
 11
21.199365615844727
 21
-86.23826599121094
 31
110.0
 12
21.938255310058594
 22
-86.20893096923828
 32
110.0
 13
21.938255310058594
 23
-86.20893096923828
 33
110.0
  0
3DFACE
  8
0
 10
21.938255310058594
 20
-86.20893096923828
 30
110.0
 11
22.721094131469727
 21
-86.20174407958984
 31
110.0
 12
23.347332000732422
 22
-86.19164276123047
 32
110.0
 13
23.347332000732422
 23
-86.19164276123047
 33
110.0
  0
3DFACE
  8
0
 10
23.347332000732422
 20
-86.19164276123047
 30
110.0
 11
24.599811553955078
 21
-86.18132019042969
 31
110.0
 12
27.144662857055664
 22
-86.02755737304688
 32
110.0
 13
27.144662857055664
 23
-86.02755737304688
 33
110.0
  0
3DFACE
  8
0
 10
27.144662857055664
 20
-86.02755737304688
 30
110.0
 11
30.36164093017578
 21
-85.55961608886719
 31
110.0
 12
31.468305587768555
 22
-85.33552551269531
 32
110.0
 13
31.468305587768555
 23
-85.33552551269531
 33
110.0
  0
3DFACE
  8
0
 10
31.468305587768555
 20
-85.33552551269531
 30
110.0
 11
31.9526424407959
 21
-85.24298858642578
 31
110.0
 12
32.219512939453125
 22
-85.16901397705078
 32
110.0
 13
32.219512939453125
 23
-85.16901397705078
 33
110.0
  0
3DFACE
  8
0
 10
32.219512939453125
 20
-85.16901397705078
 30
110.0
 11
33.564876556396484
 21
-84.82191467285156
 31
110.0
 12
34.74436569213867
 22
-84.41239929199219
 32
110.0
 13
34.74436569213867
 23
-84.41239929199219
 33
110.0
  0
3DFACE
  8
0
 10
34.74436569213867
 20
-84.41239929199219
 30
110.0
 11
35.87276077270508
 21
-83.96455383300781
 31
110.0
 12
36.761756896972656
 22
-83.45159149169922
 32
110.0
 13
36.761756896972656
 23
-83.45159149169922
 33
110.0
  0
3DFACE
  8
0
 10
36.761756896972656
 20
-83.45159149169922
 30
110.0
 11
37.267093658447266
 21
-82.91314697265625
 31
110.0
 12
37.497764587402344
 22
-82.62368774414062
 32
110.0
 13
37.497764587402344
 23
-82.62368774414062
 33
110.0
  0
3DFACE
  8
0
 10
37.497764587402344
 20
-82.62368774414062
 30
110.0
 11
37.40652847290039
 21
-82.00879669189453
 31
110.0
 12
35.32831573486328
 22
-81.49625396728516
 32
110.0
 13
35.32831573486328
 23
-81.49625396728516
 33
110.0
  0
3DFACE
  8
0
 10
34.200469970703125
 20
-81.4312973022461
 30
110.0
 11
33.59495544433594
 21
-81.39421844482422
 31
110.0
 12
32.977142333984375
 22
-81.36441802978516
 32
110.0
 13
32.977142333984375
 23
-81.36441802978516
 33
110.0
  0
3DFACE
  8
0
 10
37.497764587402344
 20
-82.62368774414062
 30
110.0
 11
35.32831573486328
 21
-81.49625396728516
 31
110.0
 12
34.200469970703125
 22
-81.4312973022461
 32
110.0
 13
34.200469970703125
 23
-81.4312973022461
 33
110.0
  0
3DFACE
  8
0
 10
34.74436569213867
 20
-84.41239929199219
 30
110.0
 11
36.761756896972656
 21
-83.45159149169922
 31
110.0
 12
37.497764587402344
 22
-82.62368774414062
 32
110.0
 13
37.497764587402344
 23
-82.62368774414062
 33
110.0
  0
3DFACE
  8
0
 10
31.468305587768555
 20
-85.33552551269531
 30
110.0
 11
32.219512939453125
 21
-85.16901397705078
 31
110.0
 12
34.74436569213867
 22
-84.41239929199219
 32
110.0
 13
34.74436569213867
 23
-84.41239929199219
 33
110.0
  0
3DFACE
  8
0
 10
23.347332000732422
 20
-86.19164276123047
 30
110.0
 11
27.144662857055664
 21
-86.02755737304688
 31
110.0
 12
31.468305587768555
 22
-85.33552551269531
 32
110.0
 13
31.468305587768555
 23
-85.33552551269531
 33
110.0
  0
3DFACE
  8
0
 10
20.21597671508789
 20
-86.2093734741211
 30
110.0
 11
21.938255310058594
 21
-86.20893096923828
 31
110.0
 12
23.347332000732422
 22
-86.19164276123047
 32
110.0
 13
23.347332000732422
 23
-86.19164276123047
 33
110.0
  0
3DFACE
  8
0
 10
17.60651397705078
 20
-86.1766357421875
 30
110.0
 11
17.81520652770996
 21
-86.18931579589844
 31
110.0
 12
18.858991622924805
 22
-86.1926040649414
 32
110.0
 13
18.858991622924805
 23
-86.1926040649414
 33
110.0
  0
3DFACE
  8
0
 10
18.858991622924805
 20
-86.1926040649414
 30
110.0
 11
20.21597671508789
 21
-86.2093734741211
 31
110.0
 12
23.347332000732422
 22
-86.19164276123047
 32
110.0
 13
23.347332000732422
 23
-86.19164276123047
 33
110.0
  0
3DFACE
  8
0
 10
23.347332000732422
 20
-86.19164276123047
 30
110.0
 11
31.468305587768555
 21
-85.33552551269531
 31
110.0
 12
34.74436569213867
 22
-84.41239929199219
 32
110.0
 13
34.74436569213867
 23
-84.41239929199219
 33
110.0
  0
3DFACE
  8
0
 10
34.74436569213867
 20
-84.41239929199219
 30
110.0
 11
37.497764587402344
 21
-82.62368774414062
 31
110.0
 12
34.200469970703125
 22
-81.4312973022461
 32
110.0
 13
34.200469970703125
 23
-81.4312973022461
 33
110.0
  0
3DFACE
  8
0
 10
34.74436569213867
 20
-84.41239929199219
 30
110.0
 11
34.200469970703125
 21
-81.4312973022461
 31
110.0
 12
32.977142333984375
 22
-81.36441802978516
 32
110.0
 13
32.977142333984375
 23
-81.36441802978516
 33
110.0
  0
3DFACE
  8
0
 10
18.858991622924805
 20
-86.1926040649414
 30
110.0
 11
23.347332000732422
 21
-86.19164276123047
 31
110.0
 12
34.74436569213867
 22
-84.41239929199219
 32
110.0
 13
34.74436569213867
 23
-84.41239929199219
 33
110.0
  0
3DFACE
  8
0
 10
17.29331398010254
 20
-86.1627197265625
 30
110.0
 11
17.60651397705078
 21
-86.1766357421875
 31
110.0
 12
18.858991622924805
 22
-86.1926040649414
 32
110.0
 13
18.858991622924805
 23
-86.1926040649414
 33
110.0
  0
3DFACE
  8
0
 10
15.518943786621094
 20
-86.06352996826172
 30
110.0
 11
16.771421432495117
 21
-86.14997100830078
 31
110.0
 12
17.29331398010254
 22
-86.1627197265625
 32
110.0
 13
17.29331398010254
 23
-86.1627197265625
 33
110.0
  0
3DFACE
  8
0
 10
14.475156784057617
 20
-85.94889831542969
 30
110.0
 11
14.69597339630127
 21
-85.98633575439453
 31
110.0
 12
15.212875366210938
 22
-86.02145385742188
 32
110.0
 13
15.212875366210938
 23
-86.02145385742188
 33
110.0
  0
3DFACE
  8
0
 10
15.212875366210938
 20
-86.02145385742188
 30
110.0
 11
15.518943786621094
 21
-86.06352996826172
 31
110.0
 12
17.29331398010254
 22
-86.1627197265625
 32
110.0
 13
17.29331398010254
 23
-86.1627197265625
 33
110.0
  0
3DFACE
  8
0
 10
17.29331398010254
 20
-86.1627197265625
 30
110.0
 11
18.858991622924805
 21
-86.1926040649414
 31
110.0
 12
34.74436569213867
 22
-84.41239929199219
 32
110.0
 13
34.74436569213867
 23
-84.41239929199219
 33
110.0
  0
3DFACE
  8
0
 10
34.74436569213867
 20
-84.41239929199219
 30
110.0
 11
32.977142333984375
 21
-81.36441802978516
 31
110.0
 12
31.929141998291016
 22
-81.28677368164062
 32
110.0
 13
31.929141998291016
 23
-81.28677368164062
 33
110.0
  0
3DFACE
  8
0
 10
31.929141998291016
 20
-81.28677368164062
 30
110.0
 11
31.503387451171875
 21
-81.22042083740234
 31
110.0
 12
31.17572593688965
 22
-81.19261932373047
 32
110.0
 13
31.17572593688965
 23
-81.19261932373047
 33
110.0
  0
3DFACE
  8
0
 10
31.17572593688965
 20
-81.19261932373047
 30
110.0
 11
31.019376754760742
 21
-81.16754150390625
 31
110.0
 12
30.653833389282227
 22
-81.15018463134766
 32
110.0
 13
30.653833389282227
 23
-81.15018463134766
 33
110.0
  0
3DFACE
  8
0
 10
30.23983383178711
 20
-81.09579467773438
 30
110.0
 11
29.95770263671875
 21
-81.05315399169922
 31
110.0
 12
29.296846389770508
 22
-80.98931121826172
 32
110.0
 13
29.296846389770508
 23
-80.98931121826172
 33
110.0
  0
3DFACE
  8
0
 10
31.929141998291016
 20
-81.28677368164062
 30
110.0
 11
31.17572593688965
 21
-81.19261932373047
 31
110.0
 12
30.653833389282227
 22
-81.15018463134766
 32
110.0
 13
30.653833389282227
 23
-81.15018463134766
 33
110.0
  0
3DFACE
  8
0
 10
30.653833389282227
 20
-81.15018463134766
 30
110.0
 11
30.23983383178711
 21
-81.09579467773438
 31
110.0
 12
29.296846389770508
 22
-80.98931121826172
 32
110.0
 13
29.296846389770508
 23
-80.98931121826172
 33
110.0
  0
3DFACE
  8
0
 10
29.296846389770508
 20
-80.98931121826172
 30
110.0
 11
29.08815574645996
 21
-80.9592514038086
 31
110.0
 12
28.774953842163086
 22
-80.93021392822266
 32
110.0
 13
28.774953842163086
 23
-80.93021392822266
 33
110.0
  0
3DFACE
  8
0
 10
30.653833389282227
 20
-81.15018463134766
 30
110.0
 11
29.296846389770508
 21
-80.98931121826172
 31
110.0
 12
28.774953842163086
 22
-80.93021392822266
 32
110.0
 13
28.774953842163086
 23
-80.93021392822266
 33
110.0
  0
3DFACE
  8
0
 10
34.74436569213867
 20
-84.41239929199219
 30
110.0
 11
31.929141998291016
 21
-81.28677368164062
 31
110.0
 12
30.653833389282227
 22
-81.15018463134766
 32
110.0
 13
30.653833389282227
 23
-81.15018463134766
 33
110.0
  0
3DFACE
  8
0
 10
15.212875366210938
 20
-86.02145385742188
 30
110.0
 11
17.29331398010254
 21
-86.1627197265625
 31
110.0
 12
34.74436569213867
 22
-84.41239929199219
 32
110.0
 13
34.74436569213867
 23
-84.41239929199219
 33
110.0
  0
3DFACE
  8
0
 10
13.431371688842773
 20
-85.82127380371094
 30
110.0
 11
14.193229675292969
 21
-85.92204284667969
 31
110.0
 12
14.475156784057617
 22
-85.94889831542969
 32
110.0
 13
14.475156784057617
 23
-85.94889831542969
 33
110.0
  0
3DFACE
  8
0
 10
14.475156784057617
 20
-85.94889831542969
 30
110.0
 11
15.212875366210938
 21
-86.02145385742188
 31
110.0
 12
34.74436569213867
 22
-84.41239929199219
 32
110.0
 13
34.74436569213867
 23
-84.41239929199219
 33
110.0
  0
3DFACE
  8
0
 10
34.74436569213867
 20
-84.41239929199219
 30
110.0
 11
30.653833389282227
 21
-81.15018463134766
 31
110.0
 12
28.774953842163086
 22
-80.93021392822266
 32
110.0
 13
28.774953842163086
 23
-80.93021392822266
 33
110.0
  0
3DFACE
  8
0
 10
34.74436569213867
 20
-84.41239929199219
 30
110.0
 11
28.774953842163086
 21
-80.93021392822266
 31
110.0
 12
28.461753845214844
 22
-80.89148712158203
 32
110.0
 13
28.461753845214844
 23
-80.89148712158203
 33
110.0
  0
3DFACE
  8
0
 10
13.431371688842773
 20
-85.82127380371094
 30
110.0
 11
14.475156784057617
 21
-85.94889831542969
 31
110.0
 12
34.74436569213867
 22
-84.41239929199219
 32
110.0
 13
34.74436569213867
 23
-84.41239929199219
 33
110.0
  0
3DFACE
  8
0
 10
12.454320907592773
 20
-85.65069580078125
 30
110.0
 11
13.042983055114746
 21
-85.7650375366211
 31
110.0
 12
13.431371688842773
 22
-85.82127380371094
 32
110.0
 13
13.431371688842773
 23
-85.82127380371094
 33
110.0
  0
3DFACE
  8
0
 10
11.527158737182617
 20
-85.3709487915039
 30
110.0
 11
11.865694046020508
 21
-85.49250793457031
 31
110.0
 12
12.299588203430176
 22
-85.60595703125
 32
110.0
 13
12.299588203430176
 23
-85.60595703125
 33
110.0
  0
3DFACE
  8
0
 10
12.299588203430176
 20
-85.60595703125
 30
110.0
 11
12.454320907592773
 21
-85.65069580078125
 31
110.0
 12
13.431371688842773
 22
-85.82127380371094
 32
110.0
 13
13.431371688842773
 23
-85.82127380371094
 33
110.0
  0
3DFACE
  8
0
 10
13.431371688842773
 20
-85.82127380371094
 30
110.0
 11
34.74436569213867
 21
-84.41239929199219
 31
110.0
 12
28.461753845214844
 22
-80.89148712158203
 32
110.0
 13
28.461753845214844
 23
-80.89148712158203
 33
110.0
  0
3DFACE
  8
0
 10
28.042139053344727
 20
-80.82215881347656
 30
110.0
 11
27.899921417236328
 21
-80.7842788696289
 31
110.0
 12
27.52247428894043
 22
-80.69229125976562
 32
110.0
 13
27.52247428894043
 23
-80.69229125976562
 33
110.0
  0
3DFACE
  8
0
 10
13.431371688842773
 20
-85.82127380371094
 30
110.0
 11
28.461753845214844
 21
-80.89148712158203
 31
110.0
 12
28.042139053344727
 22
-80.82215881347656
 32
110.0
 13
28.042139053344727
 23
-80.82215881347656
 33
110.0
  0
3DFACE
  8
0
 10
11.527158737182617
 20
-85.3709487915039
 30
110.0
 11
12.299588203430176
 21
-85.60595703125
 31
110.0
 12
13.431371688842773
 22
-85.82127380371094
 32
110.0
 13
13.431371688842773
 23
-85.82127380371094
 33
110.0
  0
3DFACE
  8
0
 10
11.008726119995117
 20
-85.17205810546875
 30
110.0
 11
11.343799591064453
 21
-85.31404113769531
 31
110.0
 12
11.527158737182617
 22
-85.3709487915039
 32
110.0
 13
11.527158737182617
 23
-85.3709487915039
 33
110.0
  0
3DFACE
  8
0
 10
10.600641250610352
 20
-84.95079040527344
 30
110.0
 11
10.845901489257812
 21
-85.08786010742188
 31
110.0
 12
11.008726119995117
 22
-85.17205810546875
 32
110.0
 13
11.008726119995117
 23
-85.17205810546875
 33
110.0
  0
3DFACE
  8
0
 10
10.064603805541992
 20
-84.65016174316406
 30
110.0
 11
10.292197227478027
 21
-84.79557800292969
 31
110.0
 12
10.600641250610352
 22
-84.95079040527344
 32
110.0
 13
10.600641250610352
 23
-84.95079040527344
 33
110.0
  0
3DFACE
  8
0
 10
9.256231307983398
 20
-83.64920043945312
 30
110.0
 11
9.574374198913574
 21
-84.1282730102539
 31
110.0
 12
10.064603805541992
 22
-84.65016174316406
 32
110.0
 13
10.064603805541992
 23
-84.65016174316406
 33
110.0
  0
3DFACE
  8
0
 10
9.201784133911133
 20
-83.55193328857422
 30
110.0
 11
9.231500625610352
 21
-83.60637664794922
 31
110.0
 12
9.256231307983398
 22
-83.64920043945312
 32
110.0
 13
9.256231307983398
 23
-83.64920043945312
 33
110.0
  0
3DFACE
  8
0
 10
8.823437690734863
 20
-82.65169525146484
 30
110.0
 11
8.955366134643555
 21
-83.08448791503906
 31
110.0
 12
9.201784133911133
 22
-83.55193328857422
 32
110.0
 13
9.201784133911133
 23
-83.55193328857422
 33
110.0
  0
3DFACE
  8
0
 10
8.734336853027344
 20
-82.3919677734375
 30
110.0
 11
8.776284217834473
 21
-82.5206527709961
 31
110.0
 12
8.823437690734863
 22
-82.65169525146484
 32
110.0
 13
8.823437690734863
 23
-82.65169525146484
 33
110.0
  0
3DFACE
  8
0
 10
8.603344917297363
 20
-81.95088958740234
 30
110.0
 11
8.605562210083008
 21
-82.04070281982422
 31
110.0
 12
8.734336853027344
 22
-82.3919677734375
 32
110.0
 13
8.734336853027344
 23
-82.3919677734375
 33
110.0
  0
3DFACE
  8
0
 10
8.53358268737793
 20
-81.51880645751953
 30
110.0
 11
8.56847858428955
 21
-81.76095581054688
 31
110.0
 12
8.603344917297363
 22
-81.95088958740234
 32
110.0
 13
8.603344917297363
 23
-81.95088958740234
 33
110.0
  0
3DFACE
  8
0
 10
8.360786437988281
 20
-80.62336730957031
 30
110.0
 11
8.373260498046875
 21
-80.99691772460938
 31
110.0
 12
8.53358268737793
 22
-81.51880645751953
 32
110.0
 13
8.53358268737793
 23
-81.51880645751953
 33
110.0
  0
3DFACE
  8
0
 10
8.213695526123047
 20
-79.43060302734375
 30
110.0
 11
8.213944435119629
 21
-79.43424224853516
 31
110.0
 12
8.35827350616455
 22
-80.47502136230469
 32
110.0
 13
8.35827350616455
 23
-80.47502136230469
 33
110.0
  0
3DFACE
  8
0
 10
8.35827350616455
 20
-80.47502136230469
 30
110.0
 11
8.360786437988281
 21
-80.62336730957031
 31
110.0
 12
8.53358268737793
 22
-81.51880645751953
 32
110.0
 13
8.53358268737793
 23
-81.51880645751953
 33
110.0
  0
3DFACE
  8
0
 10
8.53358268737793
 20
-81.51880645751953
 30
110.0
 11
8.603344917297363
 21
-81.95088958740234
 31
110.0
 12
8.734336853027344
 22
-82.3919677734375
 32
110.0
 13
8.734336853027344
 23
-82.3919677734375
 33
110.0
  0
3DFACE
  8
0
 10
8.734336853027344
 20
-82.3919677734375
 30
110.0
 11
8.823437690734863
 21
-82.65169525146484
 31
110.0
 12
9.201784133911133
 22
-83.55193328857422
 32
110.0
 13
9.201784133911133
 23
-83.55193328857422
 33
110.0
  0
3DFACE
  8
0
 10
9.201784133911133
 20
-83.55193328857422
 30
110.0
 11
9.256231307983398
 21
-83.64920043945312
 31
110.0
 12
10.064603805541992
 22
-84.65016174316406
 32
110.0
 13
10.064603805541992
 23
-84.65016174316406
 33
110.0
  0
3DFACE
  8
0
 10
10.064603805541992
 20
-84.65016174316406
 30
110.0
 11
10.600641250610352
 21
-84.95079040527344
 31
110.0
 12
11.008726119995117
 22
-85.17205810546875
 32
110.0
 13
11.008726119995117
 23
-85.17205810546875
 33
110.0
  0
3DFACE
  8
0
 10
11.008726119995117
 20
-85.17205810546875
 30
110.0
 11
11.527158737182617
 21
-85.3709487915039
 31
110.0
 12
13.431371688842773
 22
-85.82127380371094
 32
110.0
 13
13.431371688842773
 23
-85.82127380371094
 33
110.0
  0
3DFACE
  8
0
 10
13.431371688842773
 20
-85.82127380371094
 30
110.0
 11
28.042139053344727
 21
-80.82215881347656
 31
110.0
 12
27.52247428894043
 22
-80.69229125976562
 32
110.0
 13
27.52247428894043
 23
-80.69229125976562
 33
110.0
  0
3DFACE
  8
0
 10
27.52247428894043
 20
-80.69229125976562
 30
110.0
 11
27.31378173828125
 21
-80.65451049804688
 31
110.0
 12
27.000581741333008
 22
-80.62462615966797
 32
110.0
 13
27.000581741333008
 23
-80.62462615966797
 33
110.0
  0
3DFACE
  8
0
 10
27.000581741333008
 20
-80.62462615966797
 30
110.0
 11
26.791889190673828
 21
-80.5632095336914
 31
110.0
 12
26.478689193725586
 22
-80.49593353271484
 32
110.0
 13
26.478689193725586
 23
-80.49593353271484
 33
110.0
  0
3DFACE
  8
0
 10
13.431371688842773
 20
-85.82127380371094
 30
110.0
 11
27.52247428894043
 21
-80.69229125976562
 31
110.0
 12
27.000581741333008
 22
-80.62462615966797
 32
110.0
 13
27.000581741333008
 23
-80.62462615966797
 33
110.0
  0
3DFACE
  8
0
 10
10.064603805541992
 20
-84.65016174316406
 30
110.0
 11
11.008726119995117
 21
-85.17205810546875
 31
110.0
 12
13.431371688842773
 22
-85.82127380371094
 32
110.0
 13
13.431371688842773
 23
-85.82127380371094
 33
110.0
  0
3DFACE
  8
0
 10
8.734336853027344
 20
-82.3919677734375
 30
110.0
 11
9.201784133911133
 21
-83.55193328857422
 31
110.0
 12
10.064603805541992
 22
-84.65016174316406
 32
110.0
 13
10.064603805541992
 23
-84.65016174316406
 33
110.0
  0
3DFACE
  8
0
 10
8.35827350616455
 20
-80.47502136230469
 30
110.0
 11
8.53358268737793
 21
-81.51880645751953
 31
110.0
 12
8.734336853027344
 22
-82.3919677734375
 32
110.0
 13
8.734336853027344
 23
-82.3919677734375
 33
110.0
  0
3DFACE
  8
0
 10
8.192481994628906
 20
-78.387451171875
 30
110.0
 11
8.213695526123047
 21
-79.43060302734375
 31
110.0
 12
8.35827350616455
 22
-80.47502136230469
 32
110.0
 13
8.35827350616455
 23
-80.47502136230469
 33
110.0
  0
3DFACE
  8
0
 10
8.050960540771484
 20
-77.7040786743164
 30
110.0
 11
8.060763359069824
 21
-77.86556243896484
 31
110.0
 12
8.152780532836914
 22
-78.20524597167969
 32
110.0
 13
8.152780532836914
 23
-78.20524597167969
 33
110.0
  0
3DFACE
  8
0
 10
8.192481994628906
 20
-78.387451171875
 30
110.0
 11
8.35827350616455
 21
-80.47502136230469
 31
110.0
 12
8.734336853027344
 22
-82.3919677734375
 32
110.0
 13
8.734336853027344
 23
-82.3919677734375
 33
110.0
  0
3DFACE
  8
0
 10
8.050960540771484
 20
-77.7040786743164
 30
110.0
 11
8.152780532836914
 21
-78.20524597167969
 31
110.0
 12
8.192481994628906
 22
-78.387451171875
 32
110.0
 13
8.192481994628906
 23
-78.387451171875
 33
110.0
  0
3DFACE
  8
0
 10
8.005794525146484
 20
-76.82176971435547
 30
110.0
 11
8.022005081176758
 21
-77.01220703125
 31
110.0
 12
8.07109260559082
 22
-77.34366607666016
 32
110.0
 13
8.07109260559082
 23
-77.34366607666016
 33
110.0
  0
3DFACE
  8
0
 10
8.07109260559082
 20
-77.34366607666016
 30
110.0
 11
8.050960540771484
 21
-77.7040786743164
 31
110.0
 12
8.192481994628906
 22
-78.387451171875
 32
110.0
 13
8.192481994628906
 23
-78.387451171875
 33
110.0
  0
3DFACE
  8
0
 10
8.192481994628906
 20
-78.387451171875
 30
110.0
 11
8.734336853027344
 21
-82.3919677734375
 31
110.0
 12
10.064603805541992
 22
-84.65016174316406
 32
110.0
 13
10.064603805541992
 23
-84.65016174316406
 33
110.0
  0
3DFACE
  8
0
 10
10.064603805541992
 20
-84.65016174316406
 30
110.0
 11
13.431371688842773
 21
-85.82127380371094
 31
110.0
 12
27.000581741333008
 22
-80.62462615966797
 32
110.0
 13
27.000581741333008
 23
-80.62462615966797
 33
110.0
  0
3DFACE
  8
0
 10
10.064603805541992
 20
-84.65016174316406
 30
110.0
 11
27.000581741333008
 21
-80.62462615966797
 31
110.0
 12
26.478689193725586
 22
-80.49593353271484
 32
110.0
 13
26.478689193725586
 23
-80.49593353271484
 33
110.0
  0
3DFACE
  8
0
 10
8.07109260559082
 20
-77.34366607666016
 30
110.0
 11
8.192481994628906
 21
-78.387451171875
 31
110.0
 12
10.064603805541992
 22
-84.65016174316406
 32
110.0
 13
10.064603805541992
 23
-84.65016174316406
 33
110.0
  0
3DFACE
  8
0
 10
7.998657703399658
 20
-76.423583984375
 30
110.0
 11
8.005794525146484
 21
-76.82176971435547
 31
110.0
 12
8.07109260559082
 22
-77.34366607666016
 32
110.0
 13
8.07109260559082
 23
-77.34366607666016
 33
110.0
  0
3DFACE
  8
0
 10
7.945523738861084
 20
-75.90547943115234
 30
110.0
 11
7.95560884475708
 21
-76.04304504394531
 31
110.0
 12
8.008889198303223
 22
-76.29988098144531
 32
110.0
 13
8.008889198303223
 23
-76.29988098144531
 33
110.0
  0
3DFACE
  8
0
 10
8.008889198303223
 20
-76.29988098144531
 30
110.0
 11
7.998657703399658
 21
-76.423583984375
 31
110.0
 12
8.07109260559082
 22
-77.34366607666016
 32
110.0
 13
8.07109260559082
 23
-77.34366607666016
 33
110.0
  0
3DFACE
  8
0
 10
8.07109260559082
 20
-77.34366607666016
 30
110.0
 11
10.064603805541992
 21
-84.65016174316406
 31
110.0
 12
26.478689193725586
 22
-80.49593353271484
 32
110.0
 13
26.478689193725586
 23
-80.49593353271484
 33
110.0
  0
3DFACE
  8
0
 10
8.07109260559082
 20
-77.34366607666016
 30
110.0
 11
26.478689193725586
 21
-80.49593353271484
 31
110.0
 12
26.26944351196289
 22
-80.43860626220703
 32
110.0
 13
26.26944351196289
 23
-80.43860626220703
 33
110.0
  0
3DFACE
  8
0
 10
7.9387898445129395
 20
-75.77799224853516
 30
110.0
 11
7.945523738861084
 21
-75.90547943115234
 31
110.0
 12
8.008889198303223
 22
-76.29988098144531
 32
110.0
 13
8.008889198303223
 23
-76.29988098144531
 33
110.0
  0
3DFACE
  8
0
 10
8.008889198303223
 20
-76.29988098144531
 30
110.0
 11
8.07109260559082
 21
-77.34366607666016
 31
110.0
 12
26.26944351196289
 22
-80.43860626220703
 32
110.0
 13
26.26944351196289
 23
-80.43860626220703
 33
110.0
  0
3DFACE
  8
0
 10
25.956518173217773
 20
-80.31446075439453
 30
110.0
 11
25.748104095458984
 21
-80.2176742553711
 31
110.0
 12
25.38640594482422
 22
-80.08505249023438
 32
110.0
 13
25.38640594482422
 23
-80.08505249023438
 33
110.0
  0
3DFACE
  8
0
 10
8.008889198303223
 20
-76.29988098144531
 30
110.0
 11
26.26944351196289
 21
-80.43860626220703
 31
110.0
 12
25.956518173217773
 22
-80.31446075439453
 32
110.0
 13
25.956518173217773
 23
-80.31446075439453
 33
110.0
  0
3DFACE
  8
0
 10
7.930436611175537
 20
-75.5381088256836
 30
110.0
 11
7.9387898445129395
 21
-75.77799224853516
 31
110.0
 12
8.008889198303223
 22
-76.29988098144531
 32
110.0
 13
8.008889198303223
 23
-76.29988098144531
 33
110.0
  0
3DFACE
  8
0
 10
7.9602885246276855
 20
-73.69041442871094
 30
110.0
 11
7.910665988922119
 21
-75.25609588623047
 31
110.0
 12
7.930436611175537
 22
-75.5381088256836
 32
110.0
 13
7.930436611175537
 23
-75.5381088256836
 33
110.0
  0
3DFACE
  8
0
 10
8.012150764465332
 20
-73.27143096923828
 30
110.0
 11
7.988266944885254
 21
-73.3927001953125
 31
110.0
 12
7.9602885246276855
 22
-73.69041442871094
 32
110.0
 13
7.9602885246276855
 23
-73.69041442871094
 33
110.0
  0
3DFACE
  8
0
 10
8.028779029846191
 20
-73.16852569580078
 30
110.0
 11
8.012150764465332
 21
-73.27143096923828
 31
110.0
 12
7.9602885246276855
 22
-73.69041442871094
 32
110.0
 13
7.9602885246276855
 23
-73.69041442871094
 33
110.0
  0
3DFACE
  8
0
 10
7.9602885246276855
 20
-73.69041442871094
 30
110.0
 11
7.930436611175537
 21
-75.5381088256836
 31
110.0
 12
8.008889198303223
 22
-76.29988098144531
 32
110.0
 13
8.008889198303223
 23
-76.29988098144531
 33
110.0
  0
3DFACE
  8
0
 10
8.008889198303223
 20
-76.29988098144531
 30
110.0
 11
25.956518173217773
 21
-80.31446075439453
 31
110.0
 12
25.38640594482422
 22
-80.08505249023438
 32
110.0
 13
25.38640594482422
 23
-80.08505249023438
 33
110.0
  0
3DFACE
  8
0
 10
8.008889198303223
 20
-76.29988098144531
 30
110.0
 11
25.38640594482422
 21
-80.08505249023438
 31
110.0
 12
25.17771339416504
 22
-80.00250244140625
 32
110.0
 13
25.17771339416504
 23
-80.00250244140625
 33
110.0
  0
3DFACE
  8
0
 10
8.028779029846191
 20
-73.16852569580078
 30
110.0
 11
7.9602885246276855
 21
-73.69041442871094
 31
110.0
 12
8.008889198303223
 22
-76.29988098144531
 32
110.0
 13
8.008889198303223
 23
-76.29988098144531
 33
110.0
  0
3DFACE
  8
0
 10
8.110910415649414
 20
-72.49083709716797
 30
110.0
 11
8.086002349853516
 21
-72.58341217041016
 31
110.0
 12
8.078185081481934
 22
-72.71894073486328
 32
110.0
 13
8.078185081481934
 23
-72.71894073486328
 33
110.0
  0
3DFACE
  8
0
 10
8.078185081481934
 20
-72.71894073486328
 30
110.0
 11
8.028779029846191
 21
-73.16852569580078
 31
110.0
 12
8.008889198303223
 22
-76.29988098144531
 32
110.0
 13
8.008889198303223
 23
-76.29988098144531
 33
110.0
  0
3DFACE
  8
0
 10
8.008889198303223
 20
-76.29988098144531
 30
110.0
 11
25.17771339416504
 21
-80.00250244140625
 31
110.0
 12
24.91301155090332
 22
-79.87500762939453
 32
110.0
 13
24.91301155090332
 23
-79.87500762939453
 33
110.0
  0
3DFACE
  8
0
 10
24.854578018188477
 20
-79.8452377319336
 30
110.0
 11
24.549386978149414
 21
-79.65788269042969
 31
110.0
 12
24.161081314086914
 22
-79.44527435302734
 32
110.0
 13
24.161081314086914
 23
-79.44527435302734
 33
110.0
  0
3DFACE
  8
0
 10
8.008889198303223
 20
-76.29988098144531
 30
110.0
 11
24.91301155090332
 21
-79.87500762939453
 31
110.0
 12
24.854578018188477
 22
-79.8452377319336
 32
110.0
 13
24.854578018188477
 23
-79.8452377319336
 33
110.0
  0
3DFACE
  8
0
 10
8.110910415649414
 20
-72.49083709716797
 30
110.0
 11
8.078185081481934
 21
-72.71894073486328
 31
110.0
 12
8.008889198303223
 22
-76.29988098144531
 32
110.0
 13
8.008889198303223
 23
-76.29988098144531
 33
110.0
  0
3DFACE
  8
0
 10
8.291473388671875
 20
-71.68187713623047
 30
110.0
 11
8.124034881591797
 21
-72.38140106201172
 31
110.0
 12
8.110910415649414
 22
-72.49083709716797
 32
110.0
 13
8.110910415649414
 23
-72.49083709716797
 33
110.0
  0
3DFACE
  8
0
 10
8.381331443786621
 20
-71.16539764404297
 30
110.0
 11
8.33963394165039
 21
-71.33533477783203
 31
110.0
 12
8.291473388671875
 22
-71.68187713623047
 32
110.0
 13
8.291473388671875
 23
-71.68187713623047
 33
110.0
  0
3DFACE
  8
0
 10
8.546034812927246
 20
-70.61235809326172
 30
110.0
 11
8.37842845916748
 21
-71.0809555053711
 31
110.0
 12
8.381331443786621
 22
-71.16539764404297
 32
110.0
 13
8.381331443786621
 23
-71.16539764404297
 33
110.0
  0
3DFACE
  8
0
 10
8.798229217529297
 20
-69.80816650390625
 30
110.0
 11
8.621881484985352
 21
-70.33414459228516
 31
110.0
 12
8.546034812927246
 22
-70.61235809326172
 32
110.0
 13
8.546034812927246
 23
-70.61235809326172
 33
110.0
  0
3DFACE
  8
0
 10
9.256231307983398
 20
-68.77918243408203
 30
110.0
 11
9.14633560180664
 21
-68.99337768554688
 31
110.0
 12
8.967028617858887
 22
-69.4587631225586
 32
110.0
 13
8.967028617858887
 23
-69.4587631225586
 33
110.0
  0
3DFACE
  8
0
 10
8.967028617858887
 20
-69.4587631225586
 30
110.0
 11
8.798229217529297
 21
-69.80816650390625
 31
110.0
 12
8.546034812927246
 22
-70.61235809326172
 32
110.0
 13
8.546034812927246
 23
-70.61235809326172
 33
110.0
  0
3DFACE
  8
0
 10
8.546034812927246
 20
-70.61235809326172
 30
110.0
 11
8.381331443786621
 21
-71.16539764404297
 31
110.0
 12
8.291473388671875
 22
-71.68187713623047
 32
110.0
 13
8.291473388671875
 23
-71.68187713623047
 33
110.0
  0
3DFACE
  8
0
 10
8.291473388671875
 20
-71.68187713623047
 30
110.0
 11
8.110910415649414
 21
-72.49083709716797
 31
110.0
 12
8.008889198303223
 22
-76.29988098144531
 32
110.0
 13
8.008889198303223
 23
-76.29988098144531
 33
110.0
  0
3DFACE
  8
0
 10
8.008889198303223
 20
-76.29988098144531
 30
110.0
 11
24.854578018188477
 21
-79.8452377319336
 31
110.0
 12
24.161081314086914
 22
-79.44527435302734
 32
110.0
 13
24.161081314086914
 23
-79.44527435302734
 33
110.0
  0
3DFACE
  8
0
 10
8.008889198303223
 20
-76.29988098144531
 30
110.0
 11
24.161081314086914
 21
-79.44527435302734
 31
110.0
 12
23.304208755493164
 22
-78.77304077148438
 32
110.0
 13
23.304208755493164
 23
-78.77304077148438
 33
110.0
  0
3DFACE
  8
0
 10
8.546034812927246
 20
-70.61235809326172
 30
110.0
 11
8.291473388671875
 21
-71.68187713623047
 31
110.0
 12
8.008889198303223
 22
-76.29988098144531
 32
110.0
 13
8.008889198303223
 23
-76.29988098144531
 33
110.0
  0
3DFACE
  8
0
 10
9.256231307983398
 20
-68.77918243408203
 30
110.0
 11
8.967028617858887
 21
-69.4587631225586
 31
110.0
 12
8.546034812927246
 22
-70.61235809326172
 32
110.0
 13
8.546034812927246
 23
-70.61235809326172
 33
110.0
  0
3DFACE
  8
0
 10
9.778121948242188
 20
-67.90605163574219
 30
110.0
 11
9.558843612670898
 21
-68.25221252441406
 31
110.0
 12
9.256231307983398
 22
-68.77918243408203
 32
110.0
 13
9.256231307983398
 23
-68.77918243408203
 33
110.0
  0
3DFACE
  8
0
 10
10.30001449584961
 20
-67.01661682128906
 30
110.0
 11
9.948186874389648
 21
-67.60362243652344
 31
110.0
 12
9.873636245727539
 22
-67.76028442382812
 32
110.0
 13
9.873636245727539
 23
-67.76028442382812
 33
110.0
  0
3DFACE
  8
0
 10
9.873636245727539
 20
-67.76028442382812
 30
110.0
 11
9.778121948242188
 21
-67.90605163574219
 31
110.0
 12
9.256231307983398
 22
-68.77918243408203
 32
110.0
 13
9.256231307983398
 23
-68.77918243408203
 33
110.0
  0
3DFACE
  8
0
 10
9.256231307983398
 20
-68.77918243408203
 30
110.0
 11
8.546034812927246
 21
-70.61235809326172
 31
110.0
 12
8.008889198303223
 22
-76.29988098144531
 32
110.0
 13
8.008889198303223
 23
-76.29988098144531
 33
110.0
  0
3DFACE
  8
0
 10
8.008889198303223
 20
-76.29988098144531
 30
110.0
 11
23.304208755493164
 21
-78.77304077148438
 31
110.0
 12
22.941896438598633
 22
-78.44459533691406
 32
110.0
 13
22.941896438598633
 23
-78.44459533691406
 33
110.0
  0
3DFACE
  8
0
 10
8.008889198303223
 20
-76.29988098144531
 30
110.0
 11
22.941896438598633
 21
-78.44459533691406
 31
110.0
 12
22.825441360473633
 22
-78.3301010131836
 32
110.0
 13
22.825441360473633
 23
-78.3301010131836
 33
110.0
  0
3DFACE
  8
0
 10
9.873636245727539
 20
-67.76028442382812
 30
110.0
 11
9.256231307983398
 21
-68.77918243408203
 31
110.0
 12
8.008889198303223
 22
-76.29988098144531
 32
110.0
 13
8.008889198303223
 23
-76.29988098144531
 33
110.0
  0
3DFACE
  8
0
 10
10.346179008483887
 20
-66.95198059082031
 30
110.0
 11
10.30001449584961
 21
-67.01661682128906
 31
110.0
 12
9.873636245727539
 22
-67.76028442382812
 32
110.0
 13
9.873636245727539
 23
-67.76028442382812
 33
110.0
  0
3DFACE
  8
0
 10
10.600192070007324
 20
-66.68409729003906
 30
110.0
 11
10.377575874328613
 21
-66.90581512451172
 31
110.0
 12
10.346179008483887
 22
-66.95198059082031
 32
110.0
 13
10.346179008483887
 23
-66.95198059082031
 33
110.0
  0
3DFACE
  8
0
 10
11.235973358154297
 20
-65.96123504638672
 30
110.0
 11
10.821908950805664
 21
-66.3798599243164
 31
110.0
 12
10.600192070007324
 22
-66.68409729003906
 32
110.0
 13
10.600192070007324
 23
-66.68409729003906
 33
110.0
  0
3DFACE
  8
0
 10
11.670315742492676
 20
-65.34013366699219
 30
110.0
 11
11.442087173461914
 21
-65.63499450683594
 31
110.0
 12
11.235973358154297
 22
-65.96123504638672
 32
110.0
 13
11.235973358154297
 23
-65.96123504638672
 33
110.0
  0
3DFACE
  8
0
 10
12.287725448608398
 20
-64.71841430664062
 30
110.0
 11
12.1808500289917
 21
-64.8182373046875
 31
110.0
 12
11.771933555603027
 22
-65.24637603759766
 32
110.0
 13
11.771933555603027
 23
-65.24637603759766
 33
110.0
  0
3DFACE
  8
0
 10
11.771933555603027
 20
-65.24637603759766
 30
110.0
 11
11.670315742492676
 21
-65.34013366699219
 31
110.0
 12
11.235973358154297
 22
-65.96123504638672
 32
110.0
 13
11.235973358154297
 23
-65.96123504638672
 33
110.0
  0
3DFACE
  8
0
 10
10.600192070007324
 20
-66.68409729003906
 30
110.0
 11
10.346179008483887
 21
-66.95198059082031
 31
110.0
 12
9.873636245727539
 22
-67.76028442382812
 32
110.0
 13
9.873636245727539
 23
-67.76028442382812
 33
110.0
  0
3DFACE
  8
0
 10
12.287725448608398
 20
-64.71841430664062
 30
110.0
 11
11.771933555603027
 21
-65.24637603759766
 31
110.0
 12
11.235973358154297
 22
-65.96123504638672
 32
110.0
 13
11.235973358154297
 23
-65.96123504638672
 33
110.0
  0
3DFACE
  8
0
 10
11.235973358154297
 20
-65.96123504638672
 30
110.0
 11
10.600192070007324
 21
-66.68409729003906
 31
110.0
 12
9.873636245727539
 22
-67.76028442382812
 32
110.0
 13
9.873636245727539
 23
-67.76028442382812
 33
110.0
  0
3DFACE
  8
0
 10
9.873636245727539
 20
-67.76028442382812
 30
110.0
 11
8.008889198303223
 21
-76.29988098144531
 31
110.0
 12
22.825441360473633
 22
-78.3301010131836
 32
110.0
 13
22.825441360473633
 23
-78.3301010131836
 33
110.0
  0
3DFACE
  8
0
 10
9.873636245727539
 20
-67.76028442382812
 30
110.0
 11
22.825441360473633
 21
-78.3301010131836
 31
110.0
 12
22.51084327697754
 22
-77.97076416015625
 32
110.0
 13
22.51084327697754
 23
-77.97076416015625
 33
110.0
  0
3DFACE
  8
0
 10
12.287725448608398
 20
-64.71841430664062
 30
110.0
 11
11.235973358154297
 21
-65.96123504638672
 31
110.0
 12
9.873636245727539
 22
-67.76028442382812
 32
110.0
 13
9.873636245727539
 23
-67.76028442382812
 33
110.0
  0
3DFACE
  8
0
 10
13.247425079345703
 20
-63.9185905456543
 30
110.0
 11
12.684849739074707
 21
-64.36898040771484
 31
110.0
 12
12.479137420654297
 22
-64.5979995727539
 32
110.0
 13
12.479137420654297
 23
-64.5979995727539
 33
110.0
  0
3DFACE
  8
0
 10
12.479137420654297
 20
-64.5979995727539
 30
110.0
 11
12.287725448608398
 21
-64.71841430664062
 31
110.0
 12
9.873636245727539
 22
-67.76028442382812
 32
110.0
 13
9.873636245727539
 23
-67.76028442382812
 33
110.0
  0
3DFACE
  8
0
 10
9.873636245727539
 20
-67.76028442382812
 30
110.0
 11
22.51084327697754
 21
-77.97076416015625
 31
110.0
 12
22.425012588500977
 22
-77.86556243896484
 32
110.0
 13
22.425012588500977
 23
-77.86556243896484
 33
110.0
  0
3DFACE
  8
0
 10
22.425012588500977
 20
-77.86556243896484
 30
110.0
 11
22.303428649902344
 21
-77.65847778320312
 31
110.0
 12
22.180660247802734
 22
-77.46632385253906
 32
110.0
 13
22.180660247802734
 23
-77.46632385253906
 33
110.0
  0
3DFACE
  8
0
 10
9.873636245727539
 20
-67.76028442382812
 30
110.0
 11
22.425012588500977
 21
-77.86556243896484
 31
110.0
 12
22.180660247802734
 22
-77.46632385253906
 32
110.0
 13
22.180660247802734
 23
-77.46632385253906
 33
110.0
  0
3DFACE
  8
0
 10
13.247425079345703
 20
-63.9185905456543
 30
110.0
 11
12.479137420654297
 21
-64.5979995727539
 31
110.0
 12
9.873636245727539
 22
-67.76028442382812
 32
110.0
 13
9.873636245727539
 23
-67.76028442382812
 33
110.0
  0
3DFACE
  8
0
 10
13.431371688842773
 20
-63.719154357910156
 30
110.0
 11
13.398098945617676
 21
-63.739402770996094
 31
110.0
 12
13.247425079345703
 22
-63.9185905456543
 32
110.0
 13
13.247425079345703
 23
-63.9185905456543
 33
110.0
  0
3DFACE
  8
0
 10
14.12906265258789
 20
-63.258060455322266
 30
110.0
 11
13.953264236450195
 21
-63.37236404418945
 31
110.0
 12
13.73538875579834
 22
-63.556583404541016
 32
110.0
 13
13.73538875579834
 23
-63.556583404541016
 33
110.0
  0
3DFACE
  8
0
 10
13.73538875579834
 20
-63.556583404541016
 30
110.0
 11
13.431371688842773
 21
-63.719154357910156
 31
110.0
 12
13.247425079345703
 22
-63.9185905456543
 32
110.0
 13
13.247425079345703
 23
-63.9185905456543
 33
110.0
  0
3DFACE
  8
0
 10
13.247425079345703
 20
-63.9185905456543
 30
110.0
 11
9.873636245727539
 21
-67.76028442382812
 31
110.0
 12
22.180660247802734
 22
-77.46632385253906
 32
110.0
 13
22.180660247802734
 23
-77.46632385253906
 33
110.0
  0
3DFACE
  8
0
 10
13.247425079345703
 20
-63.9185905456543
 30
110.0
 11
22.180660247802734
 21
-77.46632385253906
 31
110.0
 12
22.103612899780273
 22
-77.33856964111328
 32
110.0
 13
22.103612899780273
 23
-77.33856964111328
 33
110.0
  0
3DFACE
  8
0
 10
14.49589729309082
 20
-63.001983642578125
 30
110.0
 11
14.12906265258789
 21
-63.258060455322266
 31
110.0
 12
13.73538875579834
 22
-63.556583404541016
 32
110.0
 13
13.73538875579834
 23
-63.556583404541016
 33
110.0
  0
3DFACE
  8
0
 10
13.73538875579834
 20
-63.556583404541016
 30
110.0
 11
13.247425079345703
 21
-63.9185905456543
 31
110.0
 12
22.103612899780273
 22
-77.33856964111328
 32
110.0
 13
22.103612899780273
 23
-77.33856964111328
 33
110.0
  0
3DFACE
  8
0
 10
21.839078903198242
 20
-76.82176971435547
 30
110.0
 11
21.760948181152344
 21
-76.62735748291016
 31
110.0
 12
21.60927963256836
 22
-76.29110717773438
 32
110.0
 13
21.60927963256836
 23
-76.29110717773438
 33
110.0
  0
3DFACE
  8
0
 10
13.73538875579834
 20
-63.556583404541016
 30
110.0
 11
22.103612899780273
 21
-77.33856964111328
 31
110.0
 12
21.839078903198242
 22
-76.82176971435547
 32
110.0
 13
21.839078903198242
 23
-76.82176971435547
 33
110.0
  0
3DFACE
  8
0
 10
15.289685249328613
 20
-62.50141143798828
 30
110.0
 11
14.49589729309082
 21
-63.001983642578125
 31
110.0
 12
13.73538875579834
 22
-63.556583404541016
 32
110.0
 13
13.73538875579834
 23
-63.556583404541016
 33
110.0
  0
3DFACE
  8
0
 10
15.459240913391113
 20
-62.43987274169922
 30
110.0
 11
15.289685249328613
 21
-62.50141143798828
 31
110.0
 12
13.73538875579834
 22
-63.556583404541016
 32
110.0
 13
13.73538875579834
 23
-63.556583404541016
 33
110.0
  0
3DFACE
  8
0
 10
13.73538875579834
 20
-63.556583404541016
 30
110.0
 11
21.839078903198242
 21
-76.82176971435547
 31
110.0
 12
21.60927963256836
 22
-76.29110717773438
 32
110.0
 13
21.60927963256836
 23
-76.29110717773438
 33
110.0
  0
3DFACE
  8
0
 10
21.60927963256836
 20
-76.29110717773438
 30
110.0
 11
21.390207290649414
 21
-75.64492797851562
 31
110.0
 12
21.2513427734375
 22
-75.25609588623047
 32
110.0
 13
21.2513427734375
 23
-75.25609588623047
 33
110.0
  0
3DFACE
  8
0
 10
21.2513427734375
 20
-75.25609588623047
 30
110.0
 11
21.201505661010742
 21
-75.06371307373047
 31
110.0
 12
21.096717834472656
 22
-74.71102905273438
 32
110.0
 13
21.096717834472656
 23
-74.71102905273438
 33
110.0
  0
3DFACE
  8
0
 10
21.05466651916504
 20
-74.53626251220703
 30
110.0
 11
20.999547958374023
 21
-74.25448608398438
 31
110.0
 12
20.92684555053711
 22
-73.94717407226562
 32
110.0
 13
20.92684555053711
 23
-73.94717407226562
 33
110.0
  0
3DFACE
  8
0
 10
21.05466651916504
 20
-74.53626251220703
 30
110.0
 11
20.92684555053711
 21
-73.94717407226562
 31
110.0
 12
20.848413467407227
 22
-73.69041442871094
 32
110.0
 13
20.848413467407227
 23
-73.69041442871094
 33
110.0
  0
3DFACE
  8
0
 10
20.848413467407227
 20
-73.69041442871094
 30
110.0
 11
20.809349060058594
 21
-73.48171997070312
 31
110.0
 12
20.73578453063965
 22
-73.16852569580078
 32
110.0
 13
20.73578453063965
 23
-73.16852569580078
 33
110.0
  0
3DFACE
  8
0
 10
20.73578453063965
 20
-73.16852569580078
 30
110.0
 11
20.610748291015625
 21
-72.54624938964844
 31
110.0
 12
20.52499008178711
 22
-72.19086456298828
 32
110.0
 13
20.52499008178711
 23
-72.19086456298828
 33
110.0
  0
3DFACE
  8
0
 10
20.52499008178711
 20
-72.19086456298828
 30
110.0
 11
20.48189353942871
 21
-71.90060424804688
 31
110.0
 12
20.284557342529297
 22
-71.15599822998047
 32
110.0
 13
20.284557342529297
 23
-71.15599822998047
 33
110.0
  0
3DFACE
  8
0
 10
20.266998291015625
 20
-71.0809555053711
 30
110.0
 11
20.241592407226562
 21
-70.9548110961914
 31
110.0
 12
20.163238525390625
 22
-70.62569427490234
 32
110.0
 13
20.163238525390625
 23
-70.62569427490234
 33
110.0
  0
3DFACE
  8
0
 10
20.52499008178711
 20
-72.19086456298828
 30
110.0
 11
20.284557342529297
 21
-71.15599822998047
 31
110.0
 12
20.266998291015625
 22
-71.0809555053711
 32
110.0
 13
20.266998291015625
 23
-71.0809555053711
 33
110.0
  0
3DFACE
  8
0
 10
20.73578453063965
 20
-73.16852569580078
 30
110.0
 11
20.52499008178711
 21
-72.19086456298828
 31
110.0
 12
20.266998291015625
 22
-71.0809555053711
 32
110.0
 13
20.266998291015625
 23
-71.0809555053711
 33
110.0
  0
3DFACE
  8
0
 10
20.266998291015625
 20
-71.0809555053711
 30
110.0
 11
20.163238525390625
 21
-70.62569427490234
 31
110.0
 12
20.079811096191406
 22
-70.3577880859375
 32
110.0
 13
20.079811096191406
 23
-70.3577880859375
 33
110.0
  0
3DFACE
  8
0
 10
19.992887496948242
 20
-70.03717041015625
 30
110.0
 11
19.948909759521484
 21
-69.8136215209961
 31
110.0
 12
19.862621307373047
 22
-69.55764770507812
 32
110.0
 13
19.862621307373047
 23
-69.55764770507812
 33
110.0
  0
3DFACE
  8
0
 10
20.266998291015625
 20
-71.0809555053711
 30
110.0
 11
20.079811096191406
 21
-70.3577880859375
 31
110.0
 12
19.992887496948242
 22
-70.03717041015625
 32
110.0
 13
19.992887496948242
 23
-70.03717041015625
 33
110.0
  0
3DFACE
  8
0
 10
20.848413467407227
 20
-73.69041442871094
 30
110.0
 11
20.73578453063965
 21
-73.16852569580078
 31
110.0
 12
20.266998291015625
 22
-71.0809555053711
 32
110.0
 13
20.266998291015625
 23
-71.0809555053711
 33
110.0
  0
3DFACE
  8
0
 10
21.096717834472656
 20
-74.71102905273438
 30
110.0
 11
21.05466651916504
 21
-74.53626251220703
 31
110.0
 12
20.848413467407227
 22
-73.69041442871094
 32
110.0
 13
20.848413467407227
 23
-73.69041442871094
 33
110.0
  0
3DFACE
  8
0
 10
13.73538875579834
 20
-63.556583404541016
 30
110.0
 11
21.60927963256836
 21
-76.29110717773438
 31
110.0
 12
21.2513427734375
 22
-75.25609588623047
 32
110.0
 13
21.2513427734375
 23
-75.25609588623047
 33
110.0
  0
3DFACE
  8
0
 10
13.73538875579834
 20
-63.556583404541016
 30
110.0
 11
21.2513427734375
 21
-75.25609588623047
 31
110.0
 12
21.096717834472656
 22
-74.71102905273438
 32
110.0
 13
21.096717834472656
 23
-74.71102905273438
 33
110.0
  0
3DFACE
  8
0
 10
15.964484214782715
 20
-62.208778381347656
 30
110.0
 11
15.459240913391113
 21
-62.43987274169922
 31
110.0
 12
13.73538875579834
 22
-63.556583404541016
 32
110.0
 13
13.73538875579834
 23
-63.556583404541016
 33
110.0
  0
3DFACE
  8
0
 10
16.77143096923828
 20
-61.79137420654297
 30
110.0
 11
16.222625732421875
 21
-62.038726806640625
 31
110.0
 12
16.01495933532715
 22
-62.18290328979492
 32
110.0
 13
16.01495933532715
 23
-62.18290328979492
 33
110.0
  0
3DFACE
  8
0
 10
16.01495933532715
 20
-62.18290328979492
 30
110.0
 11
15.964484214782715
 21
-62.208778381347656
 31
110.0
 12
13.73538875579834
 22
-63.556583404541016
 32
110.0
 13
13.73538875579834
 23
-63.556583404541016
 33
110.0
  0
3DFACE
  8
0
 10
13.73538875579834
 20
-63.556583404541016
 30
110.0
 11
21.096717834472656
 21
-74.71102905273438
 31
110.0
 12
20.848413467407227
 22
-73.69041442871094
 32
110.0
 13
20.848413467407227
 23
-73.69041442871094
 33
110.0
  0
3DFACE
  8
0
 10
20.848413467407227
 20
-73.69041442871094
 30
110.0
 11
20.266998291015625
 21
-71.0809555053711
 31
110.0
 12
19.992887496948242
 22
-70.03717041015625
 32
110.0
 13
19.992887496948242
 23
-70.03717041015625
 33
110.0
  0
3DFACE
  8
0
 10
19.862621307373047
 20
-69.55764770507812
 30
110.0
 11
19.828502655029297
 21
-69.35173797607422
 31
110.0
 12
19.73409080505371
 22
-68.99337768554688
 32
110.0
 13
19.73409080505371
 23
-68.99337768554688
 33
110.0
  0
3DFACE
  8
0
 10
20.848413467407227
 20
-73.69041442871094
 30
110.0
 11
19.992887496948242
 21
-70.03717041015625
 31
110.0
 12
19.862621307373047
 22
-69.55764770507812
 32
110.0
 13
19.862621307373047
 23
-69.55764770507812
 33
110.0
  0
3DFACE
  8
0
 10
16.01495933532715
 20
-62.18290328979492
 30
110.0
 11
13.73538875579834
 21
-63.556583404541016
 31
110.0
 12
20.848413467407227
 22
-73.69041442871094
 32
110.0
 13
20.848413467407227
 23
-73.69041442871094
 33
110.0
  0
3DFACE
  8
0
 10
17.084619522094727
 20
-61.69990158081055
 30
110.0
 11
16.77143096923828
 21
-61.79137420654297
 31
110.0
 12
16.01495933532715
 22
-62.18290328979492
 32
110.0
 13
16.01495933532715
 23
-62.18290328979492
 33
110.0
  0
3DFACE
  8
0
 10
17.529701232910156
 20
-61.54365539550781
 30
110.0
 11
17.47331428527832
 21
-61.55368423461914
 31
110.0
 12
17.084619522094727
 22
-61.69990158081055
 32
110.0
 13
17.084619522094727
 23
-61.69990158081055
 33
110.0
  0
3DFACE
  8
0
 10
18.128406524658203
 20
-61.444007873535156
 30
110.0
 11
17.819589614868164
 21
-61.47380828857422
 31
110.0
 12
17.529701232910156
 22
-61.54365539550781
 32
110.0
 13
17.529701232910156
 23
-61.54365539550781
 33
110.0
  0
3DFACE
  8
0
 10
19.172191619873047
 20
-61.62671661376953
 30
110.0
 11
18.650297164916992
 21
-61.5013542175293
 31
110.0
 12
18.475479125976562
 22
-61.51206588745117
 32
110.0
 13
18.475479125976562
 23
-61.51206588745117
 33
110.0
  0
3DFACE
  8
0
 10
18.475479125976562
 20
-61.51206588745117
 30
110.0
 11
18.128406524658203
 21
-61.444007873535156
 31
110.0
 12
17.529701232910156
 22
-61.54365539550781
 32
110.0
 13
17.529701232910156
 23
-61.54365539550781
 33
110.0
  0
3DFACE
  8
0
 10
17.529701232910156
 20
-61.54365539550781
 30
110.0
 11
17.084619522094727
 21
-61.69990158081055
 31
110.0
 12
16.01495933532715
 22
-62.18290328979492
 32
110.0
 13
16.01495933532715
 23
-62.18290328979492
 33
110.0
  0
3DFACE
  8
0
 10
16.01495933532715
 20
-62.18290328979492
 30
110.0
 11
20.848413467407227
 21
-73.69041442871094
 31
110.0
 12
19.862621307373047
 22
-69.55764770507812
 32
110.0
 13
19.862621307373047
 23
-69.55764770507812
 33
110.0
  0
3DFACE
  8
0
 10
19.73409080505371
 20
-68.99337768554688
 30
110.0
 11
19.69408416748047
 21
-68.69530487060547
 31
110.0
 12
19.658218383789062
 22
-68.47148895263672
 32
110.0
 13
19.658218383789062
 23
-68.47148895263672
 33
110.0
  0
3DFACE
  8
0
 10
16.01495933532715
 20
-62.18290328979492
 30
110.0
 11
19.862621307373047
 21
-69.55764770507812
 31
110.0
 12
19.73409080505371
 22
-68.99337768554688
 32
110.0
 13
19.73409080505371
 23
-68.99337768554688
 33
110.0
  0
3DFACE
  8
0
 10
18.475479125976562
 20
-61.51206588745117
 30
110.0
 11
17.529701232910156
 21
-61.54365539550781
 31
110.0
 12
16.01495933532715
 22
-62.18290328979492
 32
110.0
 13
16.01495933532715
 23
-62.18290328979492
 33
110.0
  0
3DFACE
  8
0
 10
19.24610137939453
 20
-61.686885833740234
 30
110.0
 11
19.172191619873047
 21
-61.62671661376953
 31
110.0
 12
18.475479125976562
 22
-61.51206588745117
 32
110.0
 13
18.475479125976562
 23
-61.51206588745117
 33
110.0
  0
3DFACE
  8
0
 10
19.711952209472656
 20
-62.712799072265625
 30
110.0
 11
19.524005889892578
 21
-62.208778381347656
 31
110.0
 12
19.31170082092285
 22
-61.82639694213867
 32
110.0
 13
19.31170082092285
 23
-61.82639694213867
 33
110.0
  0
3DFACE
  8
0
 10
19.31170082092285
 20
-61.82639694213867
 30
110.0
 11
19.24610137939453
 21
-61.686885833740234
 31
110.0
 12
18.475479125976562
 22
-61.51206588745117
 32
110.0
 13
18.475479125976562
 23
-61.51206588745117
 33
110.0
  0
3DFACE
  8
0
 10
16.01495933532715
 20
-62.18290328979492
 30
110.0
 11
19.73409080505371
 21
-68.99337768554688
 31
110.0
 12
19.658218383789062
 22
-68.47148895263672
 32
110.0
 13
19.658218383789062
 23
-68.47148895263672
 33
110.0
  0
3DFACE
  8
0
 10
19.658218383789062
 20
-68.47148895263672
 30
110.0
 11
19.653474807739258
 21
-68.43087768554688
 31
110.0
 12
19.533926010131836
 22
-67.94960021972656
 32
110.0
 13
19.533926010131836
 23
-67.94960021972656
 33
110.0
  0
3DFACE
  8
0
 10
19.496654510498047
 20
-67.70758056640625
 30
110.0
 11
19.498842239379883
 21
-67.42770385742188
 31
110.0
 12
19.47024917602539
 22
-67.16104888916016
 32
110.0
 13
19.47024917602539
 23
-67.16104888916016
 33
110.0
  0
3DFACE
  8
0
 10
16.01495933532715
 20
-62.18290328979492
 30
110.0
 11
19.658218383789062
 21
-68.47148895263672
 31
110.0
 12
19.533926010131836
 22
-67.94960021972656
 32
110.0
 13
19.533926010131836
 23
-67.94960021972656
 33
110.0
  0
3DFACE
  8
0
 10
19.496654510498047
 20
-67.70758056640625
 30
110.0
 11
19.47024917602539
 21
-67.16104888916016
 31
110.0
 12
19.436481475830078
 22
-66.620361328125
 32
110.0
 13
19.436481475830078
 23
-66.620361328125
 33
110.0
  0
3DFACE
  8
0
 10
16.01495933532715
 20
-62.18290328979492
 30
110.0
 11
19.533926010131836
 21
-67.94960021972656
 31
110.0
 12
19.496654510498047
 22
-67.70758056640625
 32
110.0
 13
19.496654510498047
 23
-67.70758056640625
 33
110.0
  0
3DFACE
  8
0
 10
19.31170082092285
 20
-61.82639694213867
 30
110.0
 11
18.475479125976562
 21
-61.51206588745117
 31
110.0
 12
16.01495933532715
 22
-62.18290328979492
 32
110.0
 13
16.01495933532715
 23
-62.18290328979492
 33
110.0
  0
3DFACE
  8
0
 10
19.713764190673828
 20
-62.73066711425781
 30
110.0
 11
19.711952209472656
 21
-62.712799072265625
 31
110.0
 12
19.31170082092285
 22
-61.82639694213867
 32
110.0
 13
19.31170082092285
 23
-61.82639694213867
 33
110.0
  0
3DFACE
  8
0
 10
19.725250244140625
 20
-63.283729553222656
 30
110.0
 11
19.730241775512695
 21
-63.2525634765625
 31
110.0
 12
19.709774017333984
 22
-62.74635696411133
 32
110.0
 13
19.709774017333984
 23
-62.74635696411133
 33
110.0
  0
3DFACE
  8
0
 10
19.709774017333984
 20
-62.74635696411133
 30
110.0
 11
19.713764190673828
 21
-62.73066711425781
 31
110.0
 12
19.31170082092285
 22
-61.82639694213867
 32
110.0
 13
19.31170082092285
 23
-61.82639694213867
 33
110.0
  0
3DFACE
  8
0
 10
16.01495933532715
 20
-62.18290328979492
 30
110.0
 11
19.496654510498047
 21
-67.70758056640625
 31
110.0
 12
19.436481475830078
 22
-66.620361328125
 32
110.0
 13
19.436481475830078
 23
-66.620361328125
 33
110.0
  0
3DFACE
  8
0
 10
19.436481475830078
 20
-66.620361328125
 30
110.0
 11
19.472511291503906
 21
-66.13373565673828
 31
110.0
 12
19.486927032470703
 22
-65.86202239990234
 32
110.0
 13
19.486927032470703
 23
-65.86202239990234
 33
110.0
  0
3DFACE
  8
0
 10
19.479768753051758
 20
-65.59635925292969
 30
110.0
 11
19.544034957885742
 21
-65.34013366699219
 31
110.0
 12
19.549091339111328
 22
-65.19513702392578
 32
110.0
 13
19.549091339111328
 23
-65.19513702392578
 33
110.0
  0
3DFACE
  8
0
 10
19.436481475830078
 20
-66.620361328125
 30
110.0
 11
19.486927032470703
 21
-65.86202239990234
 31
110.0
 12
19.479768753051758
 22
-65.59635925292969
 32
110.0
 13
19.479768753051758
 23
-65.59635925292969
 33
110.0
  0
3DFACE
  8
0
 10
19.31170082092285
 20
-61.82639694213867
 30
110.0
 11
16.01495933532715
 21
-62.18290328979492
 31
110.0
 12
19.436481475830078
 22
-66.620361328125
 32
110.0
 13
19.436481475830078
 23
-66.620361328125
 33
110.0
  0
3DFACE
  8
0
 10
19.725250244140625
 20
-63.283729553222656
 30
110.0
 11
19.709774017333984
 21
-62.74635696411133
 31
110.0
 12
19.31170082092285
 22
-61.82639694213867
 32
110.0
 13
19.31170082092285
 23
-61.82639694213867
 33
110.0
  0
3DFACE
  8
0
 10
19.710063934326172
 20
-63.79251480102539
 30
110.0
 11
19.71657371520996
 21
-63.77445983886719
 31
110.0
 12
19.725250244140625
 22
-63.283729553222656
 32
110.0
 13
19.725250244140625
 23
-63.283729553222656
 33
110.0
  0
3DFACE
  8
0
 10
19.69408416748047
 20
-64.39468383789062
 30
110.0
 11
19.712038040161133
 21
-64.29926300048828
 31
110.0
 12
19.710063934326172
 22
-63.79251480102539
 32
110.0
 13
19.710063934326172
 23
-63.79251480102539
 33
110.0
  0
3DFACE
  8
0
 10
19.549091339111328
 20
-65.19513702392578
 30
110.0
 11
19.611736297607422
 21
-64.8182373046875
 31
110.0
 12
19.61277198791504
 22
-64.73692321777344
 32
110.0
 13
19.61277198791504
 23
-64.73692321777344
 33
110.0
  0
3DFACE
  8
0
 10
19.61277198791504
 20
-64.73692321777344
 30
110.0
 11
19.69408416748047
 21
-64.39468383789062
 31
110.0
 12
19.710063934326172
 22
-63.79251480102539
 32
110.0
 13
19.710063934326172
 23
-63.79251480102539
 33
110.0
  0
3DFACE
  8
0
 10
19.710063934326172
 20
-63.79251480102539
 30
110.0
 11
19.725250244140625
 21
-63.283729553222656
 31
110.0
 12
19.31170082092285
 22
-61.82639694213867
 32
110.0
 13
19.31170082092285
 23
-61.82639694213867
 33
110.0
  0
3DFACE
  8
0
 10
19.31170082092285
 20
-61.82639694213867
 30
110.0
 11
19.436481475830078
 21
-66.620361328125
 31
110.0
 12
19.479768753051758
 22
-65.59635925292969
 32
110.0
 13
19.479768753051758
 23
-65.59635925292969
 33
110.0
  0
3DFACE
  8
0
 10
19.479768753051758
 20
-65.59635925292969
 30
110.0
 11
19.549091339111328
 21
-65.19513702392578
 31
110.0
 12
19.61277198791504
 22
-64.73692321777344
 32
110.0
 13
19.61277198791504
 23
-64.73692321777344
 33
110.0
  0
3DFACE
  8
0
 10
19.61277198791504
 20
-64.73692321777344
 30
110.0
 11
19.710063934326172
 21
-63.79251480102539
 31
110.0
 12
19.31170082092285
 22
-61.82639694213867
 32
110.0
 13
19.31170082092285
 23
-61.82639694213867
 33
110.0
  0
3DFACE
  8
0
 10
19.479768753051758
 20
-65.59635925292969
 30
110.0
 11
19.61277198791504
 21
-64.73692321777344
 31
110.0
 12
19.31170082092285
 22
-61.82639694213867
 32
110.0
 13
19.31170082092285
 23
-61.82639694213867
 33
110.0
  0
3DFACE
  8
0
 10
68.9603271484375
 20
-60.329532623291016
 30
110.0
 11
68.75199890136719
 21
-60.456092834472656
 31
110.0
 12
68.6120834350586
 22
-60.64310073852539
 32
110.0
 13
68.6120834350586
 23
-60.64310073852539
 33
110.0
  0
3DFACE
  8
0
 10
68.54451751708984
 20
-60.95751190185547
 30
110.0
 11
68.31609344482422
 21
-61.16499328613281
 31
110.0
 12
68.70037078857422
 22
-61.686885833740234
 32
110.0
 13
68.70037078857422
 23
-61.686885833740234
 33
110.0
  0
3DFACE
  8
0
 10
68.9603271484375
 20
-60.329532623291016
 30
110.0
 11
68.6120834350586
 21
-60.64310073852539
 31
110.0
 12
68.54451751708984
 22
-60.95751190185547
 32
110.0
 13
68.54451751708984
 23
-60.95751190185547
 33
110.0
  0
3DFACE
  8
0
 10
68.99600982666016
 20
-59.98226547241211
 30
110.0
 11
68.92215728759766
 21
-60.1212043762207
 31
110.0
 12
68.9603271484375
 22
-60.329532623291016
 32
110.0
 13
68.9603271484375
 23
-60.329532623291016
 33
110.0
  0
3DFACE
  8
0
 10
69.2205810546875
 20
-59.572662353515625
 30
110.0
 11
69.18907165527344
 21
-59.59931564331055
 31
110.0
 12
68.99600982666016
 22
-59.98226547241211
 32
110.0
 13
68.99600982666016
 23
-59.98226547241211
 33
110.0
  0
3DFACE
  8
0
 10
69.4102783203125
 20
-59.21381378173828
 30
110.0
 11
69.27388763427734
 21
-59.435760498046875
 31
110.0
 12
69.24408721923828
 22
-59.539710998535156
 32
110.0
 13
69.24408721923828
 23
-59.539710998535156
 33
110.0
  0
3DFACE
  8
0
 10
69.24408721923828
 20
-59.539710998535156
 30
110.0
 11
69.2205810546875
 21
-59.572662353515625
 31
110.0
 12
68.99600982666016
 22
-59.98226547241211
 32
110.0
 13
68.99600982666016
 23
-59.98226547241211
 33
110.0
  0
3DFACE
  8
0
 10
68.9603271484375
 20
-60.329532623291016
 30
110.0
 11
68.54451751708984
 21
-60.95751190185547
 31
110.0
 12
68.70037078857422
 22
-61.686885833740234
 32
110.0
 13
68.70037078857422
 23
-61.686885833740234
 33
110.0
  0
3DFACE
  8
0
 10
69.24408721923828
 20
-59.539710998535156
 30
110.0
 11
68.99600982666016
 21
-59.98226547241211
 31
110.0
 12
68.9603271484375
 22
-60.329532623291016
 32
110.0
 13
68.9603271484375
 23
-60.329532623291016
 33
110.0
  0
3DFACE
  8
0
 10
69.53812408447266
 20
-59.077423095703125
 30
110.0
 11
69.4102783203125
 21
-59.21381378173828
 31
110.0
 12
69.24408721923828
 22
-59.539710998535156
 32
110.0
 13
69.24408721923828
 23
-59.539710998535156
 33
110.0
  0
3DFACE
  8
0
 10
69.8642578125
 20
-58.62399673461914
 30
110.0
 11
69.79578399658203
 21
-58.740516662597656
 31
110.0
 12
69.68708801269531
 22
-58.96872329711914
 32
110.0
 13
69.68708801269531
 23
-58.96872329711914
 33
110.0
  0
3DFACE
  8
0
 10
69.68708801269531
 20
-58.96872329711914
 30
110.0
 11
69.53812408447266
 21
-59.077423095703125
 31
110.0
 12
69.24408721923828
 22
-59.539710998535156
 32
110.0
 13
69.24408721923828
 23
-59.539710998535156
 33
110.0
  0
3DFACE
  8
0
 10
69.24408721923828
 20
-59.539710998535156
 30
110.0
 11
68.9603271484375
 21
-60.329532623291016
 31
110.0
 12
68.70037078857422
 22
-61.686885833740234
 32
110.0
 13
68.70037078857422
 23
-61.686885833740234
 33
110.0
  0
3DFACE
  8
0
 10
68.70037078857422
 20
-61.686885833740234
 30
110.0
 11
68.75199890136719
 21
-61.921077728271484
 31
110.0
 12
68.77946472167969
 22
-61.71435546875
 32
110.0
 13
68.77946472167969
 23
-61.71435546875
 33
110.0
  0
3DFACE
  8
0
 10
68.77946472167969
 20
-61.71435546875
 30
110.0
 11
69.27388763427734
 21
-61.74074172973633
 31
110.0
 12
69.3639907836914
 22
-61.686885833740234
 32
110.0
 13
69.3639907836914
 23
-61.686885833740234
 33
110.0
  0
3DFACE
  8
0
 10
69.56017303466797
 20
-61.45127868652344
 30
110.0
 11
69.79578399658203
 21
-61.42813491821289
 31
110.0
 12
70.1883316040039
 22
-61.16499328613281
 32
110.0
 13
70.1883316040039
 23
-61.16499328613281
 33
110.0
  0
3DFACE
  8
0
 10
68.77946472167969
 20
-61.71435546875
 30
110.0
 11
69.3639907836914
 21
-61.686885833740234
 31
110.0
 12
69.56017303466797
 22
-61.45127868652344
 32
110.0
 13
69.56017303466797
 23
-61.45127868652344
 33
110.0
  0
3DFACE
  8
0
 10
69.24408721923828
 20
-59.539710998535156
 30
110.0
 11
68.70037078857422
 21
-61.686885833740234
 31
110.0
 12
68.77946472167969
 22
-61.71435546875
 32
110.0
 13
68.77946472167969
 23
-61.71435546875
 33
110.0
  0
3DFACE
  8
0
 10
69.68708801269531
 20
-58.96872329711914
 30
110.0
 11
69.24408721923828
 21
-59.539710998535156
 31
110.0
 12
68.77946472167969
 22
-61.71435546875
 32
110.0
 13
68.77946472167969
 23
-61.71435546875
 33
110.0
  0
3DFACE
  8
0
 10
68.77946472167969
 20
-61.71435546875
 30
110.0
 11
69.56017303466797
 21
-61.45127868652344
 31
110.0
 12
70.1883316040039
 22
-61.16499328613281
 32
110.0
 13
70.1883316040039
 23
-61.16499328613281
 33
110.0
  0
3DFACE
  8
0
 10
70.2368392944336
 20
-61.08415603637695
 30
110.0
 11
70.31768035888672
 21
-61.098445892333984
 31
110.0
 12
70.58361053466797
 22
-60.909034729003906
 32
110.0
 13
70.58361053466797
 23
-60.909034729003906
 33
110.0
  0
3DFACE
  8
0
 10
68.77946472167969
 20
-61.71435546875
 30
110.0
 11
70.1883316040039
 21
-61.16499328613281
 31
110.0
 12
70.2368392944336
 22
-61.08415603637695
 32
110.0
 13
70.2368392944336
 23
-61.08415603637695
 33
110.0
  0
3DFACE
  8
0
 10
69.8642578125
 20
-58.62399673461914
 30
110.0
 11
69.68708801269531
 21
-58.96872329711914
 31
110.0
 12
68.77946472167969
 22
-61.71435546875
 32
110.0
 13
68.77946472167969
 23
-61.71435546875
 33
110.0
  0
3DFACE
  8
0
 10
70.24134063720703
 20
-58.03363800048828
 30
110.0
 11
69.87688446044922
 21
-58.55552673339844
 31
110.0
 12
69.8642578125
 22
-58.62399673461914
 32
110.0
 13
69.8642578125
 23
-58.62399673461914
 33
110.0
  0
3DFACE
  8
0
 10
70.48465728759766
 20
-57.6787223815918
 30
110.0
 11
70.31768035888672
 21
-57.91011047363281
 31
110.0
 12
70.27825927734375
 22
-57.99422073364258
 32
110.0
 13
70.27825927734375
 23
-57.99422073364258
 33
110.0
  0
3DFACE
  8
0
 10
70.27825927734375
 20
-57.99422073364258
 30
110.0
 11
70.24134063720703
 21
-58.03363800048828
 31
110.0
 12
69.8642578125
 22
-58.62399673461914
 32
110.0
 13
69.8642578125
 23
-58.62399673461914
 33
110.0
  0
3DFACE
  8
0
 10
69.8642578125
 20
-58.62399673461914
 30
110.0
 11
68.77946472167969
 21
-61.71435546875
 31
110.0
 12
70.2368392944336
 22
-61.08415603637695
 32
110.0
 13
70.2368392944336
 23
-61.08415603637695
 33
110.0
  0
3DFACE
  8
0
 10
70.58361053466797
 20
-60.909034729003906
 30
110.0
 11
70.83956909179688
 21
-60.84976577758789
 31
110.0
 12
70.98808288574219
 22
-60.7916145324707
 32
110.0
 13
70.98808288574219
 23
-60.7916145324707
 33
110.0
  0
3DFACE
  8
0
 10
69.8642578125
 20
-58.62399673461914
 30
110.0
 11
70.2368392944336
 21
-61.08415603637695
 31
110.0
 12
70.58361053466797
 22
-60.909034729003906
 32
110.0
 13
70.58361053466797
 23
-60.909034729003906
 33
110.0
  0
3DFACE
  8
0
 10
70.27825927734375
 20
-57.99422073364258
 30
110.0
 11
69.8642578125
 21
-58.62399673461914
 31
110.0
 12
70.58361053466797
 22
-60.909034729003906
 32
110.0
 13
70.58361053466797
 23
-60.909034729003906
 33
110.0
  0
3DFACE
  8
0
 10
70.58361053466797
 20
-60.909034729003906
 30
110.0
 11
70.98808288574219
 21
-60.7916145324707
 31
110.0
 12
71.13723754882812
 22
-60.64310073852539
 32
110.0
 13
71.13723754882812
 23
-60.64310073852539
 33
110.0
  0
3DFACE
  8
0
 10
71.20034790039062
 20
-60.48198699951172
 30
110.0
 11
71.36146545410156
 21
-60.45016098022461
 31
110.0
 12
71.5543212890625
 22
-60.31406021118164
 32
110.0
 13
71.5543212890625
 23
-60.31406021118164
 33
110.0
  0
3DFACE
  8
0
 10
70.58361053466797
 20
-60.909034729003906
 30
110.0
 11
71.13723754882812
 21
-60.64310073852539
 31
110.0
 12
71.20034790039062
 22
-60.48198699951172
 32
110.0
 13
71.20034790039062
 23
-60.48198699951172
 33
110.0
  0
3DFACE
  8
0
 10
70.48465728759766
 20
-57.6787223815918
 30
110.0
 11
70.27825927734375
 21
-57.99422073364258
 31
110.0
 12
70.58361053466797
 22
-60.909034729003906
 32
110.0
 13
70.58361053466797
 23
-60.909034729003906
 33
110.0
  0
3DFACE
  8
0
 10
70.83956909179688
 20
-57.191707611083984
 30
110.0
 11
70.66914367675781
 21
-57.34131622314453
 31
110.0
 12
70.58362579345703
 22
-57.51174545288086
 32
110.0
 13
70.58362579345703
 23
-57.51174545288086
 33
110.0
  0
3DFACE
  8
0
 10
70.58362579345703
 20
-57.51174545288086
 30
110.0
 11
70.48465728759766
 21
-57.6787223815918
 31
110.0
 12
70.58361053466797
 22
-60.909034729003906
 32
110.0
 13
70.58361053466797
 23
-60.909034729003906
 33
110.0
  0
3DFACE
  8
0
 10
71.20034790039062
 20
-60.48198699951172
 30
110.0
 11
71.5543212890625
 21
-60.31406021118164
 31
110.0
 12
71.84288024902344
 22
-60.1212043762207
 32
110.0
 13
71.84288024902344
 23
-60.1212043762207
 33
110.0
  0
3DFACE
  8
0
 10
70.58362579345703
 20
-57.51174545288086
 30
110.0
 11
70.58361053466797
 21
-60.909034729003906
 31
110.0
 12
71.20034790039062
 22
-60.48198699951172
 32
110.0
 13
71.20034790039062
 23
-60.48198699951172
 33
110.0
  0
3DFACE
  8
0
 10
70.94173431396484
 20
-57.092018127441406
 30
110.0
 11
70.83956909179688
 21
-57.191707611083984
 31
110.0
 12
70.58362579345703
 22
-57.51174545288086
 32
110.0
 13
70.58362579345703
 23
-57.51174545288086
 33
110.0
  0
3DFACE
  8
0
 10
71.2665023803711
 20
-56.46795654296875
 30
110.0
 11
71.1407699584961
 21
-56.68865203857422
 31
110.0
 12
70.94173431396484
 22
-57.092018127441406
 32
110.0
 13
70.94173431396484
 23
-57.092018127441406
 33
110.0
  0
3DFACE
  8
0
 10
71.52127075195312
 20
-56.10586929321289
 30
110.0
 11
71.36146545410156
 21
-56.3189811706543
 31
110.0
 12
71.2665023803711
 22
-56.46795654296875
 32
110.0
 13
71.2665023803711
 23
-56.46795654296875
 33
110.0
  0
3DFACE
  8
0
 10
71.7471923828125
 20
-55.946067810058594
 30
110.0
 11
71.52127075195312
 21
-56.10586929321289
 31
110.0
 12
71.2665023803711
 22
-56.46795654296875
 32
110.0
 13
71.2665023803711
 23
-56.46795654296875
 33
110.0
  0
3DFACE
  8
0
 10
70.94173431396484
 20
-57.092018127441406
 30
110.0
 11
70.58362579345703
 21
-57.51174545288086
 31
110.0
 12
71.20034790039062
 22
-60.48198699951172
 32
110.0
 13
71.20034790039062
 23
-60.48198699951172
 33
110.0
  0
3DFACE
  8
0
 10
71.7471923828125
 20
-55.946067810058594
 30
110.0
 11
71.2665023803711
 21
-56.46795654296875
 31
110.0
 12
70.94173431396484
 22
-57.092018127441406
 32
110.0
 13
70.94173431396484
 23
-57.092018127441406
 33
110.0
  0
3DFACE
  8
0
 10
71.99530029296875
 20
-55.53611755371094
 30
110.0
 11
71.88335418701172
 21
-55.731014251708984
 31
110.0
 12
71.81327819824219
 22
-55.87599182128906
 32
110.0
 13
71.81327819824219
 23
-55.87599182128906
 33
110.0
  0
3DFACE
  8
0
 10
71.81327819824219
 20
-55.87599182128906
 30
110.0
 11
71.7471923828125
 21
-55.946067810058594
 31
110.0
 12
70.94173431396484
 22
-57.092018127441406
 32
110.0
 13
70.94173431396484
 23
-57.092018127441406
 33
110.0
  0
3DFACE
  8
0
 10
70.94173431396484
 20
-57.092018127441406
 30
110.0
 11
71.20034790039062
 21
-60.48198699951172
 31
110.0
 12
71.84288024902344
 22
-60.1212043762207
 32
110.0
 13
71.84288024902344
 23
-60.1212043762207
 33
110.0
  0
3DFACE
  8
0
 10
71.8617935180664
 20
-60.09964370727539
 30
110.0
 11
71.88335418701172
 21
-60.08372116088867
 31
110.0
 12
72.1128158569336
 22
-59.82877731323242
 32
110.0
 13
72.1128158569336
 23
-59.82877731323242
 33
110.0
  0
3DFACE
  8
0
 10
70.94173431396484
 20
-57.092018127441406
 30
110.0
 11
71.84288024902344
 21
-60.1212043762207
 31
110.0
 12
71.8617935180664
 22
-60.09964370727539
 32
110.0
 13
71.8617935180664
 23
-60.09964370727539
 33
110.0
  0
3DFACE
  8
0
 10
72.07806396484375
 20
-55.424171447753906
 30
110.0
 11
71.99530029296875
 21
-55.53611755371094
 31
110.0
 12
71.81327819824219
 22
-55.87599182128906
 32
110.0
 13
71.81327819824219
 23
-55.87599182128906
 33
110.0
  0
3DFACE
  8
0
 10
71.81327819824219
 20
-55.87599182128906
 30
110.0
 11
70.94173431396484
 21
-57.092018127441406
 31
110.0
 12
71.8617935180664
 22
-60.09964370727539
 32
110.0
 13
71.8617935180664
 23
-60.09964370727539
 33
110.0
  0
3DFACE
  8
0
 10
72.1128158569336
 20
-59.82877731323242
 30
110.0
 11
72.40524291992188
 21
-59.66053009033203
 31
110.0
 12
72.43124389648438
 22
-59.62531661987305
 32
110.0
 13
72.43124389648438
 23
-59.62531661987305
 33
110.0
  0
3DFACE
  8
0
 10
71.81327819824219
 20
-55.87599182128906
 30
110.0
 11
71.8617935180664
 21
-60.09964370727539
 31
110.0
 12
72.1128158569336
 22
-59.82877731323242
 32
110.0
 13
72.1128158569336
 23
-59.82877731323242
 33
110.0
  0
3DFACE
  8
0
 10
72.40524291992188
 20
-55.09169006347656
 30
110.0
 11
72.07806396484375
 21
-55.424171447753906
 31
110.0
 12
71.81327819824219
 22
-55.87599182128906
 32
110.0
 13
71.81327819824219
 23
-55.87599182128906
 33
110.0
  0
3DFACE
  8
0
 10
72.81729888916016
 20
-54.792442321777344
 30
110.0
 11
72.63066864013672
 21
-54.902278900146484
 31
110.0
 12
72.5252685546875
 22
-55.02230453491211
 32
110.0
 13
72.5252685546875
 23
-55.02230453491211
 33
110.0
  0
3DFACE
  8
0
 10
72.5252685546875
 20
-55.02230453491211
 30
110.0
 11
72.40524291992188
 21
-55.09169006347656
 31
110.0
 12
71.81327819824219
 22
-55.87599182128906
 32
110.0
 13
71.81327819824219
 23
-55.87599182128906
 33
110.0
  0
3DFACE
  8
0
 10
71.81327819824219
 20
-55.87599182128906
 30
110.0
 11
72.1128158569336
 21
-59.82877731323242
 31
110.0
 12
72.43124389648438
 22
-59.62531661987305
 32
110.0
 13
72.43124389648438
 23
-59.62531661987305
 33
110.0
  0
3DFACE
  8
0
 10
72.43124389648438
 20
-59.62531661987305
 30
110.0
 11
72.4583740234375
 21
-59.59931564331055
 31
110.0
 12
72.61083984375
 22
-59.283016204833984
 32
110.0
 13
72.61083984375
 23
-59.283016204833984
 33
110.0
  0
3DFACE
  8
0
 10
72.61083984375
 20
-59.283016204833984
 30
110.0
 11
72.92713928222656
 21
-59.159786224365234
 31
110.0
 12
72.97284698486328
 22
-59.12312698364258
 32
110.0
 13
72.97284698486328
 23
-59.12312698364258
 33
110.0
  0
3DFACE
  8
0
 10
72.97284698486328
 20
-59.12312698364258
 30
110.0
 11
73.04917907714844
 21
-59.077423095703125
 31
110.0
 12
73.26654052734375
 22
-58.89493179321289
 32
110.0
 13
73.26654052734375
 23
-58.89493179321289
 33
110.0
  0
3DFACE
  8
0
 10
73.26654052734375
 20
-58.89493179321289
 30
110.0
 11
73.44903564453125
 21
-58.77109909057617
 31
110.0
 12
73.55150604248047
 22
-58.657997131347656
 32
110.0
 13
73.55150604248047
 23
-58.657997131347656
 33
110.0
  0
3DFACE
  8
0
 10
73.55150604248047
 20
-58.657997131347656
 30
110.0
 11
73.67942810058594
 21
-58.55552673339844
 31
110.0
 12
73.80113220214844
 22
-58.38573455810547
 32
110.0
 13
73.80113220214844
 23
-58.38573455810547
 33
110.0
  0
3DFACE
  8
0
 10
73.80113220214844
 20
-58.38573455810547
 30
110.0
 11
73.9709243774414
 21
-58.20797348022461
 31
110.0
 12
74.03388977050781
 22
-58.09660339355469
 32
110.0
 13
74.03388977050781
 23
-58.09660339355469
 33
110.0
  0
3DFACE
  8
0
 10
74.03388977050781
 20
-58.09660339355469
 30
110.0
 11
74.12361907958984
 21
-58.03363800048828
 31
110.0
 12
74.30326080322266
 22
-57.84408187866211
 32
110.0
 13
74.30326080322266
 23
-57.84408187866211
 33
110.0
  0
3DFACE
  8
0
 10
74.30326080322266
 20
-57.84408187866211
 30
110.0
 11
74.4928207397461
 21
-57.72330093383789
 31
110.0
 12
74.58654022216797
 22
-57.605464935302734
 32
110.0
 13
74.58654022216797
 23
-57.605464935302734
 33
110.0
  0
3DFACE
  8
0
 10
74.58654022216797
 20
-57.605464935302734
 30
110.0
 11
74.67069244384766
 21
-57.51174545288086
 31
110.0
 12
74.77368927001953
 22
-57.27071762084961
 32
110.0
 13
74.77368927001953
 23
-57.27071762084961
 33
110.0
  0
3DFACE
  8
0
 10
74.77368927001953
 20
-57.27071762084961
 30
110.0
 11
75.01471710205078
 21
-57.05009841918945
 31
110.0
 12
75.03941345214844
 22
-57.01454544067383
 32
110.0
 13
75.03941345214844
 23
-57.01454544067383
 33
110.0
  0
3DFACE
  8
0
 10
75.03941345214844
 20
-57.01454544067383
 30
110.0
 11
75.0731430053711
 21
-56.98984909057617
 31
110.0
 12
75.26365661621094
 22
-56.71690368652344
 32
110.0
 13
75.26365661621094
 23
-56.71690368652344
 33
110.0
  0
3DFACE
  8
0
 10
75.26365661621094
 20
-56.71690368652344
 30
110.0
 11
75.53080749511719
 21
-56.46795654296875
 31
110.0
 12
75.53288269042969
 22
-56.464237213134766
 32
110.0
 13
75.53288269042969
 23
-56.464237213134766
 33
110.0
  0
3DFACE
  8
0
 10
75.53288269042969
 20
-56.464237213134766
 30
110.0
 11
75.5365982055664
 21
-56.45676040649414
 31
110.0
 12
75.66120910644531
 22
-56.0706787109375
 32
110.0
 13
75.66120910644531
 23
-56.0706787109375
 33
110.0
  0
3DFACE
  8
0
 10
75.66120910644531
 20
-56.0706787109375
 30
110.0
 11
75.74100494384766
 21
-55.946067810058594
 31
110.0
 12
75.8172836303711
 22
-55.70486068725586
 32
110.0
 13
75.8172836303711
 23
-55.70486068725586
 33
110.0
  0
3DFACE
  8
0
 10
75.8172836303711
 20
-55.70486068725586
 30
110.0
 11
76.0584945678711
 21
-55.50848388671875
 31
110.0
 12
76.08967590332031
 22
-55.455352783203125
 32
110.0
 13
76.08967590332031
 23
-55.455352783203125
 33
110.0
  0
3DFACE
  8
0
 10
76.08967590332031
 20
-55.455352783203125
 30
110.0
 11
76.11715698242188
 21
-55.424171447753906
 31
110.0
 12
76.15621948242188
 22
-55.32645034790039
 32
110.0
 13
76.15621948242188
 23
-55.32645034790039
 33
110.0
  0
3DFACE
  8
0
 10
76.22773742675781
 20
-54.54963302612305
 30
110.0
 11
76.58039093017578
 21
-53.93993377685547
 31
110.0
 12
76.59381866455078
 22
-53.88534164428711
 32
110.0
 13
76.59381866455078
 23
-53.88534164428711
 33
110.0
  0
3DFACE
  8
0
 10
76.08967590332031
 20
-55.455352783203125
 30
110.0
 11
76.15621948242188
 21
-55.32645034790039
 31
110.0
 12
76.22773742675781
 22
-54.54963302612305
 32
110.0
 13
76.22773742675781
 23
-54.54963302612305
 33
110.0
  0
3DFACE
  8
0
 10
75.8172836303711
 20
-55.70486068725586
 30
110.0
 11
76.08967590332031
 21
-55.455352783203125
 31
110.0
 12
76.22773742675781
 22
-54.54963302612305
 32
110.0
 13
76.22773742675781
 23
-54.54963302612305
 33
110.0
  0
3DFACE
  8
0
 10
76.22773742675781
 20
-54.54963302612305
 30
110.0
 11
76.59381866455078
 21
-53.88534164428711
 31
110.0
 12
76.59845733642578
 22
-53.876564025878906
 32
110.0
 13
76.59845733642578
 23
-53.876564025878906
 33
110.0
  0
3DFACE
  8
0
 10
76.59845733642578
 20
-53.876564025878906
 30
110.0
 11
76.60060119628906
 21
-53.85849380493164
 31
110.0
 12
76.58039093017578
 22
-53.80364227294922
 32
110.0
 13
76.58039093017578
 23
-53.80364227294922
 33
110.0
  0
3DFACE
  8
0
 10
76.58039093017578
 20
-53.80364227294922
 30
110.0
 11
76.29351806640625
 21
-53.33660125732422
 31
110.0
 12
76.0584945678711
 22
-53.037715911865234
 32
110.0
 13
76.0584945678711
 23
-53.037715911865234
 33
110.0
  0
3DFACE
  8
0
 10
75.88829803466797
 20
-52.996212005615234
 30
110.0
 11
75.5365982055664
 21
-52.904090881347656
 31
110.0
 12
75.353759765625
 22
-52.970924377441406
 32
110.0
 13
75.353759765625
 23
-52.970924377441406
 33
110.0
  0
3DFACE
  8
0
 10
76.58039093017578
 20
-53.80364227294922
 30
110.0
 11
76.0584945678711
 21
-53.037715911865234
 31
110.0
 12
75.88829803466797
 22
-52.996212005615234
 32
110.0
 13
75.88829803466797
 23
-52.996212005615234
 33
110.0
  0
3DFACE
  8
0
 10
76.22773742675781
 20
-54.54963302612305
 30
110.0
 11
76.59845733642578
 21
-53.876564025878906
 31
110.0
 12
76.58039093017578
 22
-53.80364227294922
 32
110.0
 13
76.58039093017578
 23
-53.80364227294922
 33
110.0
  0
3DFACE
  8
0
 10
75.66120910644531
 20
-56.0706787109375
 30
110.0
 11
75.8172836303711
 21
-55.70486068725586
 31
110.0
 12
76.22773742675781
 22
-54.54963302612305
 32
110.0
 13
76.22773742675781
 23
-54.54963302612305
 33
110.0
  0
3DFACE
  8
0
 10
75.26365661621094
 20
-56.71690368652344
 30
110.0
 11
75.53288269042969
 21
-56.464237213134766
 31
110.0
 12
75.66120910644531
 22
-56.0706787109375
 32
110.0
 13
75.66120910644531
 23
-56.0706787109375
 33
110.0
  0
3DFACE
  8
0
 10
74.77368927001953
 20
-57.27071762084961
 30
110.0
 11
75.03941345214844
 21
-57.01454544067383
 31
110.0
 12
75.26365661621094
 22
-56.71690368652344
 32
110.0
 13
75.26365661621094
 23
-56.71690368652344
 33
110.0
  0
3DFACE
  8
0
 10
74.30326080322266
 20
-57.84408187866211
 30
110.0
 11
74.58654022216797
 21
-57.605464935302734
 31
110.0
 12
74.77368927001953
 22
-57.27071762084961
 32
110.0
 13
74.77368927001953
 23
-57.27071762084961
 33
110.0
  0
3DFACE
  8
0
 10
73.55150604248047
 20
-58.657997131347656
 30
110.0
 11
73.80113220214844
 21
-58.38573455810547
 31
110.0
 12
74.03388977050781
 22
-58.09660339355469
 32
110.0
 13
74.03388977050781
 23
-58.09660339355469
 33
110.0
  0
3DFACE
  8
0
 10
74.03388977050781
 20
-58.09660339355469
 30
110.0
 11
74.30326080322266
 21
-57.84408187866211
 31
110.0
 12
74.77368927001953
 22
-57.27071762084961
 32
110.0
 13
74.77368927001953
 23
-57.27071762084961
 33
110.0
  0
3DFACE
  8
0
 10
74.77368927001953
 20
-57.27071762084961
 30
110.0
 11
75.26365661621094
 21
-56.71690368652344
 31
110.0
 12
75.66120910644531
 22
-56.0706787109375
 32
110.0
 13
75.66120910644531
 23
-56.0706787109375
 33
110.0
  0
3DFACE
  8
0
 10
76.22773742675781
 20
-54.54963302612305
 30
110.0
 11
76.58039093017578
 21
-53.80364227294922
 31
110.0
 12
75.88829803466797
 22
-52.996212005615234
 32
110.0
 13
75.88829803466797
 23
-52.996212005615234
 33
110.0
  0
3DFACE
  8
0
 10
74.77368927001953
 20
-57.27071762084961
 30
110.0
 11
75.66120910644531
 21
-56.0706787109375
 31
110.0
 12
76.22773742675781
 22
-54.54963302612305
 32
110.0
 13
76.22773742675781
 23
-54.54963302612305
 33
110.0
  0
3DFACE
  8
0
 10
73.26654052734375
 20
-58.89493179321289
 30
110.0
 11
73.55150604248047
 21
-58.657997131347656
 31
110.0
 12
74.03388977050781
 22
-58.09660339355469
 32
110.0
 13
74.03388977050781
 23
-58.09660339355469
 33
110.0
  0
3DFACE
  8
0
 10
74.03388977050781
 20
-58.09660339355469
 30
110.0
 11
74.77368927001953
 21
-57.27071762084961
 31
110.0
 12
76.22773742675781
 22
-54.54963302612305
 32
110.0
 13
76.22773742675781
 23
-54.54963302612305
 33
110.0
  0
3DFACE
  8
0
 10
76.22773742675781
 20
-54.54963302612305
 30
110.0
 11
75.88829803466797
 21
-52.996212005615234
 31
110.0
 12
75.353759765625
 22
-52.970924377441406
 32
110.0
 13
75.353759765625
 23
-52.970924377441406
 33
110.0
  0
3DFACE
  8
0
 10
75.353759765625
 20
-52.970924377441406
 30
110.0
 11
75.01471710205078
 21
-53.12069320678711
 31
110.0
 12
74.90412902832031
 22
-53.226009368896484
 32
110.0
 13
74.90412902832031
 23
-53.226009368896484
 33
110.0
  0
3DFACE
  8
0
 10
74.90412902832031
 20
-53.226009368896484
 30
110.0
 11
74.4928207397461
 21
-53.23160934448242
 31
110.0
 12
74.3082275390625
 22
-53.33660125732422
 32
110.0
 13
74.3082275390625
 23
-53.33660125732422
 33
110.0
  0
3DFACE
  8
0
 10
74.3082275390625
 20
-53.33660125732422
 30
110.0
 11
73.9709243774414
 21
-53.632667541503906
 31
110.0
 12
73.75213623046875
 22
-53.94280242919922
 32
110.0
 13
73.75213623046875
 23
-53.94280242919922
 33
110.0
  0
3DFACE
  8
0
 10
73.75213623046875
 20
-53.94280242919922
 30
110.0
 11
73.62043762207031
 21
-54.0299072265625
 31
110.0
 12
73.36322021484375
 22
-54.20876693725586
 32
110.0
 13
73.36322021484375
 23
-54.20876693725586
 33
110.0
  0
3DFACE
  8
0
 10
73.3334732055664
 20
-54.264827728271484
 30
110.0
 11
73.12189483642578
 21
-54.38039016723633
 31
110.0
 12
72.92713928222656
 22
-54.580562591552734
 32
110.0
 13
72.92713928222656
 23
-54.580562591552734
 33
110.0
  0
3DFACE
  8
0
 10
73.75213623046875
 20
-53.94280242919922
 30
110.0
 11
73.36322021484375
 21
-54.20876693725586
 31
110.0
 12
73.3334732055664
 22
-54.264827728271484
 32
110.0
 13
73.3334732055664
 23
-54.264827728271484
 33
110.0
  0
3DFACE
  8
0
 10
74.90412902832031
 20
-53.226009368896484
 30
110.0
 11
74.3082275390625
 21
-53.33660125732422
 31
110.0
 12
73.75213623046875
 22
-53.94280242919922
 32
110.0
 13
73.75213623046875
 23
-53.94280242919922
 33
110.0
  0
3DFACE
  8
0
 10
76.22773742675781
 20
-54.54963302612305
 30
110.0
 11
75.353759765625
 21
-52.970924377441406
 31
110.0
 12
74.90412902832031
 22
-53.226009368896484
 32
110.0
 13
74.90412902832031
 23
-53.226009368896484
 33
110.0
  0
3DFACE
  8
0
 10
73.26654052734375
 20
-58.89493179321289
 30
110.0
 11
74.03388977050781
 21
-58.09660339355469
 31
110.0
 12
76.22773742675781
 22
-54.54963302612305
 32
110.0
 13
76.22773742675781
 23
-54.54963302612305
 33
110.0
  0
3DFACE
  8
0
 10
72.61083984375
 20
-59.283016204833984
 30
110.0
 11
72.97284698486328
 21
-59.12312698364258
 31
110.0
 12
73.26654052734375
 22
-58.89493179321289
 32
110.0
 13
73.26654052734375
 23
-58.89493179321289
 33
110.0
  0
3DFACE
  8
0
 10
71.81327819824219
 20
-55.87599182128906
 30
110.0
 11
72.43124389648438
 21
-59.62531661987305
 31
110.0
 12
72.61083984375
 22
-59.283016204833984
 32
110.0
 13
72.61083984375
 23
-59.283016204833984
 33
110.0
  0
3DFACE
  8
0
 10
72.81729888916016
 20
-54.792442321777344
 30
110.0
 11
72.5252685546875
 21
-55.02230453491211
 31
110.0
 12
71.81327819824219
 22
-55.87599182128906
 32
110.0
 13
71.81327819824219
 23
-55.87599182128906
 33
110.0
  0
3DFACE
  8
0
 10
73.3334732055664
 20
-54.264827728271484
 30
110.0
 11
72.92713928222656
 21
-54.580562591552734
 31
110.0
 12
72.81729888916016
 22
-54.792442321777344
 32
110.0
 13
72.81729888916016
 23
-54.792442321777344
 33
110.0
  0
3DFACE
  8
0
 10
74.90412902832031
 20
-53.226009368896484
 30
110.0
 11
73.75213623046875
 21
-53.94280242919922
 31
110.0
 12
73.3334732055664
 22
-54.264827728271484
 32
110.0
 13
73.3334732055664
 23
-54.264827728271484
 33
110.0
  0
3DFACE
  8
0
 10
73.26654052734375
 20
-58.89493179321289
 30
110.0
 11
76.22773742675781
 21
-54.54963302612305
 31
110.0
 12
74.90412902832031
 22
-53.226009368896484
 32
110.0
 13
74.90412902832031
 23
-53.226009368896484
 33
110.0
  0
3DFACE
  8
0
 10
71.81327819824219
 20
-55.87599182128906
 30
110.0
 11
72.61083984375
 21
-59.283016204833984
 31
110.0
 12
73.26654052734375
 22
-58.89493179321289
 32
110.0
 13
73.26654052734375
 23
-58.89493179321289
 33
110.0
  0
3DFACE
  8
0
 10
73.3334732055664
 20
-54.264827728271484
 30
110.0
 11
72.81729888916016
 21
-54.792442321777344
 31
110.0
 12
71.81327819824219
 22
-55.87599182128906
 32
110.0
 13
71.81327819824219
 23
-55.87599182128906
 33
110.0
  0
3DFACE
  8
0
 10
73.26654052734375
 20
-58.89493179321289
 30
110.0
 11
74.90412902832031
 21
-53.226009368896484
 31
110.0
 12
73.3334732055664
 22
-54.264827728271484
 32
110.0
 13
73.3334732055664
 23
-54.264827728271484
 33
110.0
  0
3DFACE
  8
0
 10
73.26654052734375
 20
-58.89493179321289
 30
110.0
 11
73.3334732055664
 21
-54.264827728271484
 31
110.0
 12
71.81327819824219
 22
-55.87599182128906
 32
110.0
 13
71.81327819824219
 23
-55.87599182128906
 33
110.0
  0
3DFACE
  8
0
 10
78.3198013305664
 20
-24.110610961914062
 30
110.0
 11
77.73418426513672
 21
-24.743112564086914
 31
110.0
 12
77.72871398925781
 22
-24.749229431152344
 32
110.0
 13
77.72871398925781
 23
-24.749229431152344
 33
110.0
  0
3DFACE
  8
0
 10
77.72871398925781
 20
-24.749229431152344
 30
110.0
 11
78.04502868652344
 21
-24.696569442749023
 31
110.0
 12
78.49649047851562
 22
-24.605178833007812
 32
110.0
 13
78.49649047851562
 23
-24.605178833007812
 33
110.0
  0
3DFACE
  8
0
 10
78.49649047851562
 20
-24.605178833007812
 30
110.0
 11
78.96328735351562
 21
-24.500282287597656
 31
110.0
 12
80.07367706298828
 22
-24.233678817749023
 32
110.0
 13
80.07367706298828
 23
-24.233678817749023
 33
110.0
  0
3DFACE
  8
0
 10
78.49649047851562
 20
-24.605178833007812
 30
110.0
 11
80.07367706298828
 21
-24.233678817749023
 31
110.0
 12
80.24980163574219
 22
-24.1740665435791
 32
110.0
 13
80.24980163574219
 23
-24.1740665435791
 33
110.0
  0
3DFACE
  8
0
 10
78.3198013305664
 20
-24.110610961914062
 30
110.0
 11
77.72871398925781
 21
-24.749229431152344
 31
110.0
 12
78.49649047851562
 22
-24.605178833007812
 32
110.0
 13
78.49649047851562
 23
-24.605178833007812
 33
110.0
  0
3DFACE
  8
0
 10
78.75337219238281
 20
-23.683826446533203
 30
110.0
 11
78.44694519042969
 21
-23.967309951782227
 31
110.0
 12
78.3198013305664
 22
-24.110610961914062
 32
110.0
 13
78.3198013305664
 23
-24.110610961914062
 33
110.0
  0
3DFACE
  8
0
 10
79.36774444580078
 20
-23.047353744506836
 30
110.0
 11
79.06226348876953
 21
-23.35919761657715
 31
110.0
 12
78.75337219238281
 22
-23.683826446533203
 32
110.0
 13
78.75337219238281
 23
-23.683826446533203
 33
110.0
  0
3DFACE
  8
0
 10
79.5908203125
 20
-22.833093643188477
 30
110.0
 11
79.48859405517578
 21
-22.92760467529297
 31
110.0
 12
79.36774444580078
 22
-23.047353744506836
 32
110.0
 13
79.36774444580078
 23
-23.047353744506836
 33
110.0
  0
3DFACE
  8
0
 10
79.97865295410156
 20
-22.438079833984375
 30
110.0
 11
79.85957336425781
 21
-22.544933319091797
 31
110.0
 12
79.5908203125
 22
-22.833093643188477
 32
110.0
 13
79.5908203125
 23
-22.833093643188477
 33
110.0
  0
3DFACE
  8
0
 10
80.64547729492188
 20
-21.786020278930664
 30
110.0
 11
80.28421020507812
 21
-22.1234188079834
 31
110.0
 12
79.97865295410156
 22
-22.438079833984375
 32
110.0
 13
79.97865295410156
 23
-22.438079833984375
 33
110.0
  0
3DFACE
  8
0
 10
80.9988784790039
 20
-21.425859451293945
 30
110.0
 11
80.91210174560547
 21
-21.50114631652832
 31
110.0
 12
80.64547729492188
 22
-21.786020278930664
 32
110.0
 13
80.64547729492188
 23
-21.786020278930664
 33
110.0
  0
3DFACE
  8
0
 10
81.20307922363281
 20
-21.223613739013672
 30
110.0
 11
80.9988784790039
 21
-21.425859451293945
 31
110.0
 12
80.64547729492188
 22
-21.786020278930664
 32
110.0
 13
80.64547729492188
 23
-21.786020278930664
 33
110.0
  0
3DFACE
  8
0
 10
80.64547729492188
 20
-21.786020278930664
 30
110.0
 11
79.97865295410156
 21
-22.438079833984375
 31
110.0
 12
79.5908203125
 22
-22.833093643188477
 32
110.0
 13
79.5908203125
 23
-22.833093643188477
 33
110.0
  0
3DFACE
  8
0
 10
79.5908203125
 20
-22.833093643188477
 30
110.0
 11
79.36774444580078
 21
-23.047353744506836
 31
110.0
 12
78.75337219238281
 22
-23.683826446533203
 32
110.0
 13
78.75337219238281
 23
-23.683826446533203
 33
110.0
  0
3DFACE
  8
0
 10
78.75337219238281
 20
-23.683826446533203
 30
110.0
 11
78.3198013305664
 21
-24.110610961914062
 31
110.0
 12
78.49649047851562
 22
-24.605178833007812
 32
110.0
 13
78.49649047851562
 23
-24.605178833007812
 33
110.0
  0
3DFACE
  8
0
 10
78.49649047851562
 20
-24.605178833007812
 30
110.0
 11
80.24980163574219
 21
-24.1740665435791
 31
110.0
 12
81.53632354736328
 22
-23.810199737548828
 32
110.0
 13
81.53632354736328
 23
-23.810199737548828
 33
110.0
  0
3DFACE
  8
0
 10
81.53632354736328
 20
-23.810199737548828
 30
110.0
 11
81.59935760498047
 21
-23.794780731201172
 31
110.0
 12
81.65087890625
 22
-23.780370712280273
 32
110.0
 13
81.65087890625
 23
-23.780370712280273
 33
110.0
  0
3DFACE
  8
0
 10
81.65087890625
 20
-23.780370712280273
 30
110.0
 11
82.0442123413086
 21
-23.651750564575195
 31
110.0
 12
82.43948364257812
 22
-23.4973201751709
 32
110.0
 13
82.43948364257812
 23
-23.4973201751709
 33
110.0
  0
3DFACE
  8
0
 10
82.43948364257812
 20
-23.4973201751709
 30
110.0
 11
83.07408142089844
 21
-23.23127555847168
 31
110.0
 12
83.86225891113281
 22
-22.860549926757812
 32
110.0
 13
83.86225891113281
 23
-22.860549926757812
 33
110.0
  0
3DFACE
  8
0
 10
83.86225891113281
 20
-22.860549926757812
 30
110.0
 11
84.10338592529297
 21
-22.741207122802734
 31
110.0
 12
84.12269592285156
 22
-22.726591110229492
 32
110.0
 13
84.12269592285156
 23
-22.726591110229492
 33
110.0
  0
3DFACE
  8
0
 10
84.12269592285156
 20
-22.726591110229492
 30
110.0
 11
84.23213195800781
 21
-22.65836524963379
 31
110.0
 12
84.73780059814453
 22
-22.32364273071289
 32
110.0
 13
84.73780059814453
 23
-22.32364273071289
 33
110.0
  0
3DFACE
  8
0
 10
84.73780059814453
 20
-22.32364273071289
 30
110.0
 11
84.7852554321289
 21
-22.294601440429688
 31
110.0
 12
84.79959869384766
 22
-22.28534698486328
 32
110.0
 13
84.79959869384766
 23
-22.28534698486328
 33
110.0
  0
3DFACE
  8
0
 10
84.79959869384766
 20
-22.28534698486328
 30
110.0
 11
84.82930755615234
 21
-22.267078399658203
 31
110.0
 12
85.2599105834961
 22
-21.973297119140625
 32
110.0
 13
85.2599105834961
 23
-21.973297119140625
 33
110.0
  0
3DFACE
  8
0
 10
85.2599105834961
 20
-21.973297119140625
 30
110.0
 11
85.91354370117188
 21
-21.485103607177734
 31
110.0
 12
86.1060791015625
 22
-21.33013916015625
 32
110.0
 13
86.1060791015625
 23
-21.33013916015625
 33
110.0
  0
3DFACE
  8
0
 10
86.1060791015625
 20
-21.33013916015625
 30
110.0
 11
86.26817321777344
 21
-21.20409393310547
 31
110.0
 12
86.49523162841797
 22
-21.00160026550293
 32
110.0
 13
86.49523162841797
 23
-21.00160026550293
 33
110.0
  0
3DFACE
  8
0
 10
86.49523162841797
 20
-21.00160026550293
 30
110.0
 11
87.05110168457031
 21
-20.459980010986328
 31
110.0
 12
87.30146026611328
 22
-20.195959091186523
 32
110.0
 13
87.30146026611328
 23
-20.195959091186523
 33
110.0
  0
3DFACE
  8
0
 10
87.30146026611328
 20
-20.195959091186523
 30
110.0
 11
87.73973083496094
 21
-19.69512939453125
 31
110.0
 12
88.38153076171875
 22
-18.896465301513672
 32
110.0
 13
88.38153076171875
 23
-18.896465301513672
 33
110.0
  0
3DFACE
  8
0
 10
88.6010971069336
 20
-18.5770320892334
 30
110.0
 11
88.64779663085938
 21
-18.53407096862793
 31
110.0
 12
88.75472259521484
 22
-18.39167022705078
 32
110.0
 13
88.75472259521484
 23
-18.39167022705078
 33
110.0
  0
3DFACE
  8
0
 10
87.30146026611328
 20
-20.195959091186523
 30
110.0
 11
88.38153076171875
 21
-18.896465301513672
 31
110.0
 12
88.6010971069336
 22
-18.5770320892334
 32
110.0
 13
88.6010971069336
 23
-18.5770320892334
 33
110.0
  0
3DFACE
  8
0
 10
86.1060791015625
 20
-21.33013916015625
 30
110.0
 11
86.49523162841797
 21
-21.00160026550293
 31
110.0
 12
87.30146026611328
 22
-20.195959091186523
 32
110.0
 13
87.30146026611328
 23
-20.195959091186523
 33
110.0
  0
3DFACE
  8
0
 10
84.79959869384766
 20
-22.28534698486328
 30
110.0
 11
85.2599105834961
 21
-21.973297119140625
 31
110.0
 12
86.1060791015625
 22
-21.33013916015625
 32
110.0
 13
86.1060791015625
 23
-21.33013916015625
 33
110.0
  0
3DFACE
  8
0
 10
83.86225891113281
 20
-22.860549926757812
 30
110.0
 11
84.12269592285156
 21
-22.726591110229492
 31
110.0
 12
84.73780059814453
 22
-22.32364273071289
 32
110.0
 13
84.73780059814453
 23
-22.32364273071289
 33
110.0
  0
3DFACE
  8
0
 10
84.73780059814453
 20
-22.32364273071289
 30
110.0
 11
84.79959869384766
 21
-22.28534698486328
 31
110.0
 12
86.1060791015625
 22
-21.33013916015625
 32
110.0
 13
86.1060791015625
 23
-21.33013916015625
 33
110.0
  0
3DFACE
  8
0
 10
86.1060791015625
 20
-21.33013916015625
 30
110.0
 11
87.30146026611328
 21
-20.195959091186523
 31
110.0
 12
88.6010971069336
 22
-18.5770320892334
 32
110.0
 13
88.6010971069336
 23
-18.5770320892334
 33
110.0
  0
3DFACE
  8
0
 10
88.6010971069336
 20
-18.5770320892334
 30
110.0
 11
88.75472259521484
 21
-18.39167022705078
 31
110.0
 12
89.22175598144531
 22
-17.6385498046875
 32
110.0
 13
89.22175598144531
 23
-17.6385498046875
 33
110.0
  0
3DFACE
  8
0
 10
89.22175598144531
 20
-17.6385498046875
 30
110.0
 11
89.3854751586914
 21
-17.358047485351562
 31
110.0
 12
89.7925796508789
 22
-16.58884048461914
 32
110.0
 13
89.7925796508789
 23
-16.58884048461914
 33
110.0
  0
3DFACE
  8
0
 10
89.7925796508789
 20
-16.58884048461914
 30
110.0
 11
89.99239349365234
 21
-16.151870727539062
 31
110.0
 12
90.1331787109375
 22
-15.825450897216797
 32
110.0
 13
90.1331787109375
 23
-15.825450897216797
 33
110.0
  0
3DFACE
  8
0
 10
90.3304443359375
 20
-15.259873390197754
 30
110.0
 11
90.38301849365234
 21
-15.123785972595215
 31
110.0
 12
90.41792297363281
 22
-15.01700496673584
 32
110.0
 13
90.41792297363281
 23
-15.01700496673584
 33
110.0
  0
3DFACE
  8
0
 10
89.7925796508789
 20
-16.58884048461914
 30
110.0
 11
90.1331787109375
 21
-15.825450897216797
 31
110.0
 12
90.3304443359375
 22
-15.259873390197754
 32
110.0
 13
90.3304443359375
 23
-15.259873390197754
 33
110.0
  0
3DFACE
  8
0
 10
88.6010971069336
 20
-18.5770320892334
 30
110.0
 11
89.22175598144531
 21
-17.6385498046875
 31
110.0
 12
89.7925796508789
 22
-16.58884048461914
 32
110.0
 13
89.7925796508789
 23
-16.58884048461914
 33
110.0
  0
3DFACE
  8
0
 10
84.73780059814453
 20
-22.32364273071289
 30
110.0
 11
86.1060791015625
 21
-21.33013916015625
 31
110.0
 12
88.6010971069336
 22
-18.5770320892334
 32
110.0
 13
88.6010971069336
 23
-18.5770320892334
 33
110.0
  0
3DFACE
  8
0
 10
82.43948364257812
 20
-23.4973201751709
 30
110.0
 11
83.86225891113281
 21
-22.860549926757812
 31
110.0
 12
84.73780059814453
 22
-22.32364273071289
 32
110.0
 13
84.73780059814453
 23
-22.32364273071289
 33
110.0
  0
3DFACE
  8
0
 10
81.53632354736328
 20
-23.810199737548828
 30
110.0
 11
81.65087890625
 21
-23.780370712280273
 31
110.0
 12
82.43948364257812
 22
-23.4973201751709
 32
110.0
 13
82.43948364257812
 23
-23.4973201751709
 33
110.0
  0
3DFACE
  8
0
 10
78.75337219238281
 20
-23.683826446533203
 30
110.0
 11
78.49649047851562
 21
-24.605178833007812
 31
110.0
 12
81.53632354736328
 22
-23.810199737548828
 32
110.0
 13
81.53632354736328
 23
-23.810199737548828
 33
110.0
  0
3DFACE
  8
0
 10
80.64547729492188
 20
-21.786020278930664
 30
110.0
 11
79.5908203125
 21
-22.833093643188477
 31
110.0
 12
78.75337219238281
 22
-23.683826446533203
 32
110.0
 13
78.75337219238281
 23
-23.683826446533203
 33
110.0
  0
3DFACE
  8
0
 10
80.64547729492188
 20
-21.786020278930664
 30
110.0
 11
78.75337219238281
 21
-23.683826446533203
 31
110.0
 12
81.53632354736328
 22
-23.810199737548828
 32
110.0
 13
81.53632354736328
 23
-23.810199737548828
 33
110.0
  0
3DFACE
  8
0
 10
81.53632354736328
 20
-23.810199737548828
 30
110.0
 11
82.43948364257812
 21
-23.4973201751709
 31
110.0
 12
84.73780059814453
 22
-22.32364273071289
 32
110.0
 13
84.73780059814453
 23
-22.32364273071289
 33
110.0
  0
3DFACE
  8
0
 10
84.73780059814453
 20
-22.32364273071289
 30
110.0
 11
88.6010971069336
 21
-18.5770320892334
 31
110.0
 12
89.7925796508789
 22
-16.58884048461914
 32
110.0
 13
89.7925796508789
 23
-16.58884048461914
 33
110.0
  0
3DFACE
  8
0
 10
89.7925796508789
 20
-16.58884048461914
 30
110.0
 11
90.3304443359375
 21
-15.259873390197754
 31
110.0
 12
90.41792297363281
 22
-15.01700496673584
 32
110.0
 13
90.41792297363281
 23
-15.01700496673584
 33
110.0
  0
3DFACE
  8
0
 10
90.41792297363281
 20
-15.01700496673584
 30
110.0
 11
90.44439697265625
 21
-14.947076797485352
 31
110.0
 12
90.88299560546875
 22
-13.572664260864258
 32
110.0
 13
90.88299560546875
 23
-13.572664260864258
 33
110.0
  0
3DFACE
  8
0
 10
90.88299560546875
 20
-13.572664260864258
 30
110.0
 11
90.89864349365234
 21
-13.51732063293457
 31
110.0
 12
91.09907531738281
 22
-12.742796897888184
 32
110.0
 13
91.09907531738281
 23
-12.742796897888184
 33
110.0
  0
3DFACE
  8
0
 10
91.25164794921875
 20
-12.028304100036621
 30
110.0
 11
91.2655029296875
 21
-11.973589897155762
 31
110.0
 12
91.5011215209961
 22
-10.435445785522461
 32
110.0
 13
91.5011215209961
 23
-10.435445785522461
 33
110.0
  0
3DFACE
  8
0
 10
90.88299560546875
 20
-13.572664260864258
 30
110.0
 11
91.09907531738281
 21
-12.742796897888184
 31
110.0
 12
91.25164794921875
 22
-12.028304100036621
 32
110.0
 13
91.25164794921875
 23
-12.028304100036621
 33
110.0
  0
3DFACE
  8
0
 10
89.7925796508789
 20
-16.58884048461914
 30
110.0
 11
90.41792297363281
 21
-15.01700496673584
 31
110.0
 12
90.88299560546875
 22
-13.572664260864258
 32
110.0
 13
90.88299560546875
 23
-13.572664260864258
 33
110.0
  0
3DFACE
  8
0
 10
81.53632354736328
 20
-23.810199737548828
 30
110.0
 11
84.73780059814453
 21
-22.32364273071289
 31
110.0
 12
89.7925796508789
 22
-16.58884048461914
 32
110.0
 13
89.7925796508789
 23
-16.58884048461914
 33
110.0
  0
3DFACE
  8
0
 10
81.20307922363281
 20
-21.223613739013672
 30
110.0
 11
80.64547729492188
 21
-21.786020278930664
 31
110.0
 12
81.53632354736328
 22
-23.810199737548828
 32
110.0
 13
81.53632354736328
 23
-23.810199737548828
 33
110.0
  0
3DFACE
  8
0
 10
81.4480209350586
 20
-20.947067260742188
 30
110.0
 11
81.30654907226562
 21
-21.106796264648438
 31
110.0
 12
81.30654907226562
 22
-21.10679817199707
 32
110.0
 13
81.30654907226562
 23
-21.10679817199707
 33
110.0
  0
3DFACE
  8
0
 10
81.30654907226562
 20
-21.10679817199707
 30
110.0
 11
81.20307922363281
 21
-21.223613739013672
 31
110.0
 12
81.53632354736328
 22
-23.810199737548828
 32
110.0
 13
81.53632354736328
 23
-23.810199737548828
 33
110.0
  0
3DFACE
  8
0
 10
81.53632354736328
 20
-23.810199737548828
 30
110.0
 11
89.7925796508789
 21
-16.58884048461914
 31
110.0
 12
90.88299560546875
 22
-13.572664260864258
 32
110.0
 13
90.88299560546875
 23
-13.572664260864258
 33
110.0
  0
3DFACE
  8
0
 10
90.88299560546875
 20
-13.572664260864258
 30
110.0
 11
91.25164794921875
 21
-12.028304100036621
 31
110.0
 12
91.5011215209961
 22
-10.435445785522461
 32
110.0
 13
91.5011215209961
 23
-10.435445785522461
 33
110.0
  0
3DFACE
  8
0
 10
91.5011215209961
 20
-10.435445785522461
 30
110.0
 11
91.50113677978516
 21
-10.435310363769531
 31
110.0
 12
91.50115203857422
 22
-10.435172080993652
 32
110.0
 13
91.50115203857422
 23
-10.435172080993652
 33
110.0
  0
3DFACE
  8
0
 10
91.50115203857422
 20
-10.435172080993652
 30
110.0
 11
91.50116729736328
 21
-10.43503475189209
 31
110.0
 12
91.50118255615234
 22
-10.434886932373047
 32
110.0
 13
91.50118255615234
 23
-10.434886932373047
 33
110.0
  0
3DFACE
  8
0
 10
91.50118255615234
 20
-10.434886932373047
 30
110.0
 11
91.56023406982422
 21
-9.66596508026123
 31
110.0
 12
91.5821762084961
 22
-9.290430068969727
 32
110.0
 13
91.5821762084961
 23
-9.290430068969727
 33
110.0
  0
3DFACE
  8
0
 10
91.57115173339844
 20
-8.912456512451172
 30
110.0
 11
91.57184600830078
 21
-8.896754264831543
 31
110.0
 12
91.57093811035156
 22
-8.14319896697998
 32
110.0
 13
91.57093811035156
 23
-8.14319896697998
 33
110.0
  0
3DFACE
  8
0
 10
91.50118255615234
 20
-10.434886932373047
 30
110.0
 11
91.5821762084961
 21
-9.290430068969727
 31
110.0
 12
91.57115173339844
 22
-8.912456512451172
 32
110.0
 13
91.57115173339844
 23
-8.912456512451172
 33
110.0
  0
3DFACE
  8
0
 10
91.5011215209961
 20
-10.435445785522461
 30
110.0
 11
91.50115203857422
 21
-10.435172080993652
 31
110.0
 12
91.50118255615234
 22
-10.434886932373047
 32
110.0
 13
91.50118255615234
 23
-10.434886932373047
 33
110.0
  0
3DFACE
  8
0
 10
81.53632354736328
 20
-23.810199737548828
 30
110.0
 11
90.88299560546875
 21
-13.572664260864258
 31
110.0
 12
91.5011215209961
 22
-10.435445785522461
 32
110.0
 13
91.5011215209961
 23
-10.435445785522461
 33
110.0
  0
3DFACE
  8
0
 10
81.4480209350586
 20
-20.947067260742188
 30
110.0
 11
81.30654907226562
 21
-21.10679817199707
 31
110.0
 12
81.53632354736328
 22
-23.810199737548828
 32
110.0
 13
81.53632354736328
 23
-23.810199737548828
 33
110.0
  0
3DFACE
  8
0
 10
81.9554443359375
 20
-20.38408851623535
 30
110.0
 11
81.88664245605469
 21
-20.457361221313477
 31
110.0
 12
81.61937713623047
 22
-20.77056121826172
 32
110.0
 13
81.61937713623047
 23
-20.77056121826172
 33
110.0
  0
3DFACE
  8
0
 10
81.61937713623047
 20
-20.77056121826172
 30
110.0
 11
81.4480209350586
 21
-20.947067260742188
 31
110.0
 12
81.53632354736328
 22
-23.810199737548828
 32
110.0
 13
81.53632354736328
 23
-23.810199737548828
 33
110.0
  0
3DFACE
  8
0
 10
81.53632354736328
 20
-23.810199737548828
 30
110.0
 11
91.5011215209961
 21
-10.435445785522461
 31
110.0
 12
91.50118255615234
 22
-10.434886932373047
 32
110.0
 13
91.50118255615234
 23
-10.434886932373047
 33
110.0
  0
3DFACE
  8
0
 10
91.50118255615234
 20
-10.434886932373047
 30
110.0
 11
91.57115173339844
 21
-8.912456512451172
 31
110.0
 12
91.57093811035156
 22
-8.14319896697998
 32
110.0
 13
91.57093811035156
 23
-8.14319896697998
 33
110.0
  0
3DFACE
  8
0
 10
91.57093811035156
 20
-8.14319896697998
 30
110.0
 11
91.57115936279297
 21
-8.127547264099121
 31
110.0
 12
91.53581237792969
 22
-7.366257190704346
 32
110.0
 13
91.53581237792969
 23
-7.366257190704346
 33
110.0
  0
3DFACE
  8
0
 10
91.53581237792969
 20
-7.366257190704346
 30
110.0
 11
91.53494262695312
 21
-7.358340263366699
 31
110.0
 12
91.43523406982422
 22
-6.589130401611328
 32
110.0
 13
91.43523406982422
 23
-6.589130401611328
 33
110.0
  0
3DFACE
  8
0
 10
91.43523406982422
 20
-6.589130401611328
 30
110.0
 11
91.43228149414062
 21
-6.57423210144043
 31
110.0
 12
91.30606842041016
 22
-5.996000289916992
 32
110.0
 13
91.30606842041016
 23
-5.996000289916992
 33
110.0
  0
3DFACE
  8
0
 10
91.1933822631836
 20
-6.212584018707275
 30
110.0
 11
91.15026092529297
 21
-6.2800116539001465
 31
110.0
 12
91.138427734375
 22
-6.3128862380981445
 32
110.0
 13
91.138427734375
 23
-6.3128862380981445
 33
110.0
  0
3DFACE
  8
0
 10
91.43523406982422
 20
-6.589130401611328
 30
110.0
 11
91.30606842041016
 21
-5.996000289916992
 31
110.0
 12
91.1933822631836
 22
-6.212584018707275
 32
110.0
 13
91.1933822631836
 23
-6.212584018707275
 33
110.0
  0
3DFACE
  8
0
 10
91.57093811035156
 20
-8.14319896697998
 30
110.0
 11
91.53581237792969
 21
-7.366257190704346
 31
110.0
 12
91.43523406982422
 22
-6.589130401611328
 32
110.0
 13
91.43523406982422
 23
-6.589130401611328
 33
110.0
  0
3DFACE
  8
0
 10
81.53632354736328
 20
-23.810199737548828
 30
110.0
 11
91.50118255615234
 21
-10.434886932373047
 31
110.0
 12
91.57093811035156
 22
-8.14319896697998
 32
110.0
 13
91.57093811035156
 23
-8.14319896697998
 33
110.0
  0
3DFACE
  8
0
 10
81.9554443359375
 20
-20.38408851623535
 30
110.0
 11
81.61937713623047
 21
-20.77056121826172
 31
110.0
 12
81.53632354736328
 22
-23.810199737548828
 32
110.0
 13
81.53632354736328
 23
-23.810199737548828
 33
110.0
  0
3DFACE
  8
0
 10
82.23153686523438
 20
-20.073230743408203
 30
110.0
 11
81.9554443359375
 21
-20.38408851623535
 31
110.0
 12
81.53632354736328
 22
-23.810199737548828
 32
110.0
 13
81.53632354736328
 23
-23.810199737548828
 33
110.0
  0
3DFACE
  8
0
 10
81.53632354736328
 20
-23.810199737548828
 30
110.0
 11
91.57093811035156
 21
-8.14319896697998
 31
110.0
 12
91.43523406982422
 22
-6.589130401611328
 32
110.0
 13
91.43523406982422
 23
-6.589130401611328
 33
110.0
  0
3DFACE
  8
0
 10
91.43523406982422
 20
-6.589130401611328
 30
110.0
 11
91.1933822631836
 21
-6.212584018707275
 31
110.0
 12
91.138427734375
 22
-6.3128862380981445
 32
110.0
 13
91.138427734375
 23
-6.3128862380981445
 33
110.0
  0
3DFACE
  8
0
 10
91.08580780029297
 20
-6.384186744689941
 30
110.0
 11
90.6641845703125
 21
-6.834501266479492
 31
110.0
 12
90.2038803100586
 22
-7.373861312866211
 32
110.0
 13
90.2038803100586
 23
-7.373861312866211
 33
110.0
  0
3DFACE
  8
0
 10
91.43523406982422
 20
-6.589130401611328
 30
110.0
 11
91.138427734375
 21
-6.3128862380981445
 31
110.0
 12
91.08580780029297
 22
-6.384186744689941
 32
110.0
 13
91.08580780029297
 23
-6.384186744689941
 33
110.0
  0
3DFACE
  8
0
 10
82.32121276855469
 20
-19.96760368347168
 30
110.0
 11
82.23153686523438
 21
-20.073230743408203
 31
110.0
 12
81.53632354736328
 22
-23.810199737548828
 32
110.0
 13
81.53632354736328
 23
-23.810199737548828
 33
110.0
  0
3DFACE
  8
0
 10
82.74404907226562
 20
-19.45091438293457
 30
110.0
 11
82.3995361328125
 21
-19.86453628540039
 31
110.0
 12
82.32121276855469
 22
-19.96760368347168
 32
110.0
 13
82.32121276855469
 23
-19.96760368347168
 33
110.0
  0
3DFACE
  8
0
 10
83.17033386230469
 20
-18.908885955810547
 30
110.0
 11
82.88990020751953
 21
-19.261371612548828
 31
110.0
 12
82.74404907226562
 22
-19.45091438293457
 32
110.0
 13
82.74404907226562
 23
-19.45091438293457
 33
110.0
  0
3DFACE
  8
0
 10
83.6341781616211
 20
-18.308212280273438
 30
110.0
 11
83.35076141357422
 21
-18.660053253173828
 31
110.0
 12
83.17033386230469
 22
-18.908885955810547
 32
110.0
 13
83.17033386230469
 23
-18.908885955810547
 33
110.0
  0
3DFACE
  8
0
 10
84.05325317382812
 20
-17.701976776123047
 30
110.0
 11
83.85626220703125
 21
-17.973751068115234
 31
110.0
 12
83.76602935791016
 22
-18.119672775268555
 32
110.0
 13
83.76602935791016
 23
-18.119672775268555
 33
110.0
  0
3DFACE
  8
0
 10
84.40460968017578
 20
-17.168701171875
 30
110.0
 11
84.22370910644531
 21
-17.430513381958008
 31
110.0
 12
84.05325317382812
 22
-17.701976776123047
 32
110.0
 13
84.05325317382812
 23
-17.701976776123047
 33
110.0
  0
3DFACE
  8
0
 10
84.93042755126953
 20
-16.284122467041016
 30
110.0
 11
84.74634552001953
 21
-16.595420837402344
 31
110.0
 12
84.64315795898438
 22
-16.804113388061523
 32
110.0
 13
84.64315795898438
 23
-16.804113388061523
 33
110.0
  0
3DFACE
  8
0
 10
84.93284606933594
 20
-16.28019905090332
 30
110.0
 11
84.93042755126953
 21
-16.284122467041016
 31
110.0
 12
84.64315795898438
 22
-16.804113388061523
 32
110.0
 13
84.64315795898438
 23
-16.804113388061523
 33
110.0
  0
3DFACE
  8
0
 10
85.54953002929688
 20
-15.216419219970703
 30
110.0
 11
85.45585632324219
 21
-15.365586280822754
 31
110.0
 12
85.2334213256836
 22
-15.77541732788086
 32
110.0
 13
85.2334213256836
 23
-15.77541732788086
 33
110.0
  0
3DFACE
  8
0
 10
85.2334213256836
 20
-15.77541732788086
 30
110.0
 11
84.93284606933594
 21
-16.28019905090332
 31
110.0
 12
84.64315795898438
 22
-16.804113388061523
 32
110.0
 13
84.64315795898438
 23
-16.804113388061523
 33
110.0
  0
3DFACE
  8
0
 10
85.66224670410156
 20
-15.017170906066895
 30
110.0
 11
85.54953002929688
 21
-15.216419219970703
 31
110.0
 12
85.2334213256836
 22
-15.77541732788086
 32
110.0
 13
85.2334213256836
 23
-15.77541732788086
 33
110.0
  0
3DFACE
  8
0
 10
86.24654388427734
 20
-13.922571182250977
 30
110.0
 11
86.08506774902344
 21
-14.18932819366455
 31
110.0
 12
85.66224670410156
 22
-15.017170906066895
 32
110.0
 13
85.66224670410156
 23
-15.017170906066895
 33
110.0
  0
3DFACE
  8
0
 10
86.78711700439453
 20
-12.956591606140137
 30
110.0
 11
86.46963500976562
 21
-13.509162902832031
 31
110.0
 12
86.24654388427734
 22
-13.922571182250977
 32
110.0
 13
86.24654388427734
 23
-13.922571182250977
 33
110.0
  0
3DFACE
  8
0
 10
87.21849060058594
 20
-12.107078552246094
 30
110.0
 11
87.01824188232422
 21
-12.4934663772583
 31
110.0
 12
86.95696258544922
 22
-12.628971099853516
 32
110.0
 13
86.95696258544922
 23
-12.628971099853516
 33
110.0
  0
3DFACE
  8
0
 10
86.78711700439453
 20
-12.956591606140137
 30
110.0
 11
86.24654388427734
 21
-13.922571182250977
 31
110.0
 12
85.66224670410156
 22
-15.017170906066895
 32
110.0
 13
85.66224670410156
 23
-15.017170906066895
 33
110.0
  0
3DFACE
  8
0
 10
87.34744262695312
 20
-11.90373420715332
 30
110.0
 11
87.21849060058594
 21
-12.107078552246094
 31
110.0
 12
86.95696258544922
 22
-12.628971099853516
 32
110.0
 13
86.95696258544922
 23
-12.628971099853516
 33
110.0
  0
3DFACE
  8
0
 10
87.34744262695312
 20
-11.90373420715332
 30
110.0
 11
86.95696258544922
 21
-12.628971099853516
 31
110.0
 12
86.78711700439453
 22
-12.956591606140137
 32
110.0
 13
86.78711700439453
 23
-12.956591606140137
 33
110.0
  0
3DFACE
  8
0
 10
87.78170013427734
 20
-10.99560546875
 30
110.0
 11
87.54013061523438
 21
-11.52856159210205
 31
110.0
 12
87.51547241210938
 22
-11.585185050964355
 32
110.0
 13
87.51547241210938
 23
-11.585185050964355
 33
110.0
  0
3DFACE
  8
0
 10
88.06202697753906
 20
-10.437524795532227
 30
110.0
 11
87.78170013427734
 21
-10.99560546875
 31
110.0
 12
87.51547241210938
 22
-11.585185050964355
 32
110.0
 13
87.51547241210938
 23
-11.585185050964355
 33
110.0
  0
3DFACE
  8
0
 10
88.93563842773438
 20
-8.975722312927246
 30
110.0
 11
88.69539642333984
 21
-9.369799613952637
 31
110.0
 12
88.4022445678711
 22
-9.886157035827637
 32
110.0
 13
88.4022445678711
 23
-9.886157035827637
 33
110.0
  0
3DFACE
  8
0
 10
88.4022445678711
 20
-9.886157035827637
 30
110.0
 11
88.06202697753906
 21
-10.437524795532227
 31
110.0
 12
87.51547241210938
 22
-11.585185050964355
 32
110.0
 13
87.51547241210938
 23
-11.585185050964355
 33
110.0
  0
3DFACE
  8
0
 10
88.93563842773438
 20
-8.975722312927246
 30
110.0
 11
88.4022445678711
 21
-9.886157035827637
 31
110.0
 12
87.51547241210938
 22
-11.585185050964355
 32
110.0
 13
87.51547241210938
 23
-11.585185050964355
 33
110.0
  0
3DFACE
  8
0
 10
89.32218170166016
 20
-8.453829765319824
 30
110.0
 11
88.98875427246094
 21
-8.858664512634277
 31
110.0
 12
88.93563842773438
 22
-8.975722312927246
 32
110.0
 13
88.93563842773438
 23
-8.975722312927246
 33
110.0
  0
3DFACE
  8
0
 10
89.6277084350586
 20
-8.026110649108887
 30
110.0
 11
89.42634582519531
 21
-8.252471923828125
 31
110.0
 12
89.39075469970703
 22
-8.342503547668457
 32
110.0
 13
89.39075469970703
 23
-8.342503547668457
 33
110.0
  0
3DFACE
  8
0
 10
89.32218170166016
 20
-8.453829765319824
 30
110.0
 11
88.93563842773438
 21
-8.975722312927246
 31
110.0
 12
87.51547241210938
 22
-11.585185050964355
 32
110.0
 13
87.51547241210938
 23
-11.585185050964355
 33
110.0
  0
3DFACE
  8
0
 10
89.6277084350586
 20
-8.026110649108887
 30
110.0
 11
89.39075469970703
 21
-8.342503547668457
 31
110.0
 12
89.32218170166016
 22
-8.453829765319824
 32
110.0
 13
89.32218170166016
 23
-8.453829765319824
 33
110.0
  0
3DFACE
  8
0
 10
89.9378890991211
 20
-7.720221519470215
 30
110.0
 11
89.82141876220703
 21
-7.816225051879883
 31
110.0
 12
89.6277084350586
 22
-8.026110649108887
 32
110.0
 13
89.6277084350586
 23
-8.026110649108887
 33
110.0
  0
3DFACE
  8
0
 10
90.17118072509766
 20
-7.41046667098999
 30
110.0
 11
90.16021728515625
 21
-7.420701503753662
 31
110.0
 12
90.14960479736328
 22
-7.43734884262085
 32
110.0
 13
90.14960479736328
 23
-7.43734884262085
 33
110.0
  0
3DFACE
  8
0
 10
89.9378890991211
 20
-7.720221519470215
 30
110.0
 11
89.6277084350586
 21
-8.026110649108887
 31
110.0
 12
89.32218170166016
 22
-8.453829765319824
 32
110.0
 13
89.32218170166016
 23
-8.453829765319824
 33
110.0
  0
3DFACE
  8
0
 10
90.17118072509766
 20
-7.41046667098999
 30
110.0
 11
90.14960479736328
 21
-7.43734884262085
 31
110.0
 12
89.9378890991211
 22
-7.720221519470215
 32
110.0
 13
89.9378890991211
 23
-7.720221519470215
 33
110.0
  0
3DFACE
  8
0
 10
91.43523406982422
 20
-6.589130401611328
 30
110.0
 11
91.08580780029297
 21
-6.384186744689941
 31
110.0
 12
90.2038803100586
 22
-7.373861312866211
 32
110.0
 13
90.2038803100586
 23
-7.373861312866211
 33
110.0
  0
3DFACE
  8
0
 10
90.2038803100586
 20
-7.373861312866211
 30
110.0
 11
90.17118072509766
 21
-7.41046667098999
 31
110.0
 12
89.9378890991211
 22
-7.720221519470215
 32
110.0
 13
89.9378890991211
 23
-7.720221519470215
 33
110.0
  0
3DFACE
  8
0
 10
89.9378890991211
 20
-7.720221519470215
 30
110.0
 11
89.32218170166016
 21
-8.453829765319824
 31
110.0
 12
87.51547241210938
 22
-11.585185050964355
 32
110.0
 13
87.51547241210938
 23
-11.585185050964355
 33
110.0
  0
3DFACE
  8
0
 10
89.9378890991211
 20
-7.720221519470215
 30
110.0
 11
87.51547241210938
 21
-11.585185050964355
 31
110.0
 12
87.34744262695312
 22
-11.90373420715332
 32
110.0
 13
87.34744262695312
 23
-11.90373420715332
 33
110.0
  0
3DFACE
  8
0
 10
91.43523406982422
 20
-6.589130401611328
 30
110.0
 11
90.2038803100586
 21
-7.373861312866211
 31
110.0
 12
89.9378890991211
 22
-7.720221519470215
 32
110.0
 13
89.9378890991211
 23
-7.720221519470215
 33
110.0
  0
3DFACE
  8
0
 10
82.74404907226562
 20
-19.45091438293457
 30
110.0
 11
82.32121276855469
 21
-19.96760368347168
 31
110.0
 12
81.53632354736328
 22
-23.810199737548828
 32
110.0
 13
81.53632354736328
 23
-23.810199737548828
 33
110.0
  0
3DFACE
  8
0
 10
83.17033386230469
 20
-18.908885955810547
 30
110.0
 11
82.74404907226562
 21
-19.45091438293457
 31
110.0
 12
81.53632354736328
 22
-23.810199737548828
 32
110.0
 13
81.53632354736328
 23
-23.810199737548828
 33
110.0
  0
3DFACE
  8
0
 10
81.53632354736328
 20
-23.810199737548828
 30
110.0
 11
91.43523406982422
 21
-6.589130401611328
 31
110.0
 12
89.9378890991211
 22
-7.720221519470215
 32
110.0
 13
89.9378890991211
 23
-7.720221519470215
 33
110.0
  0
3DFACE
  8
0
 10
89.9378890991211
 20
-7.720221519470215
 30
110.0
 11
87.34744262695312
 21
-11.90373420715332
 31
110.0
 12
86.78711700439453
 22
-12.956591606140137
 32
110.0
 13
86.78711700439453
 23
-12.956591606140137
 33
110.0
  0
3DFACE
  8
0
 10
89.9378890991211
 20
-7.720221519470215
 30
110.0
 11
86.78711700439453
 21
-12.956591606140137
 31
110.0
 12
85.66224670410156
 22
-15.017170906066895
 32
110.0
 13
85.66224670410156
 23
-15.017170906066895
 33
110.0
  0
3DFACE
  8
0
 10
83.6341781616211
 20
-18.308212280273438
 30
110.0
 11
83.17033386230469
 21
-18.908885955810547
 31
110.0
 12
81.53632354736328
 22
-23.810199737548828
 32
110.0
 13
81.53632354736328
 23
-23.810199737548828
 33
110.0
  0
3DFACE
  8
0
 10
83.76602935791016
 20
-18.119672775268555
 30
110.0
 11
83.6341781616211
 21
-18.308212280273438
 31
110.0
 12
81.53632354736328
 22
-23.810199737548828
 32
110.0
 13
81.53632354736328
 23
-23.810199737548828
 33
110.0
  0
3DFACE
  8
0
 10
81.53632354736328
 20
-23.810199737548828
 30
110.0
 11
89.9378890991211
 21
-7.720221519470215
 31
110.0
 12
85.66224670410156
 22
-15.017170906066895
 32
110.0
 13
85.66224670410156
 23
-15.017170906066895
 33
110.0
  0
3DFACE
  8
0
 10
81.53632354736328
 20
-23.810199737548828
 30
110.0
 11
85.66224670410156
 21
-15.017170906066895
 31
110.0
 12
85.2334213256836
 22
-15.77541732788086
 32
110.0
 13
85.2334213256836
 23
-15.77541732788086
 33
110.0
  0
3DFACE
  8
0
 10
84.05325317382812
 20
-17.701976776123047
 30
110.0
 11
83.76602935791016
 21
-18.119672775268555
 31
110.0
 12
81.53632354736328
 22
-23.810199737548828
 32
110.0
 13
81.53632354736328
 23
-23.810199737548828
 33
110.0
  0
3DFACE
  8
0
 10
84.40460968017578
 20
-17.168701171875
 30
110.0
 11
84.05325317382812
 21
-17.701976776123047
 31
110.0
 12
81.53632354736328
 22
-23.810199737548828
 32
110.0
 13
81.53632354736328
 23
-23.810199737548828
 33
110.0
  0
3DFACE
  8
0
 10
81.53632354736328
 20
-23.810199737548828
 30
110.0
 11
85.2334213256836
 21
-15.77541732788086
 31
110.0
 12
84.64315795898438
 22
-16.804113388061523
 32
110.0
 13
84.64315795898438
 23
-16.804113388061523
 33
110.0
  0
3DFACE
  8
0
 10
81.53632354736328
 20
-23.810199737548828
 30
110.0
 11
84.64315795898438
 21
-16.804113388061523
 31
110.0
 12
84.40460968017578
 22
-17.168701171875
 32
110.0
 13
84.40460968017578
 23
-17.168701171875
 33
110.0
  0
3DFACE
  8
0
 10
-41.69270324707031
 20
-84.44910430908203
 30
110.0
 11
-41.6855583190918
 21
-84.45716094970703
 31
110.0
 12
-41.940887451171875
 22
-84.63548278808594
 32
109.82610321044922
 13
-41.940887451171875
 23
-84.63548278808594
 33
109.82610321044922
  0
3DFACE
  8
0
 10
-81.23919677734375
 20
9.954595565795898
 30
109.96383666992188
 11
-81.31671905517578
 21
9.916006088256836
 31
110.0
 12
-81.20183563232422
 22
9.965849876403809
 32
110.0
 13
-81.20183563232422
 23
9.965849876403809
 33
110.0
  0
3DFACE
  8
0
 10
-61.5859489440918
 20
4.203912734985352
 30
109.93589782714844
 11
-61.58967208862305
 21
4.209347248077393
 31
110.0
 12
-61.586036682128906
 22
4.203004360198975
 32
110.0
 13
-61.586036682128906
 23
4.203004360198975
 33
110.0
  0
3DFACE
  8
0
 10
62.581119537353516
 20
-14.44182300567627
 30
110.0
 11
62.5762825012207
 21
-14.437338829040527
 31
109.98536682128906
 12
62.593589782714844
 22
-14.48254680633545
 32
110.0
 13
62.593589782714844
 23
-14.48254680633545
 33
110.0
  0
ENDSEC
  0
EOF
